<?xml version="1.0" standalone="no"?>
<!DOCTYPE svg PUBLIC "-//W3C//DTD SVG 1.1//EN" "http://www.w3.org/Graphics/SVG/1.1/DTD/svg11.dtd" >
<svg xmlns="http://www.w3.org/2000/svg">
<metadata>Generated by IcoMoon</metadata>
<defs>
<font id="pafw-icon" horiz-adv-x="1024">
<font-face units-per-em="1024" ascent="960" descent="-64" />
<missing-glyph horiz-adv-x="1024" />
<glyph unicode="&#x20;" horiz-adv-x="512" d="" />
<glyph unicode="&#x21;" glyph-name="icon-08" d="M947.2 883.2v-871.2h-870.4v871.2h870.4zM987.2 923.2h-950.4v-950.4h950.4v950.4z" />
<glyph unicode="&#x23;" glyph-name="icon-10" d="M36.8 923.2v-950.4h950.4v950.4h-950.4zM749.6 586.4l-310.4-310.4c-4.8-4.8-10.4-7.2-16.8-7.2s-12 2.4-16.8 7.2l-131.2 132c-9.6 9.6-9.6 24 0 33.6s24 9.6 33.6 0l115.2-115.2 293.6 293.6c9.6 9.6 24 9.6 33.6 0 8.8-9.6 8.8-24-0.8-33.6z" />
<glyph unicode="&#x24;" glyph-name="icon-11" d="M36.8 923.2v-950.4h950.4v950.4h-950.4zM947.2 12.8h-870.4v870.4h871.2v-870.4zM299.2 268.8l179.2 179.2-179.2 179.2c-9.6 9.6-9.6 24 0 33.6s24 9.6 33.6 0l179.2-179.2 179.2 179.2c9.6 9.6 24 9.6 33.6 0s9.6-24 0-33.6l-179.2-179.2 179.2-179.2c9.6-9.6 9.6-24 0-33.6-4.8-4.8-10.4-7.2-16.8-7.2s-12 2.4-16.8 7.2l-179.2 179.2-179.2-180c-4.8-4.8-10.4-7.2-16.8-7.2s-12 2.4-16.8 7.2c-9.6 9.6-9.6 24.8 0 34.4z" />
<glyph unicode="&#x25;" glyph-name="icon-12" d="M36.8 923.2v-950.4h950.4v950.4h-950.4zM725.6 268.8c9.6-9.6 9.6-24 0-33.6-4.8-4.8-10.4-7.2-16.8-7.2s-12 2.4-16.8 7.2l-180 179.2-179.2-180c-4.8-4.8-10.4-7.2-16.8-7.2s-12 2.4-16.8 7.2c-9.6 9.6-9.6 24 0 33.6l179.2 180-179.2 179.2c-9.6 9.6-9.6 24 0 33.6s24 9.6 33.6 0l179.2-179.2 179.2 179.2c9.6 9.6 24 9.6 33.6 0s9.6-24 0-33.6l-179.2-179.2 180-179.2z" />
<glyph unicode="&#x26;" glyph-name="icon-14" d="M637.6 639.2l66.4-65.6-54.4-53.6-65.6 65.6 53.6 53.6zM310.4 312.8l0.8-65.6 65.6-0.8 240 240-66.4 65.6-240-239.2zM987.2 923.2v-950.4h-950.4v950.4h950.4zM760.8 573.6c0 6.4-2.4 12-7.2 16.8l-99.2 100c-9.6 9.6-24 9.6-33.6 0l-87.2-87.2c0 0 0 0 0 0s0 0 0 0l-264-264c-4.8-4.8-7.2-10.4-7.2-16.8l0.8-99.2c0-12.8 10.4-23.2 24-24l99.2-0.8c0 0 0 0 0 0 6.4 0 12 2.4 16.8 7.2l351.2 351.2c4 4.8 6.4 10.4 6.4 16.8z" />
<glyph unicode="&#x2c;" glyph-name="icon-15" d="M708.8 68.8c4-8.8 0-20-8.8-24-59.2-27.2-122.4-41.6-188-41.6-245.6 0-445.6 200-445.6 445.6 0 112 42.4 219.2 116.8 300.8h-60.8c-10.4 0-18.4 8-18.4 18.4s8 18.4 18.4 18.4h105.6c0 0 0 0 0.8 0s1.6 0 2.4 0c0 0 0.8 0 0.8 0 0.8 0 1.6-0.8 3.2-0.8 0 0 0.8 0 0.8 0 2.4-0.8 4-2.4 5.6-4.8 0 0 0 0 0 0s0 0 0 0 0.8-0.8 0.8-0.8 0.8-1.6 1.6-2.4c0 0 0-0.8 0.8-0.8 0-0.8 0.8-1.6 0.8-2.4 0 0 0-0.8 0-1.6s0-1.6 0.8-2.4c0-0.8 0-0.8 0-1.6s0-1.6 0-2.4c0 0 0-0.8 0-0.8l-16-107.2c-1.6-8.8-8.8-16-18.4-16-0.8 0-1.6 0-2.4 0-10.4 1.6-16.8 10.4-15.2 20.8l8 52c-64-75.2-99.2-169.6-99.2-267.2 0-225.6 183.2-408.8 408.8-408.8 60 0 118.4 12.8 172.8 38.4 8.8 4 20 0 24-8.8zM901.6 147.2h-60.8c74.4 81.6 116.8 188.8 116.8 300.8 0 245.6-200 445.6-445.6 445.6-65.6 0-128.8-13.6-188-41.6-8.8-4-12.8-15.2-8.8-24s15.2-12.8 24-8.8c54.4 25.6 112 38.4 172.8 38.4 225.6 0 408.8-183.2 408.8-408.8 0-97.6-35.2-192-98.4-265.6l8 52c1.6 9.6-5.6 19.2-15.2 20.8-10.4 1.6-19.2-5.6-20.8-15.2l-16-107.2c0 0 0-0.8 0-0.8 0-0.8 0-1.6 0-2.4s0-0.8 0-1.6 0-1.6 0.8-2.4c0-0.8 0-0.8 0-1.6s0.8-1.6 0.8-2.4c0 0 0-0.8 0.8-0.8 0.8-0.8 0.8-1.6 1.6-2.4 0 0 0.8-0.8 0.8-0.8s0 0 0 0 0 0 0 0c0.8-0.8 0.8-0.8 1.6-1.6s0.8-0.8 1.6-1.6 1.6-0.8 2.4-1.6c0.8 0 0.8-0.8 1.6-0.8s1.6-0.8 2.4-0.8c0.8 0 0.8 0 1.6 0 1.6 0 2.4-0.8 4-0.8h105.6c10.4 0 18.4 8 18.4 18.4-2.4 9.6-11.2 17.6-20.8 17.6zM461.6 347.2c-2.4-8-8.8-12.8-16.8-13.6 0 0-0.8 0-0.8 0-8 0-14.4 4.8-16.8 12l-26.4 70.4h-5.6l-26.4-70.4c-2.4-7.2-9.6-12-16.8-12 0 0-0.8 0-0.8 0-8 0-14.4 5.6-16.8 13.6l-20 68.8h-24c-10.4 0-18.4 8-18.4 18.4s8 18.4 18.4 18.4h13.6l-5.6 18.4c-2.4 9.6 3.2 20 12.8 22.4s20-3.2 22.4-12.8l8-28.8h27.2l11.2 30.4c0 0 0 0 0 0.8s0.8 1.6 0.8 1.6c0 0 0.8 0.8 0.8 0.8 0.8 0.8 0.8 1.6 1.6 1.6 0 0 0.8 0.8 0.8 0.8 0.8 0.8 1.6 0.8 1.6 1.6 0 0 0.8 0 0.8 0.8 0.8 0.8 1.6 0.8 2.4 1.6 0 0 0.8 0 0.8 0.8 0 0 0.8 0 0.8 0 0.8 0 0.8 0 1.6 0s0.8 0 1.6 0 1.6 0 1.6 0 0.8 0 1.6 0 0.8 0 1.6 0 1.6 0 1.6 0 0.8 0 1.6 0 0.8 0 1.6 0c0 0 0.8 0 0.8 0 0.8 0 0.8-0.8 1.6-0.8s1.6-0.8 1.6-0.8c0 0 0.8-0.8 0.8-0.8 0.8-0.8 0.8-0.8 1.6-1.6 0 0 0.8-0.8 0.8-0.8 0.8-0.8 0.8-0.8 1.6-1.6 0-0.8 0.8-0.8 0.8-1.6s0.8-1.6 0.8-1.6c0 0 0 0 0-0.8l11.2-30.4h27.2l8 28.8c2.4 9.6 12.8 15.2 22.4 12.8s15.2-12.8 12.8-22.4l-5.6-18.4h13.6c10.4 0 18.4-8 18.4-18.4s-8-18.4-18.4-18.4h-24l-17.6-68.8zM356 416h-4l1.6-5.6 2.4 5.6zM441.6 411.2l1.6 5.6h-3.2l1.6-5.6zM754.4 663.2v-66.4c0-7.2-2.4-14.4-6.4-20.8 4-5.6 6.4-12.8 6.4-20.8v-66.4c0-7.2-2.4-14.4-6.4-20.8 4-5.6 6.4-12.8 6.4-20.8v-66.4c0-7.2-2.4-14.4-6.4-20.8 4-5.6 6.4-12.8 6.4-20.8v-66.4c0-21.6-17.6-39.2-39.2-39.2h-223.2c-3.2 0-6.4 0.8-9.6 1.6-25.6-12-54.4-18.4-84.8-18.4-112.8 0-204.8 92-204.8 204.8s92 204.8 204.8 204.8c19.2 0 37.6-2.4 55.2-8v42.4c0 21.6 17.6 39.2 39.2 39.2h223.2c21.6 1.6 39.2-16 39.2-36.8zM491.2 605.6c3.2-1.6 5.6-3.2 8.8-4.8 0.8 0 0.8-0.8 1.6-0.8 3.2-1.6 6.4-4 9.6-5.6h204.8c1.6 0 2.4 0.8 2.4 2.4v66.4c0 1.6-0.8 2.4-2.4 2.4h-224c-1.6 0-2.4-0.8-2.4-2.4v-56.8c0.8 0 0.8-0.8 1.6-0.8zM715.2 557.6h-163.2c17.6-20.8 32-44.8 40-71.2h123.2c1.6 0 2.4 0.8 2.4 2.4v66.4c0 1.6-0.8 2.4-2.4 2.4zM715.2 450.4h-114.4c0.8-4 0.8-8.8 1.6-13.6 0 0 0-0.8 0-0.8 0-4 0.8-8.8 0.8-12.8s0-7.2 0-11.2c0 0 0 0 0 0-0.8-11.2-2.4-22.4-4.8-32.8h117.6c1.6 0 2.4 0.8 2.4 2.4v66.4c-0.8 0.8-1.6 2.4-3.2 2.4zM397.6 255.2c27.2 0 52.8 6.4 76 18.4 4 2.4 8 4.8 12 7.2 0.8 0.8 1.6 0.8 2.4 1.6 3.2 2.4 7.2 4.8 10.4 7.2 0.8 0.8 2.4 1.6 3.2 2.4 3.2 2.4 5.6 4.8 8 7.2 1.6 1.6 3.2 2.4 4 4 2.4 2.4 4.8 4.8 7.2 7.2 1.6 1.6 3.2 3.2 4 4.8 2.4 2.4 4 5.6 6.4 8 0.8 1.6 2.4 3.2 3.2 4 2.4 3.2 4 6.4 6.4 9.6 0.8 0.8 1.6 2.4 1.6 3.2 2.4 4 4 8 6.4 12 0 0.8 0.8 0.8 0.8 1.6 2.4 4.8 4 9.6 5.6 14.4 0 0 0 0.8 0 0.8 1.6 4 2.4 8 4 12 0 0.8 0.8 1.6 0.8 2.4 0.8 3.2 1.6 7.2 2.4 11.2 0 2.4 0.8 4 0.8 6.4s0.8 5.6 0.8 8c0.8 4.8 0.8 10.4 0.8 15.2s0 9.6-0.8 13.6c0 1.6 0 4-0.8 5.6 0 1.6 0 2.4-0.8 4-0.8 5.6-1.6 11.2-3.2 17.6 0 0 0 0 0 0-8.8 33.6-27.2 64-52.8 86.4-0.8 0.8-0.8 0.8-1.6 1.6-3.2 2.4-5.6 4.8-8.8 7.2-0.8 0.8-2.4 1.6-3.2 2.4-4 2.4-8 4.8-12 7.2-0.8 0.8-1.6 0.8-2.4 1.6-4 2.4-8 4-12 6.4-20.8 9.6-44.8 15.2-69.6 15.2-92.8 0-168-75.2-168-168 0.8-94.4 76-169.6 168.8-169.6zM717.6 340.8c0 1.6-0.8 2.4-2.4 2.4h-128.8c-5.6-13.6-12.8-25.6-20.8-37.6 0-0.8-0.8-0.8-0.8-1.6-1.6-2.4-3.2-4-4.8-6.4-0.8-0.8-1.6-1.6-1.6-2.4-1.6-1.6-3.2-4-4.8-5.6-0.8-0.8-1.6-1.6-2.4-2.4-1.6-1.6-3.2-3.2-4.8-5.6-0.8-0.8-1.6-1.6-2.4-2.4-2.4-2.4-4.8-4.8-7.2-7.2h178.4c1.6 0 2.4 0.8 2.4 2.4v66.4z" />
<glyph unicode="&#x2e;" glyph-name="icon-16" d="M419.2 662.4c-10.4 0-18.4 8-18.4 18.4s8 18.4 18.4 18.4h8.8l-4 13.6c-2.4 9.6 3.2 20 12.8 22.4s20-3.2 22.4-12.8l6.4-24h20.8l9.6 24.8c0 0 0 0 0 0.8s0.8 1.6 0.8 1.6c0 0.8 0.8 0.8 0.8 1.6 0.8 0.8 0.8 1.6 1.6 1.6 0 0 0.8 0.8 0.8 0.8 0.8 0.8 0.8 0.8 1.6 1.6 0 0 0.8 0.8 0.8 0.8 0.8 0.8 1.6 0.8 2.4 0.8 0 0 0.8 0 0.8 0.8 0 0 0.8 0 0.8 0 0.8 0 0.8 0 1.6 0s0.8 0 1.6 0 1.6 0 1.6 0 0.8 0 1.6 0 0.8 0 1.6 0 1.6 0 1.6 0 0.8 0 1.6 0 0.8 0 1.6 0c0 0 0.8 0 0.8 0 0.8 0 0.8-0.8 1.6-0.8s1.6-0.8 1.6-0.8c0 0 0.8-0.8 0.8-0.8 0.8-0.8 0.8-0.8 1.6-1.6 0 0 0.8-0.8 0.8-0.8 0.8-0.8 0.8-0.8 1.6-1.6 0-0.8 0.8-0.8 0.8-1.6s0.8-1.6 0.8-1.6c0 0 0 0 0-0.8l9.6-24.8h20.8l6.4 24c2.4 9.6 12.8 15.2 22.4 12.8s15.2-12.8 12.8-22.4l-1.6-14.4h8.8c10.4 0 18.4-8 18.4-18.4s-8-18.4-18.4-18.4h-19.2l-16.8-59.2c-2.4-8-8.8-12.8-16.8-13.6 0 0-0.8 0-0.8 0-8 0-14.4 4.8-16.8 12l-22.4 60.8h-2.4l-22.4-60.8c-2.4-7.2-9.6-12-16.8-12 0 0-0.8 0-0.8 0-8 0-14.4 5.6-16.8 13.6l-16.8 59.2h-20.8zM331.2 670.4c0 100.8 82.4 183.2 183.2 183.2s183.2-82.4 183.2-183.2c0-100.8-82.4-183.2-183.2-183.2-101.6 0-183.2 82.4-183.2 183.2zM367.2 670.4c0-80.8 65.6-146.4 146.4-146.4s146.4 65.6 146.4 146.4c0 80.8-65.6 146.4-146.4 146.4-80 0-146.4-65.6-146.4-146.4zM1022.4 352c-4-16.8-16.8-30.4-39.2-42.4-15.2-7.2-363.2-184.8-434.4-209.6-28.8-10.4-53.6-14.4-76-14.4-40.8 0-72 12.8-96.8 26.4-39.2 20.8-63.2 29.6-82.4 29.6h-84v-80.8c0-10.4-8-18.4-18.4-18.4h-172.8c-10.4 0-18.4 8-18.4 18.4v444.8c0 10.4 8 18.4 18.4 18.4h172.8c10.4 0 18.4-8 18.4-18.4v-48.8h76c42.4 0 67.2-13.6 90.4-27.2 14.4-8.8 28.8-16.8 48-20.8 25.6-6.4 58.4 3.2 99.2 14.4 32.8 9.6 69.6 20 113.6 26.4 35.2 4.8 64-1.6 87.2-20 6.4-4.8 11.2-10.4 16-16 27.2 10.4 88 32.8 119.2 43.2 46.4 15.2 108 9.6 141.6-36.8 13.6-20.8 28-44 21.6-68zM172.8 487.2h-136v-408h136v408zM970.4 397.6c-22.4 31.2-68 34.4-100 23.2-28-9.6-83.2-29.6-112-40.8 8.8-21.6 10.4-39.2 10.4-40.8 0.8-8-4-15.2-11.2-18.4l-233.6-98.4c-2.4-0.8-4.8-1.6-7.2-1.6-7.2 0-13.6 4-16.8 11.2-4 9.6 0.8 20 9.6 24l220.8 93.6c-3.2 14.4-12 36.8-29.6 51.2-15.2 12-35.2 16-59.2 12.8-42.4-5.6-77.6-16-108.8-24.8-45.6-12.8-82.4-23.2-117.6-15.2-24 5.6-42.4 16-57.6 24.8-20.8 12-39.2 22.4-72 22.4h-76v-242.4h84c25.6 0 54.4-9.6 99.2-33.6 33.6-18.4 77.6-33.6 143.2-9.6 69.6 24.8 426.4 206.4 430.4 208 8.8 4 19.2 11.2 20.8 18.4 1.6 6.4-4 19.2-16.8 36zM104.8 221.6c-20 0-36-16-36-36s16-36 36-36c20 0 36 16 36 36s-16 36-36 36z" />
<glyph unicode="&#x2f;" glyph-name="icon-17" horiz-adv-x="1032" d="M1008.68 405.266c-33.865 47.572-95.95 52.409-142.715 37.090-31.446-10.482-92.724-33.058-120.139-43.54-4.838 5.644-9.676 11.288-16.126 16.126-23.383 18.545-53.216 25.802-87.887 20.157-45.153-6.45-82.243-16.932-114.494-26.608-41.121-12.094-73.373-20.964-99.981-14.513-19.351 4.838-33.865 12.901-48.378 20.964-24.189 14.513-48.378 29.027-91.918 29.027h-76.598v48.378c0 10.482-8.063 18.545-18.545 18.545h-173.354c-10.482 0-18.545-8.063-18.545-18.545v-448.302c0-10.482 8.063-18.545 18.545-18.545h174.161c10.482 0 18.545 8.063 18.545 18.545v81.436h84.661c19.351 0 43.54-8.869 82.243-29.833 24.995-12.901 56.441-26.608 97.562-26.608 22.576 0 48.378 4.031 76.598 14.513 71.761 25.802 423.307 203.994 437.82 211.25 22.576 12.094 35.477 25.802 39.509 42.734 6.45 24.995-7.257 48.378-20.964 67.729zM174.161 62.589h-137.071v411.213h137.071v-411.213zM994.973 346.406c-1.613-7.257-12.094-13.707-20.964-18.545-3.225-1.613-363.641-184.643-433.789-209.638-66.117-23.383-110.463-8.063-144.328 9.676-45.153 24.189-74.18 33.865-99.981 33.865h-84.661v245.115h76.598c33.058 0 51.603-10.482 72.567-22.576 16.126-8.869 33.865-19.351 58.054-24.995 35.477-8.869 72.567 1.613 118.526 15.32 31.446 8.869 67.729 19.351 109.657 24.995 24.189 3.225 44.346-0.806 59.666-12.901 18.545-14.513 26.608-37.090 29.833-51.603l-222.539-93.531c-9.676-4.031-13.707-14.513-9.676-24.189 3.225-7.257 9.676-11.288 16.932-11.288 2.419 0 4.838 0.806 7.257 1.613l236.246 99.175c7.257 3.225 12.094 10.482 11.288 18.545 0 1.613-1.613 19.351-10.482 41.121 29.027 11.288 84.661 31.446 112.882 41.121 32.252 10.482 78.211 8.063 100.787-23.383 12.094-17.739 17.739-30.639 16.126-37.896zM141.909 169.827c0-20.157-16.126-36.283-36.283-36.283s-36.283 16.126-36.283 36.283c0 20.157 16.126 36.283 36.283 36.283s36.283-16.126 36.283-36.283zM510.387 448.806c0.806 0 0.806 0 1.613-0.806 0.806 0 0.806 0 0.806 0 1.613 0 3.225-0.806 4.838-0.806 0 0 0 0 0 0s0 0 0 0c1.613 0 3.225 0 4.838 0.806 0.806 0 0.806 0 0.806 0 0.806 0 0.806 0 1.613 0.806 8.063 4.031 199.962 92.724 199.962 303.975 0 7.257-4.838 14.513-11.288 16.932-2.419 0.806-57.247 24.189-57.247 81.436 0 10.482-8.063 18.545-18.545 18.545h-240.277c-10.482 0-18.545-8.063-18.545-18.545 0-57.247-54.828-80.63-57.247-81.436-7.257-3.225-11.288-9.676-11.288-16.932 0-210.444 191.899-299.943 199.962-303.975zM414.438 833.411h206.413c8.063-51.603 47.572-79.824 67.729-91.112-5.644-159.647-137.071-237.858-170.935-255.597-33.865 17.739-164.485 95.95-170.935 255.597 20.964 10.482 60.472 38.702 67.729 91.112zM509.581 518.148c0.806 0 1.613-0.806 2.419-0.806s0.806 0 1.613-0.806c1.613 0 3.225-0.806 4.838-0.806 0 0 0 0 0 0s0 0 0 0c1.613 0 3.225 0 4.838 0.806 0.806 0 0.806 0 1.613 0.806 0.806 0 1.613 0.806 2.419 0.806 5.644 2.419 129.814 66.117 137.877 203.994 0 7.257-4.031 14.513-10.482 17.739-1.613 0.806-31.446 16.126-43.54 59.666-2.419 8.063-9.676 13.707-17.739 13.707h-148.359c-8.063 0-15.32-5.644-17.739-13.707-12.094-43.54-42.734-58.86-43.54-59.666-6.45-3.225-10.482-10.482-10.482-17.739 6.45-137.877 131.427-201.575 136.265-203.994zM457.172 775.357h120.945c12.901-33.865 34.671-53.216 47.572-62.085-10.482-90.306-83.049-142.715-108.044-157.228-24.995 15.32-98.369 66.923-108.044 157.228 13.707 8.869 34.671 28.22 47.572 62.085zM493.455 629.417l-25.802 25.802c-7.257 7.257-7.257 18.545 0 25.802s18.545 7.257 25.802 0l10.482-10.482 37.090 51.603c5.644 8.063 17.739 10.482 25.802 4.031 8.063-5.644 10.482-17.739 4.031-25.802l-49.184-69.342c-3.225-4.031-8.063-7.257-13.707-8.063-0.806 0-0.806 0-1.613 0-4.838 0.806-9.676 3.225-12.901 6.45z" />
<glyph unicode="&#x31;" glyph-name="icon-01" d="M512 920c260.8 0 472-212 472-472s-212-472-472-472c-260.8 0-472 211.2-472 472s211.2 472 472 472zM512 960v0c-282.4 0-512-229.6-512-512v0c0-282.4 229.6-512 512-512v0c282.4 0 512 229.6 512 512v0c0 282.4-229.6 512-512 512v0z" />
<glyph unicode="&#x32;" glyph-name="icon-02" d="M512 960v0c-282.4 0-512-229.6-512-512v0c0-282.4 229.6-512 512-512v0c282.4 0 512 229.6 512 512v0c0 282.4-229.6 512-512 512zM512-24c-260.8 0-472 211.2-472 472s211.2 472 472 472c260.8 0 472-212 472-472s-211.2-472-472-472zM749.6 620c9.6-9.6 9.6-24 0-33.6l-310.4-310.4c-4.8-4.8-10.4-7.2-16.8-7.2s-12 2.4-16.8 7.2l-131.2 132c-9.6 9.6-9.6 24 0 33.6s24 9.6 33.6 0l115.2-115.2 293.6 293.6c8.8 9.6 24 9.6 32.8 0z" />
<glyph unicode="&#x33;" glyph-name="icon-0332" d="M512 960c-282.4 0-512-229.6-512-512v0c0-282.4 229.6-512 512-512s512 229.6 512 512v0c0 282.4-229.6 512-512 512zM749.6 586.4l-310.4-310.4c-4.8-4.8-10.4-7.2-16.8-7.2s-12 2.4-16.8 7.2l-131.2 132c-9.6 9.6-9.6 24 0 33.6s24 9.6 33.6 0l115.2-115.2 293.6 293.6c9.6 9.6 24 9.6 33.6 0s8.8-24-0.8-33.6z" />
<glyph unicode="&#x34;" glyph-name="icon-04" d="M512 960v0c-282.4 0-512-229.6-512-512v0c0-282.4 229.6-512 512-512v0c282.4 0 512 229.6 512 512v0c0 282.4-229.6 512-512 512zM512-24c-260.8 0-472 211.2-472 472s211.2 472 472 472c260.8 0 472-212 472-472s-211.2-472-472-472zM724.8 627.2l-179.2-179.2 179.2-179.2c9.6-9.6 9.6-24 0-33.6-4.8-4.8-10.4-7.2-16.8-7.2s-12 2.4-16.8 7.2l-179.2 179.2-179.2-180c-4.8-4.8-10.4-7.2-16.8-7.2s-12 2.4-16.8 7.2c-9.6 9.6-9.6 24 0 33.6l179.2 180-180 179.2c-9.6 9.6-9.6 24 0 33.6s24 9.6 33.6 0l180-179.2 179.2 179.2c9.6 9.6 24 9.6 33.6 0 9.6-8.8 9.6-24 0-33.6z" />
<glyph unicode="&#x35;" glyph-name="icon-05" d="M512 960v0c-282.4 0-512-229.6-512-512v0c0-282.4 229.6-512 512-512v0c282.4 0 512 229.6 512 512v0c0 282.4-229.6 512-512 512zM724.8 268.8c9.6-9.6 9.6-24 0-33.6-4.8-4.8-10.4-7.2-16.8-7.2s-12 2.4-16.8 7.2l-179.2 179.2-179.2-180c-4.8-4.8-10.4-7.2-16.8-7.2s-12 2.4-16.8 7.2c-9.6 9.6-9.6 24 0 33.6l179.2 180-180 179.2c-9.6 9.6-9.6 24 0 33.6s24 9.6 33.6 0l180-179.2 179.2 179.2c9.6 9.6 24 9.6 33.6 0s9.6-24 0-33.6l-179.2-179.2 179.2-179.2z" />
<glyph unicode="&#x36;" glyph-name="icon-06" d="M512 960c-282.4 0-512-229.6-512-512v0c0-282.4 229.6-512 512-512s512 229.6 512 512v0c0 282.4-229.6 512-512 512zM512-24c-260.8 0-472 211.2-472 472s211.2 472 472 472 472-212 472-472-211.2-472-472-472zM654.4 690.4c-4.8 4.8-10.4 7.2-16.8 7.2s-12-2.4-16.8-7.2l-351.2-351.2c-4.8-4.8-7.2-10.4-7.2-16.8l0.8-99.2c0-12.8 10.4-23.2 24-24l99.2-0.8c0 0 0 0 0 0 6.4 0 12 2.4 16.8 7.2l263.2 263.2c0 0 0 0 0 0s0 0 0 0l87.2 87.2c9.6 9.6 9.6 24 0 33.6l-99.2 100.8zM376.8 246.4l-65.6 0.8-0.8 65.6 240 240 65.6-66.4-239.2-240zM649.6 520l-65.6 66.4 53.6 53.6 65.6-66.4-53.6-53.6z" />
<glyph unicode="&#x37;" glyph-name="icon-07" d="M550.4 552l65.6-66.4-240-240-65.6 0.8-0.8 65.6 240.8 240zM584 585.6l65.6-66.4 53.6 53.6-65.6 67.2-53.6-54.4zM1024 448v0c0-282.4-229.6-512-512-512s-512 229.6-512 512v0c0 282.4 229.6 512 512 512s512-229.6 512-512zM754.4 590.4l-100 100c-4.8 4.8-10.4 7.2-16.8 7.2s-12-2.4-16.8-7.2l-351.2-351.2c-4.8-4.8-7.2-10.4-7.2-16.8l0.8-99.2c0-12.8 10.4-23.2 24-24l99.2-0.8c0 0 0 0 0 0 6.4 0 12 2.4 16.8 7.2l263.2 263.2c0 0 0 0 0 0s0 0 0 0l87.2 87.2c9.6 10.4 9.6 24.8 0.8 34.4z" />
<glyph unicode="&#x3b;" glyph-name="icon-39" d="M824 699.2h-734.4c-49.6 0-89.6-40-89.6-89.6v-432.8c0-49.6 40-89.6 89.6-89.6h734.4c49.6 0 89.6 40 89.6 89.6v432.8c0.8 49.6-40 89.6-89.6 89.6zM36.8 544h840.8v-80h-840.8v80zM89.6 662.4h734.4c29.6 0 52.8-24 52.8-52.8v-28.8h-840v28.8c0 29.6 24 52.8 52.8 52.8zM824 123.2h-734.4c-29.6 0-52.8 24-52.8 52.8v252h840.8v-251.2c0-29.6-24-53.6-53.6-53.6zM725.6 346.4c-23.2 0-44-10.4-58.4-27.2-14.4 16.8-35.2 27.2-58.4 27.2-42.4 0-76-34.4-76-76s34.4-76 76-76c23.2 0 44 10.4 58.4 27.2 14.4-16.8 35.2-27.2 58.4-27.2 42.4 0 76 34.4 76 76s-33.6 76-76 76zM609.6 230.4c-21.6 0-40 17.6-40 40s17.6 40 40 40 40-17.6 40-40-18.4-40-40-40zM725.6 230.4c-21.6 0-40 17.6-40 40s17.6 40 40 40c21.6 0 40-17.6 40-40s-18.4-40-40-40zM1024 719.2v-432.8c0-32-16.8-61.6-44.8-77.6-3.2-1.6-6.4-2.4-8.8-2.4-6.4 0-12.8 3.2-16 8.8-4.8 8.8-2.4 20 6.4 24.8 16 9.6 26.4 27.2 26.4 46.4v432.8c0 29.6-24 52.8-52.8 52.8h-734.4c-17.6 0-34.4-8.8-44-23.2-3.2-5.6-9.6-8-15.2-8-3.2 0-7.2 0.8-10.4 3.2-8 5.6-10.4 16.8-4.8 25.6 16.8 24.8 44.8 39.2 74.4 39.2h734.4c49.6 0.8 89.6-40 89.6-89.6z" />
<glyph unicode="&#x40;" glyph-name="icon-09" d="M947.2 883.2v-871.2h-870.4v871.2h870.4zM987.2 923.2h-950.4v-950.4h950.4v950.4zM439.2 276l310.4 310.4c9.6 9.6 9.6 24 0 33.6s-24 9.6-33.6 0l-293.6-293.6-114.4 115.2c-9.6 9.6-24 9.6-33.6 0s-9.6-24 0-33.6l132-132c4.8-4.8 10.4-7.2 16.8-7.2 5.6 0 12 2.4 16 7.2z" />
<glyph unicode="&#x41;" glyph-name="icon-47" d="M256.8 678.4c3.2 0 6.4-3.2 6.4-6.4s-3.2-6.4-6.4-6.4h-39.2c-3.2 0-6.4 3.2-6.4 6.4s3.2 6.4 6.4 6.4h39.2zM358.4 616.8c12-1.6 24-5.6 35.2-10.4v74.4c0 29.6-24 53.6-53.6 53.6h-205.6c-29.6 0-53.6-24-53.6-53.6v-464.8c0-29.6 24-53.6 53.6-53.6h204.8c29.6 0 53.6 24 53.6 53.6v68.8c-11.2-4.8-22.4-8-35.2-10.4v-59.2c0-10.4-8.8-18.4-18.4-18.4h-204.8c-10.4 0-18.4 8-18.4 18.4v465.6c0 10.4 8 18.4 18.4 18.4h204.8c10.4 0 18.4-8 18.4-18.4l0.8-64c0 0 0 0 0 0zM544 586.4l-57.6-53.6h54.4v-228h60v281.6h-56.8zM480 445.6c0-79.2-64-143.2-143.2-143.2s-143.2 64-143.2 143.2c0 79.2 64 143.2 143.2 143.2s143.2-64 143.2-143.2zM422.4 445.6c0 47.2-38.4 86.4-86.4 86.4s-86.4-38.4-86.4-86.4c0-48 38.4-86.4 86.4-86.4s86.4 38.4 86.4 86.4zM943.2 445.6c0-79.2-64-143.2-143.2-143.2s-143.2 64-143.2 143.2c0 79.2 64 143.2 143.2 143.2s143.2-64 143.2-143.2zM885.6 445.6c0 47.2-38.4 86.4-86.4 86.4s-86.4-38.4-86.4-86.4c0-48 38.4-86.4 86.4-86.4s86.4 38.4 86.4 86.4z" />
<glyph unicode="&#x42;" glyph-name="icon-501" d="M236.8 12c-2.4 0-4.8 0.8-7.2 1.6-5.6 2.4-8.8 8.8-8.8 14.4v85.6c-94.4 8-168 88-168 184v401.6c0 101.6 83.2 184.8 184.8 184.8h550.4c101.6 0 184.8-83.2 184.8-184.8v-401.6c0-101.6-83.2-184.8-184.8-184.8h-408.8l-132.8-97.6c-3.2-2.4-6.4-3.2-9.6-3.2zM236.8 851.2c-84 0-152-68-152-152v-401.6c0-84 68-152 152-152 8.8 0 16-7.2 16-16v-68.8l110.4 81.6c3.2 2.4 6.4 3.2 9.6 3.2h413.6c84 0 152 68 152 152v401.6c0 84-68 152-152 152h-549.6zM653.6 244.8c-8 0-15.2 2.4-22.4 7.2l-116.8 84.8c-1.6 1.6-4 1.6-5.6 0l-116.8-84.8c-13.6-9.6-30.4-9.6-44 0s-18.4 26.4-13.6 41.6l44.8 137.6c0.8 1.6 0 4-1.6 5.6l-116.8 84.8c-13.6 9.6-18.4 26.4-13.6 41.6 4.8 16 19.2 25.6 36 25.6h144.8c2.4 0 4 1.6 4.8 3.2l44.8 137.6c4.8 16 19.2 25.6 36 25.6s30.4-10.4 36-25.6c0 0 0 0 0 0l42.4-136.8c0.8-1.6 2.4-3.2 4.8-3.2h144.8c16.8 0 30.4-10.4 36-25.6 4.8-16 0-32-13.6-41.6l-117.6-85.6c-1.6-1.6-2.4-3.2-1.6-5.6l44.8-137.6c4.8-16 0-32-13.6-41.6-7.2-4.8-14.4-7.2-22.4-7.2zM512 370.4c8 0 15.2-2.4 22.4-7.2l116.8-84.8c1.6-1.6 4-1.6 5.6 0s2.4 3.2 1.6 5.6l-44.8 137.6c-4.8 15.2 0.8 32 13.6 41.6l116.8 84.8c1.6 1.6 2.4 3.2 1.6 5.6s-2.4 3.2-4.8 3.2h-144c-16 0-30.4 10.4-36 25.6l-44 137.6c-0.8 2.4-2.4 3.2-4.8 3.2s-4-0.8-4.8-3.2l-44.8-137.6c-4.8-15.2-19.2-25.6-36-25.6h-144c-2.4 0-4-0.8-4.8-3.2s0-4 1.6-5.6l116.8-84.8c12.8-9.6 18.4-26.4 13.6-41.6l-44.8-137.6c-0.8-2.4 0-4 1.6-5.6s4-1.6 5.6 0l116.8 84.8c8 4.8 15.2 7.2 23.2 7.2z" />
<glyph unicode="&#x43;" glyph-name="icon-49" d="M1014.4 533.6c18.4 17.6 8 48-16.8 52l-300.8 44c-9.6 1.6-18.4 8-23.2 16.8l-133.6 273.6c-5.6 11.2-16.8 16.8-27.2 16.8-11.2 0-21.6-5.6-27.2-16.8l-135.2-272.8c-4.8-8.8-12.8-15.2-23.2-16.8l-300.8-43.2c-24.8-3.2-35.2-34.4-16.8-52l217.6-212.8c7.2-7.2 10.4-16.8 8.8-27.2l-52-299.2c-3.2-20 12-36 29.6-36 4.8 0 9.6 0.8 14.4 3.2l269.6 141.6c4.8 2.4 9.6 3.2 14.4 3.2s9.6-0.8 14.4-3.2l268.8-141.6c4.8-2.4 9.6-3.2 14.4-3.2 17.6 0 33.6 16 29.6 35.2l-51.2 300c-1.6 9.6 1.6 20 8.8 27.2l217.6 211.2zM748.8 73.6l-236.8 128-236.8-127.2 48 264.8-194.4 184.8 266.4 36 116.8 242.4 116.8-242.4 266.4-36-194.4-185.6 48-264.8z" />
<glyph unicode="&#x44;" glyph-name="icon-50" d="M696.8 631.2l300.8-44c24.8-4 35.2-34.4 16.8-52l-217.6-212c-7.2-7.2-10.4-16.8-8.8-27.2l51.2-300c4-24.8-21.6-44-44-32l-268.8 141.6c-8.8 4.8-19.2 4.8-28 0l-269.6-141.6c-22.4-12-48 7.2-44 32l52 300c1.6 9.6-1.6 20-8.8 27.2l-219.2 212.8c-18.4 17.6-8 48 16.8 52l301.6 44c9.6 1.6 18.4 8 23.2 16.8l134.4 272c11.2 22.4 43.2 22.4 54.4 0l135.2-272.8c4-8.8 12.8-15.2 22.4-16.8z" />
<glyph unicode="&#x5b;" glyph-name="icon-28" d="M340.8 545.6h45.6l33.6-117.6c2.4-8 8.8-12.8 16.8-13.6 0 0 0.8 0 0.8 0 8 0 14.4 4.8 16.8 12l44 119.2h24l45.6-119.2c2.4-7.2 9.6-12 16.8-12 0 0 0.8 0 0.8 0 8 0 14.4 5.6 16.8 13.6l33.6 117.6h46.4c10.4 0 18.4 8 18.4 18.4s-8 18.4-18.4 18.4h-36l12 43.2c2.4 9.6-3.2 20-12.8 22.4s-20-3.2-22.4-12.8l-15.2-53.6h-59.2l-20.8 55.2c0 0 0 0 0 0.8s-0.8 0.8-0.8 1.6c0 0.8-0.8 0.8-0.8 1.6s-0.8 0.8-0.8 1.6c0 0.8-0.8 0.8-0.8 1.6-0.8 0.8-0.8 0.8-1.6 0.8s-0.8 0.8-1.6 0.8c-0.8 0-0.8 0.8-1.6 0.8s-0.8 0.8-1.6 0.8c0 0 0 0-0.8 0 0 0-0.8 0-0.8 0-0.8 0-1.6 0-1.6 0.8-0.8 0-0.8 0-1.6 0s-1.6 0-1.6 0-0.8 0-1.6 0-1.6 0-1.6 0-0.8 0-1.6 0-0.8 0-1.6 0c0 0-0.8 0-0.8 0-0.8 0-0.8 0-1.6-0.8-0.8 0-1.6-0.8-2.4-0.8 0 0-0.8-0.8-0.8-0.8-0.8-0.8-1.6-0.8-1.6-1.6 0 0-0.8-0.8-0.8-0.8-0.8-0.8-0.8-0.8-1.6-1.6 0 0-0.8-0.8-0.8-1.6s-0.8-1.6-0.8-1.6c0 0 0 0 0-0.8l-20.8-55.2h-59.2l-15.2 53.6c-2.4 9.6-12.8 15.2-22.4 12.8s-15.2-12.8-12.8-22.4l12-43.2h-35.2c-10.4 0-18.4-8-18.4-18.4 0.8-11.2 8.8-19.2 18.4-19.2zM598.4 545.6l-15.2-53.6-20 53.6h35.2zM460.8 545.6l-20-53.6-15.2 53.6h35.2zM882.4 194.4c29.6 0 53.6 24 53.6 53.6v508.8c0 29.6-24 53.6-53.6 53.6h-740.8c-29.6 0-53.6-24-53.6-53.6v-508.8c0-29.6 24-53.6 53.6-53.6h247.2v-72.8h-53.6c-10.4 0-18.4-8-18.4-18.4s8-18.4 18.4-18.4h348c10.4 0 18.4 8 18.4 18.4s-8 18.4-18.4 18.4h-53.6v72.8h252.8zM141.6 773.6h740c9.6 0 16.8-8 16.8-16.8v-423.2h-773.6v423.2c0 9.6 8 16.8 16.8 16.8zM124.8 248v48.8h774.4v-48.8c0-9.6-8-16.8-16.8-16.8h-740.8c-8.8 0-16.8 8-16.8 16.8zM592.8 122.4h-167.2v72.8h167.2v-72.8z" />
<glyph unicode="&#x5d;" glyph-name="icon-29" d="M278.4 110.4h468c10.4 0 18.4 8 18.4 18.4v272.8h185.6c10.4 0 18.4 8 18.4 18.4v347.2c0 10.4-8 18.4-18.4 18.4h-876c-10.4 0-18.4-8-18.4-18.4v-347.2c0-10.4 8-18.4 18.4-18.4h185.6v-272.8c0-10.4 8-18.4 18.4-18.4zM727.2 147.2h-430.4v382.4h431.2v-382.4zM92 438.4v310.4h839.2v-311.2h-167.2v92h20.8c10.4 0 18.4 8 18.4 18.4s-8 18.4-18.4 18.4h-545.6c-10.4 0-18.4-8-18.4-18.4s8-18.4 18.4-18.4h20.8v-91.2h-168zM632.8 356.8h-18.4l6.4 24c2.4 9.6-3.2 20-12.8 22.4s-20-3.2-22.4-12.8l-9.6-33.6h-34.4l-12.8 35.2c0 0 0 0 0 0.8s-0.8 0.8-0.8 1.6c0 0.8-0.8 0.8-0.8 1.6s-0.8 0.8-0.8 1.6c0 0.8-0.8 0.8-0.8 1.6-0.8 0.8-0.8 0.8-1.6 0.8s-0.8 0.8-1.6 0.8c-0.8 0-0.8 0.8-1.6 0.8s-0.8 0.8-1.6 0.8c0 0 0 0-0.8 0 0 0-0.8 0-0.8 0-0.8 0-1.6 0-1.6 0.8-0.8 0-0.8 0-1.6 0s-0.8 0-1.6 0-0.8 0-1.6 0-0.8 0-1.6 0-0.8 0-1.6-0.8c0 0-0.8 0-0.8 0s-0.8 0-0.8 0-0.8-0.8-1.6-0.8c-0.8 0-1.6-0.8-1.6-0.8s-0.8-0.8-0.8-0.8-0.8-0.8-1.6-1.6c0 0-0.8-0.8-0.8-0.8-0.8-0.8-0.8-0.8-1.6-1.6 0-0.8-0.8-0.8-0.8-1.6s-0.8-1.6-0.8-1.6c0 0 0 0 0-0.8l-12.8-35.2h-34.4l-9.6 33.6c-2.4 9.6-12.8 15.2-22.4 12.8s-15.2-12.8-12.8-22.4l6.4-24h-17.6c-10.4 0-18.4-8-18.4-18.4s8-18.4 18.4-18.4h28l22.4-79.2c2.4-8 8.8-12.8 16.8-13.6 0 0 0.8 0 0.8 0 8 0 14.4 4.8 16.8 12l28.8 80.8h9.6l30.4-80.8c2.4-7.2 9.6-12 16.8-12 0 0 0.8 0 0.8 0 8 0 14.4 5.6 16.8 13.6l22.4 79.2h28.8c10.4 0 18.4 8 18.4 18.4 0 9.6-8.8 18.4-18.4 18.4zM462.4 304.8l-4.8 15.2h10.4l-5.6-15.2zM561.6 304.8l-5.6 15.2h10.4l-4.8-15.2z" />
<glyph unicode="&#x5e;" glyph-name="icon-13" d="M36.8 923.2v-950.4h950.4v950.4h-950.4zM947.2 12.8h-870.4v870.4h871.2v-870.4zM287.2 199.2l99.2-0.8c0 0 0 0 0 0 6.4 0 12 2.4 16.8 7.2l351.2 351.2c9.6 9.6 9.6 24 0 33.6l-100 100c-9.6 9.6-24 9.6-33.6 0l-351.2-351.2c-4.8-4.8-7.2-10.4-7.2-16.8l0.8-99.2c0.8-12.8 11.2-23.2 24-24zM637.6 639.2l65.6-65.6-53.6-53.6-65.6 65.6 53.6 53.6zM550.4 552l65.6-65.6-240-240-65.6 0.8-0.8 65.6 240.8 239.2z" />
<glyph unicode="&#x61;" glyph-name="icon-30" d="M660 532.8h-28l9.6 34.4c2.4 9.6-3.2 20-12.8 22.4s-20-3.2-22.4-12.8l-12.8-44.8h-48l-16.8 45.6c0 0 0 0 0 0.8s-0.8 0.8-0.8 1.6c0 0.8-0.8 0.8-0.8 1.6s-0.8 0.8-0.8 1.6c0 0.8-0.8 0.8-0.8 1.6-0.8 0.8-0.8 0.8-1.6 1.6-0.8 0-0.8 0.8-1.6 0.8s-0.8 0.8-1.6 0.8c-0.8 0-0.8 0.8-1.6 0.8 0 0-0.8 0-0.8 0s-0.8 0-0.8 0-0.8 0-1.6 0.8c-0.8 0-1.6 0-1.6 0-0.8 0-0.8 0-1.6 0s-0.8 0-1.6 0-1.6 0-1.6 0-0.8 0-1.6-0.8c0 0-0.8 0-0.8 0s-0.8 0-0.8 0-0.8-0.8-1.6-0.8c-0.8 0-1.6-0.8-1.6-0.8s-0.8-0.8-0.8-0.8-0.8-0.8-1.6-1.6c0 0-0.8-0.8-0.8-0.8-0.8-0.8-0.8-0.8-1.6-1.6 0-0.8-0.8-0.8-0.8-1.6s-0.8-0.8-0.8-1.6c0 0 0 0 0-0.8l-16.8-45.6h-48l-12.8 44.8c-2.4 9.6-12.8 15.2-22.4 12.8s-15.2-12.8-12.8-22.4l9.6-34.4h-27.2c-10.4 0-18.4-8-18.4-18.4s8-18.4 18.4-18.4h37.6l28.8-100c2.4-8 8.8-12.8 16.8-13.6 0 0 0.8 0 0.8 0 8 0 14.4 4.8 16.8 12l36 100.8h17.6l37.6-101.6c2.4-7.2 9.6-12 16.8-12 0 0 0.8 0 0.8 0 8 0 14.4 5.6 16.8 13.6l28.8 100h38.4c10.4 0 18.4 8 18.4 18.4s-8 18.4-18.4 18.4zM450.4 459.2l-10.4 36.8h24l-13.6-36.8zM573.6 459.2l-13.6 36.8h24l-10.4-36.8zM735.2 960h-446.4c-36.8 0-67.2-29.6-67.2-67.2v-890.4c0-36.8 29.6-67.2 67.2-67.2h446.4c36.8 0 67.2 29.6 67.2 67.2v890.4c-0.8 37.6-30.4 67.2-67.2 67.2zM258.4 812h506.4v-634.4h-506.4v634.4zM288.8 923.2h446.4c16.8 0 30.4-13.6 30.4-30.4v-44.8h-507.2v44.8c0 16.8 13.6 30.4 30.4 30.4zM735.2-27.2h-446.4c-16.8 0-30.4 13.6-30.4 30.4v137.6h506.4v-137.6c0.8-16.8-12.8-30.4-29.6-30.4zM512 128.8c-40 0-72-32-72-72s32-72 72-72c40 0 72 32 72 72s-32 72-72 72zM512 20.8c-19.2 0-35.2 16-35.2 35.2s16 35.2 35.2 35.2c19.2 0 35.2-16 35.2-35.2s-16-35.2-35.2-35.2z" />
<glyph unicode="&#x62;" glyph-name="icon-44" d="M316.8 503.2c8-36-3.2-68-28-95.2-28-30.4-64-45.6-104.8-51.2-8.8-0.8-17.6-1.6-26.4-2.4 0 0 0 0 0 0.8 0 0 0 0-0.8 0-14.4 3.2-24.8-3.2-36-11.2-20-14.4-40.8-28-60.8-41.6-4-2.4-7.2-4-12-0.8-4 3.2-3.2 7.2-1.6 11.2 5.6 20.8 11.2 41.6 16.8 62.4 0.8 3.2 0 5.6-2.4 7.2-24 14.4-43.2 33.6-53.6 60-14.4 35.2-10.4 69.6 12 100.8 25.6 36.8 63.2 55.2 106.4 62.4 44.8 8 88 1.6 128-21.6 31.2-18.4 55.2-44 63.2-80.8zM596 514.4c3.2-25.6 3.2-51.2-4-76.8-12-40-45.6-67.2-87.2-68-9.6 0-20 1.6-29.6 2.4-1.6 0-3.2 0-5.6 0.8 0-2.4 0-4.8 0-7.2 0-20.8 0-41.6 0-62.4 0-5.6-1.6-7.2-7.2-7.2-14.4 0-28 0-42.4 0-5.6 0-7.2 1.6-7.2 7.2 0 75.2 0 151.2 0 226.4 0 16 0 32 0 48 0 4 1.6 5.6 5.6 5.6 10.4 0 20 0 30.4 0 1.6 0 4.8-2.4 5.6-4 2.4-4 3.2-8.8 4.8-12 8.8 5.6 16.8 11.2 25.6 15.2 26.4 12 72.8 11.2 96-24.8 8.8-13.6 13.6-28 15.2-43.2zM536.8 517.6c-4.8 16.8-17.6 25.6-34.4 25.6-8.8 0-18.4-3.2-27.2-4.8-4-0.8-4.8-3.2-4.8-7.2 0-18.4 0-37.6 0-56 0 0 0 0 0 0 0-19.2 0-37.6 0-56.8 0-4 0.8-6.4 5.6-6.4 5.6 0 11.2-0.8 16-0.8 21.6 1.6 37.6 12 44.8 32.8 7.2 24.8 7.2 48.8 0 73.6zM1020.8 576.8c-14.4 4-28.8 8-44 12-4 0.8-5.6 0.8-7.2-4-10.4-36.8-20.8-73.6-31.2-111.2-4-15.2-8.8-29.6-12.8-44.8 0 0-0.8 0-0.8 0-3.2 12-7.2 24-10.4 36.8-11.2 39.2-23.2 79.2-34.4 118.4-0.8 3.2-1.6 4-5.6 3.2-15.2-4-31.2-8.8-46.4-12.8-4.8-0.8-4.8-3.2-3.2-6.4 23.2-63.2 46.4-126.4 69.6-190.4 1.6-4 0.8-7.2-0.8-10.4-10.4-17.6-23.2-33.6-38.4-47.2-4-3.2-4-5.6 0-8.8 8.8-7.2 16.8-14.4 24.8-22.4 4-4 7.2-4 12-0.8 19.2 14.4 34.4 32.8 46.4 53.6 14.4 24.8 24 52 33.6 79.2 17.6 48.8 35.2 97.6 53.6 146.4 0.8 7.2 0 8.8-4.8 9.6zM799.2 508c0-42.4 0-84.8 0-127.2 0-1.6 0-3.2 0-5.6-6.4 0-12.8 0-18.4 0-3.2 0-6.4 0-10.4 0-11.2 0-11.2 0-14.4 10.4-0.8 1.6-1.6 4-2.4 5.6-7.2-4-14.4-8.8-21.6-12-20.8-10.4-43.2-13.6-65.6-5.6-17.6 5.6-28.8 18.4-33.6 35.2-4.8 16-5.6 32.8 0 48.8 8 24 27.2 35.2 50.4 40.8 18.4 4 37.6 3.2 56 3.2 8 0 8 0 7.2 8-1.6 20.8-12 31.2-32.8 31.2-18.4 0-35.2-3.2-52-10.4-1.6-0.8-3.2-1.6-4.8-1.6-0.8 0-0.8 0-2.4 0-3.2 8-6.4 16-9.6 23.2 0 0.8-0.8 1.6-0.8 2.4-5.6 12.8-5.6 11.2 5.6 16.8 30.4 16 62.4 21.6 96.8 13.6 29.6-7.2 46.4-27.2 51.2-56.8 0.8-6.4 0.8-13.6 1.6-20zM747.2 436.8c-0.8 3.2 0 6.4 0 10.4 0 0 0 0 0 0 0 4.8 0 10.4 0 15.2 0 2.4-0.8 4-4 4-12-0.8-24 0-36-1.6-9.6-0.8-17.6-4-23.2-12.8s-6.4-19.2-2.4-28.8c4-8.8 12.8-10.4 21.6-10.4 12.8 0 24.8 4 36.8 10.4 4.8 3.2 8 7.2 7.2 13.6z" />
<glyph unicode="&#x63;" glyph-name="icon-42" d="M870.4 826.4h-716.8c-11.2 0-19.2-8.8-19.2-19.2v-716.8c0-11.2 8.8-19.2 19.2-19.2h716.8c11.2 0 19.2 8.8 19.2 19.2v716c0.8 11.2-8 20-19.2 20zM851.2 108.8h-678.4v678.4h677.6v-678.4zM320 287.2v321.6c0 11.2 8.8 19.2 19.2 19.2h92.8c0.8 0 0.8 0 1.6 0s1.6 0 2.4 0c0.8 0 1.6 0 1.6-0.8 0.8 0 1.6 0 1.6-0.8 0.8 0 0.8-0.8 1.6-0.8s0.8-0.8 1.6-0.8c0.8 0 0.8-0.8 1.6-0.8s0.8-0.8 1.6-0.8 0.8-0.8 1.6-1.6c0 0 0.8-0.8 0.8-0.8l124-164.8v152.8c0 11.2 8.8 19.2 19.2 19.2h92c11.2 0 19.2-8.8 19.2-19.2v-321.6c0-11.2-8.8-19.2-19.2-19.2h-91.2c-1.6 0-3.2 0-4 0.8 0 0-0.8 0-0.8 0-0.8 0-1.6 0.8-3.2 0.8-0.8 0-0.8 0.8-1.6 0.8-0.8 0.8-1.6 0.8-2.4 1.6-0.8 0-0.8 0.8-1.6 0.8-0.8 0.8-1.6 1.6-1.6 2.4 0 0-0.8 0.8-0.8 0.8l-124 164v-152.8c0-11.2-8.8-19.2-19.2-19.2h-92.8c-11.2 0-20 8.8-20 19.2z" />
<glyph unicode="&#x64;" glyph-name="icon-32" d="M107.2 112h809.6c53.6 0 96.8 43.2 96.8 96.8v477.6c0 53.6-43.2 96.8-96.8 96.8h-809.6c-53.6 0.8-96.8-43.2-96.8-96.8v-477.6c0-52.8 43.2-96.8 96.8-96.8zM977.6 524.8h-931.2v91.2h930.4v-91.2zM916.8 148.8h-809.6c-33.6 0-60.8 27.2-60.8 60.8v278.4h930.4v-278.4c0.8-33.6-26.4-60.8-60-60.8zM107.2 747.2h809.6c33.6 0 60.8-27.2 60.8-60.8v-33.6h-931.2v33.6c0 33.6 27.2 60.8 60.8 60.8zM418.4 355.2c0-10.4-8-18.4-18.4-18.4h-242.4c-10.4 0-18.4 8-18.4 18.4s8 18.4 18.4 18.4h242.4c10.4-0.8 18.4-8.8 18.4-18.4zM418.4 269.6c0-10.4-8-18.4-18.4-18.4h-242.4c-10.4 0-18.4 8-18.4 18.4s8 18.4 18.4 18.4h242.4c10.4 0 18.4-8.8 18.4-18.4zM853.6 394.4h-91.2c-20 0-36.8-16.8-36.8-36.8v-91.2c0-20 16-36.8 36.8-36.8h91.2c20 0 36.8 16.8 36.8 36.8v91.2c0 20.8-16.8 36.8-36.8 36.8zM762.4 266.4v91.2h91.2v-91.2h-91.2z" />
<glyph unicode="&#x65;" glyph-name="icon-20" d="M170.4-64h597.6c84.8 0 154.4 69.6 154.4 154.4v472c0 10.4-8 18.4-18.4 18.4s-18.4-8-18.4-18.4v-472c0-64.8-52.8-117.6-117.6-117.6s-117.6 52.8-117.6 117.6v78.4c0 10.4-8 18.4-18.4 18.4h-419.2v648.8h520.8c10.4 0 18.4 8 18.4 18.4s-8 18.4-18.4 18.4h-539.2c-10.4 0-18.4-8-18.4-18.4v-668h-141.6c-10.4 0-18.4-8-18.4-18.4v-78.4c0-84 69.6-153.6 154.4-153.6zM52.8 150.4h560.8v-60c0-47.2 21.6-89.6 54.4-117.6h-497.6c-64.8 0-117.6 52.8-117.6 117.6v60zM359.2 732.8c-33.6 0-61.6-28-61.6-61.6s27.2-61.6 61.6-61.6c33.6 0 61.6 27.2 61.6 61.6-0.8 33.6-28 61.6-61.6 61.6zM359.2 646.4c-13.6 0-24.8 11.2-24.8 24.8s11.2 24.8 24.8 24.8c13.6 0 24.8-11.2 24.8-24.8s-11.2-24.8-24.8-24.8zM516.8 671.2c0 10.4 8 18.4 18.4 18.4h198.4c10.4 0 18.4-8 18.4-18.4s-8-18.4-18.4-18.4h-198.4c-9.6 0-18.4 8-18.4 18.4zM359.2 562.4c-33.6 0-61.6-27.2-61.6-61.6s27.2-61.6 61.6-61.6c33.6 0 61.6 28 61.6 61.6s-28 61.6-61.6 61.6zM359.2 476c-13.6 0-24.8 11.2-24.8 24.8s11.2 24.8 24.8 24.8c13.6 0 24.8-11.2 24.8-24.8s-11.2-24.8-24.8-24.8zM535.2 519.2h247.2c10.4 0 18.4-8 18.4-18.4s-8-18.4-18.4-18.4h-247.2c-10.4 0-18.4 8-18.4 18.4s8.8 18.4 18.4 18.4zM359.2 392.8c-33.6 0-61.6-28-61.6-61.6s27.2-61.6 61.6-61.6c33.6 0 61.6 27.2 61.6 61.6s-28 61.6-61.6 61.6zM359.2 306.4c-13.6 0-24.8 11.2-24.8 24.8s11.2 24.8 24.8 24.8c13.6 0 24.8-11.2 24.8-24.8s-11.2-24.8-24.8-24.8zM800.8 331.2c0-10.4-8-18.4-18.4-18.4h-247.2c-10.4 0-18.4 8-18.4 18.4s8 18.4 18.4 18.4h247.2c10.4 0 18.4-8 18.4-18.4zM885.6 781.6v-70.4c-44 5.6-48.8 27.2-48.8 28.8-1.6 9.6-10.4 16.8-20 16-10.4-0.8-17.6-10.4-16-20 0-2.4 7.2-53.6 85.6-60.8v-23.2c0-10.4 8-18.4 18.4-18.4s18.4 8 18.4 18.4v23.2c56 4.8 74.4 32 80.8 44.8 8.8 19.2 6.4 40.8-6.4 55.2-18.4 21.6-46.4 31.2-73.6 37.6v68.8c43.2-5.6 48.8-27.2 48.8-28.8 1.6-9.6 10.4-16.8 20-16 10.4 0.8 17.6 10.4 16 20 0 2.4-7.2 53.6-85.6 60.8v24c0 10.4-8 18.4-18.4 18.4s-18.4-8-18.4-18.4v-23.2c-56-4.8-74.4-32-80.8-44.8-8.8-19.2-6.4-40.8 6.4-55.2 17.6-20.8 47.2-31.2 73.6-36.8zM969.6 733.6c-5.6-12.8-23.2-20.8-47.2-23.2v63.2c18.4-4.8 36-12 46.4-24 2.4-3.2 4-9.6 0.8-16zM838.4 858.4c5.6 12.8 23.2 20.8 47.2 23.2v-63.2c-18.4 4.8-36 12-46.4 24-2.4 3.2-4 9.6-0.8 16z" />
<glyph unicode="&#x66;" glyph-name="icon-33" d="M10.4 686.4v-477.6c0-53.6 43.2-96.8 96.8-96.8h809.6c53.6 0 96.8 43.2 96.8 96.8v477.6c0 53.6-43.2 96.8-96.8 96.8h-809.6c-53.6 0.8-96.8-43.2-96.8-96.8zM977.6 524.8h-931.2v91.2h930.4v-91.2zM916.8 148.8h-809.6c-33.6 0-60.8 27.2-60.8 60.8v278.4h930.4v-278.4c0.8-33.6-26.4-60.8-60-60.8zM977.6 686.4v-33.6h-931.2v33.6c0 33.6 27.2 60 60.8 60h809.6c33.6 0.8 60.8-26.4 60.8-60zM418.4 355.2c0-10.4-8-18.4-18.4-18.4h-242.4c-10.4 0-18.4 8-18.4 18.4s8 18.4 18.4 18.4h242.4c10.4-0.8 18.4-8.8 18.4-18.4zM418.4 269.6c0-10.4-8-18.4-18.4-18.4h-242.4c-10.4 0-18.4 8-18.4 18.4s8 18.4 18.4 18.4h242.4c10.4 0 18.4-8.8 18.4-18.4zM808 394.4c-25.6 0-48.8-12-64-30.4-15.2 18.4-38.4 30.4-64 30.4-45.6 0-82.4-36.8-82.4-82.4s36.8-82.4 82.4-82.4c25.6 0 48.8 12 64 30.4 15.2-18.4 38.4-30.4 64-30.4 45.6 0 82.4 36.8 82.4 82.4s-36.8 82.4-82.4 82.4zM680 266.4v0c-25.6 0-45.6 20.8-45.6 45.6s20.8 45.6 45.6 45.6c25.6 0 45.6-20.8 45.6-45.6s-20-45.6-45.6-45.6zM808 266.4c-25.6 0-45.6 20.8-45.6 45.6s20.8 45.6 45.6 45.6 45.6-20.8 45.6-45.6-20-45.6-45.6-45.6z" />
<glyph unicode="&#x67;" glyph-name="icon-34" d="M10.4 686.4v-477.6c0-53.6 43.2-96.8 96.8-96.8h809.6c53.6 0 96.8 43.2 96.8 96.8v477.6c0 53.6-43.2 96.8-96.8 96.8h-809.6c-53.6 0.8-96.8-43.2-96.8-96.8zM977.6 524.8h-931.2v91.2h930.4v-91.2zM916.8 148.8h-809.6c-33.6 0-60.8 27.2-60.8 60.8v278.4h930.4v-278.4c0.8-33.6-26.4-60.8-60-60.8zM107.2 747.2h809.6c33.6 0 60.8-27.2 60.8-60v-33.6h-931.2v33.6c0 32.8 27.2 60 60.8 60zM808 394.4c-25.6 0-48.8-12-64-30.4-15.2 18.4-38.4 30.4-64 30.4-45.6 0-82.4-36.8-82.4-82.4s36.8-82.4 82.4-82.4c25.6 0 48.8 12 64 30.4 15.2-18.4 38.4-30.4 64-30.4 45.6 0 82.4 36.8 82.4 82.4s-36.8 82.4-82.4 82.4zM680 266.4c-25.6 0-45.6 20.8-45.6 45.6s20.8 45.6 45.6 45.6 45.6-20.8 45.6-45.6-20-45.6-45.6-45.6zM808 266.4c-25.6 0-45.6 20.8-45.6 45.6s20.8 45.6 45.6 45.6 45.6-20.8 45.6-45.6-20-45.6-45.6-45.6z" />
<glyph unicode="&#x68;" glyph-name="icon-35" d="M10.4 686.4v-477.6c0-53.6 43.2-96.8 96.8-96.8h809.6c53.6 0 96.8 43.2 96.8 96.8v477.6c0 53.6-43.2 96.8-96.8 96.8h-809.6c-53.6 0-96.8-43.2-96.8-96.8zM977.6 524.8h-931.2v91.2h930.4v-91.2zM916.8 148.8h-809.6c-33.6 0-60 27.2-60 60v279.2h930.4v-279.2c0-32.8-27.2-60-60.8-60zM107.2 747.2h809.6c33.6 0 60.8-27.2 60.8-60v-34.4h-931.2v34.4c0 32.8 27.2 60 60.8 60zM366.4 269.6c0-10.4-8-18.4-18.4-18.4h-189.6c-10.4 0-18.4 8-18.4 18.4s8 18.4 18.4 18.4h189.6c9.6 0 18.4-8 18.4-18.4zM890.4 357.6v-91.2c0-20-16-36.8-36-36.8h-92c-20 0-36.8 16.8-36.8 36.8v91.2c0 20 16.8 36.8 36.8 36.8h91.2c20 0 36.8-16 36.8-36.8z" />
<glyph unicode="&#x69;" glyph-name="icon-25" d="M1.6-45.6c0 33.6 8.8 147.2 120.8 204.8 53.6 28 114.4 39.2 159.2 48 26.4 4.8 55.2 10.4 62.4 16.8 14.4 12.8 18.4 52 16.8 64.8 0 0-0.8 0.8-0.8 1.6-10.4 12-38.4 43.2-59.2 91.2-10.4 24-12.8 42.4-14.4 55.2-0.8 4.8-1.6 12-2.4 13.6 0 0-1.6 1.6-8 2.4-52 10.4-52 87.2-52 137.6 0 37.6 19.2 56.8 36.8 65.6v118.4c0 56 32 99.2 90.4 121.6 25.6 10.4 56.8 14.4 83.2 17.6 24 3.2 48 6.4 59.2 12.8 29.6 17.6 116.8 46.4 192.8 24.8 82.4-23.2 120-85.6 120-137.6 0-35.2-19.2-56-32.8-71.2-6.4-6.4-12.8-13.6-12.8-17.6v-73.6c25.6-12 40-34.4 40-104 0-63.2-23.2-80.8-47.2-93.6-6.4-3.2-9.6-4.8-10.4-7.2-10.4-26.4-24-56-24.8-56.8-4-8.8-15.2-12.8-24-8.8s-12.8 15.2-8.8 24c0 0 13.6 29.6 23.2 54.4 5.6 15.2 17.6 21.6 27.2 26.4 14.4 7.2 27.2 14.4 27.2 60.8 0 64-11.2 68-22.4 72-2.4 0.8-4.8 1.6-7.2 2.4-6.4 3.2-11.2 9.6-11.2 16.8v88.8c0 18.4 12 31.2 22.4 42.4 12 12.8 23.2 24.8 23.2 46.4 0 38.4-28.8 84.8-92.8 102.4s-139.2-7.2-164-21.6c-17.6-10.4-43.2-13.6-72.8-17.6-26.4-3.2-53.6-7.2-75.2-16-30.4-12-67.2-36.8-67.2-88v-132.8c0-8.8-6.4-16.8-16-18.4-3.2-0.8-20.8-5.6-20.8-34.4s0-97.6 22.4-101.6c34.4-7.2 37.6-28.8 40-48 1.6-12 3.2-26.4 11.2-45.6 18.4-42.4 42.4-69.6 52.8-80.8 2.4-2.4 4-4.8 4.8-5.6 11.2-15.2 5.6-84.8-23.2-111.2-14.4-12.8-40-17.6-80-25.6-44.8-8.8-100-19.2-149.6-44.8-78.4-40-96.8-112-100-154.4h532.8c10.4 0 18.4-8 18.4-18.4s-8-18.4-18.4-18.4h-552c-8 1.6-16.8 9.6-16.8 20zM1004 229.6c10.4 0 18.4-8 18.4-18.4v-256.8c0-10.4-8-18.4-18.4-18.4h-345.6c-10.4 0-18.4 8-18.4 18.4v256.8c0 10.4 8 18.4 18.4 18.4h24v16c0 81.6 66.4 148.8 148.8 148.8s148.8-66.4 148.8-148.8v-16h24zM719.2 229.6h224v16c0 61.6-50.4 112-112 112s-112-50.4-112-112v-16zM985.6 192.8h-308.8v-220h308.8v220zM831.2 141.6c-21.6 0-38.4-17.6-38.4-38.4 0-14.4 8-27.2 20.8-33.6v-29.6c0-10.4 8-18.4 18.4-18.4s18.4 8 18.4 18.4v29.6c12 6.4 20.8 19.2 20.8 33.6-1.6 21.6-19.2 38.4-40 38.4z" />
<glyph unicode="&#x6a;" glyph-name="icon-36" d="M916.8 783.2h-809.6c-53.6 0-96.8-43.2-96.8-96.8v-477.6c0-53.6 43.2-96.8 96.8-96.8h809.6c53.6 0 96.8 43.2 96.8 96.8v477.6c0 53.6-43.2 96.8-96.8 96.8zM107.2 747.2h809.6c33.6 0 60.8-27.2 60.8-60v-34.4h-931.2v34.4c0 32.8 27.2 60 60.8 60zM916.8 148.8h-809.6c-33.6 0-60 27.2-60 60v279.2h930.4v-279.2c0-32.8-27.2-60-60.8-60zM366.4 269.6c0-10.4-8-18.4-18.4-18.4h-189.6c-10.4 0-18.4 8-18.4 18.4s8 18.4 18.4 18.4h189.6c9.6 0 18.4-8 18.4-18.4zM890.4 357.6v-91.2c0-20-16-36.8-36-36.8h-92c-20 0-36.8 16.8-36.8 36.8v91.2c0 20 16.8 36.8 36.8 36.8h91.2c20 0 36.8-16 36.8-36.8z" />
<glyph unicode="&#x6b;" glyph-name="icon-37" d="M824 699.2h-734.4c-49.6 0-89.6-40-89.6-89.6v-432.8c0-49.6 40-89.6 89.6-89.6h734.4c49.6 0 89.6 40 89.6 89.6v432.8c0.8 49.6-40 89.6-89.6 89.6zM36.8 544h840.8v-80h-840.8v80zM89.6 662.4h734.4c29.6 0 52.8-24 52.8-52.8v-28.8h-840v28.8c0 29.6 24 52.8 52.8 52.8zM824 123.2h-734.4c-29.6 0-52.8 24-52.8 52.8v252h840.8v-251.2c0-29.6-24-53.6-53.6-53.6zM374.4 308.8c0-10.4-8-18.4-18.4-18.4h-220c-10.4 0-18.4 8-18.4 18.4s8 18.4 18.4 18.4h220c9.6-0.8 18.4-8.8 18.4-18.4zM374.4 231.2c0-10.4-8-18.4-18.4-18.4h-220c-10.4 0-18.4 8-18.4 18.4s8 18.4 18.4 18.4h220c9.6 0 18.4-8.8 18.4-18.4zM767.2 346.4h-83.2c-19.2 0-35.2-16-35.2-35.2v-83.2c0-19.2 16-35.2 35.2-35.2h83.2c19.2 0 35.2 16 35.2 35.2v83.2c0 19.2-16 35.2-35.2 35.2zM765.6 230.4h-79.2v79.2h79.2v-79.2zM1024 719.2v-432.8c0-32-16.8-61.6-44.8-77.6-3.2-1.6-6.4-2.4-8.8-2.4-6.4 0-12.8 3.2-16 8.8-4.8 8.8-2.4 20 6.4 24.8 16 9.6 26.4 27.2 26.4 46.4v432.8c0 29.6-24 52.8-52.8 52.8h-734.4c-17.6 0-34.4-8.8-44-23.2-3.2-5.6-9.6-8-15.2-8-3.2 0-7.2 0.8-10.4 3.2-8 5.6-10.4 16.8-4.8 25.6 16.8 24.8 44.8 39.2 74.4 39.2h734.4c49.6 0.8 89.6-40 89.6-89.6z" />
<glyph unicode="&#x6c;" glyph-name="icon-38" d="M824 699.2h-734.4c-49.6 0-89.6-40-89.6-89.6v-432.8c0-49.6 40-89.6 89.6-89.6h734.4c49.6 0 89.6 40 89.6 89.6v432.8c0.8 49.6-40 89.6-89.6 89.6zM36.8 544h840.8v-80h-840.8v80zM89.6 662.4h734.4c29.6 0 52.8-24 52.8-52.8v-28.8h-840v28.8c0 29.6 24 52.8 52.8 52.8zM824 123.2h-734.4c-29.6 0-52.8 24-52.8 52.8v252h840.8v-251.2c0-29.6-24-53.6-53.6-53.6zM374.4 308.8c0-10.4-8-18.4-18.4-18.4h-220c-10.4 0-18.4 8-18.4 18.4s8 18.4 18.4 18.4h220c9.6-0.8 18.4-8.8 18.4-18.4zM374.4 231.2c0-10.4-8-18.4-18.4-18.4h-220c-10.4 0-18.4 8-18.4 18.4s8 18.4 18.4 18.4h220c9.6 0 18.4-8.8 18.4-18.4zM725.6 346.4c-23.2 0-44-10.4-58.4-27.2-14.4 16.8-35.2 27.2-58.4 27.2-42.4 0-76-34.4-76-76s34.4-76 76-76c23.2 0 44 10.4 58.4 27.2 14.4-16.8 35.2-27.2 58.4-27.2 42.4 0 76 34.4 76 76s-33.6 76-76 76zM609.6 230.4c-21.6 0-40 17.6-40 40s17.6 40 40 40c21.6 0 40-17.6 40-40s-18.4-40-40-40zM725.6 230.4c-21.6 0-40 17.6-40 40s17.6 40 40 40 40-17.6 40-40-18.4-40-40-40zM1024 719.2v-432.8c0-32-16.8-61.6-44.8-77.6-3.2-1.6-6.4-2.4-8.8-2.4-6.4 0-12.8 3.2-16 8.8-4.8 8.8-2.4 20 6.4 24.8 16 9.6 26.4 27.2 26.4 46.4v432.8c0 29.6-24 52.8-52.8 52.8h-734.4c-17.6 0-34.4-8.8-44-23.2-3.2-5.6-9.6-8-15.2-8-3.2 0-7.2 0.8-10.4 3.2-8 5.6-10.4 16.8-4.8 25.6 16.8 24.8 44.8 39.2 74.4 39.2h734.4c49.6 0.8 89.6-40 89.6-89.6z" />
<glyph unicode="&#x6d;" glyph-name="icon-45" d="M976.8 540c-30.4 21.6-64 27.2-100 20-60-12-100.8-67.2-91.2-131.2 7.2-48.8 44.8-86.4 93.6-94.4 4.8-0.8 8.8-1.6 13.6-2.4 6.4 0 12.8 0 20 0 4.8 0.8 9.6 1.6 13.6 2.4 48 8 86.4 46.4 94.4 94.4 0 0.8 0.8 1.6 0.8 2.4 0 11.2 0 21.6 0 32.8 0 0.8-0.8 1.6-0.8 2.4-4 31.2-19.2 56-44 73.6zM952.8 398.4c-15.2-16-34.4-22.4-56-20-37.6 4-61.6 36-60.8 70.4 0 30.4 17.6 56.8 44 65.6 40.8 14.4 84-11.2 90.4-53.6 4-24-0.8-44.8-17.6-62.4zM772 380.8c0.8-8-1.6-14.4-7.2-19.2-14.4-12.8-31.2-21.6-50.4-25.6-5.6-0.8-11.2-1.6-16-2.4-0.8 0-1.6-0.8-2.4-0.8-7.2 0-13.6 0-20.8 0-4 0.8-8 1.6-12.8 2.4-49.6 9.6-84.8 44.8-92 94.4-6.4 42.4 6.4 79.2 39.2 107.2 18.4 16 40 24 64 26.4 22.4 1.6 44.8 0 65.6-9.6 7.2-3.2 13.6-7.2 20-12 11.2-8 13.6-22.4 6.4-32.8s-21.6-13.6-32.8-7.2c-5.6 3.2-11.2 7.2-16.8 10.4-25.6 12.8-54.4 8.8-74.4-10.4-12.8-12-20-27.2-21.6-44.8-1.6-22.4 3.2-42.4 19.2-59.2 14.4-15.2 32.8-20.8 54.4-19.2 15.2 1.6 28.8 8 40 17.6 15.2 10.4 35.2 3.2 38.4-15.2zM358.4 426.4c-17.6 38.4-34.4 77.6-52 116-4 8.8-9.6 16-19.2 18.4-16.8 4-32.8 0-41.6-18.4-20-44.8-40-89.6-59.2-133.6-6.4-14.4-12.8-28.8-19.2-43.2-5.6-12.8 1.6-27.2 15.2-30.4 11.2-3.2 23.2 3.2 28 14.4s9.6 22.4 14.4 33.6c0.8 2.4 2.4 3.2 4.8 3.2 15.2 0 30.4 0 45.6 0s30.4 0 46.4 0c2.4 0 4-0.8 4.8-3.2 1.6-4 3.2-8.8 5.6-12.8 3.2-8 6.4-16.8 11.2-24 6.4-12 20.8-15.2 32-9.6 8.8 4.8 16 17.6 9.6 31.2-9.6 19.2-17.6 39.2-26.4 58.4zM244 429.6c10.4 24.8 20.8 48.8 31.2 73.6 10.4-24.8 20.8-49.6 31.2-73.6-20.8 0-40.8 0-62.4 0zM175.2 490.4c-0.8 16-6.4 31.2-16.8 43.2-16 18.4-36.8 26.4-60.8 27.2-24.8 0.8-49.6 0-74.4 0-14.4 0-24.8-10.4-24.8-24.8 0-29.6 0-58.4 0-88s0-59.2 0-88c0-14.4 10.4-24.8 24-24.8 14.4 0 24.8 10.4 24.8 24.8 0 13.6 0 28 0 41.6 0 3.2 0.8 4 4 4 12 0 24.8-0.8 36.8 0 9.6 0.8 20 1.6 29.6 4 21.6 5.6 39.2 16.8 50.4 37.6 6.4 13.6 8 28 7.2 43.2zM95.2 449.6c-15.2-1.6-30.4-0.8-44.8-0.8-3.2 0-2.4 1.6-2.4 4 0 10.4 0 20.8 0 31.2s0 20 0 30.4c0 2.4 0 4 3.2 4 14.4 0 29.6 0 44-0.8 16.8-0.8 28-11.2 31.2-25.6 3.2-22.4-9.6-40.8-31.2-42.4zM566.4 532.8c-0.8-4.8-3.2-8.8-6.4-12.8-22.4-30.4-45.6-61.6-68.8-92-2.4-3.2-3.2-6.4-3.2-10.4 0-19.2 0-39.2 0-58.4 0-10.4-4.8-18.4-14.4-22.4s-18.4-2.4-26.4 4c-5.6 4.8-8 11.2-8 19.2 0 20 0 39.2 0 59.2 0 2.4-0.8 4.8-2.4 6.4-23.2 31.2-45.6 62.4-68.8 93.6-4.8 6.4-8 13.6-7.2 22.4 1.6 9.6 7.2 16.8 16.8 19.2 10.4 3.2 20 0.8 26.4-7.2 7.2-8.8 13.6-18.4 20-28 12.8-17.6 24.8-35.2 37.6-53.6 0.8-0.8 1.6-1.6 2.4-3.2 2.4 3.2 4 5.6 5.6 8 16.8 24 33.6 47.2 50.4 71.2 4.8 7.2 11.2 12.8 20 14.4 16.8 1.6 31.2-12.8 26.4-29.6z" />
<glyph unicode="&#x6e;" glyph-name="icon-46" horiz-adv-x="1105" d="M635.2 524c-56 0-101.6-45.6-101.6-101.6s45.6-101.6 101.6-101.6c56 0 101.6 45.6 101.6 101.6-0.8 56.8-45.6 101.6-101.6 101.6zM635.2 368.8c-29.6 0-53.6 24-53.6 53.6s24 53.6 53.6 53.6 53.6-24 53.6-53.6-24-53.6-53.6-53.6zM317.6 440c0-72.8-59.2-132-132-132-52.8 0-98.4 31.2-120 76 0 0 0 0 0 0-39.2-8-65.6-28-65.6-28s16 89.6 66.4 155.2c50.4 65.6 118.4 60.8 118.4 60.8 72.8 0 132.8-59.2 132.8-132zM503.2 374.4l22.4-37.6c0 0-15.2-14.4-47.2-14.4s-62.4 15.2-62.4 72.8v80h-35.2v43.2h35.2v41.6l48.8 28.8v-69.6h49.6v-43.2h-49.6v-80c0-34.4 28-31.2 38.4-21.6zM919.2 384c0-13.6-10.4-60.8-84-60.8-74.4 0-87.2 47.2-87.2 47.2l46.4 18.4c7.2-16.8 22.4-26.4 41.6-26.4s33.6 5.6 33.6 20c0 14.4-15.2 17.6-56.8 26.4s-56.8 28-56.8 52.8 16.8 61.6 79.2 61.6c62.4 0 80.8-40 80.8-40l-44-18.4c0 0-6.4 16-28 19.2s-38.4-2.4-38.4-17.6c0-15.2 16.8-14.4 64.8-27.2 49.6-12.8 48.8-42.4 48.8-55.2zM1104.8 384c0-13.6-10.4-60.8-84-60.8-74.4 0-87.2 47.2-87.2 47.2l46.4 18.4c7.2-16.8 22.4-26.4 41.6-26.4s33.6 5.6 33.6 20c0 14.4-15.2 17.6-56.8 26.4s-56.8 28-56.8 52.8 16.8 61.6 79.2 61.6c62.4 0 80.8-40 80.8-40l-44-18.4c0 0-6.4 16-28 19.2s-38.4-2.4-38.4-17.6c0-15.2 16.8-14.4 64.8-27.2 48.8-12.8 48.8-42.4 48.8-55.2z" />
<glyph unicode="&#x6f;" glyph-name="icon-26" d="M612.8 626.4c0-10.4-8-18.4-18.4-18.4h-229.6c-10.4 0-18.4 8-18.4 18.4s8 18.4 18.4 18.4h229.6c10.4 0 18.4-8 18.4-18.4zM594.4 564h-120c-10.4 0-18.4-8-18.4-18.4s8-18.4 18.4-18.4h120.8c10.4 0 18.4 8 18.4 18.4s-8.8 18.4-19.2 18.4zM708.8 507.2c-20 0-35.2 16-35.2 35.2v87.2c0 20 16 35.2 35.2 35.2h86.4c20 0 35.2-16 35.2-35.2v-86.4c0-20-16-35.2-35.2-35.2h-86.4zM708.8 628.8l0.8-85.6 84.8 0.8v85.6l-85.6-0.8zM222.4 100.8h732.8c12.8 0 24.8 5.6 32.8 16s11.2 23.2 8 35.2l-56 245.6v357.6c0 21.6-17.6 40-40 40h-622.4c-21.6 0-40-17.6-40-40v-88c0-10.4 8-18.4 18.4-18.4s18.4 8 18.4 18.4v88c0 1.6 1.6 3.2 3.2 3.2h622.4c1.6 0 3.2-1.6 3.2-3.2v-341.6h-419.2c-10.4 0-18.4-8-18.4-18.4s8-18.4 18.4-18.4h423.2l53.6-232.8c0.8-2.4-0.8-4-0.8-4.8-0.8-0.8-1.6-2.4-4-2.4h-733.6c-2.4 0-4 1.6-4 2.4-0.8 0.8-1.6 2.4-0.8 4.8l26.4 115.2c2.4 9.6-4 20-13.6 21.6-9.6 2.4-20-4-21.6-13.6l-27.2-115.2c-3.2-12.8 0-25.6 8-35.2 8-10.4 20-16 32.8-16zM267.2 606.4l186.4-136c4.8-3.2 7.2-8.8 7.2-14.4s-2.4-11.2-7.2-14.4l-186.4-136c-3.2-2.4-7.2-3.2-10.4-3.2s-5.6 0.8-8 1.6c-6.4 3.2-10.4 9.6-10.4 16v58.4h-193.6c-10.4 0-18.4 8-18.4 18.4v117.6c0 10.4 8 18.4 18.4 18.4h193.6v58.4c0 7.2 4 12.8 10.4 16 5.6 3.2 12.8 3.2 18.4-0.8zM256.8 496h-193.6v-81.6h193.6c10.4 0 18.4-8 18.4-18.4v-40.8l136.8 100-136.8 100v-40.8c0-10.4-8.8-18.4-18.4-18.4z" />
<glyph unicode="&#x70;" glyph-name="icon-27" d="M1005.6 656.8h-23.2l8 28.8c2.4 9.6-3.2 20-12.8 22.4s-20-3.2-22.4-12.8l-11.2-39.2h-40l-15.2 40.8c0 0 0 0 0 0.8s-0.8 1.6-0.8 1.6c0 0.8-0.8 0.8-0.8 1.6s-0.8 0.8-1.6 1.6c0 0-0.8 0.8-0.8 0.8-0.8 0.8-0.8 0.8-1.6 1.6 0 0-0.8 0.8-1.6 0.8s-0.8 0.8-1.6 0.8c-0.8 0-0.8 0.8-1.6 0.8 0 0-0.8 0-0.8 0s-0.8 0-0.8 0-0.8 0-1.6 0.8c-0.8 0-1.6 0-1.6 0-0.8 0-0.8 0-1.6 0s-0.8 0-1.6 0-1.6 0-1.6 0-0.8 0-1.6-0.8c0 0-0.8 0-0.8 0s-0.8 0-0.8 0-0.8-0.8-1.6-0.8c-0.8 0-1.6-0.8-1.6-0.8s-0.8-0.8-0.8-0.8-0.8-0.8-1.6-1.6c0 0-0.8-0.8-0.8-0.8-0.8-0.8-0.8-0.8-1.6-1.6 0-0.8-0.8-0.8-0.8-1.6s-0.8-1.6-0.8-1.6c0 0 0 0 0-0.8l-15.2-40.8h-40.8l-12.8 40c-2.4 9.6-12.8 15.2-22.4 12.8s-15.2-12.8-12.8-22.4l8-28.8h-22.4c-10.4 0-18.4-8-18.4-18.4s8-18.4 18.4-18.4h32.8l25.6-89.6c2.4-8 8.8-12.8 16.8-13.6 0 0 0.8 0 0.8 0 8 0 14.4 4.8 16.8 12l33.6 91.2h13.6l33.6-91.2c2.4-7.2 9.6-12 16.8-12 0 0 0.8 0 0.8 0 8 0 14.4 5.6 16.8 13.6l25.6 89.6h33.6c10.4 0 18.4 8 18.4 18.4 0.8 9.6-7.2 17.6-17.6 17.6zM816 594.4l-7.2 25.6h16.8l-9.6-25.6zM927.2 594.4l-9.6 25.6h16.8l-7.2-25.6zM412.8 744.8c-164 0-296.8-132.8-296.8-296.8s132.8-296.8 296.8-296.8 296.8 132.8 296.8 296.8c0 163.2-133.6 296.8-296.8 296.8zM431.2 188.8v32c0 10.4-8 18.4-18.4 18.4s-18.4-8-18.4-18.4v-32c-128.8 8.8-232 112-240.8 240.8h32c10.4 0 18.4 8 18.4 18.4s-8 18.4-18.4 18.4h-32c8.8 128.8 112 232 240.8 240.8v-32c0-10.4 8-18.4 18.4-18.4s18.4 8 18.4 18.4v32c128.8-8.8 232-112 240.8-240.8h-32c-10.4 0-18.4-8-18.4-18.4s8-18.4 18.4-18.4h32c-8.8-128.8-112-232-240.8-240.8zM412.8 860.8c93.6 0 183.2-31.2 256-88.8v60c0 10.4 8 18.4 18.4 18.4s18.4-8 18.4-18.4v-100c0-1.6 0-2.4 0-4 0 0 0-0.8 0-0.8 0-0.8-0.8-1.6-0.8-2.4 0 0 0-0.8 0-0.8 0-0.8-0.8-1.6-1.6-2.4 0 0-0.8-0.8-0.8-0.8-0.8-0.8-0.8-1.6-1.6-1.6 0 0 0 0 0 0s0 0-0.8-0.8c-3.2-3.2-8-4.8-12-4.8 0 0 0 0 0 0h-101.6c-10.4 0-18.4 8-18.4 18.4s8 18.4 18.4 18.4h50.4c-64.8 48-142.4 74.4-224.8 74.4-207.2 0-376-168.8-376-376 0-10.4-8-18.4-18.4-18.4s-17.6 7.2-17.6 17.6c0 227.2 184.8 412.8 412.8 412.8zM444.8 73.6c10.4 0.8 19.2-6.4 20-16.8s-6.4-19.2-16.8-20c-8.8-0.8-16.8-0.8-25.6-1.6 0 0 0 0-0.8 0-9.6 0-18.4 8-18.4 17.6 0 10.4 8 18.4 17.6 18.4 8.8 0.8 16.8 1.6 24 2.4zM352 76.8c9.6-1.6 16.8-11.2 15.2-20.8-1.6-8.8-9.6-15.2-18.4-15.2-0.8 0-1.6 0-3.2 0-8.8 1.6-16.8 3.2-24.8 4.8-9.6 2.4-16 12-13.6 21.6s12 16 21.6 13.6c8-1.6 16-2.4 23.2-4zM559.2 81.6c3.2-9.6-1.6-20-11.2-23.2-8-2.4-16-5.6-24-8-1.6-0.8-3.2-0.8-4.8-0.8-8 0-15.2 5.6-17.6 13.6-2.4 9.6 3.2 20 12.8 22.4 7.2 2.4 15.2 4 22.4 7.2 8 3.2 19.2-1.6 22.4-11.2zM263.2 103.2c9.6-4 13.6-14.4 9.6-24-3.2-7.2-9.6-11.2-16.8-11.2-2.4 0-4.8 0.8-7.2 1.6-8 3.2-15.2 7.2-23.2 11.2-8.8 4.8-12.8 15.2-8 24.8 4.8 8.8 15.2 12.8 24.8 8 6.4-4 13.6-8 20.8-10.4zM644 128.8c5.6-8.8 3.2-20-5.6-25.6-7.2-4.8-14.4-8.8-21.6-13.6-3.2-1.6-6.4-2.4-8.8-2.4-6.4 0-12.8 3.2-16 8.8-4.8 8.8-2.4 20 6.4 24.8 6.4 4 13.6 8 20 12 8.8 6.4 20 4 25.6-4zM715.2 195.2c7.2-7.2 8-18.4 0.8-25.6-5.6-6.4-12-12-17.6-18.4-3.2-3.2-8-4.8-12.8-4.8s-9.6 1.6-12.8 5.6c-7.2 7.2-6.4 19.2 0.8 25.6 5.6 5.6 11.2 11.2 16 16.8 7.2 7.2 18.4 7.2 25.6 0.8zM768 276.8c8.8-4.8 12-16 7.2-24.8-4-7.2-8-15.2-12.8-22.4-3.2-5.6-9.6-8.8-15.2-8.8-3.2 0-6.4 0.8-9.6 2.4-8.8 5.6-11.2 16.8-5.6 25.6 4 6.4 8 13.6 12 20 4 9.6 15.2 12.8 24 8zM183.2 150.4c8-6.4 9.6-17.6 3.2-25.6-4-4.8-8.8-7.2-14.4-7.2-4 0-8 1.6-11.2 4-6.4 4.8-13.6 10.4-20 16-8 6.4-8.8 18.4-1.6 25.6 6.4 8 18.4 8.8 25.6 1.6 6.4-4.8 12-10.4 18.4-14.4zM804.8 405.6c-10.4 0.8-17.6 9.6-16.8 19.2 0.8 8 0.8 15.2 0.8 23.2 0 10.4 8 18.4 18.4 18.4s18.4-8 18.4-18.4c0-8.8 0-16.8-0.8-25.6-0.8-9.6-8.8-16.8-18.4-16.8-0.8 0-0.8 0-1.6 0zM799.2 368.8c9.6-2.4 16-12.8 13.6-22.4-2.4-8-4.8-16.8-7.2-24.8s-9.6-12.8-17.6-12.8c-1.6 0-4 0-5.6 0.8-9.6 3.2-15.2 13.6-12 23.2 2.4 7.2 4.8 15.2 6.4 22.4 3.2 10.4 12.8 16 22.4 13.6zM103.2 234.4c4.8-6.4 8.8-12.8 13.6-18.4 6.4-8 4.8-19.2-3.2-25.6-3.2-2.4-7.2-4-11.2-4-5.6 0-10.4 2.4-14.4 7.2-5.6 6.4-10.4 13.6-15.2 20.8-5.6 8-4 20 4.8 25.6 8.8 4 20 2.4 25.6-5.6zM68.8 294.4c4-9.6 0-20-9.6-24-2.4-0.8-4.8-1.6-7.2-1.6-7.2 0-13.6 4-16.8 11.2-3.2 8-6.4 15.2-9.6 23.2-3.2 9.6 1.6 20 10.4 23.2 9.6 3.2 20-1.6 23.2-10.4 4-7.2 6.4-14.4 9.6-21.6zM42.4 383.2c1.6-9.6-4.8-19.2-15.2-20.8-0.8 0-2.4 0-3.2 0-8.8 0-16.8 6.4-18.4 15.2-1.6 8-2.4 16.8-3.2 25.6-0.8 10.4 6.4 19.2 16 20 10.4 0.8 19.2-6.4 20-16 1.6-8.8 2.4-16 4-24zM431.2 508v71.2c0 10.4-8 18.4-18.4 18.4s-18.4-8-18.4-18.4v-71.2c-25.6-8-44-32-44-60 0-8.8 1.6-17.6 5.6-24.8l-102.4-101.6c-7.2-7.2-7.2-18.4 0-25.6 3.2-3.2 8-5.6 12.8-5.6s9.6 1.6 12.8 5.6l100 100c9.6-6.4 20.8-9.6 33.6-9.6 34.4 0 62.4 28 62.4 62.4 0 27.2-18.4 51.2-44 59.2zM412.8 421.6c-14.4 0-26.4 12-26.4 26.4s12 26.4 26.4 26.4 26.4-12 26.4-26.4-12-26.4-26.4-26.4z" />
<glyph unicode="&#x71;" glyph-name="icon-18" d="M65.6 848c88 0 124.8-139.2 125.6-140 0 0 0 0 0-0.8 0 0 0 0 0-0.8l156.8-491.2c6.4-20 24.8-33.6 46.4-33.6h388c20.8 0 40 13.6 46.4 33.6l145.6 438.4c6.4 18.4 3.2 37.6-8 52.8s-29.6 24.8-48 24.8h-696.8c-12.8 40-59.2 153.6-156.8 153.6-10.4 0-18.4-8-18.4-18.4 0.8-10.4 8.8-18.4 19.2-18.4zM917.6 694.4c7.2 0 14.4-3.2 18.4-9.6 4-5.6 5.6-12.8 3.2-20l-145.6-438.4c-1.6-4.8-6.4-8-11.2-8h-388c-5.6 0-10.4 3.2-12 8l-148.8 468h684zM468.8 11.2c-34.4 0-62.4 28-62.4 62.4s28 62.4 62.4 62.4c34.4 0 62.4-28 62.4-62.4s-28-62.4-62.4-62.4zM726.4 11.2c-34.4 0-62.4 28-62.4 62.4s28 62.4 62.4 62.4c34.4 0 62.4-28 62.4-62.4s-28-62.4-62.4-62.4z" />
<glyph unicode="&#x72;" glyph-name="icon-21" d="M925.6 927.2h-827.2c-54.4 0-98.4-44.8-98.4-99.2v-487.2c0-54.4 44-98.4 98.4-98.4h383.2c10.4 0 18.4 8 18.4 18.4s-8 18.4-18.4 18.4h-383.2c-34.4 0-62.4 28-62.4 62.4v284h445.6c10.4 0 18.4 8 18.4 18.4s-8 18.4-18.4 18.4h-444.8v94.4h951.2v-94.4h-268c-10.4 0-18.4-8-18.4-18.4s8-18.4 18.4-18.4h267.2v-245.6c0-10.4 8-18.4 18.4-18.4s18.4 8 18.4 18.4v448c0 54.4-44 99.2-98.4 99.2zM36.8 793.6v35.2c0 34.4 28 62.4 62.4 62.4h826.4c34.4 0 62.4-28 62.4-62.4v-35.2h-951.2zM416.8 489.6c0-10.4-8-18.4-18.4-18.4h-248c-10.4 0-18.4 8-18.4 18.4s8 18.4 18.4 18.4h248c9.6 0 18.4-8 18.4-18.4zM416.8 402.4c0-10.4-8-18.4-18.4-18.4h-248c-10.4 0-18.4 8-18.4 18.4s8 18.4 18.4 18.4h248c9.6 0 18.4-8 18.4-18.4zM1005.6 245.6c2.4 6.4 0.8 14.4-4 19.2l-415.2 428.8c-4.8 5.6-12.8 7.2-20 4-7.2-2.4-11.2-9.6-11.2-16.8l-7.2-587.2c0-7.2 4-13.6 10.4-16.8s13.6-2.4 19.2 1.6l104.8 81.6 78.4-180c1.6-4.8 5.6-8 10.4-9.6 2.4-0.8 4-1.6 6.4-1.6s4.8 0.8 7.2 1.6l139.2 62.4c4.8 1.6 8 5.6 9.6 10.4s1.6 9.6-0.8 14.4l-76.8 168 132.8 8c8 0.8 14.4 5.6 16.8 12zM828 260.8c-6.4 0-11.2-4-14.4-8.8s-3.2-11.2-0.8-16.8l80.8-176-105.6-47.2-80 184c-2.4 4.8-6.4 8.8-12 10.4-1.6 0-3.2 0.8-4.8 0.8-4 0-8-1.6-11.2-4l-93.6-72 5.6 504.8 356.8-368-120.8-7.2z" />
<glyph unicode="&#x73;" glyph-name="icon-31" d="M772 472.8c0 0 0 0 0 0 8.8 0 15.2 5.6 17.6 13.6l32.8 116h45.6c10.4 0 18.4 8 18.4 18.4s-8 18.4-18.4 18.4h-35.2l12 42.4c2.4 9.6-3.2 20-12.8 22.4s-20-3.2-22.4-12.8l-15.2-52.8h-58.4l-20 54.4c0 0 0 0 0 0.8s-0.8 1.6-0.8 1.6c0 0.8-0.8 0.8-0.8 1.6s-0.8 0.8-0.8 1.6c0 0.8-0.8 0.8-0.8 1.6-0.8 0.8-0.8 0.8-1.6 0.8s-0.8 0.8-1.6 0.8c-0.8 0-0.8 0.8-1.6 0.8s-0.8 0.8-1.6 0.8c0 0 0 0-0.8 0 0 0-0.8 0-0.8 0-0.8 0-1.6 0-1.6 0.8-0.8 0-0.8 0-1.6 0s-1.6 0-1.6 0-0.8 0-1.6 0-1.6 0-1.6 0-0.8 0-1.6-0.8c0 0-0.8 0-0.8 0s-0.8 0-0.8 0-0.8-0.8-1.6-0.8c-0.8 0-1.6-0.8-1.6-0.8s-0.8-0.8-0.8-0.8-1.6-0.8-1.6-1.6c0 0-0.8-0.8-0.8-0.8-0.8-0.8-0.8-0.8-1.6-1.6 0 0-0.8-0.8-0.8-1.6s-0.8-1.6-0.8-1.6c0 0 0 0 0-0.8l-20-54.4h-58.4l-15.2 52.8c-2.4 9.6-12.8 15.2-22.4 12.8s-15.2-12.8-12.8-22.4l12-42.4h-34.4c-10.4 0-18.4-8-18.4-18.4s8-18.4 18.4-18.4h43.2l32.8-116c2.4-8 8.8-12.8 16.8-13.6 0 0 0.8 0 0.8 0 8 0 14.4 4.8 16.8 12l44 117.6h24l44-117.6c2.4-7.2 8.8-12 16.8-12zM628.8 550.4l-15.2 52h34.4l-19.2-52zM784 602.4l-15.2-52-19.2 52h34.4zM699.2 750.4c10.4 0 18.4 8 18.4 18.4v124c0 37.6-29.6 67.2-66.4 67.2h-446.4c-36.8 0-67.2-29.6-67.2-67.2v-890.4c0-36.8 29.6-67.2 67.2-67.2h446.4c36.8 0 67.2 29.6 67.2 67.2v445.6c0 10.4-8 18.4-18.4 18.4s-18.4-8-18.4-18.4v-271.2h-507.2v635.2h506.4v-43.2c0-10.4 8.8-18.4 18.4-18.4zM680.8 140.8v-137.6c0-16.8-13.6-30.4-30.4-30.4h-445.6c-16.8 0-30.4 13.6-30.4 30.4v137.6h506.4zM174.4 848.8v44c0 16.8 13.6 30.4 30.4 30.4h446.4c16.8 0 30.4-13.6 30.4-30.4v-44.8h-507.2zM428-15.2c40 0 72 32 72 72s-32 72-72 72c-40 0-72-32-72-72s32-72 72-72zM428 92c19.2 0 35.2-16 35.2-35.2s-16-35.2-35.2-35.2c-19.2 0-35.2 16-35.2 35.2s15.2 35.2 35.2 35.2z" />
<glyph unicode="&#x74;" glyph-name="icon-22" d="M961.6 736h-899.2c-34.4 0-62.4-28-62.4-62.4v-132.8c0-10.4 8-18.4 18.4-18.4 40.8 0 74.4-32.8 74.4-73.6s-32.8-73.6-74.4-73.6c-10.4 0-18.4-8-18.4-18.4v-132.8c0-34.4 28-62.4 62.4-62.4h899.2c34.4 0 62.4 28 62.4 62.4v132c0 10.4-8 18.4-18.4 18.4-40.8 0-73.6 32.8-73.6 73.6s32.8 73.6 73.6 73.6c10.4 0 18.4 8 18.4 18.4v133.6c0 34.4-28 62.4-62.4 62.4zM987.2 556.8c-52-8.8-92-54.4-92-108.8s40-100 92-108.8v-116c0-14.4-12-25.6-25.6-25.6h-639.2v26.4c0 10.4-8 18.4-18.4 18.4s-18.4-8-18.4-18.4v-27.2h-224c-14.4 0-25.6 12-25.6 25.6v116.8c52 8.8 92 54.4 92 108.8s-40 100-92 108.8v116.8c0 14.4 12 25.6 25.6 25.6h224v-27.2c0-10.4 8-18.4 18.4-18.4s18.4 8 18.4 18.4v27.2h639.2c14.4 0 25.6-12 25.6-25.6v-116.8zM322.4 611.2v-36c0-10.4-8-18.4-18.4-18.4s-18.4 8-18.4 18.4v36c0 10.4 8 18.4 18.4 18.4s18.4-8 18.4-18.4zM322.4 514.4v-36c0-10.4-8-18.4-18.4-18.4s-18.4 8-18.4 18.4v36c0 10.4 8 18.4 18.4 18.4s18.4-8 18.4-18.4zM322.4 417.6v-36c0-10.4-8-18.4-18.4-18.4s-18.4 8-18.4 18.4v36c0 10.4 8 18.4 18.4 18.4s18.4-8 18.4-18.4zM322.4 320.8v-36c0-10.4-8-18.4-18.4-18.4s-18.4 8-18.4 18.4v36c0 10.4 8 18.4 18.4 18.4s18.4-8 18.4-18.4zM612.8 532c0 36.8-29.6 66.4-66.4 66.4s-66.4-29.6-66.4-66.4 29.6-66.4 66.4-66.4 66.4 29.6 66.4 66.4zM516.8 532c0 16.8 13.6 29.6 29.6 29.6 16.8 0 29.6-13.6 29.6-29.6 0-16.8-13.6-29.6-29.6-29.6-16.8 0-29.6 12.8-29.6 29.6zM719.2 441.6c-36.8 0-66.4-29.6-66.4-66.4s29.6-66.4 66.4-66.4 66.4 29.6 66.4 66.4-29.6 66.4-66.4 66.4zM719.2 345.6c-16.8 0-29.6 13.6-29.6 29.6 0 16.8 13.6 29.6 29.6 29.6s29.6-13.6 29.6-29.6c0-16-12.8-29.6-29.6-29.6zM734.4 577.6l-172.8-266.4c-3.2-5.6-9.6-8-15.2-8-3.2 0-7.2 0.8-9.6 3.2-8.8 5.6-11.2 16.8-5.6 25.6l172.8 265.6c5.6 8.8 16.8 11.2 25.6 5.6 8-6.4 10.4-17.6 4.8-25.6z" />
<glyph unicode="&#x75;" glyph-name="icon-24" d="M820-45.6v306.4c0 10.4-8 18.4-18.4 18.4s-18.4-8-18.4-18.4v-288h-690.4v820h136.8v-22.4c0-34.4 28-61.6 61.6-61.6h293.6c34.4 0 61.6 28 61.6 61.6v22.4h136.8v-131.2c0-10.4 8-18.4 18.4-18.4s18.4 8 18.4 18.4v149.6c0 10.4-8 18.4-18.4 18.4h-155.2v24c0 10.4-8 18.4-18.4 18.4h-84.8c-8.8 49.6-52.8 88-104.8 88-52.8 0-96.8-38.4-104.8-88.8h-85.6c-10.4 0-18.4-8-18.4-18.4v-24h-155.2c-10.4 0-18.4-8-18.4-18.4v-856.8c0-10.4 8-18.4 18.4-18.4h727.2c10.4 0.8 18.4 8.8 18.4 19.2zM265.6 835.2h83.2c10.4 0 18.4 8 18.4 18.4 0 38.4 31.2 70.4 70.4 70.4 38.4 0 70.4-31.2 70.4-70.4 0-10.4 8-18.4 18.4-18.4h83.2v-64c0-13.6-11.2-25.6-25.6-25.6h-292.8c-13.6 0-25.6 11.2-25.6 25.6v64zM676.8 533.6h-477.6c-10.4 0-18.4 8-18.4 18.4s8 18.4 18.4 18.4h478.4c10.4 0 18.4-8 18.4-18.4s-8.8-18.4-19.2-18.4zM563.2 407.2h-364c-10.4 0-18.4 8-18.4 18.4s8 18.4 18.4 18.4h364.8c10.4 0 18.4-8 18.4-18.4s-8.8-18.4-19.2-18.4zM452 281.6h-252.8c-10.4 0-18.4 8-18.4 18.4s8 18.4 18.4 18.4h252.8c10.4 0 18.4-8 18.4-18.4-0.8-10.4-8.8-18.4-18.4-18.4zM424.8 192c10.4 0 18.4-8 18.4-18.4s-8-18.4-18.4-18.4h-225.6c-10.4 0-18.4 8-18.4 18.4s8 18.4 18.4 18.4h225.6zM943.2 604c-31.2 31.2-86.4 31.2-117.6 0l-288-288.8c-2.4-2.4-4-4.8-4.8-8l-37.6-128.8c-1.6-6.4 0-13.6 4.8-18.4 3.2-3.2 8-5.6 12.8-5.6 1.6 0 3.2 0 4.8 0.8l128.8 37.6c3.2 0.8 5.6 2.4 8 4.8l288.8 288.8c32.8 32.8 32.8 85.6 0 117.6zM632 227.2l-92.8-27.2 27.2 92.8 285.6 285.6c17.6 17.6 48 17.6 65.6 0 18.4-18.4 18.4-47.2 0-65.6l-285.6-285.6z" />
<glyph unicode="&#x76;" glyph-name="icon-43" d="M607.2 828.8h-190.4c-156.8 0-285.6-128.8-285.6-285.6v-191.2c0-156.8 128.8-285.6 285.6-285.6h191.2c156.8 0 285.6 128.8 285.6 285.6v191.2c-0.8 157.6-128.8 285.6-286.4 285.6zM413.6 437.6c-4.8-45.6-45.6-78.4-91.2-78.4h-13.6v36h17.6c32 0 56.8 28.8 50.4 62.4-4.8 24.8-28 41.6-52.8 41.6h-51.2v-190.4h-36v188c0 20 16 36 36 36h52.8c52 0.8 93.6-43.2 88-95.2zM604 428v-68.8h-36v86.4c0 28.8-23.2 52-52 52s-52-23.2-52-52c0-28.8 23.2-52 52-52h17.6v-36h-17.6c-48 0-87.2 39.2-87.2 87.2s39.2 87.2 87.2 87.2c48 0 87.2-39.2 87.2-87.2v-16.8zM649.6 526.4l44-89.6-20-40-63.2 129.6h39.2zM689.6 300h-40l110.4 226.4h40l-110.4-226.4z" />
<glyph unicode="&#x77;" glyph-name="icon-19" d="M675.2 652.8c0 89.6-72.8 163.2-163.2 163.2s-163.2-73.6-163.2-163.2c0-90.4 73.6-163.2 163.2-163.2 90.4-0.8 163.2 72.8 163.2 163.2zM385.6 652.8c0 69.6 56.8 126.4 126.4 126.4s126.4-56.8 126.4-126.4-56.8-127.2-126.4-127.2c-69.6 0-126.4 56.8-126.4 127.2zM27.2-64h969.6c7.2 0 13.6 4 16.8 10.4s2.4 13.6-1.6 19.2l-200.8 262.4c-3.2 4.8-8.8 7.2-14.4 7.2h-139.2c78.4 108 161.6 260.8 161.6 417.6 0 169.6-137.6 307.2-307.2 307.2s-307.2-137.6-307.2-307.2c0-156.8 83.2-309.6 161.6-418.4h-138.4c-5.6 0-11.2-2.4-14.4-7.2l-200.8-261.6c-4.8-5.6-4.8-12.8-2.4-19.2 3.2-6.4 9.6-10.4 16.8-10.4zM393.6 198.4c32-41.6 61.6-73.6 80.8-94.4h-121.6l40.8 94.4zM630.4 198.4v0l40.8-94.4h-121.6c19.2 20 48.8 52.8 80.8 94.4zM512 67.2h174.4l40-94.4h-428.8l40 94.4h174.4zM766.4-27.2l-40 94.4h160.8l72.8-94.4h-193.6zM859.2 104h-148l-40 94.4h116l72-94.4zM512 923.2c149.6 0 271.2-121.6 271.2-271.2 0-239.2-216-477.6-271.2-535.2-55.2 56.8-271.2 295.2-271.2 535.2 0 149.6 121.6 271.2 271.2 271.2zM237.6 198.4h116l-40-94.4h-148.8l72.8 94.4zM136.8 67.2h160.8l-40-94.4h-193.6l72.8 94.4z" />
<glyph unicode="&#x78;" glyph-name="icon-41" d="M824 699.2h-734.4c-49.6 0-89.6-40-89.6-89.6v-432.8c0-49.6 40-89.6 89.6-89.6h734.4c49.6 0 89.6 40 89.6 89.6v432.8c0.8 49.6-40 89.6-89.6 89.6zM89.6 662.4h734.4c29.6 0 52.8-24 52.8-52.8v-28.8h-840v28.8c0 29.6 24 52.8 52.8 52.8zM824 123.2h-734.4c-29.6 0-52.8 24-52.8 52.8v252h840.8v-251.2c0-29.6-24-53.6-53.6-53.6zM326.4 231.2c0-10.4-8-18.4-18.4-18.4h-172c-10.4 0-18.4 8-18.4 18.4s8 18.4 18.4 18.4h172c10.4 0 18.4-8.8 18.4-18.4zM802.4 311.2v-83.2c0-19.2-16-35.2-35.2-35.2h-83.2c-19.2 0-35.2 16-35.2 35.2v83.2c0 19.2 16 35.2 35.2 35.2h83.2c19.2 0 35.2-16 35.2-35.2zM1024 719.2v-432.8c0-32-16.8-61.6-44.8-77.6-3.2-1.6-6.4-2.4-8.8-2.4-6.4 0-12.8 3.2-16 8.8-4.8 8.8-2.4 20 6.4 24.8 16 9.6 26.4 27.2 26.4 46.4v432.8c0 29.6-24 52.8-52.8 52.8h-734.4c-17.6 0-34.4-8.8-44-23.2-3.2-5.6-9.6-8-15.2-8-3.2 0-7.2 0.8-10.4 3.2-8 5.6-10.4 16.8-4.8 25.6 16.8 24.8 44.8 39.2 74.4 39.2h734.4c49.6 0.8 89.6-40 89.6-89.6z" />
<glyph unicode="&#x79;" glyph-name="icon-23" d="M520.8 330.4c-24.8 13.6-52.8 18.4-72.8 22.4-8.8 1.6-20 4-22.4 4.8-2.4 2.4-4 11.2-4 16.8 5.6 6.4 16.8 20.8 25.6 40 4.8 11.2 6.4 20.8 7.2 26.4 0.8 0.8 2.4 0.8 3.2 1.6 0 0 0 0 0.8 0 14.4 8 22.4 18.4 22.4 49.6 0 27.2-4.8 42.4-17.6 51.2v24c0.8 0.8 1.6 2.4 2.4 3.2 6.4 7.2 16.8 18.4 16.8 37.6 0 26.4-18.4 58.4-60 70.4-35.2 9.6-75.2-2.4-92.8-12-3.2-1.6-14.4-3.2-22.4-4.8-12-1.6-26.4-3.2-39.2-8.8-29.6-11.2-46.4-34.4-46.4-63.2v-46.4c-8.8-6.4-16-16.8-16-34.4 0-23.2 0-60 28-69.6 0.8-6.4 1.6-15.2 7.2-26.4 8.8-19.2 19.2-32.8 25.6-40 0-5.6-1.6-14.4-3.2-16-3.2-1.6-14.4-4-23.2-5.6-20-4-47.2-8.8-72.8-21.6-52.8-27.2-56.8-81.6-56.8-97.6 0-10.4 8-18.4 18.4-18.4h432c10.4 0 18.4 8 18.4 18.4 0 16-4.8 70.4-58.4 98.4zM370.4 250.4h-221.6c3.2 16 12.8 36 36.8 48 20 10.4 44 15.2 62.4 18.4 19.2 4 31.2 6.4 40 13.6 16 14.4 20.8 50.4 11.2 62.4-0.8 0.8-1.6 1.6-2.4 3.2-4 4.8-14.4 16-21.6 32.8-3.2 7.2-4 12-4 16.8-0.8 8.8-3.2 24-24 29.6-3.2 6.4-3.2 28-3.2 35.2 0 0.8 0 4.8 0 4.8 8.8 1.6 16 8.8 16 18.4v58.4c0 4.8 0 20 22.4 28.8 8 3.2 20 4.8 30.4 6.4 14.4 1.6 26.4 3.2 36 8.8 8 4.8 38.4 15.2 64 8 23.2-6.4 32.8-22.4 32.8-35.2 0-4.8-2.4-7.2-7.2-12.8-5.6-5.6-12.8-13.6-12.8-25.6v-37.6c0-7.2 4-13.6 11.2-16.8l4-0.8c0 0 2.4-4.8 2.4-22.4 0-12.8-1.6-16-1.6-16-0.8 0-0.8-0.8-1.6-0.8-19.2-5.6-21.6-20.8-22.4-28.8-0.8-4.8-1.6-9.6-4-16.8-7.2-16.8-17.6-28-21.6-32.8-1.6-1.6-2.4-2.4-2.4-3.2-8.8-12-4-48 11.2-62.4 8-7.2 20.8-9.6 40-13.6 19.2-3.2 42.4-8 62.4-18.4 24-12 32.8-32 36.8-48h-169.6zM925.6 790.4h-827.2c-54.4 0-98.4-44-98.4-98.4v-487.2c0-54.4 44-98.4 98.4-98.4h826.4c54.4 0 98.4 44 98.4 98.4v487.2c0.8 54.4-43.2 98.4-97.6 98.4zM987.2 204c0-34.4-28-62.4-62.4-62.4h-826.4c-34.4 0-62.4 28-62.4 62.4v488c0 34.4 28 62.4 62.4 62.4h826.4c34.4 0 62.4-28 62.4-62.4v-488zM893.6 588c0-10.4-8-18.4-18.4-18.4h-248c-10.4 0-18.4 8-18.4 18.4s8 18.4 18.4 18.4h248c10.4 0 18.4-8 18.4-18.4zM893.6 500.8c0-10.4-8-18.4-18.4-18.4h-248c-10.4 0-18.4 8-18.4 18.4s8 18.4 18.4 18.4h248c10.4 0 18.4-8 18.4-18.4z" />
<glyph unicode="&#x7a;" glyph-name="icon-40" d="M824 699.2h-734.4c-49.6 0-89.6-40-89.6-89.6v-432.8c0-49.6 40-89.6 89.6-89.6h734.4c49.6 0 89.6 40 89.6 89.6v432.8c0.8 49.6-40 89.6-89.6 89.6zM36.8 544h840.8v-80h-840.8v80zM89.6 662.4h734.4c29.6 0 52.8-24 52.8-52.8v-28.8h-840v28.8c0 29.6 24 52.8 52.8 52.8zM824 123.2h-734.4c-29.6 0-52.8 24-52.8 52.8v252h840.8v-251.2c0-29.6-24-53.6-53.6-53.6zM326.4 231.2c0-10.4-8-18.4-18.4-18.4h-172c-10.4 0-18.4 8-18.4 18.4s8 18.4 18.4 18.4h172c10.4 0 18.4-8.8 18.4-18.4zM802.4 311.2v-83.2c0-19.2-16-35.2-35.2-35.2h-83.2c-19.2 0-35.2 16-35.2 35.2v83.2c0 19.2 16 35.2 35.2 35.2h83.2c19.2 0 35.2-16 35.2-35.2zM1024 719.2v-432.8c0-32-16.8-61.6-44.8-77.6-3.2-1.6-6.4-2.4-8.8-2.4-6.4 0-12.8 3.2-16 8.8-4.8 8.8-2.4 20 6.4 24.8 16 9.6 26.4 27.2 26.4 46.4v432.8c0 29.6-24 52.8-52.8 52.8h-734.4c-17.6 0-34.4-8.8-44-23.2-3.2-5.6-9.6-8-15.2-8-3.2 0-7.2 0.8-10.4 3.2-8 5.6-10.4 16.8-4.8 25.6 16.8 24.8 44.8 39.2 74.4 39.2h734.4c49.6 0.8 89.6-40 89.6-89.6z" />
</font>
</defs>
</svg>
