<svg xmlns="http://www.w3.org/2000/svg" viewBox="0 0 105.71 100.74"><title>자산 1</title><g id="&#xB808;&#xC774;&#xC5B4;_2" data-name="&#xB808;&#xC774;&#xC5B4; 2"><g id="Layer_1" data-name="Layer 1"><path d="M44.63,0h25a1.31,1.31,0,0,1,.93.39,1.32,1.32,0,0,1,.38.94C70.54,22.2,50,25.53,49.78,25.56H23.23a1.3,1.3,0,0,1-1.31-1.42C23.69,3.24,44.42.05,44.63,0ZM90.14,67H79.74c-2,11.09-9.75,33.74-39.51,33.74C.81,100.74,0,61,0,61V37.17a1.31,1.31,0,0,1,1.31-1.31H90.14a15.57,15.57,0,0,1,0,31.14Zm-.37-23.22a7.56,7.56,0,1,0,7.56,7.56A7.56,7.56,0,0,0,89.77,43.78Z"></path></g></g></svg>