<svg xmlns="http://www.w3.org/2000/svg" id="Layer_1" height="512" viewBox="0 0 468 468" width="512"><g><path d="m0 152.062v189.144c0 21.058 17.131 38.189 38.189 38.189s38.189-17.132 38.189-38.189v-189.144z"></path><g><path d="m317.623 232.948c-46.538 0-84.4 37.908-84.4 84.502s37.862 84.502 84.4 84.502 84.4-37.908 84.4-84.502-37.861-84.502-84.4-84.502z"></path><g><path d="m149.523 63.83h182.499v60.874h-182.499z"></path><path d="m91.264 0v341.183c0 14.989-6.24 28.548-16.258 38.212h165.005c-11.187-14.037-18.376-30.864-20.776-48.693h-77.155c-4.111 0-7.443-3.332-7.443-7.443s3.332-7.443 7.443-7.443h76.278c.288-17.791 5.268-34.458 13.755-48.817h-90.033c-4.111 0-7.443-3.332-7.443-7.443s3.332-7.443 7.443-7.443h100.791c18.214-20.855 44.971-34.051 74.753-34.051 27.843 0 54.09 11.752 72.657 31.689v-249.751zm248.201 203.295h-197.385c-4.111 0-7.443-3.332-7.443-7.443s3.332-7.443 7.443-7.443h197.385c4.111 0 7.443 3.332 7.443 7.443s-3.332 7.443-7.443 7.443zm7.443-71.147c0 4.111-3.332 7.443-7.443 7.443h-197.385c-4.111 0-7.443-3.332-7.443-7.443v-75.76c0-4.111 3.332-7.443 7.443-7.443h197.385c4.111 0 7.443 3.332 7.443 7.443z"></path></g><path d="m375.011 398.534 46.714 56.925c9.685 11.93 26.565 18.242 39.593 5.631 12.32-13.143 5.976-29.771-5.851-39.432l-56.849-46.754c-6.482 9.138-14.479 17.141-23.607 23.63z"></path></g></g></svg>