<svg xmlns="http://www.w3.org/2000/svg" height="496pt" viewBox="-4 0 496 496" width="496pt"><path d="m262.144531 83.804688c0-10.074219-8.148437-18.242188-18.199219-18.242188-10.054687 0-18.203124 8.167969-18.203124 18.242188 0 10.074218 8.148437 18.238281 18.203124 18.238281 10.050782 0 18.199219-8.164063 18.199219-18.238281zm0 0"></path><path d="m196.015625 182.007812c0-10.070312-8.148437-18.234374-18.199219-18.234374-10.050781 0-18.199218 8.164062-18.199218 18.234374 0 10.070313 8.148437 18.234376 18.199218 18.234376 10.050782 0 18.199219-8.164063 18.199219-18.234376zm0 0"></path><path d="m328.445312 182.007812c0-10.070312-8.148437-18.234374-18.203124-18.234374-10.050782 0-18.199219 8.164062-18.199219 18.234374 0 10.070313 8.148437 18.234376 18.199219 18.234376 10.054687 0 18.203124-8.164063 18.203124-18.234376zm0 0"></path><path d="m35.890625 199.042969 149.355469 121.9375 55.824218-66.753907c1.613282-1.921874 3.976563-3.046874 6.476563-3.070312 2.5625-.015625 4.886719 1.050781 6.53125 2.945312l56.546875 64.988282 141.261719-122.53125 13.75-11.5-223.417969-185.058594-224.078125 184.902344zm309.707031-17.035157c0 19.585938-15.863281 35.515626-35.355468 35.515626-4.613282 0-9.015626-.917969-13.0625-2.542969-14.660157 13.203125-33.308594 20.464843-53.238282 20.464843-9 0-17.832031-1.492187-26.257812-4.4375-4.664063-1.625-9.195313-3.699218-13.46875-6.160156-4.109375-2.371094-5.539063-7.648437-3.1875-11.792968 2.355468-4.140626 7.597656-5.570313 11.703125-3.210938 3.355469 1.933594 6.910156 3.554688 10.570312 4.835938 6.613281 2.308593 13.558594 3.480468 20.640625 3.480468 14.390625 0 27.917969-4.839844 38.960938-13.667968-5.003906-6.128907-8.015625-13.960938-8.015625-22.492188 0-19.585938 15.859375-35.519531 35.355469-35.519531 19.496093.007812 35.355468 15.945312 35.355468 35.527343zm-101.652344-133.722656c19.25 0 34.929688 15.550782 35.316407 34.808594 19.554687 9.722656 34.722656 27.414062 41.144531 48.429688 1.398438 4.5625-1.140625 9.398437-5.671875 10.800781-.839844.261719-1.691406.386719-2.527344.386719-3.667969 0-7.058593-2.386719-8.195312-6.097657-4.65625-15.234375-15.203125-28.191406-28.882813-36.113281-5.957031 11.191406-17.695312 18.828125-31.1875 18.828125-19.492187 0-35.355468-15.9375-35.355468-35.519531 0-19.585938 15.863281-35.523438 35.359374-35.523438zm-79.65625 100.917969c1.578126-21.511719 11.574219-41.511719 28.164063-55.539063 3.625-3.070312 9.035156-2.589843 12.082031 1.0625 3.050782 3.65625 2.574219 9.105469-1.054687 12.175782-12.046875 10.1875-19.675781 24.386718-21.742188 39.816406 17.652344 1.96875 31.429688 17.039062 31.429688 35.289062 0 19.585938-15.859375 35.515626-35.355469 35.515626s-35.351562-15.929688-35.351562-35.515626c.003906-14.769531 9.03125-27.457031 21.828124-32.804687zm0 0"></path><path d="m205.058594 324.117188 36.390625-.53125 49.644531-.730469-43.332031-49.804688zm0 0"></path><path d="m257.160156 440.464844-9.527344 7.777344c-.535156.441406-1.152343.699218-1.753906.984374-.847656.410157-1.71875.660157-2.632812.769532-.339844.039062-.671875.171875-1.011719.171875-.957031 0-1.914063-.164063-2.832031-.484375-.28125-.097656-.523438-.316406-.792969-.449219-.613281-.289063-1.234375-.554687-1.777344-1l-216.71875-177.246094-20.113281 16.914063 241.457031 208.097656 246.542969-202.925781-24.371094-21.117188zm0 0"></path><path d="m242.828125 429.925781 233.1875-190.363281-19.332031-23.792969-141.320313 122.015625c-.191406.167969-.410156.292969-.617187.441406-.015625.011719-.03125.027344-.046875.039063-.105469.074219-.207031.160156-.320313.230469-.074218.046875-.144531.113281-.21875.160156-.199218.121094-.421875.199219-.628906.304688-.234375.113281-.464844.25-.707031.34375-.109375.039062-.21875.058593-.328125.09375-.136719.046874-.269532.078124-.40625.117187-.011719 0-.015625.003906-.023438.003906-.222656.066407-.4375.148438-.671875.191407-.488281.097656-.984375.148437-1.488281.152343l-123.390625 1.804688h-.003906c-.039063 0-.082031 0-.125 0-.492188 0-.976563-.042969-1.453125-.125-.195313-.03125-.375-.097657-.5625-.148438-.050782-.011719-.101563-.027343-.15625-.039062-.125-.035157-.253906-.058594-.382813-.097657-.101562-.035156-.207031-.046874-.304687-.082031-.269532-.097656-.527344-.234375-.789063-.359375-.175781-.085937-.363281-.148437-.535156-.246094-.089844-.050781-.171875-.117187-.257813-.175781-.117187-.070312-.226562-.152343-.335937-.230469-.210937-.140624-.429687-.265624-.625-.429687l-.617187-.5-149.605469-121.703125-22.054688 20.992188 233.539063 191.871093zm0 0"></path></svg>