<svg xmlns="http://www.w3.org/2000/svg" id="Layer_1" height="512" viewBox="0 0 72 72" width="512"><g><g><g><path d="m50.7 52.8c-.2.6-.3 1.3-.3 2-6.1-1.4-13.4-4.4-20.4-8.4-7.5-4.4-14-9.4-18.2-14.3-4.5-5.2-6-9.6-4.3-12.6.5-.9 1.3-1.6 2.3-2.1 0 .5.1 1 .2 1.5.1.2.1.4.2.6-.4.3-.7.6-.9 1-1.2 2.1.3 5.8 4.1 10.2 4.1 4.7 10.4 9.7 17.7 13.9 6.7 4 13.7 6.8 19.6 8.2z"></path></g><g><path d="m64.6 52.5c-.5.9-1.3 1.6-2.3 2.1v-.3c0-.6-.2-1.2-.4-1.8.4-.3.7-.6.9-1 1.2-2.1-.3-5.8-4.1-10.2-4.1-4.7-10.4-9.7-17.7-13.9-6.8-3.9-13.8-6.8-19.6-8.1.2-.6.3-1.3.3-2 6.1 1.4 13.3 4.3 20.3 8.4 7.5 4.3 14 9.3 18.2 14.2 4.5 5.2 6.1 9.7 4.4 12.6z"></path></g><g><path d="m39 3.9c-.6.3-1.2.8-1.6 1.4-.5-.2-1-.3-1.4-.3-4.8 0-10 12.5-10 31 0 7.9 1 15.3 2.8 21.1-.7.1-1.3.4-1.9.8-1.8-6-2.9-13.8-2.9-21.9 0-16.2 4.5-33 12-33 1 0 2 .3 3 .9z"></path></g><g><path d="m48 36c0 18.5-5.3 33-12 33-1 0-2-.3-3-.9.6-.3 1.2-.8 1.6-1.4.4.2.9.3 1.3.3 4.8 0 10-12.5 10-31 0-7.8-1-15.3-2.8-21.1.7-.1 1.3-.4 1.9-.8 1.9 6 3 13.8 3 21.9z"></path></g><g><path d="m59.4 32.9c-4.2 4.6-10.4 9.4-17.4 13.5-7.5 4.3-15.1 7.4-21.5 8.6-2 .4-3.9.6-5.5.6-3.8 0-6.4-1.1-7.6-3.1-.5-.9-.7-1.9-.7-3 .1.1.2.1.3.2.6.3 1.1.5 1.7.6 0 .5.2.9.4 1.3 1.2 2.1 5.2 2.7 10.9 1.5 6.2-1.2 13.6-4.2 20.9-8.4 6.8-3.9 12.8-8.5 16.9-12.9.5.4 1 .8 1.6 1.1z"></path></g><g><path d="m65.2 22.5c-.1 0-.2-.1-.3-.1-.5-.3-1.1-.5-1.8-.6 0-.5-.2-.9-.4-1.3-1.2-2.1-5.2-2.7-10.9-1.5-6.2 1.2-13.6 4.2-20.9 8.4-6.8 3.9-12.8 8.5-16.9 12.9-.4-.5-1-.9-1.6-1.2 4.4-4.6 10.6-9.4 17.6-13.5 7.5-4.3 15.1-7.4 21.5-8.6 6.7-1.3 11.4-.4 13.1 2.5.5.9.7 1.9.6 3z"></path></g></g><g><path d="m65.8 29.5c-1 2-3.4 2.7-5.3 1.7s-2.7-3.4-1.7-5.3 3.4-2.7 5.3-1.7c2 1 2.7 3.4 1.7 5.3z"></path><path d="m19.1 19.4c-.7 1.3-2.1 2-3.4 2-1.7 0-3.4-1.2-3.8-2.9-.9-3.4 2.8-6.2 5.8-4.5 1.8 1.1 2.5 3.5 1.4 5.4z"></path><path d="m60.3 54.4c.1 2.2-1.6 4-3.8 4.1-2.5 0-4-1.8-4.1-3.8-.1-2.2 1.6-4 3.8-4.1 2.1-.1 4 1.6 4.1 3.8z"></path><path d="m13.3 46.1c-1 1.9-3.4 2.7-5.3 1.7s-2.7-3.4-1.7-5.3 3.4-2.7 5.3-1.7 2.6 3.4 1.7 5.3z"></path><path d="m34 62.9c0 2.2-1.8 4-4 4s-4-1.8-4-4 1.8-4 4-4 4 1.8 4 4z"></path><circle cx="36" cy="36" r="5.5"></circle><path d="m45.9 9.1c0 2.2-1.8 4-4 4-2.5 0-4.4-2.3-3.9-4.8.5-2.1 2.6-3.5 4.7-3 2 .3 3.2 2 3.2 3.8z"></path></g></g></svg>