<svg xmlns="http://www.w3.org/2000/svg" id="Capa_1" height="512" viewBox="0 0 609.619 609.619" width="512"><g><g id="Page-1_11_"><g id="_x30_12---Notification"><path id="Shape_96_" d="m266.708 609.619c19.848-.029 37.177-13.449 42.173-32.658h-84.345c4.995 19.209 22.324 32.628 42.172 32.658z"></path><path id="Shape_95_" d="m288.48 44.807v-23.035c0-12.024-9.747-21.772-21.772-21.772s-21.772 9.748-21.772 21.772v22.937c14.473-1.586 29.078-1.553 43.544.098z"></path><path id="Shape_94_" d="m459.391 401.793c-1.241-6.63-2.297-13.782-3.266-21.119-65.703-2.773-122.198-47.422-140.078-110.706s6.899-130.895 61.437-167.64c-56.049-42.026-131.034-48.77-193.682-17.418s-102.198 95.415-102.157 165.469v67.602c-.031 28.112-2.581 56.165-7.62 83.823l-11.975 66.296h409.315zm-280.12-262.604c-34.205 26.744-54.16 67.771-54.082 111.19 0 6.012-4.874 10.886-10.886 10.886s-10.886-4.874-10.886-10.886c-.098-50.097 22.918-97.438 62.377-128.303 3.057-2.407 7.166-3.001 10.779-1.557s6.182 4.705 6.738 8.556c.558 3.851-.983 7.707-4.04 10.114z"></path><path id="Shape_93_" d="m462.657 97.974c-72.146 0-130.633 58.486-130.633 130.633s58.487 130.633 130.633 130.633 130.633-58.487 130.633-130.633c-.078-72.114-58.519-130.555-130.633-130.633zm21.772 217.721h-43.544c-6.012 0-10.886-4.874-10.886-10.886s4.874-10.886 10.886-10.886h10.886v-115.24l-3.19 3.19c-4.271 4.126-11.061 4.067-15.26-.133-4.199-4.199-4.258-10.989-.133-15.26l21.772-21.772c3.113-3.112 7.795-4.043 11.862-2.359 4.067 1.685 6.719 5.653 6.72 10.055v141.519h10.886c6.012 0 10.886 4.874 10.886 10.886.001 6.013-4.873 10.886-10.885 10.886z"></path><path id="Shape_92_" d="m484.429 489.872h-435.442c-18.037 0-32.658 14.622-32.658 32.658 0 18.037 14.622 32.658 32.658 32.658h435.442c18.037 0 32.658-14.622 32.658-32.658s-14.621-32.658-32.658-32.658z"></path></g></g></g></svg>