<svg xmlns="http://www.w3.org/2000/svg" id="Layer_1" height="512" viewBox="0 0 72 72" width="512"><g><path d="m19.2 57.7c-2.8 0-5.2 2.3-5.2 5.2s2.3 5.2 5.2 5.2h38c-1.6-3.4-1.6-6.9 0-10.3h-38zm32.1 6.2h-32.2c-.6 0-1-.5-1-1s.5-1 1-1h32.2c.6 0 1 .5 1 1s-.4 1-1 1z"></path><path d="m20.2 10.2h31.5v13.1h-31.5z"></path><path d="m19.2 55.6h38.8v-51.6h-38.8c-2.8 0-5.2 2.3-5.2 5.2v48.6c1.4-1.4 3.2-2.2 5.2-2.2zm19.3-5.5h-17.7c-.6 0-1-.5-1-1s.5-1 1-1h17.7c.6 0 1 .5 1 1s-.5 1-1 1zm12.7-5.4h-30.4c-.6 0-1-.5-1-1s.5-1 1-1h30.4c.6 0 1 .5 1 1s-.4 1-1 1zm0-5.4h-30.4c-.6 0-1-.5-1-1 0-.6.5-1 1-1h30.4c.6 0 1 .5 1 1 0 .6-.4 1-1 1zm0-5.4h-30.4c-.6 0-1-.5-1-1s.5-1 1-1h30.4c.6 0 1 .5 1 1s-.4 1-1 1zm-33-24.7c0-.6.5-1 1-1h33.6c.6 0 1 .5 1 1v15.1c0 .6-.5 1-1 1h-33.6c-.6 0-1-.5-1-1z"></path></g></svg>