<svg xmlns="http://www.w3.org/2000/svg" id="Layer_1" height="512" viewBox="0 0 520 520" width="512" data-name="Layer 1"><path d="m88.105 347.555h-43.28v144h43.28a10.754 10.754 0 0 0 10.718-10.717v-122.647a10.685 10.685 0 0 0 -10.718-10.636zm-12.19 121.087a5.92 5.92 0 0 1 -8.182 0 5.852 5.852 0 0 1 0-8.1c5.433-5.061 13.367 2.621 8.182 8.1zm173.449-202.9v40.658l15.545-10.636a5.941 5.941 0 0 1 6.545 0l15.546 10.636v-40.66zm117 0h-67.911v51.543c0 3.568-4.013 6.9-7.69 5.318-1.757-.582-5-3.3-22.581-15.136l-21.272 14.561c-4.518 2.259-7.891-.067-8.918-4.172-.244-.6 0-51.478-.082-52.116h-67.91a10.614 10.614 0 0 0 -10.636 10.635v84.516c3.263 3.565 5.192 11.622 6.791 16.118h56.534c29.042-.673 45.168 36.476 25.2 57.27h2.619l126.492-61.688v-96.216a10.614 10.614 0 0 0 -10.64-10.635zm-40.912 106.358h-24.544c-7.492 0-7.5-11.456 0-11.455h24.544c7.493-.001 7.505 11.455 0 11.455zm75.516 11.7c-3.055-4.788-9.46-6.389-15.872-2.454-.082.081-.163.081-.245.163-138.9 67.514-130.451 64.226-133.033 64.226h-65.452c-7.482 0-7.514-11.45 0-11.455h36.326c29.877-.792 29.878-45.025 0-45.816h-60.707a5.623 5.623 0 0 1 -5.4-3.928c-2.929-7.2-3.96-20.9-14.481-20.617h-31.826v104.481l85.906 39.6a91.575 91.575 0 0 0 99.078-15.872l104.07-94.252c5.073-4.668 4.091-10.476 1.636-14.076z"></path><path d="m126.886 9.738-10.718 17.918a26.449 26.449 0 0 0 28.308-7.036zm-40.58 67.5-10.8 17.836 17.594 11.126a27.323 27.323 0 0 0 -6.794-28.964zm177.785 116.422a26.74 26.74 0 0 0 -19.309 8.345l17.59 11.127 11.373-17.672a27.66 27.66 0 0 0 -9.654-1.8zm-69.543-99.733c-24.818.631-24.813 37.007 0 37.635 24.817-.632 24.812-37.008 0-37.635zm0 0c-24.818.631-24.813 37.007 0 37.635 24.817-.632 24.812-37.008 0-37.635zm49.58 40.58c-19.463-10.758-16.871-42.251 3.763-49.825l-93.433-57.926a38.329 38.329 0 0 1 -44.344 10.882l-17.754 29.535c12.986 10.432 17.458 29.9 10.636 45.244l131.887 83.37c10.633-12.991 29.961-17.437 45.162-10.145l13.663-21.109zm-49.58 8.509c-39.917-1.05-39.909-59.5 0-60.544 39.916 1.05 39.908 59.5 0 60.544zm0-49.089c-24.818.631-24.813 37.007 0 37.635 24.817-.632 24.812-37.008 0-37.635zm0 0c-24.818.631-24.813 37.007 0 37.635 24.817-.632 24.812-37.008 0-37.635zm0 0c-24.818.631-24.813 37.007 0 37.635 24.817-.632 24.812-37.008 0-37.635zm151.522-81a68.028 68.028 0 0 0 -80.916 10.145l-36.98 35.835 98.915 61.28c8.725 4.364 1.408 15.107-4.664 10.555l-55.552-34.279c-18.677-11.118-35.063 16.952-16.854 28.226l77.152 46.8a42.765 42.765 0 0 0 45.244-.409l37.307-23.563v-83.862a21.913 21.913 0 0 1 4.091-12.681zm85.743 40.09a10.614 10.614 0 0 0 -10.636 10.636v90a10.614 10.614 0 0 0 10.636 10.636h43.362v-111.27zm18.572 89.588c-6.255 2.671-11.84-6.92-4.418-10.636a5.892 5.892 0 0 1 4.418 0 5.8 5.8 0 0 1 0 10.638z"></path></svg>