<svg xmlns="http://www.w3.org/2000/svg" id="Glyph" height="512" viewBox="0 0 64 64" width="512"><g fill="rgb(0,0,0)"><path d="m55 6.49h-46a5.00824 5.00824 0 0 0 -5 5v5.95h56v-5.95a5.00824 5.00824 0 0 0 -5-5zm-35.77 7.65a1.99943 1.99943 0 0 1 -2 2h-4.9a1.99943 1.99943 0 0 1 -2-2v-2.35a2.00587 2.00587 0 0 1 2-2h4.9a2.00587 2.00587 0 0 1 2 2zm13.8 1.87h-10.84a1.00011 1.00011 0 0 1 0-2h10.84a1.00011 1.00011 0 0 1 0 2zm0-4.09h-10.84a1.00011 1.00011 0 0 1 0-2h10.84a1.00011 1.00011 0 0 1 0 2z"></path><path d="m38.96 35.14a11.20285 11.20285 0 0 0 -11.19 11.19c.6257 14.8286 21.744 14.83475 22.37-.00008a11.20079 11.20079 0 0 0 -11.18-11.18992zm5.67 9.28-7.91 5.46a1.0039 1.0039 0 0 1 -1.44-.33l-2.3-4.07a1.01363 1.01363 0 0 1 .38-1.37.99939.99939 0 0 1 1.36.38l1.76 3.12 7.01-4.84a1.003 1.003 0 0 1 1.14 1.65z"></path><path d="m12.33 11.79h4.9v2.35h-4.9z"></path><path d="m4 19.44h56v9.61h-56z"></path><path d="m4 31.05v8.3a5.00181 5.00181 0 0 0 5 5h16.92c2.28377-13.75218 21.21829-15.22282 25.61-1.99985a12.93617 12.93617 0 0 1 .46 1.99985h3.01a5.00181 5.00181 0 0 0 5-5v-8.3zm7.33 2.56h11.47a1 1 0 0 1 0 2h-11.47a1.00009 1.00009 0 0 1 0-2zm0 4.18h6.91a1.00011 1.00011 0 0 1 0 2h-6.91a1.00009 1.00009 0 0 1 0-2z"></path></g></svg>