<svg xmlns="http://www.w3.org/2000/svg" height="495pt" viewBox="0 -40 495.40387 495" width="495pt"><path d="m491.199219 356.203125-51.199219-36.800781-12 17.597656 28 20h-104c48.800781-36.796875 79.199219-96 79.199219-159.199219 0-108.800781-86.398438-197.597656-192.800781-197.597656-103.199219 0-187.199219 83.199219-192.796876 187.199219l-16-33.601563-18.402343 9.601563 28.800781 59.199218c1.601562 3.199219 4 4.800782 7.199219 5.601563h1.601562c2.398438 0 4.800781-.800781 7.199219-3.203125l49.601562-47.199219-14.402343-16-24.800781 24c5.601562-92 80-164.800781 171.203124-164.800781 95.199219 0 172 79.203125 172 176 0 68-39.203124 130.402344-99.203124 159.203125h-310.398438v21.597656h452l-24.800781 20.800781 12.800781 16.800782 51.199219-42.402344c2.402343-2.398438 4-5.597656 4-8.796875.800781-2.402344-.800781-5.601563-4-8zm0 0"></path><path d="m346.398438 189.800781c0-61.597656-48.796876-111.199219-108.796876-111.199219s-108.800781 49.601563-108.800781 111.199219c0 61.601563 48.800781 111.199219 108.800781 111.199219s108.796876-49.597656 108.796876-111.199219zm-132 0c0-11.199219 7.203124-20 17.601562-23.199219v-48h12.800781v48c8 2.398438 14.398438 8.800782 16 16.800782h51.199219v12.800781h-51.199219c-2.402343 10.398437-12 17.597656-22.402343 17.597656-12.796876 0-24-10.398437-24-24zm0 0"></path></svg>