<svg xmlns="http://www.w3.org/2000/svg" id="Layer_1" height="512" viewBox="0 0 124 124" width="512"><path d="m116.403 21.919c-.009-1.099-.903-1.983-2-1.983-.006 0-.011 0-.017 0-1.104.009-1.993.912-1.984 2.017l.034 4.157c-11.521-15.77-29.918-25.116-49.701-25.116-19.078 0-36.733 8.544-48.439 23.441-.682.868-.531 2.125.337 2.808.869.683 2.126.532 2.809-.337 10.942-13.926 27.451-21.912 45.293-21.912 18.557 0 35.792 8.804 46.555 23.625h-4.231c-1.104 0-2 .896-2 2s.896 2 2 2h9.415c1.092 0 2.009-.925 2-2.017z"></path><path d="m124 61.463c0-7.479-1.367-14.779-4.063-21.699-.401-1.028-1.56-1.538-2.589-1.137-1.029.4-1.539 1.561-1.137 2.59 2.515 6.454 3.79 13.266 3.79 20.246 0 23.994-15.051 45.009-37.717 53.09l2.162-3.307c.604-.924.344-2.164-.58-2.768-.925-.604-2.164-.345-2.769.58l-4.77 7.299c-.665 1.016-.243 2.433.867 2.924l8.036 3.544c2.359 1.035 3.974-2.618 1.614-3.66l-2.511-1.107c23.866-8.834 39.667-31.145 39.667-56.595z"></path><path d="m65.108 117.883c-.787.031-1.578.047-2.373.047-31.576 0-57.265-25.331-57.265-56.468 0-5.509 2.315-12.398 4.521-18.214l1.764 3.903c1.065 2.354 4.706.699 3.646-1.646l-3.729-8.251c-.461-1.018-1.716-1.466-2.718-.965l-7.849 3.932c-.988.494-1.387 1.696-.893 2.684.495.988 1.699 1.389 2.684.893l3.221-1.613c-2.282 6.05-4.646 13.223-4.646 19.278 0 33.342 27.483 60.468 61.265 60.468.848 0 1.692-.018 2.531-.051 1.104-.043 1.963-.974 1.919-2.077-.044-1.105-.977-1.962-2.078-1.92-.786.032 1.101-.042 0 0z"></path><path d="m62.082 48.429c-7.767 0-14.085 6.158-14.085 13.729 0 7.569 6.318 13.728 14.085 13.728s14.085-6.158 14.085-13.728-6.318-13.729-14.085-13.729z"></path><path d="m97.21 54.424h-3.944c-.685-2.92-1.886-5.87-3.534-8.678l2.817-2.812c1.729-1.726 1.765-4.576.183-6.416-.741-.862-3.949-4.138-4.773-4.927-1.683-1.612-4.688-1.913-6.442-.17l-2.8 2.794c-2.636-1.598-5.547-2.827-8.561-3.617v-3.984c0-2.505-1.969-4.543-4.462-4.621-1.147-.036-5.753-.063-6.894 0-2.434.135-4.462 2.161-4.462 4.621v4.094c-2.928.684-5.888 1.884-8.703 3.53l-2.822-2.816c-1.727-1.723-4.577-1.758-6.418-.182-.864.739-4.148 3.941-4.938 4.764-1.615 1.68-1.919 4.69-.169 6.44l2.795 2.789c-1.599 2.628-2.831 5.531-3.622 8.536h-3.998c-2.487 0-4.394 2.264-4.462 4.621-.033 1.144-.063 5.74 0 6.879.135 2.436 2.167 4.457 4.626 4.457h3.944c.685 2.919 1.886 5.87 3.534 8.679l-2.818 2.812c-1.729 1.726-1.764 4.576-.182 6.416.741.862 3.95 4.139 4.774 4.928 1.687 1.614 4.684 1.906 6.442.169l2.8-2.794c2.635 1.597 5.546 2.827 8.561 3.617v3.984c0 2.488 2.271 4.389 4.626 4.457 1.147.033 5.753.063 6.894 0 2.434-.135 4.462-2.161 4.462-4.621v-3.93c2.928-.684 5.888-1.885 8.703-3.53l2.822 2.816c1.728 1.724 4.576 1.758 6.418.181.864-.739 4.147-3.941 4.938-4.763 1.616-1.68 1.92-4.69.169-6.441l-2.795-2.788c1.599-2.63 2.831-5.532 3.622-8.537h3.998c1.923 0 3.738-1.513 4.274-3.312.279-.938.128-8.796.173-8.436-.311-2.478-2.275-4.209-4.776-4.209zm-35.128 25.461c-9.972 0-18.085-7.952-18.085-17.728s8.113-17.729 18.085-17.729 18.085 7.953 18.085 17.729-8.112 17.728-18.085 17.728z"></path></svg>