<svg xmlns="http://www.w3.org/2000/svg" height="512" viewBox="0 0 50 56" width="512"><g id="Page-1" fill="none" fill-rule="evenodd"><g id="008---Mobile-Conversation" fill="rgb(0,0,0)" fill-rule="nonzero"><path id="Shape" d="m33.658 46.753c-.3124237.2727677-.7607938.3243759-1.1270186.1297219-.3662247-.194654-.5742863-.5951656-.5229814-1.0067219l.609-4.876h-.617c-2.209139 0-4-1.790861-4-4v-8c0-2.209139 1.790861-4 4-4h10v-19c-.0042837-3.09881071-2.3654451-5.68564905-5.451-5.972l-2.4 4c-.3623472.60162285-1.0126879.97021242-1.715.972h-14.868c-.7017545-.00192524-1.3515912-.37006494-1.714-.971l-2.4-4c-3.0855697.28583109-5.44715251 2.87222345-5.452 5.971v4h14c2.209139 0 4 1.790861 4 4v12c0 2.209139-1.790861 4-4 4h-.617l.609 4.876c.0513049.4115563-.1567567.8120679-.5229814 1.0067219-.3662248.194654-.8145949.1430458-1.1270186-.1297219l-6.578-5.753h-5.764v20c.00330738 3.3123376 2.6876624 5.9966926 6 6h22c3.3123376-.0033074 5.9966926-2.6876624 6-6v-9h-1.764zm1.342 6.247h-20c-.5522847 0-1-.4477153-1-1s.4477153-1 1-1h20c.5522847 0 1 .4477153 1 1s-.4477153 1-1 1z"></path><path id="Shape" d="m32.434 3 1.8-3h-18.468l1.8 3z"></path><path id="Shape" d="m48 27h-16c-1.1045695 0-2 .8954305-2 2v8c0 1.1045695.8954305 2 2 2h1.75c.2867756.0000809.5597155.1232772.7494778.3382901.1897622.2150129.2780824.5011475.2425222.7857099l-.424 3.395 4.882-4.272c.1827403-.1596913.4173169-.2474798.66-.247h8.14c1.1045695 0 2-.8954305 2-2v-8c0-1.1045695-.8954305-2-2-2zm-15 3h8c.5522847 0 1 .4477153 1 1s-.4477153 1-1 1h-8c-.5522847 0-1-.4477153-1-1s.4477153-1 1-1zm2 6h-2c-.5522847 0-1-.4477153-1-1s.4477153-1 1-1h2c.5522847 0 1 .4477153 1 1s-.4477153 1-1 1zm12 0h-8c-.5522847 0-1-.4477153-1-1s.4477153-1 1-1h8c.5522847 0 1 .4477153 1 1s-.4477153 1-1 1zm0-4h-2c-.5522847 0-1-.4477153-1-1s.4477153-1 1-1h2c.5522847 0 1 .4477153 1 1s-.4477153 1-1 1z"></path><path id="Shape" d="m14.8 28.247 4.884 4.272-.424-3.395c-.0355177-.2842167.0525431-.5700201.2418598-.7849615.1893168-.2149415.4617135-.3383849.7481402-.3390385h1.75c1.1045695 0 2-.8954305 2-2v-12c0-1.1045695-.8954305-2-2-2h-20c-1.1045695 0-2 .8954305-2 2v12c0 1.1045695.8954305 2 2 2h12.14c.2426831-.0004798.4772597.0873087.66.247zm6.2-5.247h-2c-.5522847 0-1-.4477153-1-1s.4477153-1 1-1h2c.5522847 0 1 .4477153 1 1s-.4477153 1-1 1zm-12-6h12c.5522847 0 1 .4477153 1 1s-.4477153 1-1 1h-12c-.55228475 0-1-.4477153-1-1s.44771525-1 1-1zm-6 0h2c.55228475 0 1 .4477153 1 1s-.44771525 1-1 1h-2c-.55228475 0-1-.4477153-1-1s.44771525-1 1-1zm-1 5c0-.5522847.44771525-1 1-1h12c.5522847 0 1 .4477153 1 1s-.4477153 1-1 1h-12c-.55228475 0-1-.4477153-1-1z"></path></g></g></svg>