<svg xmlns="http://www.w3.org/2000/svg" fill="none" height="512" viewBox="0 0 128 128" width="512"><path clip-rule="evenodd" d="m80 26c16.5685 0 30 13.4315 30 30v5c0 16.5685-13.4314 30-30 30h-30.3237c-1.8568 0-3.6769.517-5.2565 1.493l-20.3172 12.554c-2.6649 1.647-6.1026-.27-6.1026-3.403v-45.644c0-16.5685 13.4315-30 30-30zm-35.7554 38.5c2.2092 0 4-1.7909 4-4s-1.7908-4-4-4c-2.2091 0-4 1.7909-4 4s1.7909 4 4 4zm23.7553-4c0 2.2091-1.7909 4-4 4-2.2092 0-4-1.7909-4-4s1.7908-4 4-4c2.2091 0 4 1.7909 4 4zm19.7552 0c0 2.2091-1.7908 4-4 4-2.2091 0-4-1.7909-4-4s1.7909-4 4-4c2.2092 0 4 1.7909 4 4z" fill="rgb(0,0,0)" fill-rule="evenodd"></path></svg>