<svg xmlns="http://www.w3.org/2000/svg" id="Capa_1" height="512" viewBox="0 0 512 512" width="512"><g><path d="m346 59.999c-57.897 0-105 47.102-105 104.998s47.103 104.998 105 104.998 105-47.102 105-104.998-47.103-104.998-105-104.998zm19.5 134.947c0 8.284-6.716 15-15 15s-15-6.716-15-15v-39.896c-.1-.033-10.736.22-14.23-10.26-2.62-7.859 1.628-16.354 9.487-18.974l15-5c9.712-3.234 19.744 4.005 19.744 14.23v59.9z"></path><path d="m346.05 46.049c8.284 0 15-6.716 15-15v-16.049c0-8.284-6.716-15-15-15s-15 6.716-15 15v16.049c0 8.284 6.716 15 15 15z"></path><path d="m239.283 81.403c5.857 5.857 15.355 5.858 21.213 0s5.858-15.355 0-21.212l-11.349-11.349c-5.857-5.858-15.355-5.858-21.213 0s-5.858 15.355 0 21.212z"></path><path d="m452.617 252.589c-5.857-5.858-15.355-5.858-21.213 0s-5.858 15.355 0 21.212l11.349 11.349c5.857 5.857 15.355 5.858 21.213 0s5.858-15.355 0-21.212z"></path><path d="m497 152.097h-16.05c-8.284 0-15 6.716-15 15s6.716 15 15 15h16.05c8.284 0 15-6.716 15-15s-6.716-15-15-15z"></path><path d="m452.758 81.544 11.349-11.349c5.858-5.858 5.858-15.355 0-21.212-5.857-5.858-15.355-5.858-21.213 0l-11.349 11.349c-5.858 5.858-5.858 15.355 0 21.212 5.857 5.857 15.356 5.858 21.213 0z"></path><path d="m262.492 270.994h-191.542c-8.284 0-15-6.716-15-15s6.716-15 15-15h163.534c-17.812-26.053-25.897-57.325-22.856-88.998h-136.628c-41.355 0-75 33.644-75 74.998v121.997c0 36.553 26.287 67.083 60.95 73.678v74.318c0 13.308 16.044 19.958 25.487 10.725l85.628-83.723h113.885c41.355 0 75-33.644 75-74.998v-49.831c-35.508 3.931-70.617-6.187-98.458-28.166zm8.458 59.998h-200c-8.284 0-15-6.716-15-15s6.716-15 15-15h200c8.284 0 15 6.716 15 15 0 8.285-6.716 15-15 15z"></path></g></svg>