<svg xmlns="http://www.w3.org/2000/svg" width="773.000000pt" height="679.000000pt" viewBox="0 0 773.000000 679.000000" preserveAspectRatio="xMidYMid meet"><g transform="translate(0.000000,679.000000) scale(0.100000,-0.100000)" fill="#000000" stroke="none"><path d="M1402 5579 c-41 -5 -94 -23 -149 -49 -154 -75 -269 -219 -303 -380 -8 -40 -10 -444 -8 -1525 l3 -1470 23 -60 c63 -167 190 -287 368 -346 l69 -24 991 -3 992 -3 187 -362 c103 -201 199 -374 214 -388 39 -36 92 -45 138 -22 42 20 55 42 293 496 l145 276 985 3 c1089 4 1026 0 1163 69 79 40 192 153 234 234 67 128 63 33 63 1630 0 1604 4 1502 -66 1636 -63 121 -189 226 -323 272 l-66 22 -2445 1 c-1345 1 -2473 -2 -2508 -7z m528 -1234 l0 -305 63 34 c99 54 160 70 267 70 194 1 355 -85 466 -249 103 -151 113 -402 22 -565 -98 -175 -289 -290 -484 -290 -83 0 -207 33 -276 75 l-58 34 0 -45 0 -44 -167 2 -168 3 -3 793 -2 792 170 0 170 0 0 -305z m1101 277 c154 -51 261 -156 327 -319 l27 -68 3 -587 3 -588 -171 0 -170 0 0 518 c0 499 -1 519 -21 562 -34 75 -85 117 -159 129 l-35 6 -3 189 -2 189 72 -6 c40 -4 98 -15 129 -25z m1304 -487 c295 -62 492 -356 431 -645 -64 -308 -366 -505 -665 -435 -109 26 -188 71 -266 149 -82 83 -118 145 -145 252 -78 303 96 594 404 674 87 23 149 24 241 5z m1318 0 c38 -8 94 -26 124 -40 31 -14 59 -25 64 -25 5 0 9 18 9 40 l0 40 168 -2 167 -3 3 -555 c1 -329 -2 -576 -8 -607 -41 -222 -319 -434 -592 -450 l-88 -6 0 151 0 150 33 7 c46 10 158 71 206 112 48 41 95 106 105 146 8 33 1 34 -61 2 -98 -51 -245 -67 -362 -40 -207 49 -369 217 -417 431 -63 285 135 586 426 648 85 19 140 19 223 1z"></path><path d="M2091 3796 c-48 -17 -108 -71 -132 -117 -116 -229 152 -459 364 -312 59 41 97 114 97 187 0 114 -40 184 -132 230 -58 29 -137 34 -197 12z"></path><path d="M4112 3784 c-86 -43 -132 -121 -132 -221 0 -68 23 -125 70 -171 45 -46 84 -63 152 -69 100 -10 194 42 241 131 30 58 30 165 0 222 -64 121 -210 169 -331 108z"></path><path d="M5544 3794 c-46 -16 -107 -72 -131 -119 -9 -16 -18 -60 -21 -97 -4 -58 -1 -75 22 -122 43 -87 122 -136 223 -136 108 0 198 69 229 177 44 151 -61 300 -218 309 -40 2 -78 -2 -104 -12z"></path></g></svg>