<svg xmlns="http://www.w3.org/2000/svg" id="Capa_1" height="512" viewBox="0 0 512 512" width="512"><g><g><path d="m397.33 285.958-6.669-6.624-21.487-34.897-104.323-76.624c-31.931-6.301-53.404-5.435-84.136 10.949-7.519 4.008-16.482 4.272-24.253.779l-65.288-29.343-48.752 101.57 52.507 30.439c5.4 3.131 9.81 7.718 12.726 13.237l15.146 28.671 126.153 67.311c19.59 10.333 40.037 14.992 61.649 11.944 9.037-1.275 15.954-8.708 16.768-17.798.268-2.991-.153-5.949-1.17-8.675 6.619.516 13.345.328 20.188-.637 9.037-1.275 15.954-8.708 16.768-17.798.382-4.267-.635-8.468-2.792-12.024 2.364-.151 4.74-.379 7.132-.716 9.037-1.275 15.954-8.708 16.768-17.798.394-4.396-.704-8.719-2.997-12.341 1.297.05 2.601.082 3.918.087 7.442.025 14.03-4.824 16.384-11.884 2.089-6.266.446-13.174-4.24-17.828z" fill="#ffd3a3"></path><path d="m113.71 160.327-22.536-10.129-48.752 101.57 23.754 13.771z" fill="#ffbe84"></path><path d="m257.48 351.645c-2.639-1.435-5.446-2.535-8.342-3.279-.216-1.076-.482-2.148-.797-3.214-2.761-9.338-8.993-17.041-17.547-21.691-5.332-2.898-11.347-4.431-17.396-4.431-.4 0-.8.007-1.198.02-3.306-5.513-8.036-10.065-13.833-13.216-5.332-2.899-11.347-4.432-17.396-4.432-1.147 0-2.286.054-3.414.159-3.216-4.704-7.524-8.61-12.675-11.41-5.331-2.899-11.346-4.431-17.395-4.431-13.378 0-25.657 7.298-32.044 19.047l-1.453 2.673 8.809 16.675 126.153 67.311c7.629 4.024 15.39 7.174 23.297 9.357 9.368-17.61 2.793-39.591-14.769-49.138z" fill="#ffbe84"></path><path d="m397.33 285.958-6.669-6.624-21.487-34.897-104.323-76.624c-9.738-1.922-18.5-3.171-26.852-3.523l-11.032 7.492c-7.043 4.782-12.092 11.956-14.217 20.199l-18.536 71.883c-1.125 4.363 1.235 8.869 5.462 10.429l17.392 6.419c5.514 2.035 11.276 3.067 17.126 3.067 19.329 0 37.002-11.365 45.025-28.953l5.156-11.303c.948-2.078 2.891-3.529 5.152-3.848l4.18-.589c2.738-.386 5.431.952 6.778 3.367l4.591 8.236c13.542 24.297 37.037 40.906 64.459 45.567l1.241.211c3.537.602 7.148.906 10.734.906 7.006 0 13.891-1.151 20.414-3.344-.758-3.002-2.312-5.804-4.594-8.071z" fill="#ffbe84"></path><path d="m450.642 128.879-58.723 26.375c-6.697 3.008-14.354 3.264-21.156.503-23.611-9.585-48.247-10.221-72.028-6.837-5.054.719-9.876 2.59-14.099 5.458l-47.557 32.296c-3.415 2.319-5.868 5.804-6.899 9.802l-16.456 63.815 9.576 3.534c15.46 5.705 32.703-1.477 39.542-16.469l8.85-19.403c1.197-2.624 3.65-4.456 6.506-4.859l24.027-3.388c3.457-.488 6.858 1.202 8.558 4.252l10.015 17.968c10.817 19.407 29.85 32.862 51.754 36.586l1.24.211c13.782 2.343 27.881-1.702 38.325-10.995 4.108-3.655 9.415-5.675 14.914-5.675h42.546z" fill="#ffe6c2"></path><path d="m446.17 262.052h23.408l-18.936-133.173-40.52 18.199z" fill="#ffd3a3"></path><g fill="#ffe6c2"><path d="m126.81 360.186c-8.954-4.868-12.267-16.073-7.399-25.027l11.848-21.795c4.868-8.954 16.073-12.267 25.027-7.399 8.954 4.868 12.267 16.073 7.399 25.027l-11.848 21.795c-4.868 8.954-16.073 12.266-25.027 7.399z"></path><path d="m153.497 388.371c-8.954-4.868-12.267-16.073-7.399-25.027l18.645-34.298c4.868-8.954 16.073-12.267 25.027-7.399 8.954 4.868 12.267 16.073 7.399 25.027l-18.645 34.298c-4.867 8.954-16.072 12.267-25.027 7.399z"></path><path d="m185.924 405.999c-8.954-4.868-12.267-16.073-7.399-25.027l18.645-34.298c4.868-8.954 16.073-12.267 25.027-7.399 8.954 4.868 12.267 16.073 7.399 25.027l-18.645 34.298c-4.868 8.954-16.073 12.266-25.027 7.399z"></path><path d="m224.089 413.069c-8.954-4.868-12.267-16.073-7.399-25.027l7.167-13.183c4.868-8.954 16.073-12.267 25.027-7.399 8.954 4.868 12.267 16.073 7.399 25.027l-7.167 13.183c-4.867 8.954-16.072 12.267-25.027 7.399z"></path></g><path d="m107.562 128.879-65.14 144.182h-34.922v-176.367z" fill="#ff7383"></path><path d="m86.357 122.058c-11.754 32.971-36.971 89.898-78.857 120.253v30.75h34.922l65.14-144.182z" fill="#ff546a"></path><path d="m421.323 119.152 48.255 153.909h34.922v-176.367z" fill="#88bde7"></path><path d="m463.625 254.075 5.953 18.986h34.922v-176.367l-21.652 5.846c2.417 39.758 3.546 115.758-19.223 151.535z" fill="#5faee2"></path></g><path d="m504.5 197.126c4.143 0 7.5-3.358 7.5-7.5v-92.932c0-2.334-1.087-4.535-2.94-5.955-1.854-1.419-4.261-1.893-6.515-1.286l-83.177 22.458c-1.971.532-3.64 1.845-4.621 3.634-.981 1.79-1.191 3.902-.58 5.85l4.299 13.712-29.619 13.303c-4.9 2.201-10.463 2.345-15.263.396-11.226-4.557-23.377-7.461-36.117-8.634-4.118-.378-7.776 2.656-8.156 6.781-.379 4.125 2.656 7.776 6.781 8.156 11.274 1.038 21.99 3.594 31.85 7.596 4.045 1.642 8.375 2.46 12.727 2.46 4.873 0 9.772-1.026 14.324-3.07l27.992-12.573 32.93 105.029h-28.883c-7.345 0-14.411 2.688-19.899 7.571-8.76 7.794-20.03 11.252-33.322 8.993-19.766-3.36-36.699-15.331-46.46-32.844l-10.015-17.966c-3.185-5.716-9.683-8.938-16.157-8.028l-24.027 3.389c-5.418.764-10.01 4.193-12.281 9.172l-8.851 19.403c-5.18 11.356-18.41 16.866-30.121 12.545l-3.218-1.188 14.764-57.253c.575-2.232 1.942-4.175 3.85-5.47l47.558-32.296c3.266-2.218 7.049-3.683 10.941-4.237 2.302-.328 4.605-.614 6.847-.852 4.119-.436 7.104-4.129 6.668-8.248-.437-4.118-4.12-7.1-8.248-6.668-2.42.256-4.902.565-7.38.918-6.144.875-12.11 3.184-17.256 6.679l-17.211 11.688c-30.26-5.66-53.328-5.148-86.024 12.284-5.411 2.884-12.01 3.092-17.65.556l-52.819-23.738 7.678-16.996c.879-1.947.887-4.177.021-6.13s-2.525-3.443-4.559-4.098l-100.065-32.183c-2.283-.734-4.777-.333-6.714 1.079-1.936 1.411-3.082 3.664-3.082 6.061v39.004c0 4.142 3.358 7.5 7.5 7.5s7.5-3.358 7.5-7.5v-28.713l82.268 26.461-59.687 132.115h-22.581v-100.863c0-4.142-3.358-7.5-7.5-7.5s-7.5 3.358-7.5 7.5v108.362c0 4.143 3.358 7.5 7.5 7.5h34.922c2.947 0 5.622-1.727 6.835-4.412l4.206-9.31 37.704 21.857c4.187 2.428 7.595 5.973 9.856 10.251l14.557 27.556-2.758 5.074c-6.835 12.573-2.167 28.363 10.406 35.198 3.859 2.099 8.088 3.164 12.361 3.164.288 0 .577-.005.865-.015-.846 9.961 4.131 19.964 13.461 25.036 0 0 0 .001.001.001 3.928 2.135 8.167 3.146 12.352 3.146 2.566 0 5.111-.382 7.549-1.118 1.861 6.435 6.189 12.154 12.525 15.599v.001c3.928 2.135 8.167 3.146 12.352 3.146 5.761 0 11.415-1.92 15.992-5.474 2.302 3.83 5.62 7.113 9.821 9.397 0 0 0 .001.001.001 3.928 2.135 8.167 3.146 12.352 3.146 9.211 0 18.147-4.908 22.847-13.554l2.81-5.169c12.99 5.121 26.104 7.695 39.179 7.695 4.658 0 9.313-.327 13.956-.981 12.517-1.766 22.053-11.863 23.189-24.554.048-.53.08-1.06.096-1.588 4.173-.06 8.341-.382 12.499-.968 12.518-1.766 22.055-11.863 23.191-24.556.19-2.125.133-4.244-.165-6.322 11.563-2.477 20.195-12.179 21.273-24.214.188-2.097.133-4.194-.157-6.253 7.898-2.107 14.406-8.083 17.108-16.183 2.814-8.44.967-17.532-4.798-24.162 4.743-2.189 9.198-5.092 13.216-8.666 2.738-2.437 6.265-3.778 9.929-3.778h33.586l1.804 5.753c.98 3.127 3.879 5.256 7.156 5.256h34.921c4.143 0 7.5-3.357 7.5-7.5v-54.435c0-4.142-3.357-7.5-7.5-7.5s-7.5 3.358-7.5 7.5v46.935h-21.913l-44.271-141.203 66.184-17.87v83.138c0 4.143 3.357 7.501 7.5 7.501zm-374.107 156.471c-5.307-2.886-7.277-9.55-4.393-14.856l11.848-21.795c1.984-3.649 5.755-5.721 9.643-5.721 1.766 0 3.556.428 5.213 1.328 5.307 2.886 7.277 9.55 4.392 14.856l-11.848 21.795c-1.397 2.57-3.712 4.443-6.518 5.272-2.806.833-5.768.517-8.337-.879zm26.686 28.184c-5.306-2.885-7.276-9.549-4.392-14.855l18.646-34.298c1.397-2.57 3.712-4.443 6.518-5.272 2.806-.832 5.767-.517 8.337.88 5.307 2.886 7.277 9.55 4.392 14.856l-18.645 34.298c-2.885 5.306-9.548 7.278-14.856 4.391zm32.427 17.628c-5.307-2.885-7.277-9.549-4.392-14.855l18.645-34.298c1.397-2.57 3.712-4.443 6.518-5.272 2.806-.832 5.766-.518 8.337.88 5.307 2.886 7.277 9.55 4.393 14.856l-18.646 34.298c-2.885 5.306-9.549 7.276-14.855 4.391zm38.166 7.071c-5.302-2.883-7.274-9.538-4.4-14.842l7.183-13.213c1.398-2.563 3.709-4.429 6.509-5.257 2.807-.829 5.767-.516 8.338.882 2.57 1.396 4.443 3.712 5.272 6.518s.517 5.767-.881 8.337l-7.167 13.184c-2.884 5.306-9.548 7.275-14.854 4.391zm164.372-115.201c2.683 2.664 3.606 6.548 2.411 10.134-1.324 3.968-4.955 6.757-9.244 6.757-19.983-.068-38.163-5.708-55.577-17.241-3.452-2.286-8.107-1.342-10.395 2.111-2.287 3.454-1.342 8.107 2.111 10.395 17.367 11.502 35.448 17.883 55.031 19.387.405 1.433.548 2.933.413 4.434-.513 5.714-4.767 10.254-10.346 11.04-19.1 2.693-37.772-.955-57.103-11.151-3.663-1.934-8.2-.528-10.133 3.135-1.933 3.664-.529 8.2 3.135 10.133 16.675 8.795 34.491 13.87 53.117 13.713.256 1.195.333 2.429.222 3.668-.513 5.713-4.767 10.254-10.347 11.04-19.09 2.695-37.771-.954-57.102-11.15-3.663-1.933-8.2-.528-10.133 3.135-1.933 3.664-.529 8.2 3.135 10.133 12.82 6.762 25.764 11.034 38.708 12.793.002.385-.014.772-.049 1.16-.513 5.713-4.767 10.254-10.346 11.04-14.919 2.106-29.523.344-44.452-5.386 1.281-4.625 1.25-9.527-.144-14.243-1.966-6.648-6.403-12.133-12.493-15.443-4.119-2.24-8.661-3.304-13.226-3.15.846-9.961-4.131-19.964-13.461-25.036-6.091-3.312-13.107-4.054-19.755-2.087-.05.015-.1.03-.15.045-1.863-6.43-6.189-12.144-12.521-15.586-6.091-3.312-13.106-4.054-19.755-2.087-.561.166-1.113.35-1.657.55-2.137-6.063-6.383-11.053-12.073-14.147-12.573-6.834-28.363-2.166-35.198 10.407l-.486.895-9.898-18.736c-3.577-6.771-8.97-12.379-15.596-16.221l-39.019-22.62 40.872-90.467 52.845 23.75c4.565 2.052 9.494 3.072 14.412 3.072 5.688 0 11.362-1.364 16.444-4.073 23.243-12.391 40.546-15.148 60.674-13.097l-12.052 8.185c-4.928 3.346-8.461 8.366-9.948 14.134l-16.456 63.814c-.961 3.728 1.055 7.576 4.666 8.909l9.576 3.534c19.035 7.025 40.542-1.933 48.961-20.393l8.851-19.402c.135-.296.408-.5.73-.546l24.026-3.388c.391-.058.771.137.96.477l10.016 17.967c11.984 21.503 32.777 36.203 57.047 40.328 3.331.566 6.19.981 10.313.979 1.912 0 3.815-.103 5.701-.306z"></path></g></svg>