<svg xmlns="http://www.w3.org/2000/svg" xmlns:xlink="http://www.w3.org/1999/xlink" id="Layer_1" x="0px" y="0px" viewBox="0 0 512 512" style="enable-background:new 0 0 512 512;" xml:space="preserve"><g>	<g>		<g>			<path d="M163.767,235.456v-5.05c0-3.48-2.821-6.301-6.301-6.301s-6.301,2.821-6.301,6.301v5.05c0,3.48,2.821,6.301,6.301,6.301     C160.945,241.757,163.767,238.936,163.767,235.456z"></path>			<path d="M229.022,241.757c3.48,0,6.301-2.821,6.301-6.301v-5.05c0-3.48-2.821-6.301-6.301-6.301s-6.301,2.821-6.301,6.301v5.05     C222.72,238.936,225.541,241.757,229.022,241.757z"></path>			<path d="M406.042,112.961c-18.484-7.647-26.345-13.172-26.345-24.22c0-8.497,6.162-18.272,22.521-18.272     c8.433,0,14.986,1.797,19.812,3.772c3.915,1.601,8.374-0.287,9.872-4.241c1.421-3.753-0.352-8.007-4.066-9.525     c-5.448-2.228-12.337-3.945-21.157-4.239V42.213c0-3.637-2.948-6.585-6.585-6.585c-3.637,0-6.585,2.948-6.585,6.585v14.872     c-19.547,3.187-32.083,16.572-32.083,34.206c0,18.483,13.385,28.257,35.056,36.755c15.722,6.375,24.008,13.598,24.008,25.283     c0,12.11-10.198,20.821-25.283,20.821c-8.593,0-16.742-2.106-23.489-5.197c-3.951-1.81-8.604,0.242-10.069,4.332l-0.037,0.103     c-1.294,3.613,0.347,7.635,3.818,9.27c7.372,3.473,17.106,5.776,26.589,5.94v14.765c0,3.696,2.996,6.692,6.692,6.692     s6.692-2.996,6.692-6.692V187.96c21.883-3.613,33.569-19.334,33.569-36.119C438.973,132.932,427.925,121.884,406.042,112.961z"></path>			<path d="M382.83,411.345c-1.524-27.75-19.99-51.099-45.953-58.103c-0.104-0.028-0.208-0.054-0.313-0.077l-11.031-2.5     c-4.289-0.972-8.54,1.714-9.509,5.994c-0.971,4.281,1.714,8.539,5.994,9.509l10.868,2.463c1.044,0.286,2.069,0.614,3.08,0.971     l-7.823,10.004c-13.957,17.851-21.053,40.145-19.981,62.777l2.027,42.81h-86.261l-12.252-71.645l6.361-15.837l9.623,4.27     c1.62,0.72,3.339,1.084,5.11,1.084c3.896,0,7.508-1.757,9.913-4.821l33.359-42.492l13.067,2.96     c4.28,0.973,8.539-1.714,9.508-5.995c0.97-4.281-1.714-8.539-5.995-9.508l-18.074-4.096c-0.012-0.002-0.022-0.006-0.034-0.01     l-23.875-5.409c-0.427-0.096-0.857-0.171-1.29-0.222c-3.017-0.358-6.098,0.391-8.615,2.13l-0.464,0.32l-4.871-2.923     l-1.538-14.464c1.504-1.148,2.954-2.386,4.328-3.734l14.263-13.978c10.782-10.568,16.966-25.461,16.966-40.865v-3.244     c9.163-3.513,15.591-11.875,15.591-21.48v-8.954c0-4.141-1.215-8.04-3.304-11.435v-31.694c0-33.678-27.399-61.078-61.078-61.078     h-54.428c-33.677,0-61.077,27.399-61.077,61.078v31.142c-2.305,3.518-3.647,7.621-3.647,11.986v8.954     c0,9.726,6.586,18.184,15.934,21.616v3.107c0,15.403,6.184,30.297,16.966,40.865l14.263,13.978     c1.278,1.253,2.622,2.41,4.011,3.49l-1.564,14.707l-4.871,2.923l-0.462-0.319c-2.88-1.988-6.488-2.684-9.899-1.91l-23.877,5.409     c-0.006,0.001-0.012,0.003-0.018,0.004l-62.037,14.057c-0.106,0.023-0.21,0.05-0.315,0.077     c-11.775,3.177-22.264,9.774-30.33,19.078c-0.246,0.283-0.459,0.582-0.657,0.888c-8.765,10.489-14.112,23.817-14.9,38.16     l-0.573,11.01c-0.228,4.383,3.141,8.122,7.525,8.351c4.351,0.235,8.122-3.141,8.351-7.525l0.571-10.987     c0.755-13.735,6.976-26.233,16.98-34.619l9.227,11.799c11.613,14.852,17.517,33.402,16.626,52.233l-2.064,43.561H19.013     c-1.139,0-1.876-0.596-2.212-0.95c-0.337-0.355-0.894-1.121-0.834-2.258l1.324-25.45c0.228-4.384-3.141-8.122-7.525-8.351     c-4.384-0.246-8.122,3.14-8.351,7.525l-1.273,24.479c-0.056,0.318-0.1,0.64-0.117,0.972c-0.268,5.165,1.619,10.278,5.181,14.029     c3.56,3.751,8.568,5.901,13.74,5.901h0.067h348.443h0.085c5.172,0,10.179-2.151,13.741-5.902     c3.562-3.751,5.449-8.864,5.181-14.028L382.83,411.345z M121.019,183.151h0.001c0-24.913,20.268-45.181,45.18-45.181h54.428     c24.913,0,45.181,20.268,45.181,45.181v20.536c-0.232-0.052-0.469-0.085-0.704-0.131c-0.424-0.084-0.844-0.174-1.275-0.237     c-0.01-0.001-0.019-0.004-0.029-0.005c-0.01-0.714-0.036-1.402-0.059-2.095c-0.011-0.317-0.014-0.646-0.028-0.959     c-0.031-0.713-0.077-1.4-0.122-2.09c-0.02-0.304-0.032-0.62-0.055-0.919c-0.05-0.663-0.113-1.302-0.176-1.945     c-0.03-0.306-0.053-0.625-0.085-0.926c-0.067-0.616-0.146-1.207-0.224-1.803c-0.04-0.307-0.073-0.626-0.117-0.927     c-0.083-0.582-0.178-1.139-0.271-1.702c-0.049-0.296-0.092-0.602-0.143-0.892c-0.099-0.551-0.209-1.079-0.316-1.612     c-0.057-0.282-0.108-0.574-0.168-0.851c-0.111-0.514-0.233-1.005-0.352-1.502c-0.067-0.276-0.127-0.563-0.197-0.834     c-0.122-0.478-0.253-0.934-0.384-1.395c-0.075-0.27-0.146-0.55-0.225-0.815c-0.131-0.444-0.272-0.867-0.411-1.296     c-0.085-0.262-0.165-0.534-0.252-0.792c-0.141-0.415-0.289-0.81-0.437-1.209c-0.092-0.251-0.18-0.513-0.275-0.759     c-0.152-0.395-0.312-0.77-0.468-1.151c-0.096-0.232-0.189-0.475-0.287-0.702c-0.158-0.366-0.322-0.711-0.484-1.063     c-0.104-0.225-0.205-0.46-0.31-0.679c-0.16-0.333-0.326-0.648-0.491-0.969c-0.113-0.22-0.224-0.45-0.338-0.664     c-0.166-0.31-0.337-0.603-0.506-0.902c-0.118-0.208-0.233-0.424-0.352-0.625c-0.173-0.294-0.35-0.569-0.526-0.851     c-0.119-0.191-0.236-0.39-0.356-0.574c-0.179-0.276-0.36-0.535-0.542-0.799c-0.12-0.175-0.238-0.358-0.359-0.529     c-0.179-0.252-0.359-0.487-0.539-0.728c-0.125-0.167-0.249-0.342-0.375-0.505c-0.182-0.235-0.366-0.455-0.549-0.678     c-0.125-0.153-0.249-0.314-0.374-0.462c-0.199-0.235-0.397-0.455-0.597-0.678c-0.109-0.123-0.218-0.253-0.329-0.372     c-0.201-0.219-0.402-0.423-0.602-0.63c-0.108-0.111-0.216-0.23-0.324-0.338c-0.194-0.194-0.386-0.374-0.578-0.557     c-0.113-0.108-0.228-0.224-0.341-0.328c-0.212-0.196-0.421-0.377-0.631-0.562c-0.091-0.081-0.184-0.166-0.276-0.245     c-0.212-0.181-0.421-0.349-0.629-0.518c-0.087-0.07-0.176-0.147-0.262-0.215c-0.211-0.166-0.418-0.32-0.624-0.475     c-0.081-0.06-0.164-0.127-0.245-0.185c-0.214-0.156-0.422-0.3-0.631-0.443c-0.07-0.048-0.142-0.102-0.212-0.148     c-0.218-0.147-0.429-0.283-0.64-0.417c-0.056-0.036-0.115-0.076-0.17-0.11c-0.75-0.468-1.448-0.852-2.08-1.168     c-0.036-0.018-0.075-0.039-0.111-0.057c-0.66-0.325-1.242-0.573-1.723-0.759c-2.025-0.781-4.286-0.699-6.251,0.227     c-1.965,0.926-3.465,2.618-4.151,4.679c-5.72,17.188-18.781,25.939-39.929,26.752c-1.455,0.056-2.874,0.097-4.276,0.132     c-0.362,0.01-0.727,0.018-1.091,0.025c-1.261,0.028-2.504,0.049-3.722,0.063c-0.138,0.001-0.272,0.004-0.41,0.005     c-1.382,0.014-2.733,0.017-4.058,0.015c-0.243,0-0.482-0.002-0.723-0.002c-1.182-0.004-2.345-0.013-3.481-0.028     c-0.121-0.001-0.246-0.002-0.366-0.004c-1.226-0.017-2.421-0.039-3.593-0.065c-0.261-0.005-0.519-0.012-0.778-0.018     c-1.033-0.024-2.049-0.05-3.039-0.078c-0.128-0.003-0.262-0.007-0.39-0.011c-1.062-0.031-2.092-0.065-3.104-0.099     c-0.373-0.013-0.745-0.024-1.112-0.037c-0.907-0.031-1.81-0.063-2.675-0.092c-0.844-0.03-1.671-0.058-2.489-0.086     c-0.525-0.018-1.047-0.035-1.556-0.051c-0.487-0.016-0.971-0.031-1.449-0.044c-2.468-0.074-4.784-0.126-6.968-0.126     c-4.022,0-8.255,0.137-12.312,0.934c-0.212,0.04-0.423,0.083-0.632,0.126c-0.133,0.029-0.265,0.055-0.396,0.085     c-4.611,1.008-8.473,2.834-11.678,5.998V183.151z M145.503,289.469c-7.751-7.596-12.197-18.352-12.197-29.511v-6.778     c0-0.451-0.047-0.891-0.119-1.322c0.047-0.273,0.083-0.55,0.101-0.833c0.288-4.38-3.028-8.164-7.408-8.454     c-4.771-0.315-8.508-3.537-8.508-7.338v-8.954c0-1.539,0.62-2.978,1.664-4.173c0.001-0.001,0.003-0.002,0.004-0.004     c0.934-1.063,2.166-1.897,3.57-2.445c0.016-0.006,0.033-0.011,0.049-0.017c0.251-0.096,0.508-0.183,0.768-0.262     c0.085-0.025,0.172-0.046,0.258-0.069c0.197-0.054,0.396-0.105,0.598-0.147c0.111-0.023,0.225-0.042,0.338-0.063     c0.182-0.033,0.366-0.064,0.552-0.088c0.074-0.01,0.149-0.015,0.224-0.023c3.976-0.019,7.253-2.958,7.816-6.781     c0.008-0.058,0.019-0.116,0.026-0.174c0.021-0.17,0.034-0.342,0.045-0.515c0.007-0.112,0.015-0.225,0.017-0.339     c0.001-0.046,0.007-0.091,0.007-0.137v-4.272c0.983-0.548,2.222-0.953,3.768-1.23c0.048-0.008,0.099-0.016,0.146-0.024     c0.369-0.064,0.756-0.121,1.157-0.173c0.089-0.012,0.178-0.022,0.268-0.033c0.42-0.05,0.854-0.094,1.308-0.131     c0.051-0.004,0.1-0.008,0.15-0.013c4.293-0.341,10.139-0.18,17.767,0.088c0.024,0.001,0.046,0.001,0.07,0.002     c0.961,0.034,1.951,0.068,2.955,0.102c0.269,0.01,0.533,0.018,0.805,0.028c1.12,0.037,2.26,0.074,3.435,0.108     c0.014,0,0.029,0,0.042,0.001c1.169,0.034,2.373,0.065,3.598,0.092c0.155,0.003,0.307,0.007,0.463,0.011     c1.275,0.028,2.577,0.051,3.916,0.069c0.05,0,0.101,0.001,0.151,0.001c1.289,0.016,2.61,0.026,3.96,0.03     c0.145,0,0.287,0.001,0.432,0.001c0.223,0,0.438,0.002,0.661,0.002c1.263,0,2.51-0.007,3.747-0.02     c0.022,0,0.047-0.001,0.069-0.001c1.437-0.015,2.861-0.04,4.279-0.072c0.297-0.006,0.595-0.014,0.893-0.021     c1.526-0.038,3.049-0.083,4.576-0.142c27.925-1.074,42.41-13.883,49.91-27.346c3.033,4.481,6.076,12.507,6.076,26.678     c0,0.427,0.017,0.847,0.05,1.26c0.025,0.322,0.07,0.638,0.116,0.952c0.013,0.088,0.018,0.179,0.033,0.266     c0.065,0.397,0.146,0.788,0.243,1.172v0.002c0.676,2.688,2.117,5.004,4.206,6.818c0.005,0.004,0.011,0.01,0.016,0.014     c0.273,0.236,0.56,0.462,0.855,0.68c0.031,0.022,0.058,0.047,0.089,0.069c0.271,0.198,0.556,0.385,0.845,0.567     c0.06,0.038,0.118,0.081,0.179,0.119c0.266,0.163,0.546,0.315,0.827,0.465c0.092,0.05,0.18,0.104,0.274,0.152     c0.261,0.133,0.534,0.254,0.807,0.376c0.124,0.055,0.243,0.117,0.37,0.17c0.259,0.109,0.528,0.206,0.796,0.304     c0.14,0.051,0.272,0.109,0.414,0.158c0.667,0.282,1.381,0.475,2.13,0.567c0.231,0.039,0.461,0.067,0.69,0.085     c2.75,0.241,5.21,1.454,6.759,3.344c0.045,0.054,0.094,0.1,0.139,0.152c0.863,1.12,1.364,2.428,1.364,3.814v8.954     c0,3.8-3.737,7.023-8.507,7.338c-4.38,0.288-7.697,4.074-7.408,8.454c0.04,0.61,0.156,1.198,0.324,1.76v7.173     c0,11.158-4.445,21.915-12.197,29.511l-14.263,13.978c-1.713,1.679-3.587,3.123-5.582,4.315c-0.025,0.015-0.054,0.025-0.079,0.04     c-0.549,0.325-1.107,0.632-1.673,0.919c-0.007,0.004-0.015,0.007-0.023,0.012c-1.704,0.862-3.481,1.549-5.304,2.054     c-0.003,0.001-0.007,0.002-0.011,0.003c-1.193,0.33-2.407,0.579-3.631,0.749c-0.076,0.011-0.153,0.019-0.228,0.029     c-0.494,0.065-0.99,0.113-1.487,0.152c-0.137,0.011-0.273,0.022-0.41,0.031c-0.574,0.036-1.15,0.059-1.727,0.059H179.92     c-0.587,0-1.173-0.024-1.758-0.061c-0.134-0.008-0.266-0.02-0.398-0.03c-0.533-0.041-1.065-0.094-1.595-0.166     c-0.045-0.006-0.09-0.011-0.135-0.017c-3.807-0.536-7.503-1.854-10.857-3.888c-0.025-0.016-0.054-0.026-0.08-0.041     c-1.899-1.163-3.69-2.55-5.33-4.157L145.503,289.469z M193.244,368.358l-32.654-22.523l2.071-1.244     c2.14-1.282,3.551-3.495,3.815-5.975l1.341-12.61c1.953,0.556,3.946,0.982,5.969,1.265c0.026,0.004,0.054,0.006,0.081,0.01     c0.876,0.121,1.759,0.211,2.646,0.28c0.208,0.016,0.414,0.033,0.623,0.046c0.925,0.058,1.854,0.099,2.787,0.099h26.986     c0.91,0,1.816-0.038,2.719-0.093c0.209-0.013,0.415-0.03,0.624-0.046c0.81-0.061,1.615-0.143,2.417-0.248     c0.088-0.012,0.177-0.02,0.265-0.033c1.947-0.267,3.865-0.667,5.748-1.188l1.331,12.519c0.264,2.48,1.676,4.693,3.815,5.975     l2.071,1.244L193.244,368.358z M203.497,391.257l-5.409,13.469h-9.672l-5.424-13.468l0.94-0.418l9.316-4.131L203.497,391.257z      M163.35,485.19H76.279l2.028-42.81c1.073-22.631-6.025-44.927-19.981-62.777L50.504,369.6c1.017-0.359,2.05-0.686,3.096-0.972     l56.847-12.88l33.362,42.493c2.406,3.064,6.018,4.821,9.913,4.821c0,0,0,0,0.001,0c1.77,0,3.489-0.365,5.109-1.083l9.622-4.269     l6.397,15.885L163.35,485.19z M172.342,378.593l-2.813,1.247c-0.003,0.001-0.006,0.003-0.01,0.004l-14.792,6.563l-27.122-34.546     l10.33-2.34l39.118,26.982L172.342,378.593z M179.45,485.19l10.371-64.568h6.938l11.042,64.568H179.45z M248.555,349.521     l10.328,2.34l-27.121,34.546l-17.028-7.555l-5.296-2.351L248.555,349.521z M369.667,484.24c-0.336,0.355-1.071,0.95-2.211,0.95     h-41.353l-2.063-43.561c-0.892-18.831,5.012-37.379,16.626-52.232l9.227-11.799c10.004,8.385,16.227,20.88,16.979,34.596     l3.63,69.789C370.56,483.12,370.004,483.885,369.667,484.24z"></path>			<path d="M162.978,282.375c3.694,11.89,16.139,20.193,30.266,20.193c14.127,0,26.571-8.303,30.266-20.192     c1.099-3.534,0.442-7.428-1.757-10.414c-2.21-3.001-5.752-4.792-9.475-4.792h-38.066c-3.724,0-7.265,1.791-9.474,4.791     C162.536,274.948,161.879,278.842,162.978,282.375z M204.395,283.066c-2.862,2.232-6.866,3.605-11.151,3.605     c-4.284,0-8.287-1.373-11.151-3.605H204.395z"></path>			<path d="M400.072,10.913c-61.717,0-111.927,50.21-111.927,111.927s50.21,111.928,111.927,111.928S512,184.557,512,122.84     S461.789,10.913,400.072,10.913z M400.072,218.871c-52.951,0-96.03-43.079-96.03-96.031c0-52.951,43.079-96.03,96.03-96.03     c52.953,0,96.031,43.079,96.031,96.03C496.103,175.793,453.024,218.871,400.072,218.871z"></path>		</g>	</g></g><g></g><g></g><g></g><g></g><g></g><g></g><g></g><g></g><g></g><g></g><g></g><g></g><g></g><g></g><g></g></svg>