<svg xmlns="http://www.w3.org/2000/svg" id="Capa_1" height="512" viewBox="0 0 512 512" width="512"><g><g><path d="m445.991 380.63h-99.696c-4.866 0-8.81-3.944-8.81-8.81v-130.789c0-4.866 3.944-8.81 8.81-8.81h99.696c4.866 0 8.81 3.944 8.81 8.81v130.788c.001 4.866-3.944 8.811-8.81 8.811z" fill="#88bde7"></path><path d="m400.736 380.63h45.255c4.866 0 8.81-3.944 8.81-8.81v-130.789c0-4.866-3.944-8.81-8.81-8.81h-13.31c-.852 32.853-5.937 100.328-31.945 148.409z" fill="#5faee2"></path><path d="m303.638 338.405c-3.03 5.742-7.628 10.328-13.099 13.376l-7.268 63.981 7.268 34.016c9.729 1.019 19.349 2.97 28.718 5.869l50.977 15.774 55.021 15.376c10.016 2.799 19.939-4.731 19.939-15.131v-.049c0-6.607-4.133-12.508-10.343-14.765l-41.408-15.053 70.454 10.336c9.483 1.391 17.991-5.96 17.991-15.544 0-7.796-5.717-14.413-13.43-15.544l-75.014-11.005h86.59c8.677 0 15.71-7.034 15.71-15.71v-.336c0-8.677-7.034-15.71-15.71-15.71h-86.59l66.659-10.831c7.604-1.236 13.191-7.803 13.191-15.507v-.402c0-9.518-8.396-16.85-17.827-15.567l-83.267 11.32c-7.849 1.067-15.806-.941-22.208-5.604-2.84-2.068-2.557-6.389.528-8.069l21.339-11.622c8.419-4.585 11.37-15.229 6.514-23.495-4.903-8.346-15.783-10.906-23.893-5.621l-23.005 14.991c-11.725 7.641-21.307 18.148-27.837 30.526z" fill="#ffe6c2"></path><path d="m290.539 351.782c-4.742 2.642-10.138 4.133-15.765 4.173l-3.753.143v92.847h3.903c5.223 0 10.433.291 15.614.833v-97.996z" fill="#ffd3a3"></path><path d="m122.613 452.369v-99.696c0-4.866 3.944-8.81 8.81-8.81h130.788c4.866 0 8.81 3.944 8.81 8.81v99.696c0 4.866-3.944 8.81-8.81 8.81h-130.787c-4.866.001-8.811-3.944-8.811-8.81z" fill="#ffab56"></path><path d="m122.613 407.114v45.255c0 4.866 3.944 8.81 8.81 8.81h130.788c4.866 0 8.81-3.944 8.81-8.81v-13.31c-32.852-.852-100.327-5.937-148.408-31.945z" fill="#ff982a"></path><path d="m181.093 312.396c-5.742-3.03-10.328-7.628-13.376-13.099l-63.981-7.268-34.016 7.268c-1.019 9.729-2.97 19.349-5.869 28.718l-15.774 50.977-15.376 55.021c-2.799 10.016 4.731 19.939 15.131 19.939h.049c6.607 0 12.508-4.133 14.765-10.343l15.053-41.409-10.336 70.454c-1.391 9.483 5.96 17.991 15.544 17.991 7.796 0 14.413-5.717 15.544-13.43l11.005-75.014v86.59c0 8.677 7.034 15.71 15.71 15.71h.336c8.677 0 15.71-7.034 15.71-15.71v-86.591l10.831 66.659c1.236 7.604 7.803 13.191 15.507 13.191h.402c9.518 0 16.85-8.396 15.567-17.827l-11.322-83.266c-1.067-7.849.941-15.806 5.604-22.208 2.068-2.84 6.389-2.557 8.069.528l11.622 21.339c4.585 8.419 15.229 11.37 23.495 6.514 8.346-4.903 10.906-15.783 5.621-23.893l-14.991-23.005c-7.64-11.725-18.146-21.306-30.524-27.836z" fill="#ffe6c2"></path><path d="m167.716 299.296c-2.642-4.742-4.133-10.138-4.173-15.765l-.143-3.753h-92.847v3.903c0 5.223-.291 10.433-.833 15.614h97.996z" fill="#ffd3a3"></path><path d="m67.128 131.371h99.696c4.866 0 8.81 3.944 8.81 8.81v130.788c0 4.866-3.944 8.81-8.81 8.81h-99.696c-4.866 0-8.81-3.944-8.81-8.81v-130.788c0-4.866 3.945-8.81 8.81-8.81z" fill="#6ce79a"></path><path d="m112.383 131.371h-45.255c-4.866 0-8.81 3.944-8.81 8.81v130.788c0 4.866 3.944 8.81 8.81 8.81h13.31c.853-32.853 5.938-100.328 31.945-148.408z" fill="#00d8a2"></path><path d="m208.362 178.073c3.03-5.742 7.628-10.328 13.099-13.376l7.268-63.981-7.268-34.016c-9.729-1.019-19.349-2.97-28.718-5.869l-50.977-15.774-55.02-15.376c-10.016-2.799-19.939 4.731-19.939 15.131v.049c0 6.607 4.133 12.508 10.343 14.765l41.408 15.053-70.454-10.335c-9.483-1.391-17.991 5.96-17.991 15.544 0 7.796 5.717 14.413 13.43 15.544l75.014 11.005h-86.59c-8.677 0-15.71 7.034-15.71 15.71v.336c0 8.677 7.034 15.71 15.71 15.71h86.59l-66.659 10.831c-7.604 1.236-13.191 7.803-13.191 15.507v.402c0 9.518 8.396 16.85 17.827 15.567l83.266-11.322c7.849-1.067 15.806.941 22.208 5.604 2.84 2.068 2.557 6.389-.528 8.069l-21.339 11.622c-8.419 4.585-11.37 15.229-6.514 23.495 4.903 8.346 15.783 10.906 23.893 5.621l23.005-14.991c11.726-7.64 21.307-18.147 27.837-30.525z" fill="#ffe6c2"></path><path d="m221.461 164.697c4.742-2.642 10.138-4.133 15.765-4.173l3.753-.143v-92.848h-3.903c-5.223 0-10.433-.291-15.614-.833v97.997z" fill="#ffd3a3"></path><path d="m389.387 64.109v99.696c0 4.866-3.944 8.81-8.81 8.81h-130.788c-4.866 0-8.81-3.944-8.81-8.81v-99.696c0-4.866 3.944-8.81 8.81-8.81h130.788c4.865 0 8.81 3.944 8.81 8.81z" fill="#ff7383"></path><path d="m389.387 109.364v-45.255c0-4.866-3.944-8.81-8.81-8.81h-130.788c-4.866 0-8.81 3.944-8.81 8.81v13.31c32.853.852 100.328 5.937 148.408 31.945z" fill="#ff546a"></path><path d="m332.027 199.605c5.742 3.03 10.328 7.628 13.376 13.099l63.981 7.268 34.016-7.268c1.019-9.729 2.97-19.349 5.869-28.718l15.774-50.977 15.376-55.021c2.799-10.016-4.731-19.939-15.131-19.939h-.049c-6.607 0-12.508 4.133-14.765 10.343l-15.053 41.408 10.336-70.454c1.391-9.483-5.96-17.991-15.544-17.991-7.796 0-14.413 5.717-15.544 13.43l-11.005 75.015v-86.59c0-8.677-7.034-15.71-15.71-15.71h-.336c-8.677 0-15.71 7.034-15.71 15.71v86.59l-10.831-66.659c-1.236-7.604-7.803-13.191-15.507-13.191h-.402c-9.518 0-16.85 8.396-15.567 17.827l11.322 83.266c1.067 7.849-.941 15.806-5.604 22.208-2.068 2.84-6.389 2.557-8.069-.528l-11.622-21.339c-4.585-8.419-15.229-11.37-23.495-6.514-8.346 4.903-10.906 15.783-5.621 23.893l14.991 23.005c7.639 11.725 18.146 21.307 30.524 27.837z" fill="#ffe6c2"></path><path d="m345.403 212.704c2.642 4.742 4.133 10.138 4.173 15.765l.143 3.753h92.847v-3.903c0-5.223.291-10.433.833-15.614h-97.996z" fill="#ffd3a3"></path></g><path d="m480.032 370.785h-8.851c12.195-8.774 12.854-26.955 1.668-36.724-3.041-2.656-6.681-4.44-10.548-5.243v-26.318c0-4.143-3.357-7.5-7.5-7.5s-7.5 3.357-7.5 7.5v27.018l-76.112 10.35c-4.447.606-8.898-.079-12.891-1.938l17.146-9.338c5.872-3.198 10.089-8.507 11.876-14.95 1.786-6.442.905-13.166-2.481-18.931-3.42-5.821-8.922-9.878-15.493-11.424-6.572-1.544-13.305-.368-18.961 3.318l-5.4 3.519v-49.093c0-.722.588-1.31 1.311-1.31h99.695c.723 0 1.311.588 1.311 1.31v32.469c0 4.143 3.357 7.5 7.5 7.5s7.5-3.357 7.5-7.5v-32.469c0-7.574-5.19-13.959-12.201-15.786.285-13.25 2.412-26.369 6.334-39.042l15.773-50.977c.021-.066.04-.132.059-.198l15.375-55.021c1.972-7.053.563-14.444-3.863-20.277-4.427-5.834-11.166-9.18-18.539-9.18-5.277 0-10.272 1.809-14.268 4.922l2.206-15.037c.979-6.678-.99-13.437-5.402-18.544-4.413-5.106-10.813-8.035-17.562-8.035-7.764 0-14.808 3.933-19.049 10v-.646c0-12.355-9.837-23.21-23.547-23.21-12.798 0-23.21 10.412-23.21 23.21v8.851c-8.774-12.198-26.956-12.852-36.725-1.667-3.855 4.415-5.876 10.095-5.719 15.893h-72.118c-8.119 0-14.876 5.942-16.151 13.706-13.144-.311-26.158-2.435-38.734-6.327l-4.258-1.317c-3.959-1.226-8.157.991-9.382 4.948s.991 8.157 4.948 9.382l4.258 1.317c13.944 4.315 28.375 6.664 42.951 6.996v78.226c-13.429 1.323-25.373 9.269-31.75 21.355-5.92 11.222-14.668 20.815-25.298 27.741l-23.005 14.991c-2.188 1.427-4.79 1.883-7.337 1.284-2.542-.598-4.671-2.168-5.994-4.42-1.311-2.23-1.651-4.832-.96-7.324.691-2.493 2.323-4.547 4.595-5.785l21.338-11.622c3.72-2.026 6.106-5.759 6.383-9.986s-1.602-8.239-5.026-10.733c-8.005-5.831-17.819-8.306-27.634-6.973l-83.266 11.324c-2.383.321-4.694-.369-6.507-1.951-5.088-4.445-3.049-13.531 4.084-14.691l66.659-10.832c3.857-.627 6.587-4.111 6.272-8.006s-3.567-6.896-7.476-6.896h-86.59c-4.527 0-8.21-3.683-8.21-8.21v-.336c0-4.527 3.683-8.21 8.21-8.21h86.59c3.931 0 7.194-3.034 7.48-6.954.285-3.92-2.503-7.396-6.392-7.966l-75.012-11.006c-4.001-.587-7.019-4.08-7.019-8.124 0-2.422 1.01-4.629 2.843-6.213s4.161-2.262 6.559-1.911l70.454 10.336c3.808.562 7.42-1.854 8.361-5.585s-1.094-7.569-4.71-8.884l-41.408-15.054c-3.233-1.175-5.405-4.276-5.405-7.766 0-2.59 1.184-4.974 3.247-6.54s4.679-2.063 7.174-1.367l54.922 15.348 18.81 5.821c3.957 1.224 8.157-.991 9.382-4.948s-.991-8.158-4.948-9.382l-18.908-5.852c-.065-.02-.132-.04-.198-.058l-55.024-15.375c-7.055-1.971-14.445-.562-20.278 3.864-5.834 4.427-9.18 11.166-9.18 18.539 0 5.277 1.809 10.272 4.923 14.268l-15.037-2.206c-6.677-.981-13.436.989-18.543 5.401s-8.036 10.814-8.036 17.563c0 7.763 3.933 14.807 10 19.049h-.646c-12.798 0-23.21 10.412-23.21 23.21v.336c0 12.798 10.412 23.21 23.21 23.21h8.852c-12.131 8.727-12.924 26.894-1.668 36.724 3.333 2.91 7.385 4.775 11.667 5.447v83.105c0 7.574 5.19 13.959 12.201 15.785-.285 13.25-2.412 26.37-6.334 39.043l-11.576 37.412c-1.225 3.957.991 8.157 4.948 9.382 3.957 1.224 8.157-.991 9.382-4.948l11.576-37.412c4.314-13.943 6.664-28.375 6.996-42.952h78.227c1.322 13.429 9.268 25.374 21.354 31.751 11.223 5.92 20.815 14.668 27.742 25.297l14.991 23.005c1.426 2.188 1.882 4.795 1.284 7.337-.599 2.543-2.168 4.672-4.421 5.995-2.229 1.311-4.832 1.654-7.324.96-2.493-.691-4.547-2.323-5.784-4.595l-11.622-21.338c-2.025-3.721-5.758-6.106-9.985-6.384-4.227-.287-8.239 1.602-10.733 5.026-5.831 8.006-8.308 17.819-6.973 27.634l11.322 83.267c.324 2.383-.369 4.694-1.951 6.506-4.441 5.085-13.529 3.069-14.69-4.083l-10.831-66.659c-.628-3.858-4.124-6.586-8.007-6.272-3.896.314-6.896 3.567-6.896 7.476v86.589c0 4.527-3.684 8.211-8.211 8.211h-.336c-4.527 0-8.211-3.684-8.211-8.211v-86.589c0-3.931-3.034-7.194-6.954-7.48-3.919-.265-7.396 2.502-7.967 6.392l-11.004 75.014c-.587 4.001-4.079 7.019-8.124 7.019-2.423 0-4.629-1.01-6.212-2.842-1.584-1.833-2.263-4.163-1.911-6.56l10.336-70.454c.559-3.808-1.854-7.42-5.586-8.361-3.734-.939-7.569 1.094-8.884 4.71l-15.054 41.407c-1.175 3.233-4.275 5.405-7.766 5.405-2.591 0-4.975-1.184-6.54-3.247-1.566-2.063-2.064-4.678-1.366-7.173l11.312-40.476c1.114-3.989-1.216-8.127-5.205-9.242-3.99-1.114-8.127 1.215-9.242 5.205l-11.311 40.475c-1.972 7.053-.563 14.444 3.863 20.277 4.427 5.835 11.166 9.181 18.539 9.181 5.277 0 10.271-1.808 14.268-4.923l-2.206 15.038c-.979 6.678.99 13.437 5.402 18.543s10.814 8.035 17.563 8.035c7.763 0 14.807-3.933 19.048-9.999v.645c0 12.799 10.412 23.211 23.211 23.211h.336c12.799 0 23.211-10.412 23.211-23.211v-8.85c8.77 12.191 26.953 12.855 36.723 1.666 3.195-3.657 5.13-8.184 5.61-12.927h71.165c7.575 0 13.96-5.19 15.786-12.201 13.248.285 26.367 2.412 39.042 6.334l50.977 15.773c.065.021.132.04.198.059l55.021 15.377c2.09.584 4.209.871 6.309.871 4.986 0 9.863-1.621 13.969-4.736 5.834-4.427 9.18-11.166 9.18-18.539 0-5.277-1.809-10.272-4.923-14.268l15.037 2.206c6.679.979 13.437-.989 18.544-5.401 5.107-4.413 8.036-10.814 8.036-17.563 0-7.764-3.934-14.808-10.001-19.049h.646c12.799 0 23.211-10.412 23.211-23.21v-.337c0-12.798-10.412-23.21-23.211-23.21zm-141.051-330.525c4.438-5.08 13.528-3.077 14.69 4.083l10.832 66.66c.628 3.857 4.127 6.583 8.007 6.272 3.896-.314 6.896-3.567 6.896-7.476v-86.589c0-4.218 3.254-8.21 8.546-8.21 4.527 0 8.211 3.683 8.211 8.21v86.59c0 3.93 3.034 7.194 6.954 7.48 3.909.283 7.396-2.502 7.967-6.391l11.005-75.015c.586-4.001 4.078-7.018 8.123-7.018 2.422 0 4.628 1.009 6.212 2.842s2.263 4.163 1.911 6.56l-10.335 70.453c-.559 3.807 1.855 7.419 5.586 8.361 3.736.94 7.568-1.094 8.884-4.709l15.054-41.409c1.175-3.232 4.275-5.404 7.766-5.404 2.591 0 4.975 1.184 6.54 3.247 1.566 2.063 2.064 4.678 1.366 7.173l-15.348 54.922-15.743 50.877c-4.314 13.943-6.664 28.375-6.996 42.952h-78.227c-1.322-13.429-9.268-25.373-21.355-31.75-11.221-5.919-20.813-14.667-27.741-25.297l-14.991-23.005c-1.426-2.188-1.882-4.794-1.283-7.336.598-2.543 2.168-4.672 4.42-5.995 2.23-1.311 4.835-1.651 7.324-.96 2.493.691 4.547 2.323 5.784 4.595l11.622 21.337c2.025 3.72 5.758 6.107 9.984 6.384 4.214.278 8.239-1.602 10.734-5.026 5.831-8.007 8.308-17.821 6.973-27.635l-11.323-83.266c-.324-2.384.369-4.695 1.951-6.507zm-90.503 22.394c0-.753.613-1.367 1.367-1.367h74.021l9.623 70.767c.605 4.449-.079 8.897-1.938 12.89l-9.338-17.146c-3.198-5.872-8.507-10.089-14.949-11.875-6.444-1.787-13.166-.905-18.931 2.481-5.821 3.42-9.878 8.922-11.424 15.494-1.546 6.571-.368 13.305 3.318 18.96l7.987 12.257h-38.369c-.754 0-1.367-.613-1.367-1.367zm-181.349 209.625c-.723 0-1.311-.588-1.311-1.31v-84.161l74.993-10.197c4.449-.604 8.899.08 12.89 1.938l-17.146 9.338c-5.872 3.197-10.089 8.507-11.876 14.949-1.786 6.443-.905 13.166 2.481 18.931 3.419 5.821 8.921 9.878 15.493 11.424 1.886.444 3.785.663 5.669.663 4.679 0 9.26-1.354 13.292-3.981l6.52-4.248v45.344c0 .722-.588 1.31-1.311 1.31zm117.464 33.483c-7.339-3.871-12.25-11.008-13.327-19.098 6.842-1.939 11.869-8.241 11.869-15.695v-55.119l1.485-.968c12.763-8.317 23.267-19.835 30.376-33.31 3.874-7.343 11.016-12.255 19.111-13.328 1.959 6.845 8.273 11.87 15.739 11.87h48.324c8.004 10.849 18.412 19.821 30.358 26.123 7.339 3.872 12.25 11.009 13.327 19.098-6.842 1.939-11.869 8.241-11.869 15.695v58.867l-2.605 1.698c-12.763 8.316-23.267 19.835-30.375 33.309-3.871 7.339-11.008 12.249-19.097 13.326-1.939-6.841-8.241-11.867-15.696-11.867h-44.163l-.148-.227c-8.317-12.761-19.836-23.265-33.309-30.374zm78.929 146.608c0 .722-.588 1.31-1.311 1.31h-72.555l-10.026-73.733c-.605-4.448.079-8.897 1.938-12.89l9.338 17.146c3.198 5.872 8.507 10.089 14.949 11.876 6.444 1.786 13.165.905 18.931-2.481 5.821-3.42 9.878-8.922 11.425-15.493 1.546-6.571.367-13.306-3.319-18.962l-5.069-7.778h34.388c.723 0 1.311.588 1.311 1.31zm224.721-58.038c0 4.527-3.684 8.21-8.211 8.21h-86.589c-3.931 0-7.194 3.034-7.48 6.954s2.503 7.396 6.392 7.967l75.014 11.005c4.002.587 7.02 4.079 7.02 8.123 0 2.423-1.01 4.629-2.843 6.213s-4.166 2.262-6.56 1.91l-70.453-10.336c-3.805-.553-7.419 1.855-8.361 5.586-.941 3.73 1.094 7.569 4.71 8.884l41.407 15.054c3.233 1.175 5.405 4.276 5.405 7.766 0 2.591-1.184 4.975-3.247 6.54-2.063 1.566-4.678 2.066-7.173 1.367l-54.921-15.349-50.879-15.743c-13.945-4.314-28.376-6.664-42.951-6.996v-78.227c13.43-1.322 25.373-9.269 31.75-21.354 5.92-11.223 14.668-20.815 25.297-27.742l23.006-14.991c2.189-1.426 4.795-1.882 7.336-1.283 2.543.599 4.672 2.168 5.995 4.42 1.311 2.23 1.651 4.832.96 7.325s-2.323 4.547-4.595 5.784l-21.34 11.622c-3.72 2.026-6.105 5.76-6.382 9.986s1.603 8.238 5.025 10.731c8.007 5.832 17.824 8.31 27.636 6.974l83.266-11.322c2.387-.323 4.695.37 6.507 1.951 5.08 4.436 3.074 13.528-4.084 14.69l-66.659 10.831c-3.857.627-6.587 4.111-6.272 8.007s3.567 6.896 7.476 6.896h86.589c4.527 0 8.211 3.683 8.211 8.21v.337z"></path></g></svg>