<svg xmlns="http://www.w3.org/2000/svg" id="Capa_1" height="512" viewBox="0 0 512 512" width="512"><g><g><g><path d="m134.032 291.003h36.384v189.311h-36.384z" fill="#ffab56" transform="matrix(.948 .318 -.318 .948 130.605 -28.391)"></path><path d="m130.18 394.167c10.181 6.861 21.039 12.788 32.45 17.665l36.955-110.123-34.493-11.575z" fill="#ff982a"></path></g><g><path d="m308.289 291.003h36.384v189.311h-36.384z" fill="#ffab56" transform="matrix(-.948 .318 -.318 -.948 758.695 647.411)"></path><path d="m348.525 394.167c-10.181 6.861-21.039 12.788-32.45 17.665l-36.955-110.123 34.493-11.575z" fill="#ff982a"></path></g><path d="m222.084 14.811-6.124 12.579c-1.487 3.055-2.26 6.408-2.26 9.806v41.515h51.307v-41.515c0-3.398-.773-6.751-2.26-9.806l-6.124-12.578c-2.178-4.473-6.716-7.311-11.691-7.311h-11.156c-4.976-.001-9.515 2.837-11.692 7.31z" fill="#ffab56"></path><circle cx="239.353" cy="231.64" fill="#ff7383" r="177.853"></circle><path d="m239.353 53.787c-4.894 0-9.738.206-14.532.594 91.427 7.395 163.321 83.927 163.321 177.259s-71.894 169.865-163.321 177.26c4.794.388 9.639.594 14.532.594 98.226 0 177.853-79.628 177.853-177.853s-79.628-177.854-177.853-177.854z" fill="#ff546a"></path><circle cx="239.353" cy="231.64" fill="#faf7f8" r="134.489"></circle><path d="m239.353 97.151c-4.835 0-9.609.261-14.312.758 67.547 7.146 120.177 64.289 120.177 133.731s-52.631 126.585-120.177 133.731c4.703.498 9.477.758 14.312.758 74.276 0 134.489-60.213 134.489-134.489s-60.213-134.489-134.489-134.489z" fill="#f0eef0"></path><circle cx="239.353" cy="231.64" fill="#ff7383" r="80.397"></circle><path d="m239.353 151.243c-4.929 0-9.747.467-14.431 1.317 37.511 6.803 65.966 39.607 65.966 79.08s-28.455 72.277-65.966 79.08c4.684.849 9.502 1.317 14.431 1.317 44.402 0 80.397-35.995 80.397-80.397s-35.995-80.397-80.397-80.397z" fill="#ff546a"></path><circle cx="239.353" cy="231.64" fill="#faf7f8" r="34.996"></circle><g><path d="m386.627 169.954-62.034-23.049-23.048-62.034 63.874-63.875 23.049 62.034 62.034 23.049z" fill="#6ce79a"></path><path d="m376.258 50.167-63.875 63.875 12.21 32.863 32.863 12.21 63.875-63.875-32.863-12.21z" fill="#00d8a2"></path></g><path d="m234.455 237.043c-5.417-5.417-5.417-14.2 0-19.617l165.233-165.234c2.247-2.247 5.89-2.247 8.137 0l11.48 11.48c2.247 2.247 2.247 5.89 0 8.137l-165.232 165.234c-5.418 5.417-14.201 5.417-19.618 0z" fill="#6c5e69"></path><path d="m403.656 504.5h-328.606c-4.293 0-7.773-3.48-7.773-7.773v-27.775c0-4.293 3.48-7.773 7.773-7.773h328.606c4.293 0 7.773 3.48 7.773 7.773v27.775c-.001 4.293-3.481 7.773-7.773 7.773z" fill="#6c5e69"></path><path d="m403.656 504.5c4.293 0 7.773-3.48 7.773-7.773v-27.775c0-4.293-3.48-7.773-7.773-7.773h-11.769c-8.202 14.411-23.215 32.952-49.217 43.321z" fill="#574d56"></path></g><path d="m457.828 104.48c-.544-2.496-2.321-4.542-4.715-5.432l-36.775-13.664 8.271-8.271c5.167-5.167 5.167-13.576 0-18.744l-11.48-11.48c-5.169-5.167-13.575-5.167-18.744 0l-8.271 8.271-13.664-36.776c-.89-2.394-2.937-4.171-5.432-4.715-2.494-.542-5.096.218-6.902 2.024l-46.202 46.202c-13.347-5.876-27.188-10.108-41.408-12.67v-12.029c0-4.509-1.043-9.035-3.017-13.089l-6.124-12.578c-3.409-7.004-10.644-11.529-18.434-11.529h-11.156c-7.789 0-15.024 4.525-18.435 11.528l-6.124 12.579c-1.974 4.054-3.017 8.58-3.017 13.089v12.086c-18.555 3.37-36.559 9.545-53.206 18.328-3.664 1.933-5.067 6.469-3.135 10.133 1.344 2.547 3.947 4.002 6.641 4.002 1.18 0 2.377-.279 3.492-.868 24.293-12.815 51.735-19.589 79.361-19.589 21.888 0 43.073 4.054 63.105 12.064l-6.217 6.217c-2.073 2.074-2.748 5.166-1.727 7.916l5.924 15.945c-18.976-9.053-39.784-13.778-61.085-13.778-78.293 0-141.989 63.696-141.989 141.989s63.696 141.989 141.989 141.989c53.061 0 101.305-29.24 125.906-76.311 1.919-3.671.499-8.202-3.173-10.12-3.666-1.918-8.201-.499-10.12 3.173-22.006 42.103-65.157 68.258-112.613 68.258-70.022 0-126.989-56.967-126.989-126.989s56.967-126.989 126.989-126.989c24.601 0 48.461 7.042 69.001 20.363.045.029.091.058.136.086l2.082 5.602-25.72 25.72c-13.7-8.305-29.361-12.679-45.499-12.679-48.467 0-87.897 39.431-87.897 87.897 0 48.467 39.431 87.897 87.897 87.897s87.897-39.431 87.897-87.897c0-15.892-4.241-31.317-12.3-44.867l25.846-25.846 5.364 1.993c13.206 20.479 20.182 44.224 20.182 68.721 0 11.193-1.466 22.319-4.356 33.07-1.076 4 1.295 8.114 5.295 9.189.652.176 1.308.26 1.952.26 3.309 0 6.338-2.207 7.237-5.555 3.233-12.02 4.872-24.457 4.872-36.965 0-21.164-4.66-41.83-13.594-60.7l16.266 6.044c.851.316 1.734.47 2.611.47 1.954 0 3.872-.765 5.305-2.197l5.995-5.995c7.82 19.837 11.781 40.792 11.781 62.379 0 93.934-76.42 170.354-170.354 170.354s-170.352-76.422-170.352-170.356c0-53.702 24.562-103.167 67.389-135.713 3.298-2.506 3.939-7.211 1.434-10.509-2.506-3.297-7.21-3.941-10.51-1.433-22.279 16.931-40.729 39.032-53.354 63.915-13.243 26.1-19.958 54.274-19.958 83.74 0 60.132 28.783 113.667 73.295 147.553l-24.996 74.486h-27.249c-8.421 0-15.272 6.852-15.272 15.273v27.774c0 8.422 6.852 15.273 15.272 15.273h138.648c4.143 0 7.5-3.357 7.5-7.5s-3.357-7.5-7.5-7.5h-138.648c-.15 0-.272-.123-.272-.273v-27.774c0-.15.122-.273.272-.273h328.605c.15 0 .272.123.272.273v27.774c0 .15-.122.273-.272.273h-160.956c-4.143 0-7.5 3.357-7.5 7.5s3.357 7.5 7.5 7.5h160.957c8.421 0 15.272-6.852 15.272-15.273v-27.774c0-8.422-6.852-15.273-15.272-15.273h-27.248l-24.995-74.486c44.512-33.886 73.295-87.422 73.295-147.553 0-25.662-5.148-50.511-15.302-73.857l46.401-46.401c1.804-1.806 2.566-4.407 2.021-6.902zm-236.629-57.298v-9.986c0-2.248.52-4.503 1.503-6.523l6.124-12.579c.915-1.88 2.857-3.094 4.948-3.094h11.156c2.091 0 4.032 1.214 4.947 3.094l6.125 12.578c.983 2.02 1.503 4.276 1.503 6.523v9.96c-5.996-.578-12.05-.868-18.153-.868-6.067 0-12.127.301-18.153.895zm84.57 357.511 16.439 48.986h-165.711l16.439-48.986c20.628 7.944 43.023 12.301 66.416 12.301s45.789-4.357 66.417-12.301zm-165.653-16.562c6.103 3.884 12.447 7.421 19.005 10.583l-18.446 54.965h-22.555zm220.469 65.548h-22.555l-18.446-54.965c6.558-3.162 12.902-6.699 19.005-10.583zm43.172-394.949 9.011 9.011-163.999 163.999c-2.482 2.484-6.525 2.484-9.01 0s-2.484-6.527 0-9.011zm-174.605 183.616c4.167 4.167 9.64 6.25 15.112 6.25s10.945-2.083 15.112-6.25l7.257-7.257c-1.702 13.54-13.287 24.047-27.281 24.047-15.161 0-27.496-12.334-27.496-27.496 0-14.38 11.096-26.216 25.175-27.399l-7.88 7.88c-8.331 8.334-8.331 21.892.001 30.225zm133.307-207.783 11.987 32.264-52.208 52.208-11.987-32.264zm-50.209 197.077c0 40.196-32.701 72.897-72.897 72.897s-72.897-32.701-72.897-72.897c0-40.195 32.701-72.897 72.897-72.897 12.139 0 23.947 2.981 34.509 8.669l-23.243 23.243c-3.654-1.004-7.428-1.511-11.266-1.511-23.433 0-42.496 19.063-42.496 42.496s19.063 42.496 42.496 42.496 42.496-19.063 42.496-42.496c0-3.548-.437-7.057-1.301-10.466l23.384-23.384c5.46 10.395 8.318 21.963 8.318 33.85zm72.477-70.393-32.264-11.987 52.208-52.208 32.264 11.987z"></path></g></svg>