<svg xmlns="http://www.w3.org/2000/svg" id="Capa_1" height="512" viewBox="0 0 511.999 511.999" width="512"><g><g><path d="m240.194 377.964 6.505-82.919 11.022-39.954 30.377 24.701 6.262 80.845-58.772 31.311z" fill="#ffbe84"></path><path d="m262.129 373.458 21.835-80.257 18.27-37.202 25.245 29.926-8.905 80.597-63.574 19.816z" fill="#ffd3a3"></path><path d="m355.656 107.155c0-55.511-45.387-100.422-101.076-99.646-54.297.756-98.342 45.543-98.236 99.845.057 29.138 12.62 55.34 32.607 73.527 11.056 10.06 17.224 24.41 17.224 39.358v11.725h99.649v-11.729c0-15.003 6.263-29.347 17.344-39.462 19.963-18.224 32.488-44.458 32.488-73.618z" fill="#fff485"></path><path d="m355.656 107.155c0-55.511-45.387-100.422-101.076-99.646-54.297.756-98.342 45.543-98.236 99.845.057 29.138 12.62 55.34 32.607 73.527 11.056 10.06 17.224 24.41 17.224 39.358v11.725h99.649v-11.729c0-15.003 6.263-29.347 17.344-39.462 19.963-18.224 32.488-44.458 32.488-73.618z" fill="#fff485"></path><path d="m305.825 231.963v-11.729c0-15.003 6.263-29.347 17.344-39.462 19.963-18.223 32.488-44.457 32.488-73.617 0-55.511-45.387-100.422-101.077-99.646-7.489.104-14.781 1.05-21.791 2.739 31.445 30.501 80.973 101.195 41.376 221.715z" fill="#ffea76"></path><path d="m316.103 231.963h-120.206v37.709c0 25.59 20.745 46.334 46.334 46.334h27.538c25.59 0 46.334-20.745 46.334-46.334z" fill="#6c5e69"></path><path d="m316.103 269.672v-37.709h-25.512c6.375 21.848 3.276 60.227-22.591 84.043h1.769c25.59.001 46.334-20.744 46.334-46.334z" fill="#574d56"></path><path d="m201.677 435.483 1-24.309c0-5.103-1.25-10.128-3.64-14.637l-37.825-71.348c-3.197-6.03-4.868-12.75-4.868-19.575v-29.306c0-10.922 8.854-19.777 19.777-19.777 10.922 0 19.777 8.854 19.777 19.777 0 7.038 1.069 14.035 3.171 20.751l7.244 23.15c1.711 5.467 4.765 10.418 8.882 14.401l15.273 14.772c11.144 10.779 28.013 13.037 41.6 5.568l17.944-9.864c4.847-2.664 8.834-6.655 11.494-11.505l11.014-20.084c2.351-4.287 3.584-9.098 3.584-13.988v-29.837-13.365c0-10.922 8.854-19.777 19.777-19.777 10.922 0 19.777 8.854 19.777 19.777v46.972c0 8.463-.861 16.904-2.569 25.193l-5.369 26.054c-2.831 13.738-10.325 26.075-21.213 34.919l-5.636 4.578c-7.305 5.934-11.546 14.844-11.546 24.255l-1 17.205z" fill="#ffe6c2"></path><path d="m202.528 414.786-.852 20.697h106.647l1-17.205c0-1.174.066-2.339.196-3.493h-106.991z" fill="#ffd3a3"></path><path d="m323.162 504.499h-136.998c-4.396 0-7.96-3.564-7.96-7.96v-53.096c0-4.396 3.564-7.96 7.96-7.96h136.998c4.396 0 7.96 3.564 7.96 7.96v53.096c-.001 4.396-3.564 7.96-7.96 7.96z" fill="#6ce79a"></path><path d="m323.162 435.483h-17.404c-2.123 20.491-8.382 47.381-25.381 69.016h42.785c4.396 0 7.96-3.564 7.96-7.96v-53.096c-.001-4.396-3.564-7.96-7.96-7.96z" fill="#00d8a2"></path></g><g><path d="m232.472 269.545h47.056c4.143 0 7.5-3.357 7.5-7.5s-3.357-7.5-7.5-7.5h-47.056c-4.143 0-7.5 3.357-7.5 7.5s3.358 7.5 7.5 7.5z"></path><path d="m268.401 278.425h-24.802c-4.143 0-7.5 3.357-7.5 7.5s3.357 7.5 7.5 7.5h24.802c4.143 0 7.5-3.357 7.5-7.5s-3.357-7.5-7.5-7.5z"></path><path d="m137.35 35.925-36.99-22.899c-3.52-2.179-8.144-1.093-10.324 2.429s-1.093 8.145 2.43 10.325l36.99 22.899c1.229.761 2.593 1.124 3.94 1.124 2.511 0 4.965-1.261 6.384-3.553 2.181-3.523 1.093-8.145-2.43-10.325z"></path><path d="m119.931 103.126-43.376 3.356c-4.13.319-7.219 3.926-6.899 8.056.304 3.933 3.59 6.922 7.47 6.922.193 0 .39-.008.586-.023l43.376-3.356c4.13-.319 7.219-3.926 6.899-8.056-.319-4.13-3.922-7.22-8.056-6.899z"></path><path d="m421.964 15.455c-2.181-3.522-6.804-4.608-10.324-2.429l-36.991 22.899c-3.522 2.18-4.61 6.803-2.43 10.325 1.419 2.292 3.873 3.553 6.384 3.553 1.348 0 2.711-.363 3.94-1.124l36.991-22.899c3.523-2.181 4.611-6.803 2.43-10.325z"></path><path d="m435.444 106.482-43.375-3.356c-4.115-.315-7.737 2.769-8.056 6.899s2.77 7.737 6.899 8.056l43.375 3.356c.196.015.392.023.586.023 3.88 0 7.166-2.989 7.47-6.922.32-4.13-2.769-7.737-6.899-8.056z"></path><path d="m328.225 186.311c22.199-20.266 34.932-49.117 34.932-79.156 0-28.905-11.335-56.002-31.918-76.3-20.579-20.294-47.87-31.224-76.764-30.846-23.774.331-46.232 8.373-64.945 23.255-3.242 2.579-3.78 7.296-1.202 10.539s7.297 3.78 10.538 1.202c16.092-12.797 35.394-19.712 55.818-19.996 24.904-.361 48.324 9.074 66.022 26.527 17.701 17.457 27.45 40.761 27.45 65.619 0 25.834-10.951 50.648-30.045 68.078-12.575 11.479-19.787 27.881-19.787 45.002v4.229h-34.824v-44.52c13.025-3.343 22.68-15.183 22.68-29.236 0-4.142-3.357-7.5-7.5-7.5s-7.5 3.358-7.5 7.5c0 5.644-3.096 10.578-7.68 13.193v-5.854c0-4.142-3.357-7.5-7.5-7.5s-7.5 3.358-7.5 7.5v5.853c-4.583-2.616-7.679-7.55-7.679-13.193 0-4.142-3.357-7.5-7.5-7.5s-7.5 3.358-7.5 7.5c0 14.052 9.654 25.893 22.679 29.236v44.52h-34.824v-4.225c0-17.159-7.172-33.526-19.677-44.905-19.113-17.391-30.104-42.174-30.154-67.994-.038-18.929 5.705-37.173 16.608-52.76 2.374-3.394 1.548-8.07-1.847-10.444-3.394-2.373-8.071-1.547-10.444 1.847-12.682 18.128-19.362 39.356-19.318 61.387.059 30.023 12.837 58.839 35.059 79.059 9.388 8.542 14.772 20.866 14.772 33.811v4.225h-2.778c-4.143 0-7.5 3.358-7.5 7.5v19.991c-3.692-1.869-7.864-2.923-12.277-2.923-15.04 0-27.276 12.237-27.276 27.277v29.306c0 8.019 1.985 16.003 5.742 23.088l37.824 71.347c1.788 3.373 2.743 7.167 2.767 10.982l-.697 16.952h-8.315c-8.524 0-15.46 6.936-15.46 15.46v53.097c0 8.524 6.936 15.46 15.46 15.46h40.837c4.143 0 7.5-3.357 7.5-7.5s-3.357-7.5-7.5-7.5h-40.837c-.254 0-.46-.206-.46-.46v-53.097c0-.254.206-.46.46-.46h136.998c.254 0 .46.206.46.46v53.097c0 .254-.206.46-.46.46h-67.161c-4.143 0-7.5 3.357-7.5 7.5s3.357 7.5 7.5 7.5h67.161c8.524 0 15.46-6.936 15.46-15.46v-53.097c0-8.524-6.936-15.46-15.46-15.46h-6.89l.539-9.269c.009-.146.013-.29.013-.436 0-7.185 3.198-13.903 8.775-18.434l5.637-4.579c12.196-9.907 20.659-23.838 23.83-39.227l5.368-26.054c1.513-7.339 2.402-14.891 2.646-22.445.134-4.141-3.114-7.604-7.254-7.738-4.156-.155-7.604 3.113-7.738 7.254-.216 6.702-1.006 13.398-2.346 19.902l-5.368 26.054c-2.475 12.009-9.079 22.88-18.596 30.611l-5.637 4.579c-9.04 7.343-14.25 18.211-14.317 29.847l-.578 9.934h-91.755l.68-16.501c.004-.103.006-.206.006-.309 0-6.303-1.561-12.578-4.514-18.149l-37.824-71.348c-2.614-4.93-3.995-10.484-3.995-16.062v-29.306c0-6.77 5.507-12.277 12.276-12.277s12.277 5.508 12.277 12.277c0 7.809 1.182 15.544 3.514 22.991l7.243 23.148c2.079 6.645 5.823 12.715 10.827 17.553l15.272 14.773c13.591 13.145 33.855 15.856 50.427 6.749l17.943-9.863c6.107-3.357 11.107-8.361 14.458-14.472l11.016-20.085c2.947-5.378 4.506-11.462 4.506-17.594v-43.202c0-6.769 5.507-12.276 12.276-12.276s12.277 5.507 12.277 12.276v21.436c0 4.143 3.357 7.5 7.5 7.5s7.5-3.357 7.5-7.5v-21.436c0-15.04-12.236-27.276-27.277-27.276-4.413 0-8.584 1.054-12.276 2.923-.005-4.138-3.361-7.49-7.5-7.49h-2.778v-4.229c-.001-12.914 5.429-25.279 14.899-33.923zm-19.622 53.152v30.209c0 21.413-17.421 38.834-38.834 38.834h-27.538c-21.413 0-38.834-17.421-38.834-38.834v-30.209zm-88.194 89.755c-5.305-5.129-6.589-10.13-8.042-14.775 7.175 4.802 15.562 7.926 24.597 8.807l-1.603 20.431zm29.394 22.139 2.186-27.851h15.957l-7.568 27.818c-3.516.696-7.104.698-10.575.033zm45.126-21.381c-1.977 3.604-4.927 6.558-8.531 8.538l-8.218 4.518 5.832-21.438c8.446-2.319 16.067-6.649 22.317-12.44z"></path></g></g></svg>