<svg xmlns="http://www.w3.org/2000/svg" id="Capa_1" height="512" viewBox="0 0 512.001 512.001" width="512"><g><g><path d="m248.879 20.597 16.039 13.357 2.273 53.593-4.545 20.88h-19.519c-2.52 0-4.563-2.043-4.563-4.563v-53.39c0-1.932-1.566-3.498-3.498-3.498h-13.311c-2.542 0-3.845-3.046-2.09-4.885l21.575-22.603z" fill="#6ce79a"></path><path d="m250.391 9.901c3.055-3.2 8.164-3.2 11.219 0l30.727 32.191c1.755 1.839.452 4.885-2.09 4.885h-13.311c-1.932 0-3.498 1.566-3.498 3.498v53.39c0 2.52-2.043 4.563-4.563 4.563h-6.229c-.744-23.384.759-73.638-21.406-88.938z" fill="#00d8a2"></path><path d="m417.419 84.509 1.897 20.786-36.289 39.503-17.978 11.55-13.802-13.802c-1.782-1.782-1.782-4.671 0-6.453l37.752-37.752c1.366-1.366 1.366-3.581 0-4.947l-9.412-9.412c-1.798-1.798-.565-4.873 1.976-4.932l31.238-.727z" fill="#6ce79a"></path><path d="m426.053 78.015c4.423-.103 8.036 3.51 7.933 7.933l-1.035 44.49c-.059 2.541-3.135 3.774-4.932 1.976l-9.412-9.412c-1.366-1.366-3.581-1.366-4.947 0l-37.752 37.752c-1.782 1.782-4.671 1.782-6.453 0l-4.405-4.405c16.009-17.061 52.607-51.534 47.752-78.025z" fill="#00d8a2"></path><path d="m491.403 248.878-13.357 16.039-53.593 2.273-20.88-4.545v-19.519c0-2.52 2.043-4.563 4.563-4.563h53.389c1.932 0 3.498-1.566 3.498-3.498v-13.311c0-2.542 3.046-3.845 4.885-2.09l22.603 21.575z" fill="#6ce79a"></path><path d="m502.1 250.391c3.2 3.055 3.2 8.164 0 11.219l-32.191 30.727c-1.839 1.755-4.885.452-4.885-2.09v-13.311c0-1.932-1.566-3.498-3.498-3.498h-53.389c-2.52 0-4.563-2.043-4.563-4.563v-6.229c23.384-.744 73.638.759 88.938-21.406z" fill="#00d8a2"></path><path d="m427.491 417.419-20.786 1.897-39.503-36.289-11.55-17.978 13.802-13.802c1.782-1.782 4.671-1.782 6.453 0l37.752 37.752c1.366 1.366 3.581 1.366 4.947 0l9.412-9.412c1.798-1.798 4.873-.565 4.932 1.976l.727 31.238z" fill="#6ce79a"></path><path d="m433.986 426.052c.103 4.423-3.51 8.036-7.933 7.933l-44.49-1.035c-2.541-.059-3.774-3.135-1.976-4.932l9.412-9.412c1.366-1.366 1.366-3.581 0-4.947l-37.752-37.752c-1.782-1.782-1.782-4.671 0-6.453l4.405-4.405c17.061 16.009 51.534 52.607 78.025 47.752z" fill="#00d8a2"></path><path d="m263.122 491.403-16.039-13.357-2.273-53.593 4.545-20.88h19.519c2.52 0 4.563 2.043 4.563 4.563v53.389c0 1.932 1.566 3.498 3.498 3.498h13.311c2.542 0 3.845 3.046 2.09 4.885l-21.575 22.603z" fill="#6ce79a"></path><path d="m261.61 502.1c-3.055 3.2-8.164 3.2-11.219 0l-30.727-32.191c-1.755-1.839-.452-4.885 2.09-4.885h13.311c1.932 0 3.498-1.566 3.498-3.498v-53.389c0-2.52 2.043-4.563 4.563-4.563h6.229c.744 23.384-.759 73.638 21.406 88.938z" fill="#00d8a2"></path><path d="m94.581 427.491-1.897-20.786 36.289-39.503 17.978-11.55 13.802 13.802c1.782 1.782 1.782 4.671 0 6.453l-37.752 37.752c-1.366 1.366-1.366 3.581 0 4.947l9.412 9.412c1.798 1.798.565 4.873-1.976 4.932l-31.237.727z" fill="#6ce79a"></path><path d="m85.948 433.985c-4.423.103-8.036-3.51-7.933-7.933l1.035-44.49c.059-2.541 3.135-3.774 4.932-1.976l9.412 9.412c1.366 1.366 3.581 1.366 4.947 0l37.752-37.752c1.782-1.782 4.671-1.782 6.453 0l4.405 4.405c-16.009 17.061-52.607 51.534-47.752 78.025z" fill="#00d8a2"></path><path d="m20.598 263.122 13.357-16.039 53.593-2.273 20.88 4.545v19.519c0 2.52-2.043 4.563-4.563 4.563h-53.39c-1.932 0-3.498 1.566-3.498 3.498v13.311c0 2.542-3.046 3.845-4.885 2.09l-22.603-21.575z" fill="#6ce79a"></path><path d="m9.901 261.61c-3.2-3.055-3.2-8.164 0-11.219l32.191-30.727c1.839-1.755 4.885-.452 4.885 2.09v13.311c0 1.932 1.566 3.498 3.498 3.498h53.39c2.52 0 4.563 2.043 4.563 4.563v6.229c-23.384.744-73.638-.759-88.938 21.406z" fill="#00d8a2"></path><path d="m84.51 94.581 20.786-1.897 39.503 36.289 11.55 17.978-13.802 13.802c-1.782 1.782-4.671 1.782-6.453 0l-37.752-37.752c-1.366-1.366-3.581-1.366-4.947 0l-9.412 9.412c-1.798 1.798-4.873.565-4.932-1.976l-.727-31.237z" fill="#6ce79a"></path><path d="m78.015 85.948c-.103-4.423 3.51-8.036 7.933-7.933l44.49 1.035c2.541.059 3.774 3.135 1.976 4.932l-9.412 9.412c-1.366 1.366-1.366 3.581 0 4.947l37.752 37.752c1.782 1.782 1.782 4.671 0 6.453l-4.405 4.405c-17.061-16.009-51.534-52.607-78.025-47.752z" fill="#00d8a2"></path><circle cx="256" cy="256.509" fill="#f0eef0" r="166.671"></circle><circle cx="256" cy="256.509" fill="#faf7f8" r="149.657"></circle><path d="m337.174 345.047h-162.347c-8.716 0-15.782-7.066-15.782-15.782v-76.198h193.91v76.198c.001 8.717-7.065 15.782-15.781 15.782z" fill="#ff7e3d"></path><path d="m352.956 285.82v-32.752h-193.91v32.752c.007.009.011.016.018.025l67.626 23.069c1.744.595 3.155 1.892 3.914 3.571 4.371 9.677 14.107 16.43 25.397 16.43s21.026-6.753 25.397-16.43c.759-1.68 2.169-2.976 3.914-3.571l67.626-23.069c.006-.009.011-.016.018-.025z" fill="#ff6927"></path><path d="m352.53 268.646-93.372 31.851c-2.047.698-4.269.698-6.316 0l-93.372-31.851c-3.961-1.351-6.624-5.073-6.624-9.258v-38.627c0-5.402 4.379-9.781 9.781-9.781h186.744c5.402 0 9.781 4.379 9.781 9.781v38.627c.002 4.185-2.661 7.907-6.622 9.258z" fill="#ffab56"></path><path d="m359.154 259.388v-38.627c0-5.402-4.379-9.781-9.781-9.781h-9.02l-.041 1.286c-.795 24.987-15.9 47.285-38.81 57.292l-61.111 26.692 12.452 4.247c2.047.698 4.269.698 6.316 0l93.372-31.851c3.96-1.351 6.623-5.073 6.623-9.258z" fill="#ff982a"></path><circle cx="256" cy="296.045" fill="#fff485" r="17.303"></circle></g><g><path d="m284.796 229.08h-57.591c-4.143 0-7.5 3.357-7.5 7.5s3.357 7.5 7.5 7.5h57.591c4.143 0 7.5-3.357 7.5-7.5s-3.358-7.5-7.5-7.5z"></path><path d="m281.16 160.47h-50.319c-13.614 0-24.689 11.075-24.689 24.689v18.32h-43.522c-9.529 0-17.282 7.752-17.282 17.281v38.627c0 5.226 2.349 10.041 6.198 13.26v56.617c0 12.838 10.444 23.282 23.282 23.282h110.415c4.143 0 7.5-3.357 7.5-7.5s-3.357-7.5-7.5-7.5h-110.416c-4.566 0-8.282-3.716-8.282-8.282v-50.281l65.196 22.239c2.388 11.2 12.357 19.625 24.259 19.625s21.872-8.425 24.26-19.625l65.195-22.24v50.282c0 4.566-3.715 8.282-8.281 8.282h-22.872c-4.143 0-7.5 3.357-7.5 7.5s3.357 7.5 7.5 7.5h22.872c12.837 0 23.281-10.444 23.281-23.282v-56.617c3.849-3.218 6.198-8.034 6.198-13.26v-38.627c0-9.529-7.752-17.281-17.281-17.281h-43.522v-18.32c0-13.614-11.076-24.689-24.69-24.689zm-60.009 24.69c0-5.343 4.347-9.689 9.689-9.689h50.319c5.343 0 9.689 4.347 9.689 9.689v18.32h-69.698v-18.32zm34.849 120.688c-5.405 0-9.803-4.397-9.803-9.803s4.397-9.804 9.803-9.804 9.804 4.397 9.804 9.804c0 5.406-4.398 9.803-9.804 9.803zm95.653-85.087v38.627c0 .977-.621 1.845-1.544 2.159l-71.465 24.378c-3.879-8.646-12.57-14.684-22.644-14.684s-18.764 6.037-22.643 14.684l-71.464-24.377c-.925-.316-1.546-1.184-1.546-2.16v-38.627c0-1.258 1.023-2.281 2.282-2.281h186.743c1.258 0 2.281 1.023 2.281 2.281z"></path><path d="m507.279 244.966-32.192-30.729c-3.012-2.874-7.433-3.675-11.261-2.035-3.828 1.639-6.302 5.388-6.302 9.552v9.31h-29.206c-4.315-29.354-15.981-56.351-33.061-79.054l20.875-20.875 6.582 6.581c2.944 2.946 7.344 3.847 11.209 2.301 3.866-1.549 6.428-5.239 6.525-9.404l1.035-44.488c.097-4.147-1.53-8.209-4.464-11.143-2.934-2.935-7.009-4.549-11.142-4.464l-3.861.09c-4.141.097-7.42 3.531-7.323 7.673.096 4.141 3.494 7.395 7.673 7.323l3.862-.09c.033-.001.108-.003.185.074s.075.147.074.186l-.784 33.719-1.794-1.794c-2.078-2.077-4.84-3.221-7.777-3.221s-5.699 1.144-7.777 3.221l-22.667 22.667c-4.425-4.936-9.127-9.618-14.081-14.023l22.696-22.696c4.288-4.289 4.288-11.266 0-15.554l-1.795-1.795.799-.019c4.141-.097 7.42-3.531 7.323-7.673-.096-4.14-3.524-7.421-7.673-7.323l-11.569.27c-4.164.098-7.854 2.659-9.403 6.525-1.548 3.866-.645 8.266 2.299 11.207l6.583 6.584-20.948 20.948c-22.714-16.94-49.681-28.479-78.981-32.698v-29.643h9.31c4.164 0 7.913-2.474 9.552-6.302s.84-8.249-2.036-11.262l-30.729-32.189c-2.863-3.001-6.886-4.723-11.033-4.723-.001 0-.001 0-.002 0-4.147 0-8.17 1.721-11.034 4.722l-30.728 32.191c-2.875 3.013-3.674 7.433-2.035 11.261 1.638 3.828 5.387 6.302 9.551 6.302h9.31v29.643c-24.092 3.465-47.207 11.939-67.905 25.007-3.815 2.408-7.526 4.957-11.126 7.639l-20.898-20.897 6.584-6.583c2.943-2.944 3.846-7.345 2.298-11.21-1.549-3.865-5.239-6.426-9.403-6.523l-44.488-1.035c-4.156-.09-8.208 1.529-11.142 4.463-2.935 2.933-4.562 6.994-4.466 11.143l1.036 44.487c.096 4.164 2.656 7.856 6.523 9.405 3.866 1.548 8.267.646 11.21-2.298l6.582-6.583 20.825 20.824c-6.303 8.39-11.861 17.364-16.587 26.826-1.851 3.706-.347 8.21 3.358 10.062 3.705 1.849 8.211.346 10.062-3.358 26.338-52.73 80.139-88.149 142.475-88.149 87.761 0 159.172 71.41 159.172 159.171 0 87.765-71.407 159.172-159.172 159.172-87.767 0-159.171-71.405-159.171-159.172 0-15.305 2.182-30.524 6.521-45.201 1.174-3.973-1.094-8.145-5.065-9.319-3.975-1.175-8.145 1.095-9.319 5.065-2.327 7.872-4.09 15.894-5.282 24.011h-29.209v-9.31c0-4.164-2.474-7.913-6.302-9.552-3.83-1.64-8.249-.841-11.262 2.036l-32.191 30.726c-3 2.863-4.721 6.885-4.722 11.032 0 4.148 1.721 8.171 4.722 11.037l32.192 30.727c1.974 1.884 4.551 2.876 7.17 2.876 1.38 0 2.771-.275 4.091-.841 3.828-1.638 6.302-5.388 6.302-9.552v-9.309h29.06c4.158 29.497 15.733 56.644 32.771 79.489l-20.44 20.44-6.582-6.583c-2.944-2.944-7.345-3.845-11.212-2.297-3.865 1.55-6.426 5.241-6.521 9.402l-1.036 44.49c-.096 4.147 1.531 8.208 4.464 11.142 2.852 2.851 6.768 4.468 10.794 4.468.116 0 .232-.001.349-.004l44.487-1.036c4.163-.096 7.854-2.655 9.403-6.52 1.55-3.865.649-8.267-2.296-11.214l-6.583-6.582 20.367-20.367c22.834 17.178 50.011 28.879 79.562 33.134v28.625h-9.309c-4.164 0-7.914 2.474-9.552 6.302-1.639 3.828-.84 8.248 2.036 11.262l30.727 32.192c2.865 3 6.888 4.721 11.036 4.721 4.147-.001 8.169-1.722 11.032-4.722l30.729-32.192c2.875-3.012 3.674-7.433 2.035-11.261s-5.388-6.302-9.552-6.302h-9.309v-28.625c29.551-4.255 56.728-15.956 79.562-33.134l20.366 20.367-6.583 6.582c-2.944 2.945-3.847 7.346-2.297 11.212 1.549 3.865 5.24 6.426 9.402 6.521l44.49 1.036c.116.003.232.004.348.004 4.026 0 7.943-1.617 10.794-4.469 2.934-2.934 4.56-6.995 4.463-11.142l-1.035-44.49c-.098-4.163-2.658-7.854-6.523-9.402-3.863-1.544-8.264-.646-11.21 2.298l-6.583 6.584-20.439-20.44c17.039-22.845 28.613-49.992 32.771-79.49h29.06v9.309c0 4.164 2.474 7.914 6.302 9.552 1.32.565 2.711.841 4.091.841 2.619 0 5.197-.993 7.171-2.877l32.192-30.727c3-2.865 4.721-6.888 4.721-11.036 0-4.146-1.721-8.167-4.721-11.031zm-403.633-127.268c-2.078-2.077-4.84-3.221-7.777-3.221s-5.699 1.144-7.777 3.221l-1.793 1.794-.785-33.718c-.001-.038-.003-.109.074-.187.078-.077.156-.074.187-.074l33.719.784-1.797 1.796c-4.283 4.287-4.283 11.264.002 15.553l22.641 22.641c-4.96 4.407-9.661 9.089-14.081 14.022zm142.417-35.079v-32.145c0-6.064-4.934-10.998-10.998-10.998h-2.537l23.287-24.396c.055-.057.311-.061.369 0l23.287 24.396h-2.536c-6.064 0-10.999 4.934-10.999 10.998v32.144c-3.289-.186-6.602-.281-9.937-.281-3.321 0-6.635.095-9.936.282zm-195.588 183.318c-6.064 0-10.998 4.934-10.998 10.998v2.537l-24.397-23.287c-.028-.026-.08-.075-.08-.185s.052-.158.079-.185l24.397-23.288v2.538c0 6.064 4.934 10.998 10.998 10.998h31.666c-.207 3.472-.311 6.955-.311 10.444 0 3.163.086 6.307.253 9.429h-31.607zm67.22 142.42c-4.285 4.289-4.284 11.265.002 15.552l1.795 1.794-33.718.785c-.048-.001-.111.002-.188-.074-.077-.078-.075-.149-.074-.187l.785-33.719 1.794 1.795c4.29 4.288 11.266 4.286 15.554 0l22.188-22.188c4.405 4.954 9.087 9.656 14.023 14.081zm159.241 64.167h2.537l-23.288 24.397c-.053.055-.316.055-.369 0l-23.287-24.397h2.537c6.064 0 10.998-4.934 10.998-10.998v-31.126c3.289.186 6.602.281 9.937.281s6.648-.094 9.938-.281v31.126c-.001 6.064 4.932 10.998 10.997 10.998zm131.42-78.219c4.288 4.284 11.265 4.282 15.553-.002l1.794-1.795.784 33.72c.001.038.003.108-.074.186-.077.076-.152.072-.186.074l-33.72-.785 1.793-1.792c2.078-2.077 3.223-4.84 3.223-7.778s-1.144-5.699-3.221-7.776l-22.159-22.16c4.936-4.425 9.619-9.127 14.024-14.081zm88.566-138.12-24.397 23.287v-2.537c0-6.064-4.934-10.998-10.998-10.998h-31.607c.167-3.122.253-6.266.253-9.429 0-3.506-.105-6.989-.31-10.444h31.665c6.064 0 10.998-4.935 10.998-10.999v-2.537l24.397 23.288c.027.026.079.075.079.185s-.053.158-.08.184z"></path></g></g></svg>