<svg xmlns="http://www.w3.org/2000/svg" id="Capa_1" height="512" viewBox="0 0 511.983 511.983" width="512"><g><g><g><path d="m315.465 419.256c-4.186 6.626-11.039 11.112-18.786 12.298l-68.159 10.123 23.278 12.336c7.979 4.228 16.97 6.171 25.982 5.615l58.138-3.587 10.105-19.069c4.529-8.546 1.347-19.145-7.14-23.784-8.184-4.474-18.436-1.817-23.418 6.068z" fill="#ffd3a3"></path><path d="m287.131 433.017 4.735-10.652c4.518-10.163.454-22.091-9.329-27.382-9.622-5.204-21.621-2.271-27.758 6.784-4.182 6.171-10.83 10.229-18.23 11.129l-51.808 5.583 43.779 23.199z" fill="#ffbe84"></path><path d="m379.859 442.341c-6.419-3.402-14.224-2.799-20.046 1.547l-10.08 7.527c-3.594 2.684-7.894 4.26-12.371 4.537l-59.582 3.676c-9.013.556-18.004-1.387-25.982-5.615l-63.277-33.737c8.787 4.559 19.606 1.183 24.241-7.564 4.664-8.801 1.31-19.716-7.491-24.38l-30.378-16.098c-6.592-3.493-11.827-9.089-14.874-15.898-5.681-12.696-18.265-20.894-32.173-20.961l-65.257-.316.115 107.939 40.395 2.333c9.259.535 18.341 2.766 26.794 6.583l86.721 39.163c16.454 7.431 34.625 10.226 52.551 8.084l75.091-8.971c14.328-1.712 27.845-7.569 38.893-16.853 10.207-8.575 8.489-24.754-3.29-30.996z" fill="#ffe6c2"></path><path d="m62.59 335.059.114 107.939 33.885 1.957.013-109.731z" fill="#ffd3a3"></path><path d="m75.961 326.717-.015 129.565c-.001 5.34-4.355 9.655-9.695 9.606l-49.221-.45c-5.271-.048-9.519-4.335-9.519-9.606l-.011-130.358c0-5.401 4.45-9.741 9.849-9.605l49.247 1.242c5.211.132 9.366 4.394 9.365 9.606z" fill="#88bde7"></path><path d="m37.941 465.629 28.311.259c5.34.049 9.694-4.266 9.695-9.606l.015-129.565c0-5.212-4.155-9.474-9.365-9.605l-8.084-.204c-.947 32.428-4.81 102.873-20.572 148.721z" fill="#5faee2"></path></g><g><path d="m196.518 92.728c4.186-6.626 11.039-11.112 18.786-12.298l68.159-10.123-23.278-12.336c-7.979-4.228-16.97-6.171-25.982-5.615l-58.138 3.587-10.105 19.069c-4.529 8.546-1.347 19.145 7.14 23.784 8.184 4.474 18.436 1.817 23.418-6.068z" fill="#ffd3a3"></path><path d="m224.852 78.967-4.735 10.652c-4.518 10.163-.454 22.091 9.329 27.382 9.622 5.204 21.621 2.271 27.758-6.784 4.182-6.171 10.83-10.229 18.23-11.129l51.808-5.583-43.779-23.199z" fill="#ffbe84"></path><path d="m132.124 69.642c6.419 3.402 14.224 2.799 20.046-1.547l10.08-7.527c3.594-2.684 7.894-4.26 12.371-4.537l59.582-3.676c9.013-.556 18.004 1.387 25.982 5.615l63.277 33.737c-8.787-4.559-19.606-1.183-24.241 7.564-4.664 8.801-1.31 19.716 7.491 24.38l30.378 16.098c6.592 3.493 11.827 9.089 14.874 15.898 5.681 12.696 18.265 20.894 32.173 20.961l65.257.316-.115-107.939-40.395-2.333c-9.259-.535-18.341-2.766-26.794-6.583l-86.721-39.163c-16.454-7.431-34.625-10.226-52.551-8.084l-75.091 8.971c-14.328 1.712-27.845 7.569-38.893 16.853-10.207 8.576-8.489 24.755 3.29 30.996z" fill="#ffe6c2"></path><path d="m449.393 176.924-.114-107.939-33.885-1.957-.012 109.731z" fill="#ffd3a3"></path><path d="m436.022 185.267.015-129.565c.001-5.34 4.355-9.655 9.695-9.606l49.221.45c5.271.048 9.519 4.335 9.519 9.606l.011 130.357c0 5.401-4.45 9.741-9.849 9.605l-49.247-1.242c-5.211-.131-9.366-4.393-9.365-9.605z" fill="#88bde7"></path><path d="m466.462 195.337 28.311.259c5.34.049 9.694-4.266 9.695-9.606l.015-129.565c0-5.212-4.155-9.474-9.365-9.605l-8.084-.204c-.946 32.428-4.81 102.874-20.572 148.721z" fill="#5faee2"></path></g><path d="m255.992 208.135s15.083-20.51 44.891-20.51c26.575 0 44.891 22.07 44.891 47.499 0 25.793-19.289 69.073-89.782 89.236-70.493-20.163-89.782-63.443-89.782-89.236 0-25.429 18.316-47.499 44.891-47.499 29.807-.001 44.891 20.51 44.891 20.51z" fill="#ff7383"></path><path d="m240.092 319.114c4.986 1.881 10.279 3.637 15.9 5.245 70.493-20.163 89.782-63.443 89.782-89.236 0-25.429-18.316-47.499-44.891-47.499-3.71 0-7.19.318-10.443.875 21.641 40.517 13.458 102.89-50.348 130.615z" fill="#ff546a"></path></g><g><path d="m383.37 435.714c-8.932-4.733-19.942-3.885-28.044 2.165l-2.188 1.634c5.682-11.938 1.049-26.509-10.657-32.906-11.629-6.355-26.278-2.558-33.356 8.644-2.265 3.586-5.606 6.303-9.478 7.8 4.486-13.12-1.148-27.963-13.541-34.666-13.063-7.062-29.201-3.122-37.533 9.174-2.958 4.363-7.65 7.235-12.88 7.886l-13.465 1.45c1.026-10.04-3.991-20.181-13.443-25.19l-30.379-16.098c-5.088-2.696-9.187-7.076-11.539-12.334-6.867-15.347-22.169-25.315-38.983-25.398l-44.422-.215v-.942c.002-9.354-7.322-16.867-16.675-17.104l-49.248-1.242c-4.666-.078-9.045 1.607-12.374 4.854-3.331 3.248-5.165 7.597-5.165 12.25l.011 130.355c0 9.346 7.604 17.02 16.951 17.106l49.221.45h.161c4.538 0 8.807-1.756 12.035-4.954 3.267-3.236 5.066-7.552 5.067-12.15v-4.575l19.22 1.11c8.375.484 16.496 2.479 24.14 5.932l86.722 39.164c13.835 6.246 28.797 9.447 43.879 9.447 4.214 0 8.438-.25 12.648-.753l34.157-4.08c4.112-.491 7.049-4.224 6.558-8.337-.491-4.112-4.223-7.048-8.337-6.558l-34.157 4.08c-16.566 1.981-33.364-.604-48.574-7.471l-86.722-39.162c-9.324-4.212-19.231-6.646-29.448-7.236l-20.084-1.16.011-94.023 44.35.214c10.94.054 20.896 6.54 25.365 16.525 3.712 8.296 10.179 15.207 18.208 19.461l30.378 16.098c5.132 2.72 7.096 9.108 4.376 14.241-2.696 5.088-9.047 7.072-14.132 4.433l-36.388-19.075c-3.661-1.921-8.189-.513-10.117 3.146-1.929 3.658-.531 8.188 3.123 10.124l99.664 52.812c9.201 4.876 19.563 7.122 29.956 6.474l59.579-3.676c5.951-.366 11.621-2.445 16.398-6.013l10.08-7.526c3.48-2.598 8.209-2.964 12.047-.931 3.374 1.788 5.54 4.991 5.943 8.788.402 3.797-1.043 7.384-3.966 9.84-9.956 8.367-22.044 13.604-34.957 15.147l-12.077 1.442c-4.112.491-7.049 4.224-6.558 8.337.455 3.811 3.693 6.611 7.438 6.611.297 0 .598-.018.899-.054l12.077-1.442c15.82-1.891 30.63-8.308 42.828-18.559 6.705-5.634 10.156-14.197 9.231-22.907-.922-8.708-6.094-16.355-13.834-20.457zm-314.924 20.567c0 .726-.34 1.214-.624 1.496-.285.281-.746.611-1.503.61l-49.22-.45c-1.151-.011-2.089-.955-2.089-2.107l-.01-130.355c0-.735.346-1.227.637-1.51.282-.275.764-.599 1.466-.599.02 0 .038 0 .058.001l49.247 1.242c1.151.028 2.054.954 2.054 2.106zm145.907-33.451 23-2.478.103-.012c9.554-1.163 18.132-6.398 23.533-14.367 3.989-5.889 11.721-7.778 17.981-4.395 6.296 3.405 8.951 11.197 6.043 17.738l-3.04 6.838-52.119 7.741-17.577-9.314c.719-.543 1.412-1.127 2.076-1.751zm62.966 29.313c-7.635.478-15.249-1.175-22.009-4.757l-3.103-1.645c15.143-2.249 31.73-4.712 45.607-6.773 9.898-1.516 18.643-7.24 23.991-15.706 2.859-4.526 8.781-6.061 13.481-3.493 4.859 2.656 6.703 8.798 4.109 13.691l-8.136 15.354z"></path><path d="m511.973 56.151c-.002-9.346-7.605-17.019-16.951-17.105l-49.222-.45h-.161c-4.538 0-8.807 1.756-12.036 4.955-3.267 3.237-5.065 7.552-5.065 12.149v4.575l-19.22-1.11c-8.374-.484-16.496-2.479-24.141-5.931l-86.721-39.165c-17.699-7.99-37.245-10.999-56.528-8.694l-34.156 4.08c-4.113.491-7.049 4.224-6.558 8.337s4.229 7.054 8.337 6.558l34.156-4.08c16.569-1.982 33.368.604 48.575 7.471l86.722 39.165c9.325 4.21 19.233 6.645 29.448 7.234l20.083 1.16-.011 94.023-44.351-.214c-10.94-.054-20.896-6.54-25.364-16.526-3.713-8.294-10.179-15.205-18.208-19.46l-30.378-16.098c-2.486-1.317-4.311-3.524-5.138-6.215-.826-2.689-.556-5.54.762-8.026 2.696-5.089 9.049-7.071 14.132-4.433l36.388 19.076c3.662 1.923 8.189.514 10.117-3.146 1.929-3.658.531-8.188-3.123-10.124l-99.664-52.813c-9.2-4.877-19.564-7.114-29.956-6.474l-59.58 3.676c-5.949.366-11.619 2.445-16.398 6.013l-10.08 7.526c-3.479 2.599-8.207 2.965-12.046.931-3.374-1.788-5.54-4.991-5.943-8.788s1.042-7.384 3.965-9.84c9.957-8.367 22.046-13.605 34.958-15.147l12.077-1.442c4.112-.491 7.049-4.224 6.558-8.337-.49-4.112-4.232-7.044-8.337-6.558l-12.077 1.442c-15.82 1.891-30.63 8.308-42.829 18.559-6.705 5.635-10.155 14.198-9.23 22.907s6.097 16.356 13.836 20.458c8.936 4.734 19.941 3.884 28.044-2.165l2.189-1.634c-5.681 11.938-1.047 26.51 10.657 32.907 3.81 2.082 7.94 3.074 12.026 3.074 8.386-.001 16.571-4.185 21.33-11.718 2.265-3.586 5.607-6.302 9.479-7.8-4.486 13.12 1.148 27.962 13.541 34.664 4.369 2.363 9.081 3.495 13.73 3.495 9.254-.001 18.257-4.484 23.803-12.668 2.958-4.363 7.651-7.236 12.882-7.886l13.462-1.45c-1.026 10.039 3.991 20.18 13.443 25.19l30.377 16.098c5.089 2.697 9.188 7.077 11.541 12.334 6.866 15.346 22.168 25.315 38.982 25.398l44.422.215v.944c0 9.354 7.325 16.866 16.676 17.104l49.248 1.242c.148.003.296.005.443.005 4.485 0 8.707-1.716 11.931-4.859 3.33-3.248 5.164-7.598 5.164-12.25zm-321.796 32.571c-2.859 4.527-8.781 6.062-13.48 3.493-4.859-2.656-6.703-8.798-4.11-13.691l8.136-15.354 53.942-3.329c7.641-.46 15.249 1.174 22.009 4.757l3.104 1.645c-15.107 2.244-31.704 4.709-45.608 6.774-9.899 1.515-18.645 7.24-23.993 15.705zm84.454 2.909-.103.012c-9.554 1.163-18.131 6.398-23.533 14.367-3.992 5.89-11.723 7.779-17.981 4.395-6.296-3.405-8.951-11.197-6.043-17.738l3.04-6.838 52.119-7.741 17.577 9.314c-.719.544-1.413 1.128-2.076 1.751zm221.716 96.388c-.29.283-.756.632-1.523.598l-49.247-1.242c-1.152-.028-2.055-.954-2.055-2.106l.016-129.565v-.001c0-.725.339-1.214.624-1.495.282-.279.767-.61 1.48-.61h.021l49.221.45c1.151.011 2.089.956 2.089 2.107l.011 130.355c-.001.734-.346 1.225-.637 1.509z"></path><path d="m211.101 195.124c25.405 0 38.336 16.774 38.849 17.454 1.413 1.922 3.656 3.057 6.042 3.057s4.629-1.135 6.042-3.057c.128-.175 13.134-17.454 38.85-17.454 17.538 0 32.107 12.05 36.254 29.983.934 4.036 4.959 6.545 8.997 5.618 4.036-.934 6.551-4.961 5.618-8.997-5.754-24.885-26.196-41.604-50.869-41.604-22.238 0-37.211 10.13-44.892 17.116-7.681-6.986-22.652-17.116-44.891-17.116-29.378 0-52.391 24.158-52.391 54.999 0 17.156 7.35 35.925 20.165 51.495 16.775 20.381 42.026 35.505 75.054 44.952.674.192 1.368.289 2.062.289s1.389-.097 2.062-.289c66.444-19.006 86.373-56.443 92.339-77.068 1.15-3.979-1.143-8.138-5.121-9.289-3.978-1.148-8.137 1.142-9.289 5.121-5.045 17.442-22.146 49.048-79.99 66.213-60.683-18.038-82.282-55.012-82.282-81.424 0-22.803 16.074-39.999 37.391-39.999z"></path></g></g></svg>