<svg xmlns="http://www.w3.org/2000/svg" id="Capa_1" height="512" viewBox="0 0 512 512" width="512"><g><g><path d="m467.516 431.777h-286.164c-5.26 0-9.524-4.264-9.524-9.524v-405.229c0-5.26 4.264-9.524 9.524-9.524h286.165c5.26 0 9.524 4.264 9.524 9.524v405.229c0 5.26-4.264 9.524-9.525 9.524z" fill="#faf7f8"></path><path d="m455.741 7.5c2.529 75.598 5.397 337.963-71.715 424.278h83.491c5.26 0 9.524-4.264 9.524-9.524v-405.23c0-5.26-4.264-9.524-9.524-9.524z" fill="#f0eef0"></path><g><path d="m156.513 325.222-28.437 15.582-23.899 9.624-35.74 28.477c-5.941 4.734-10.067 11.372-11.68 18.795l-21.659 99.627c-.802 3.688 2.007 7.173 5.781 7.173h211.14l-5.959-106.8c-1.614-7.423-5.739-14.061-11.68-18.795l-37.416-29.811-12.014-8.289z" fill="#88bde7"></path><path d="m256.27 397.699c-1.614-7.423-5.739-14.061-11.68-18.795l-37.416-29.811-22.223-8.289-7.804-4.276 21.286 33.079c16.876 26.225 26.143 56.62 26.768 87.8l.945 47.093h46.001c3.774 0 6.583-3.485 5.781-7.173z" fill="#5faee2"></path><path d="m178.098 463.926-21.585 17.273-21.585-17.273 8.554-97.316 1.466-16.684h23.13l1.588 18.067z" fill="#ff7383"></path><path d="m167.148 367.33 20.857-23.827h-62.983l20.857 23.827c5.63 6.433 15.638 6.433 21.269 0z" fill="#ff546a"></path><path d="m136.71 277.861h39.605v62.943h-39.605z" fill="#ffe6c2"></path><path d="m136.71 314.264c5.898 2.459 12.336 3.869 19.108 3.957 7.261.094 14.187-1.293 20.497-3.875v-36.485h-39.605z" fill="#ffd3a3"></path><path d="m211.301 239.084 17.016-17.779 7.671-22.888-8.992-39.033-4.905-20.522h-9.391c-5.945 4.155-14.347 2.432-18.091-4.019l-.884-1.524c-2.254-3.884-6.405-6.274-10.896-6.274h-40.881c-19.217 0-37.478 8.699-49.333 23.824-7.09 9.046-12.939 19.296-17.455 30.233-6.43 15.573-3.095 33.531 8.607 45.652 7.281 7.542 14.211 16.992 21.009 27.171h70.286z" fill="#6c5e69"></path><g><path d="m246.696 190.217c-1.915-16.611-6.318-32.635-12.967-47.898-3.408-7.823-13.487-10.013-19.879-4.361-.371.328-.754.629-1.149.905.902.987 1.668 2.14 2.241 3.456 6.649 15.264 11.052 31.287 12.967 47.898 1.667 14.461-4.045 28.865-15.395 37.979-8.62 6.922-15.884 15.819-22.452 25.729h18.787c6.569-9.91 13.833-18.807 22.452-25.729 11.35-9.115 17.063-23.518 15.395-37.979z" fill="#574d56"></path></g><path d="m155.818 304.913c-28.761-.373-51.641-24.348-51.641-53.111v-41.129c0-2.543 2.237-4.524 4.757-4.181 17.709 2.409 33.22.321 44.888-9.628 1.544-1.316 3.838-1.316 5.381 0 11.669 9.949 27.179 12.038 44.888 9.628 2.52-.343 4.757 1.638 4.757 4.181v41.909c.001 29.135-23.807 52.71-53.03 52.331z" fill="#ffe6c2"></path><path d="m204.092 206.492c-17.708 2.409-33.219.321-44.888-9.628-1.544-1.317-3.839-1.317-5.383 0-11.669 9.948-27.179 12.037-44.888 9.628-2.52-.343-4.757 1.638-4.757 4.181v15.532c0-2.543 2.237-4.523 4.757-4.181 16.375 2.228 30.871.61 42.187-7.513 3.227-2.316 7.556-2.316 10.783 0 11.316 8.123 25.812 9.741 42.187 7.513 2.52-.343 4.757 1.638 4.757 4.181v-15.532c.002-2.543-2.235-4.524-4.755-4.181z" fill="#ffd3a3"></path><g fill="#faf7f8"><path d="m156.513 340.804s-18.413-1.431-32.497-15.582l-22.292 20.078 32.264 19.21z"></path><path d="m156.513 340.804s18.413-1.431 32.497-15.582l22.291 20.078-32.264 19.21z"></path></g></g><path d="m406.121 83.997h-163.374c-3.708 0-6.714-3.006-6.714-6.714v-21.581c0-3.708 3.006-6.714 6.714-6.714h163.374c3.708 0 6.714 3.006 6.714 6.714v21.581c0 3.708-3.006 6.714-6.714 6.714z" fill="#ff7383"></path><path d="m406.121 48.988h-23.96c3.708 0 6.714 3.006 6.714 6.714v21.581c0 3.708-3.006 6.714-6.714 6.714h23.96c3.708 0 6.714-3.006 6.714-6.714v-21.581c0-3.708-3.006-6.714-6.714-6.714z" fill="#ff546a"></path><g><g><path d="m284.263 346.563h-27.397c-2.677 0-4.847-2.17-4.847-4.847v-64.633c0-2.677 2.17-4.847 4.847-4.847h27.397c2.677 0 4.847 2.17 4.847 4.847v64.633c0 2.677-2.17 4.847-4.847 4.847z" fill="#6ce79a"></path><path d="m284.263 272.235h-17.564c2.677 0 4.847 2.17 4.847 4.847v64.633c0 2.677-2.17 4.847-4.847 4.847h17.564c2.677 0 4.847-2.17 4.847-4.847v-64.633c0-2.676-2.17-4.847-4.847-4.847z" fill="#00d8a2"></path></g><g><path d="m356.678 346.563h-27.397c-2.677 0-4.847-2.17-4.847-4.847v-84.633c0-2.677 2.17-4.847 4.847-4.847h27.397c2.677 0 4.847 2.17 4.847 4.847v84.633c0 2.677-2.17 4.847-4.847 4.847z" fill="#88bde7"></path><path d="m356.678 252.235h-17.564c2.677 0 4.847 2.17 4.847 4.847v84.633c0 2.677-2.17 4.847-4.847 4.847h17.564c2.677 0 4.847-2.17 4.847-4.847v-84.633c0-2.676-2.17-4.847-4.847-4.847z" fill="#5faee2"></path></g><g><path d="m429.093 346.563h-27.397c-2.677 0-4.847-2.17-4.847-4.847v-124.633c0-2.677 2.17-4.847 4.847-4.847h27.397c2.677 0 4.847 2.17 4.847 4.847v124.633c0 2.677-2.17 4.847-4.847 4.847z" fill="#ffab56"></path><path d="m429.093 212.235h-17.564c2.677 0 4.847 2.17 4.847 4.847v124.633c0 2.677-2.17 4.847-4.847 4.847h17.564c2.677 0 4.847-2.17 4.847-4.847v-124.632c0-2.677-2.17-4.848-4.847-4.848z" fill="#ff982a"></path></g></g></g><g><path d="m477.041 91.493c4.143 0 7.5-3.357 7.5-7.5v-66.969c0-9.387-7.637-17.024-17.024-17.024h-286.165c-9.388 0-17.024 7.637-17.024 17.024v102.521h-22.38c-21.805 0-41.938 9.73-55.236 26.696-7.394 9.434-13.612 20.199-18.485 32-.724 1.754-1.357 3.584-1.885 5.438-1.132 3.984 1.181 8.132 5.165 9.265 3.984 1.129 8.132-1.181 9.265-5.165.371-1.307.815-2.591 1.321-3.816 4.35-10.533 9.876-20.111 16.425-28.468 10.283-13.118 26.519-20.95 43.431-20.95h40.882c1.811 0 3.5.973 4.41 2.541l.884 1.521c3.035 5.23 8.199 8.784 14.169 9.751 5.972.964 11.993-.777 16.525-4.783 1.241-1.097 2.883-1.523 4.504-1.161.938.208 2.644.86 3.531 2.898 6.423 14.742 10.592 30.139 12.394 45.763 1.395 12.104-3.331 23.795-12.642 31.272-3.5 2.811-6.907 6.013-10.256 9.643v-21.319c0-3.387-1.463-6.606-4.015-8.834-2.542-2.22-5.913-3.234-9.253-2.778-17.263 2.35-30.021-.238-39.011-7.904-4.379-3.734-10.735-3.732-15.114 0-8.99 7.666-21.75 10.253-39.012 7.904-3.341-.455-6.711.559-9.253 2.778-2.552 2.228-4.015 5.447-4.015 8.834v19.385c-2.57-3.152-5.056-5.966-7.515-8.513-2.796-2.896-5.05-6.24-6.697-9.938-1.687-3.784-6.12-5.485-9.903-3.798-3.783 1.686-5.483 6.12-3.798 9.903 2.361 5.299 5.594 10.093 9.606 14.25 5.594 5.795 11.462 13.291 18.418 23.529 1.313 21.792 14.165 40.624 32.422 50.198v14.123c-2.828-2.718-7.285-2.801-10.214-.163l-22.291 20.078c-1.771 1.595-2.678 3.936-2.444 6.307.077.782.276 1.537.58 2.242l-31.078 24.763c-7.27 5.792-12.36 13.983-14.336 23.067l-21.658 99.627c-.866 3.986.104 8.094 2.665 11.27 2.558 3.178 6.366 4.999 10.444 4.999h134.684c4.143 0 7.5-3.357 7.5-7.5s-3.357-7.5-7.5-7.5h-132.718l21.241-97.707c1.243-5.719 4.448-10.876 9.025-14.522l34.32-27.345 22.721 13.528c1.193.71 2.519 1.056 3.834 1.056.506 0 1.011-.051 1.506-.153l-8.036 91.412c-.22 2.5.826 4.944 2.786 6.512l21.585 17.272c1.369 1.097 3.027 1.645 4.686 1.645s3.316-.548 4.686-1.645l21.585-17.272c1.96-1.567 3.006-4.012 2.786-6.512l-8.034-91.412c.495.101 1 .153 1.506.153 1.315 0 2.641-.346 3.834-1.056l22.722-13.529 34.319 27.345c4.577 3.646 7.782 8.804 9.024 14.522l21.243 97.708h-65.621c-4.143 0-7.5 3.357-7.5 7.5s3.357 7.5 7.5 7.5h67.586c4.079 0 7.886-1.821 10.445-4.997 2.561-3.176 3.531-7.283 2.665-11.271l-12.274-56.455h194.532c9.388 0 17.024-7.637 17.024-17.024v-309.26c0-4.143-3.357-7.5-7.5-7.5s-7.5 3.357-7.5 7.5v309.26c0 1.116-.908 2.024-2.024 2.024h-197.793l-6.125-28.171c-1.975-9.083-7.065-17.275-14.336-23.068l-31.078-24.761c.305-.705.504-1.46.581-2.242.233-2.371-.674-4.712-2.444-6.307l-22.291-20.078c-2.928-2.638-7.389-2.556-10.215.163v-13.952c5.355-2.753 10.318-6.338 14.73-10.694 10.573-10.436 16.771-24.089 17.685-38.781 6.522-9.588 13.002-16.909 19.766-22.342 13.354-10.725 20.139-27.43 18.149-44.687-1.971-17.098-6.527-33.932-13.542-50.034-2.586-5.938-7.703-10.149-14.039-11.554-6.27-1.389-12.878.321-17.683 4.569-1.575 1.393-3.305 1.357-4.193 1.213-.89-.144-2.539-.656-3.595-2.475l-.884-1.521c-3.583-6.174-10.243-10.01-17.382-10.01h-3.502v-102.521c0-1.116.908-2.024 2.024-2.024h286.165c1.116 0 2.024.908 2.024 2.024v66.969c.003 4.143 3.36 7.5 7.503 7.5zm-320.528 260.199 7.472 7.864-2.481 2.834c-1.278 1.461-3.051 2.265-4.991 2.265s-3.713-.804-4.991-2.264l-2.481-2.834zm-42.207-7.63 9.76-8.791c6.161 4.817 12.592 7.869 18.053 9.794l-9.44 9.937zm42.207 127.531-13.762-11.013 7.202-81.944c2.099.668 4.31 1.019 6.56 1.019s4.461-.35 6.56-1.019l7.201 81.944zm42.208-127.531-18.372 10.939-9.441-9.937c5.462-1.925 11.893-4.977 18.054-9.794zm-29.906-14.271c-5.781 2.431-10.638 3.243-12.302 3.465-1.663-.222-6.521-1.034-12.303-3.466v-18.67c8.095 1.733 16.555 1.713 24.605.04zm19.193-45.299c-28.413 28.045-76.331 7.449-76.331-32.691v-37.428c18.697 1.925 33.421-1.379 44.836-10.051 11.415 8.674 26.136 11.976 44.836 10.051v38.208c0 12.087-4.738 23.42-13.341 31.911z"></path><path d="m420.335 77.283v-21.581c0-7.838-6.376-14.214-14.214-14.214h-163.374c-7.838 0-14.214 6.376-14.214 14.214v21.581c0 7.838 6.376 14.214 14.214 14.214h163.374c7.838 0 14.214-6.376 14.214-14.214zm-15-.786h-161.802v-20.009h161.802z"></path><path d="m256.866 264.735c-6.809 0-12.348 5.539-12.348 12.348v64.633c0 6.808 5.539 12.347 12.348 12.347h27.396c6.808 0 12.347-5.539 12.347-12.347v-64.633c0-6.809-5.539-12.348-12.347-12.348zm24.743 74.327h-22.091v-59.327h22.091z"></path><path d="m329.281 354.062h27.396c6.809 0 12.348-5.539 12.348-12.347v-84.633c0-6.809-5.539-12.348-12.348-12.348h-27.396c-6.809 0-12.348 5.539-12.348 12.348v84.633c.001 6.808 5.54 12.347 12.348 12.347zm2.653-94.327h22.092v79.327h-22.092z"></path><path d="m441.44 217.083c0-6.809-5.539-12.348-12.348-12.348h-27.396c-6.808 0-12.347 5.539-12.347 12.348v124.633c0 6.808 5.539 12.347 12.347 12.347h27.396c6.809 0 12.348-5.539 12.348-12.347zm-15 121.979h-22.09v-119.327h22.091v119.327z"></path><path d="m374.737 119.546h-100.606c-4.143 0-7.5 3.357-7.5 7.5s3.357 7.5 7.5 7.5h100.606c4.143 0 7.5-3.357 7.5-7.5s-3.357-7.5-7.5-7.5z"></path><path d="m374.737 150.646h-100.606c-4.143 0-7.5 3.357-7.5 7.5s3.357 7.5 7.5 7.5h100.606c4.143 0 7.5-3.357 7.5-7.5s-3.357-7.5-7.5-7.5z"></path><path d="m382.237 189.247c0-4.143-3.357-7.5-7.5-7.5h-100.606c-4.143 0-7.5 3.357-7.5 7.5s3.357 7.5 7.5 7.5h100.606c4.143 0 7.5-3.357 7.5-7.5z"></path><path d="m335.342 395.958h98.599c4.143 0 7.5-3.357 7.5-7.5s-3.357-7.5-7.5-7.5h-98.599c-4.143 0-7.5 3.357-7.5 7.5s3.357 7.5 7.5 7.5z"></path></g></g></svg>