<svg xmlns="http://www.w3.org/2000/svg" id="Capa_1" height="512" viewBox="0 0 511.986 511.986" width="512"><g><g><path d="m371.308 322.876c-.597 7.815-4.551 14.987-10.841 19.663l-55.486 40.859h26.345c9.03 0 17.884-2.493 25.587-7.204l49.691-30.392v-21.581c0-9.672-7.774-17.547-17.445-17.672-9.326-.121-17.141 7.027-17.851 16.327z" fill="#ffd3a3"></path><path d="m352.715 348.302-.804-11.63c-.767-11.095-9.943-19.732-21.064-19.826-10.938-.093-20.168 8.117-21.351 18.991-.806 7.411-4.78 14.11-10.897 18.37l-43.164 29.191h49.546z" fill="#ffbe84"></path><path d="m439.016 313.123c-7.265 0-13.879 4.187-16.988 10.753l-5.382 11.37c-1.919 4.054-4.98 7.46-8.807 9.801l-50.926 31.146c-7.703 4.711-16.558 7.204-25.587 7.204l-71.708-.182c9.899-.086 17.878-8.135 17.878-18.034 0-9.96-8.074-18.034-18.035-18.034h-34.379c-7.46 0-14.706-2.493-20.587-7.083-10.965-8.558-25.922-9.91-38.243-3.457l-57.81 30.276 50.642 95.322 36.786-16.853c8.432-3.863 17.502-6.144 26.758-6.729l94.965-6.001c18.018-1.139 35.383-7.177 50.22-17.463l62.15-43.087c11.859-8.222 21.06-19.726 26.475-33.102 5.002-12.356-4.092-25.847-17.422-25.847z" fill="#ffe6c2"></path><path d="m108.442 366.885 50.643 95.321 30.856-14.136-51.368-96.965z" fill="#ffd3a3"></path><path d="m116.351 353.252 60.654 114.492c2.5 4.719.672 10.57-4.069 13.027l-43.703 22.649c-4.68 2.426-10.441.627-12.909-4.031l-61.047-115.179c-2.529-4.772-.629-10.691 4.206-13.099l44.096-21.962c4.665-2.323 10.332-.503 12.772 4.103z" fill="#88bde7"></path><path d="m172.936 480.771c4.741-2.457 6.569-8.309 4.069-13.027l-60.654-114.492c-2.44-4.605-8.107-6.426-12.773-4.102l-8.318 4.143c15.923 25.683 48.365 87.756 35.104 149.542z" fill="#5faee2"></path><path d="m282.912 179.977 12.228-9.72 2.287-36.826-10.734-50.862-37.651-49.707-11.674 1.119-15.19 25.368c-.684 1.141-1.803 1.955-3.1 2.252l-56.206 12.887c-3.598.825-5.017 5.19-2.59 7.972l37.897 43.463c.875 1.003 1.302 2.319 1.184 3.644l-5.113 57.438c-.327 3.677 3.385 6.375 6.782 4.927l53.046-22.612c1.224-.521 2.607-.521 3.831 0z" fill="#fff485"></path><path d="m349.115 74.487-56.207-12.887c-1.297-.297-2.416-1.111-3.099-2.252l-29.625-49.473c-1.897-3.167-6.486-3.167-8.383 0l-14.434 24.105c19.71 28.097 57.693 91.248 45.545 145.996l28.043 11.954c3.396 1.448 7.109-1.25 6.782-4.927l-5.113-57.438c-.118-1.325.31-2.641 1.184-3.644l37.897-43.463c2.426-2.782 1.008-7.146-2.59-7.971z" fill="#ffea76"></path><path d="m118.982 263.735 10.334-7.735s3.137-18.202 3.963-19.688-4.294-21.468-4.459-21.963-12.385-22.02-12.385-22.02l-15.979-29.073h-12.819l-10.455 17.459c-.47.786-1.241 1.345-2.133 1.55l-38.683 8.869c-2.477.568-3.453 3.572-1.783 5.487l26.082 29.913c.602.69.896 1.596.815 2.508l-3.519 39.531c-.225 2.531 2.33 4.387 4.667 3.391l36.508-15.562c.842-.359 1.795-.359 2.637 0z" fill="#fff485"></path><path d="m164.545 191.133-38.683-8.869c-.892-.205-1.663-.764-2.133-1.55l-20.389-34.049c-1.305-2.18-4.464-2.18-5.769 0l-9.934 16.59c13.565 19.337 39.707 62.8 31.345 100.479l19.3 8.227c2.337.996 4.893-.86 4.667-3.391l-3.519-39.531c-.081-.912.213-1.818.815-2.508l26.082-29.913c1.671-1.913.695-4.917-1.782-5.485z" fill="#ffea76"></path><path d="m430.057 263.735 8.416-9.588 5.266-24.44s-6.44-28.899-6.44-29.395-25.768-33.193-25.768-33.193l-12.819-3.864-10.455 17.459c-.47.786-1.241 1.345-2.133 1.55l-38.683 8.869c-2.477.568-3.453 3.572-1.783 5.487l26.083 29.913c.602.69.896 1.596.815 2.508l-3.519 39.531c-.225 2.531 2.33 4.387 4.667 3.391l36.508-15.562c.842-.359 1.795-.359 2.637 0z" fill="#fff485"></path><path d="m475.62 191.133-38.683-8.869c-.892-.205-1.663-.764-2.133-1.55l-20.389-34.049c-1.305-2.18-4.464-2.18-5.769 0l-9.934 16.59c13.565 19.337 39.707 62.8 31.345 100.479l19.3 8.227c2.337.996 4.893-.86 4.667-3.391l-3.519-39.531c-.081-.912.213-1.818.815-2.508l26.082-29.913c1.67-1.913.694-4.917-1.782-5.485z" fill="#ffea76"></path></g><g><path d="m439.016 305.623c-10.112 0-19.441 5.905-23.768 15.044l-1.167 2.467c-.571-13.208-11.487-23.912-24.825-24.084-13.242-.157-24.417 10.045-25.427 23.255-.323 4.229-2.004 8.195-4.724 11.332-2.179-13.694-14.106-24.172-28.195-24.29-.084 0-.167-.001-.251-.001-14.74 0-27.022 10.999-28.62 25.682-.569 5.24-3.371 9.975-7.688 12.998l-11.217 7.586c-3.794-9.352-12.976-15.963-23.673-15.963h-34.379c-5.76 0-11.432-1.951-15.972-5.495-13.255-10.346-31.443-11.988-46.338-4.188l-39.353 20.609-.441-.833c-4.378-8.267-14.368-11.472-22.744-7.306l-44.098 21.963c-4.163 2.074-7.238 5.655-8.66 10.084s-1.005 9.131 1.173 13.239l10.396 19.615c1.939 3.659 6.478 5.054 10.139 3.115 3.66-1.939 5.055-6.479 3.115-10.139l-10.396-19.616c-.344-.648-.269-1.244-.145-1.63.124-.387.409-.915 1.066-1.242l44.097-21.962c1.016-.51 2.271-.101 2.801.899l60.654 114.491c.34.643.269 1.233.149 1.615-.12.383-.397.908-1.042 1.242l-43.703 22.65c-1.023.529-2.293.132-2.831-.885l-37.059-69.922c-1.939-3.658-6.475-5.053-10.14-3.114-3.659 1.94-5.054 6.479-3.114 10.14l37.061 69.924c3.061 5.773 9.021 9.084 15.167 9.084 2.645 0 5.324-.613 7.82-1.907l43.703-22.649c4.083-2.116 7.086-5.699 8.457-10.088 1.371-4.39.94-9.046-1.212-13.109l-2.141-4.042 17.503-8.019c7.626-3.494 15.736-5.534 24.106-6.062l94.965-6.001c19.382-1.226 38.062-7.721 54.021-18.784l28.271-19.6c3.403-2.36 4.25-7.033 1.891-10.438-2.36-3.402-7.031-4.251-10.438-1.891l-28.271 19.6c-13.713 9.508-29.765 15.09-46.419 16.142l-94.965 6.001c-10.212.646-20.106 3.134-29.409 7.396l-18.289 8.379-44.016-83.085 39.29-20.577c9.689-5.076 21.524-4.006 30.149 2.726 7.164 5.592 16.114 8.671 25.201 8.671h34.379c5.809 0 10.534 4.726 10.534 10.534 0 5.759-4.685 10.484-10.411 10.534l-41.084.182c-4.136.019-7.476 3.381-7.467 7.517s3.364 7.483 7.5 7.483h112.792c10.415 0 20.616-2.872 29.501-8.306l50.925-31.146c5.085-3.11 9.122-7.603 11.674-12.991l5.382-11.37c1.857-3.926 5.865-6.462 10.209-6.462 3.818 0 7.232 1.816 9.366 4.982s2.536 7.012 1.104 10.551c-4.88 12.055-13.108 22.343-23.796 29.752l-9.995 6.93c-3.404 2.36-4.251 7.033-1.892 10.438 2.36 3.402 7.032 4.252 10.437 1.891l9.997-6.931c13.094-9.077 23.175-21.682 29.153-36.45 3.286-8.118 2.326-17.301-2.569-24.563s-13.045-11.602-21.804-11.602zm-155.378 67.757 19.163-12.96c.027-.02.056-.039.084-.059 7.899-5.501 13.027-14.144 14.067-23.712.766-7.034 6.649-12.304 13.712-12.304.04 0 .08 0 .12.001 7.158.061 13.151 5.701 13.645 12.844l.516 7.466-42.427 31.242h-19.894c.38-.817.72-1.657 1.014-2.518zm69.363-3.584c-6.527 3.992-14.022 6.103-21.675 6.103h-3.511l37.127-27.34c8.036-5.975 13.082-15.127 13.845-25.111.404-5.296 4.847-9.4 10.144-9.4.044 0 .089.001.133.001 5.537.072 10.042 4.636 10.042 10.174v17.376z"></path><path d="m50.491 267.907c-.341 3.84 1.317 7.484 4.436 9.75 3.118 2.265 7.098 2.714 10.645 1.204l34.885-14.871 34.887 14.871c1.386.591 2.838.882 4.279.882 2.246 0 4.465-.707 6.364-2.087 3.119-2.267 4.776-5.912 4.435-9.751l-3.362-37.773 24.925-28.584c2.532-2.905 3.333-6.829 2.142-10.494-1.191-3.666-4.145-6.369-7.903-7.231l-36.964-8.475-19.482-32.536c-1.98-3.307-5.464-5.281-9.318-5.281-3.856 0-7.34 1.975-9.319 5.281l-19.482 32.536-36.966 8.476c-3.757.862-6.711 3.565-7.902 7.232-1.19 3.666-.389 7.589 2.144 10.493l24.924 28.584zm-5.713-71.008 31.943-7.324c2.87-.656 5.384-2.482 6.896-5.008l16.838-28.12 16.839 28.119c1.513 2.526 4.026 4.353 6.893 5.008l31.947 7.325-21.543 24.706c-1.933 2.217-2.891 5.169-2.631 8.1l2.906 32.647-30.148-12.851c-2.709-1.157-5.815-1.157-8.522-.002l-30.151 12.854 2.907-32.649c.261-2.933-.7-5.886-2.633-8.101z"></path><path d="m485.199 191.054c-1.191-3.666-4.145-6.369-7.903-7.231l-36.964-8.475-19.482-32.536c-1.98-3.307-5.464-5.281-9.318-5.281-3.856 0-7.34 1.975-9.319 5.281l-19.482 32.536-36.966 8.476c-3.757.862-6.711 3.565-7.902 7.232-1.19 3.666-.389 7.589 2.144 10.493l24.924 28.584-3.363 37.774c-.341 3.84 1.317 7.484 4.436 9.75 3.118 2.265 7.097 2.714 10.645 1.204l34.885-14.871 34.887 14.871c3.546 1.512 7.525 1.061 10.644-1.205 3.119-2.267 4.776-5.912 4.435-9.751l-3.362-37.773 24.925-28.584c2.526-2.905 3.327-6.829 2.136-10.494zm-39.533 30.551c-1.933 2.217-2.891 5.169-2.631 8.1l2.906 32.647-30.148-12.851c-2.709-1.157-5.815-1.157-8.522-.002l-30.151 12.854 2.907-32.649c.261-2.933-.7-5.886-2.633-8.101l-21.541-24.704 31.943-7.324c2.87-.656 5.384-2.482 6.896-5.008l16.838-28.12 16.839 28.119c1.513 2.526 4.026 4.353 6.893 5.008l31.947 7.325z"></path><path d="m191.794 130.012-5.015 56.326c-.39 4.379 1.501 8.536 5.058 11.119 2.165 1.573 4.694 2.378 7.254 2.378 1.644 0 3.301-.332 4.881-1.006l52.022-22.175 52.02 22.175c4.043 1.724 8.581 1.211 12.137-1.372 3.557-2.584 5.447-6.74 5.058-11.119l-5.015-56.326 37.164-42.623c2.889-3.312 3.804-7.786 2.445-11.967-1.357-4.181-4.727-7.264-9.012-8.246l-16.04-3.677c-4.036-.924-8.061 1.597-8.986 5.635-.926 4.037 1.598 8.061 5.635 8.986l11.783 2.701-35.025 40.17c-2.207 2.529-3.302 5.897-3.004 9.239l4.727 53.088-49.03-20.899c-3.087-1.316-6.627-1.314-9.712 0l-49.03 20.899 4.727-53.093c.296-3.339-.799-6.704-3.002-9.232l-35.028-40.172 51.953-11.911c3.268-.75 6.131-2.83 7.855-5.708l27.381-45.728 27.379 45.726c1.723 2.878 4.586 4.959 7.859 5.711l11.166 2.56c4.033.924 8.062-1.597 8.986-5.635.926-4.037-1.598-8.061-5.635-8.986l-10.079-2.311-29.052-48.518c-2.258-3.77-6.231-6.021-10.626-6.021s-8.367 2.251-10.625 6.021l-29.053 48.518-55.12 12.637c-4.284.982-7.652 4.065-9.011 8.245-1.358 4.181-.444 8.654 2.443 11.967z"></path></g></g></svg>