<svg xmlns="http://www.w3.org/2000/svg" id="Capa_1" height="512" viewBox="0 0 511.986 511.986" width="512"><g><g><path d="m258.622 275.063-27.093-27.093 21.79-21.79 20.022 20.022c6.053 6.053 15.867 6.053 21.92 0s6.053-15.867 0-21.92l-20.022-20.022 38.921-38.921c22.614 13.255 52.157 10.187 71.557-9.213 23.051-23.051 23.051-60.424 0-83.475s-60.424-23.051-83.475 0c-19.113 19.113-22.362 48.067-9.778 70.544l-114.301 114.3c-6.053 6.053-6.053 15.867 0 21.92s15.867 6.053 21.92 0l9.526-9.526 27.093 27.093c6.053 6.053 15.867 6.053 21.92 0 6.054-6.052 6.054-15.866 0-21.919zm68.655-177.381c9.226-9.226 24.183-9.226 33.409 0s9.226 24.184 0 33.409c-9.226 9.226-24.184 9.226-33.409 0-9.226-9.226-9.226-24.184 0-33.409z" fill="#fff485"></path><g><path d="m385.719 72.649c-19.459-19.459-49.125-22.49-71.765-9.095 16.916-1.605 34.392 4.068 47.345 17.022 23.051 23.051 23.051 60.424 0 83.475-3.587 3.587-7.521 6.611-11.694 9.082 13.18-1.253 26.02-6.915 36.113-17.008 23.052-23.052 23.052-60.425.001-83.476z" fill="#ffea76"></path></g><g><path d="m371.319 322.876c-.597 7.815-4.551 14.987-10.841 19.663l-55.486 40.859h26.345c9.03 0 17.884-2.493 25.587-7.204l49.691-30.392v-21.581c0-9.672-7.774-17.547-17.445-17.673-9.326-.12-17.141 7.028-17.851 16.328z" fill="#ffd3a3"></path><path d="m352.726 348.302-.804-11.63c-.767-11.095-9.943-19.732-21.064-19.826-10.938-.093-20.168 8.117-21.351 18.991-.806 7.411-4.78 14.11-10.897 18.37l-43.164 29.191h49.546z" fill="#ffbe84"></path><path d="m439.027 313.123c-7.265 0-13.879 4.187-16.988 10.753l-5.382 11.37c-1.919 4.054-4.98 7.46-8.807 9.801l-50.926 31.146c-7.703 4.711-16.558 7.204-25.587 7.204l-71.708-.182c9.899-.086 17.878-8.135 17.878-18.034 0-9.96-8.074-18.034-18.035-18.034h-34.379c-7.46 0-14.706-2.493-20.587-7.083-10.965-8.558-25.922-9.91-38.243-3.457l-57.81 30.276 50.642 95.322 36.786-16.853c8.432-3.863 17.502-6.144 26.758-6.729l94.965-6.001c18.018-1.139 35.383-7.177 50.22-17.463l62.15-43.087c11.859-8.222 21.06-19.726 26.475-33.102 5.002-12.356-4.092-25.847-17.422-25.847z" fill="#ffe6c2"></path><path d="m108.454 366.885 50.642 95.321 30.856-14.136-51.368-96.965z" fill="#ffd3a3"></path><path d="m116.362 353.252 60.654 114.492c2.5 4.719.672 10.57-4.069 13.027l-43.703 22.649c-4.68 2.426-10.441.627-12.909-4.031l-61.047-115.179c-2.529-4.772-.629-10.691 4.206-13.099l44.096-21.962c4.665-2.323 10.333-.503 12.772 4.103z" fill="#88bde7"></path><path d="m172.947 480.771c4.741-2.457 6.569-8.309 4.069-13.027l-60.654-114.492c-2.44-4.605-8.107-6.426-12.773-4.102l-8.318 4.143c15.923 25.683 48.365 87.756 35.104 149.542z" fill="#5faee2"></path></g></g><g><path d="m385.145 35.738c4.143 0 7.5-3.357 7.5-7.5v-20.738c0-4.143-3.357-7.5-7.5-7.5s-7.5 3.357-7.5 7.5v20.738c0 4.143 3.357 7.5 7.5 7.5z"></path><path d="m328.323 200.255v20.738c0 4.143 3.357 7.5 7.5 7.5s7.5-3.357 7.5-7.5v-20.738c0-4.143-3.357-7.5-7.5-7.5s-7.5 3.357-7.5 7.5z"></path><path d="m192.704 116.143c4.143 0 7.5-3.357 7.5-7.5v-20.74c0-4.143-3.357-7.5-7.5-7.5s-7.5 3.357-7.5 7.5v20.739c0 4.143 3.358 7.501 7.5 7.501z"></path><path d="m374.562 204.385v42.716c0 4.143 3.357 7.5 7.5 7.5s7.5-3.357 7.5-7.5v-42.716c0-4.143-3.357-7.5-7.5-7.5s-7.5 3.357-7.5 7.5z"></path><path d="m173.623 222.254c4.143 0 7.5-3.357 7.5-7.5v-57.048c0-4.143-3.357-7.5-7.5-7.5s-7.5 3.357-7.5 7.5v57.048c0 4.142 3.357 7.5 7.5 7.5z"></path><path d="m228.533 140.822c4.143 0 7.5-3.357 7.5-7.5v-22.735c0-4.143-3.357-7.5-7.5-7.5s-7.5 3.357-7.5 7.5v22.735c0 4.143 3.358 7.5 7.5 7.5z"></path><path d="m263.162 83.599c4.143 0 7.5-3.357 7.5-7.5v-37.733c0-4.143-3.357-7.5-7.5-7.5s-7.5 3.357-7.5 7.5v37.732c0 4.143 3.358 7.501 7.5 7.501z"></path><path d="m205.387 284.719 4.222-4.223 21.79 21.791c4.484 4.483 10.374 6.726 16.264 6.726s11.779-2.242 16.264-6.726c4.344-4.345 6.736-10.121 6.736-16.264 0-6.144-2.393-11.92-6.736-16.265l-21.79-21.789 11.184-11.185 14.72 14.72c8.969 8.967 23.56 8.967 32.526 0 4.344-4.345 6.736-10.121 6.736-16.264 0-6.144-2.393-11.92-6.736-16.263l-14.719-14.72 29.709-29.71c25.174 11.922 55.459 6.886 75.467-13.121 25.938-25.938 25.938-68.144 0-94.083-13.137-13.136-30.445-19.619-47.699-19.45v-15.295c0-4.143-3.357-7.5-7.5-7.5s-7.5 3.357-7.5 7.5v17.148c-11.509 2.768-22.418 8.634-31.384 17.6-4.289 4.29-7.972 9.146-10.946 14.434-2.031 3.61-.751 8.184 2.858 10.214 3.612 2.032 8.184.752 10.214-2.858 2.306-4.098 5.159-7.86 8.48-11.183 20.091-20.09 52.78-20.09 72.869-.001 20.09 20.091 20.09 52.78 0 72.869-16.576 16.578-42.261 19.887-62.461 8.046-2.943-1.725-6.682-1.246-9.097 1.167l-38.921 38.922c-2.929 2.93-2.929 7.678 0 10.606l20.022 20.023c1.511 1.511 2.343 3.52 2.343 5.656s-.832 4.146-2.344 5.656c-3.117 3.119-8.193 3.119-11.312 0l-20.022-20.022c-1.407-1.406-3.314-2.196-5.304-2.196s-3.896.79-5.304 2.197l-21.79 21.791c-2.929 2.929-2.929 7.677 0 10.606l27.093 27.093c1.512 1.511 2.344 3.52 2.344 5.657s-.832 4.146-2.344 5.656c-1.511 1.511-3.52 2.344-5.656 2.344s-4.146-.833-5.656-2.344l-27.094-27.094c-1.407-1.406-3.314-2.196-5.304-2.196s-3.897.79-5.304 2.197l-9.525 9.525c-1.511 1.511-3.52 2.343-5.656 2.343s-4.146-.832-5.656-2.343c-1.512-1.511-2.344-3.52-2.344-5.657s.832-4.146 2.344-5.656l114.302-114.302c2.374-2.374 2.881-6.037 1.241-8.967-4.413-7.884-6.672-16.86-6.533-25.959.063-4.142-3.243-7.55-7.385-7.613-4.13-.089-7.55 3.243-7.613 7.385-.149 9.807 1.863 19.509 5.854 28.376l-47.3 47.299v-22.504c0-4.143-3.357-7.5-7.5-7.5s-7.5 3.357-7.5 7.5v37.504l-48.174 48.173c-4.344 4.345-6.736 10.121-6.736 16.264 0 6.144 2.393 11.92 6.736 16.265 8.968 8.968 23.558 8.969 32.527 0z"></path><path d="m343.98 145.51c8.314 0 16.13-3.237 22.009-9.115 12.135-12.136 12.135-31.881 0-44.017-12.136-12.135-31.879-12.135-44.017 0-5.878 5.879-9.115 13.694-9.115 22.008s3.237 16.13 9.115 22.009c5.88 5.877 13.695 9.115 22.008 9.115zm-11.4-42.525c3.143-3.144 7.271-4.716 11.4-4.716 4.13 0 8.259 1.572 11.401 4.716 6.287 6.286 6.287 16.516 0 22.802-6.284 6.286-16.516 6.288-22.802 0-3.046-3.045-4.723-7.094-4.723-11.401.001-4.307 1.678-8.356 4.724-11.401z"></path><path d="m460.832 317.222c-4.896-7.263-13.047-11.599-21.805-11.599-10.112 0-19.441 5.905-23.768 15.044l-1.167 2.467c-.571-13.208-11.487-23.912-24.825-24.084-.109-.002-.218-.003-.327-.003-13.105 0-24.099 10.156-25.1 23.258-.323 4.229-2.004 8.195-4.724 11.332-2.179-13.694-14.106-24.172-28.195-24.29-.084 0-.167-.001-.251-.001-14.74 0-27.022 10.999-28.62 25.682-.569 5.24-3.371 9.976-7.689 12.998l-11.216 7.586c-3.795-9.351-12.976-15.963-23.673-15.963h-34.379c-5.76 0-11.432-1.951-15.972-5.495-13.255-10.346-31.444-11.988-46.338-4.188l-39.352 20.61-.442-.833c-4.379-8.266-14.368-11.472-22.744-7.306l-44.098 21.963c-4.163 2.074-7.238 5.655-8.66 10.084s-1.005 9.131 1.173 13.239l10.396 19.615c1.939 3.659 6.476 5.054 10.139 3.115 3.66-1.939 5.055-6.479 3.115-10.139l-10.396-19.616c-.344-.648-.269-1.244-.145-1.63.124-.387.409-.915 1.066-1.242l44.097-21.962c1.016-.509 2.271-.102 2.801.899l60.654 114.491c.34.643.269 1.233.149 1.615-.12.383-.397.908-1.042 1.242l-43.703 22.65c-1.024.529-2.292.132-2.831-.885l-37.061-69.924c-1.939-3.658-6.475-5.052-10.14-3.114-3.659 1.94-5.054 6.479-3.114 10.14l37.061 69.924c3.061 5.773 9.021 9.084 15.167 9.084 2.645 0 5.324-.613 7.82-1.907l43.703-22.649c4.083-2.116 7.086-5.699 8.457-10.088 1.371-4.39.94-9.046-1.212-13.109l-2.141-4.042 17.504-8.019c7.626-3.494 15.736-5.534 24.106-6.062l94.965-6.001c19.382-1.226 38.062-7.721 54.021-18.784l28.271-19.6c3.403-2.36 4.25-7.033 1.891-10.438-2.36-3.402-7.031-4.25-10.438-1.891l-28.271 19.6c-13.713 9.508-29.765 15.09-46.419 16.142l-94.965 6.001c-10.212.646-20.106 3.134-29.409 7.396l-18.289 8.378-44.015-83.085 39.29-20.577c9.69-5.075 21.524-4.005 30.149 2.726 7.164 5.592 16.114 8.671 25.201 8.671h34.379c5.809 0 10.534 4.726 10.534 10.534 0 5.759-4.685 10.484-10.411 10.534l-41.084.182c-4.136.019-7.476 3.381-7.467 7.517s3.364 7.483 7.5 7.483h112.792c10.415 0 20.616-2.872 29.501-8.306l50.925-31.146c5.085-3.11 9.122-7.603 11.674-12.991l5.381-11.37c1.858-3.926 5.866-6.462 10.21-6.462 3.818 0 7.232 1.816 9.366 4.982s2.536 7.012 1.104 10.551c-4.88 12.055-13.108 22.343-23.795 29.752l-9.997 6.93c-3.403 2.36-4.25 7.033-1.891 10.438 2.36 3.403 7.03 4.251 10.438 1.891l9.996-6.931c13.094-9.077 23.175-21.682 29.153-36.45 3.288-8.119 2.328-17.302-2.568-24.564zm-177.18 56.15c.08-.05.16-.102.239-.155l18.921-12.797c.027-.02.056-.039.084-.059 7.899-5.501 13.027-14.144 14.067-23.712.766-7.034 6.649-12.304 13.712-12.304.04 0 .08 0 .12.001 7.158.061 13.151 5.701 13.645 12.844l.516 7.466-42.427 31.242h-19.894c.382-.82.722-1.663 1.017-2.526zm69.36-3.576c-6.528 3.992-14.022 6.103-21.675 6.103h-3.511c12.31-9.065 25.817-19.011 37.128-27.34 8.036-5.975 13.082-15.127 13.845-25.111.404-5.296 4.847-9.4 10.144-9.4.044 0 .089.001.133.001 5.537.072 10.042 4.636 10.042 10.174v17.376z"></path></g></g></svg>