<svg xmlns="http://www.w3.org/2000/svg" id="Capa_1" height="512" viewBox="0 0 511.986 511.986" width="512"><g><g><g><path d="m371.308 322.876c-.597 7.815-4.551 14.987-10.841 19.663l-55.486 40.859h26.345c9.03 0 17.884-2.493 25.587-7.204l49.691-30.392v-21.581c0-9.672-7.774-17.547-17.445-17.672-9.326-.121-17.141 7.027-17.851 16.327z" fill="#ffd3a3"></path><path d="m352.715 348.302-.804-11.63c-.767-11.095-9.943-19.732-21.064-19.826-10.938-.093-20.168 8.117-21.351 18.991-.806 7.411-4.78 14.11-10.897 18.37l-43.164 29.191h49.546z" fill="#ffbe84"></path><path d="m439.016 313.123c-7.265 0-13.879 4.187-16.988 10.753l-5.382 11.37c-1.919 4.054-4.98 7.46-8.807 9.801l-50.926 31.146c-7.703 4.711-16.558 7.204-25.587 7.204l-71.708-.182c9.899-.086 17.878-8.135 17.878-18.034 0-9.96-8.074-18.034-18.035-18.034h-34.379c-7.46 0-14.706-2.493-20.587-7.083-10.965-8.558-25.922-9.91-38.243-3.457l-57.81 30.276 50.642 95.322 36.786-16.853c8.432-3.863 17.502-6.144 26.758-6.729l94.965-6.001c18.018-1.139 35.383-7.177 50.22-17.463l62.15-43.087c11.859-8.222 21.06-19.726 26.475-33.102 5.002-12.356-4.092-25.847-17.422-25.847z" fill="#ffe6c2"></path><path d="m108.442 366.885 50.643 95.322 30.856-14.137-51.368-96.965z" fill="#ffd3a3"></path><path d="m116.351 353.252 60.654 114.492c2.5 4.719.672 10.57-4.069 13.027l-43.703 22.649c-4.68 2.426-10.441.627-12.909-4.031l-61.047-115.179c-2.529-4.772-.629-10.691 4.206-13.099l44.096-21.962c4.665-2.323 10.332-.503 12.772 4.103z" fill="#88bde7"></path><path d="m172.936 480.771c4.741-2.457 6.569-8.309 4.069-13.027l-60.654-114.492c-2.44-4.605-8.107-6.426-12.773-4.102l-8.318 4.143c15.923 25.683 48.365 87.756 35.104 149.542z" fill="#5faee2"></path></g><path d="m236.122 28.494 6.894-20.994h25.955l6.894 20.994 25.045 10.374 19.72-9.971 18.353 18.353-9.971 19.72 10.374 25.045 20.995 6.894v25.955l-20.995 6.894-10.374 25.045 9.971 19.72-18.353 18.353-19.72-9.971-25.045 10.374-6.894 20.994h-25.955l-6.894-20.994-25.045-10.374-19.72 9.971-18.353-18.353 9.971-19.72-10.375-25.045-20.994-6.894v-25.954l20.994-6.894 10.374-25.045-9.971-19.72 18.353-18.353 19.72 9.971zm-27.8 83.393c0 26.328 21.343 47.671 47.671 47.671s47.671-21.343 47.671-47.671-21.343-47.671-47.671-47.671-47.671 21.343-47.671 47.671z" fill="#6c5e69"></path><path d="m255.993 47.051c-35.808 0-64.836 29.028-64.836 64.836s29.028 64.836 64.836 64.836 64.836-29.028 64.836-64.836-29.028-64.836-64.836-64.836zm0 112.507c-26.328 0-47.671-21.343-47.671-47.671s21.343-47.671 47.671-47.671 47.671 21.343 47.671 47.671-21.343 47.671-47.671 47.671z" fill="#574d56"></path><g fill="#6c5e69"><path d="m403.759 150.792 4.759-14.492h17.916l4.759 14.492 17.288 7.161 13.612-6.883 12.669 12.669-6.883 13.612 7.161 17.288 14.492 4.759v17.916l-14.492 4.759-7.161 17.288 6.883 13.612-12.669 12.669-13.612-6.883-17.288 7.161-4.759 14.492h-17.916l-4.759-14.492-17.288-7.161-13.612 6.883-12.669-12.669 6.883-13.612-7.161-17.288-14.492-4.759v-17.916l14.492-4.759 7.161-17.288-6.883-13.612 12.669-12.669 13.612 6.883zm-15.715 57.564c0 16.255 13.177 29.432 29.432 29.432s29.432-13.177 29.432-29.432-13.177-29.432-29.432-29.432-29.432 13.178-29.432 29.432z"></path><path d="m80.794 153.792 4.759-14.492h17.916l4.759 14.492 17.288 7.161 13.612-6.883 12.669 12.669-6.883 13.612 7.161 17.288 14.492 4.759v17.916l-14.492 4.759-7.161 17.288 6.883 13.612-12.669 12.669-13.612-6.883-17.288 7.161-4.759 14.492h-17.917l-4.759-14.492-17.288-7.161-13.612 6.883-12.669-12.669 6.883-13.612-7.161-17.288-14.492-4.759v-17.916l14.492-4.759 7.161-17.288-6.883-13.612 12.669-12.669 13.612 6.883zm-15.715 57.564c0 16.255 13.177 29.432 29.432 29.432s29.432-13.177 29.432-29.432-13.177-29.432-29.432-29.432-29.432 13.178-29.432 29.432z"></path></g></g><g><path d="m439.016 305.623c-10.112 0-19.441 5.905-23.768 15.044l-1.167 2.467c-.571-13.208-11.487-23.912-24.825-24.084-.109-.002-.218-.003-.327-.003-13.105 0-24.099 10.156-25.1 23.258-.323 4.229-2.004 8.195-4.724 11.332-2.179-13.694-14.106-24.172-28.195-24.29-.084 0-.167-.001-.251-.001-14.74 0-27.022 10.999-28.62 25.682-.569 5.24-3.371 9.976-7.689 12.999l-11.216 7.585c-3.794-9.351-12.976-15.963-23.673-15.963h-34.379c-5.76 0-11.432-1.951-15.972-5.495-13.255-10.346-31.443-11.988-46.338-4.188l-39.353 20.61-.441-.833c-4.379-8.266-14.369-11.472-22.744-7.306l-44.098 21.963c-4.163 2.074-7.238 5.655-8.66 10.084s-1.005 9.131 1.173 13.239l10.396 19.615c1.938 3.659 6.477 5.054 10.139 3.115 3.66-1.939 5.055-6.479 3.115-10.139l-10.396-19.616c-.344-.648-.269-1.244-.145-1.63.124-.387.409-.915 1.066-1.242l44.097-21.962c1.015-.509 2.271-.102 2.801.899l60.654 114.491c.34.643.269 1.233.149 1.615-.12.383-.397.908-1.042 1.242l-43.703 22.65c-1.023.529-2.292.132-2.831-.885l-37.059-69.923c-1.938-3.658-6.474-5.052-10.14-3.114-3.659 1.94-5.054 6.479-3.114 10.14l37.061 69.924c3.061 5.773 9.021 9.084 15.167 9.084 2.645 0 5.324-.613 7.82-1.907l43.703-22.649c4.083-2.116 7.086-5.699 8.457-10.088 1.371-4.39.94-9.046-1.212-13.109l-2.141-4.042 17.503-8.019c7.626-3.494 15.736-5.534 24.106-6.062l94.965-6.001c19.382-1.226 38.062-7.721 54.021-18.784l28.271-19.6c3.403-2.36 4.25-7.033 1.891-10.438-2.36-3.402-7.031-4.25-10.438-1.891l-28.271 19.6c-13.713 9.508-29.765 15.089-46.419 16.142l-94.965 6.001c-10.212.646-20.106 3.134-29.409 7.396l-18.289 8.379-44.016-83.085 39.29-20.577c9.69-5.075 21.524-4.005 30.149 2.726 7.164 5.592 16.114 8.671 25.201 8.671h34.379c5.809 0 10.534 4.726 10.534 10.534 0 5.759-4.685 10.484-10.411 10.534l-41.084.182c-4.136.019-7.476 3.381-7.467 7.517s3.364 7.483 7.5 7.483h112.792c10.415 0 20.616-2.872 29.501-8.306l50.925-31.146c5.085-3.11 9.122-7.603 11.674-12.991l5.382-11.37c1.857-3.926 5.865-6.462 10.209-6.462 3.818 0 7.232 1.816 9.366 4.982s2.536 7.012 1.104 10.551c-4.88 12.055-13.108 22.343-23.796 29.752l-9.995 6.93c-3.404 2.36-4.251 7.033-1.892 10.438 2.36 3.403 7.033 4.251 10.437 1.891l9.997-6.931c13.094-9.077 23.175-21.682 29.153-36.45 3.286-8.118 2.326-17.301-2.569-24.563s-13.045-11.602-21.804-11.602zm-155.379 67.758 19.163-12.961c.027-.02.056-.039.084-.059 7.899-5.501 13.027-14.144 14.067-23.712.766-7.034 6.648-12.304 13.712-12.304.04 0 .08 0 .12.001 7.158.061 13.151 5.701 13.645 12.843l.516 7.467-42.427 31.242h-19.894c.381-.817.72-1.657 1.014-2.517zm69.363-3.585c-6.527 3.992-14.022 6.103-21.675 6.103h-3.511c12.327-9.078 25.83-19.021 37.128-27.34 8.036-5.975 13.082-15.127 13.845-25.111.404-5.296 4.847-9.4 10.144-9.4.044 0 .089.001.133.001 5.537.072 10.042 4.636 10.042 10.174v17.376z"></path><path d="m491.872 192.272-11.221-3.685-4.525-10.925 5.329-10.54c1.462-2.892.901-6.396-1.39-8.688l-12.669-12.669c-2.294-2.291-5.798-2.852-8.688-1.39l-10.54 5.329-10.925-4.525-3.684-11.221c-1.011-3.079-3.885-5.16-7.126-5.16h-17.917c-3.241 0-6.115 2.081-7.126 5.16l-3.684 11.221-10.926 4.525-10.538-5.329c-2.892-1.462-6.397-.9-8.688 1.39l-12.669 12.669c-2.291 2.292-2.852 5.796-1.39 8.688l5.329 10.54-4.525 10.925-11.221 3.685c-3.079 1.012-5.16 3.886-5.16 7.126v17.916c0 3.24 2.081 6.114 5.16 7.126l11.221 3.685 4.525 10.925-5.329 10.54c-1.462 2.892-.901 6.396 1.391 8.688l12.669 12.668c2.292 2.292 5.797 2.851 8.687 1.39l10.539-5.328 10.926 4.525 3.684 11.22c1.011 3.079 3.886 5.16 7.126 5.16h17.917c3.24 0 6.115-2.081 7.126-5.16l3.684-11.22 10.926-4.525 10.539 5.328c2.892 1.461 6.396.902 8.687-1.39l12.669-12.668c2.292-2.292 2.853-5.796 1.391-8.688l-5.329-10.54 4.525-10.925 11.221-3.685c3.079-1.012 5.16-3.886 5.16-7.126v-17.916c-.001-3.24-2.082-6.114-5.161-7.126zm-9.84 19.611-9.332 3.064c-2.077.683-3.753 2.236-4.589 4.256l-7.161 17.288c-.837 2.02-.751 4.304.235 6.254l4.433 8.766-4.988 4.987-8.766-4.432c-1.95-.985-4.235-1.073-6.254-.235l-17.288 7.161c-2.02.836-3.574 2.513-4.256 4.589l-3.063 9.331h-7.054l-3.063-9.331c-.683-2.076-2.236-3.753-4.256-4.589l-17.289-7.161c-2.021-.838-4.304-.75-6.254.235l-8.765 4.432-4.988-4.987 4.433-8.766c.986-1.95 1.072-4.234.235-6.254l-7.161-17.288c-.836-2.02-2.512-3.573-4.589-4.256l-9.332-3.064v-7.053l9.332-3.064c2.077-.683 3.753-2.236 4.589-4.256l7.161-17.288c.837-2.02.751-4.304-.235-6.254l-4.433-8.766 4.988-4.988 8.764 4.433c1.952.985 4.233 1.073 6.255.235l17.289-7.161c2.02-.836 3.574-2.513 4.256-4.589l3.063-9.332h7.054l3.063 9.332c.682 2.076 2.236 3.753 4.256 4.589l17.288 7.161c2.021.837 4.306.75 6.254-.235l8.766-4.433 4.988 4.988-4.433 8.766c-.986 1.95-1.072 4.234-.235 6.254l7.161 17.288c.836 2.02 2.512 3.573 4.589 4.256l9.332 3.064z"></path><path d="m417.475 171.425c-20.363 0-36.931 16.567-36.931 36.932s16.567 36.932 36.931 36.932 36.932-16.567 36.932-36.932-16.568-36.932-36.932-36.932zm0 58.863c-12.093 0-21.931-9.839-21.931-21.932s9.838-21.932 21.931-21.932 21.932 9.839 21.932 21.932-9.839 21.932-21.932 21.932z"></path><path d="m94.51 248.288c20.364 0 36.932-16.567 36.932-36.932s-16.567-36.932-36.932-36.932-36.932 16.567-36.932 36.932 16.568 36.932 36.932 36.932zm0-58.863c12.093 0 21.932 9.839 21.932 21.932s-9.839 21.932-21.932 21.932-21.932-9.839-21.932-21.932 9.839-21.932 21.932-21.932z"></path><path d="m53.277 275.335 10.539-5.328 10.926 4.525 3.685 11.22c1.012 3.079 3.886 5.16 7.126 5.16h17.916c3.24 0 6.114-2.081 7.126-5.16l3.685-11.22 10.926-4.525 10.539 5.328c2.892 1.462 6.395.902 8.687-1.39l12.669-12.668c2.292-2.292 2.853-5.796 1.391-8.688l-5.329-10.54 4.525-10.925 11.221-3.685c3.079-1.012 5.16-3.886 5.16-7.126v-17.916c0-3.24-2.081-6.114-5.16-7.126l-11.221-3.685-4.525-10.925 5.329-10.54c1.462-2.892.901-6.396-1.39-8.688l-12.669-12.669c-2.293-2.291-5.799-2.852-8.688-1.39l-10.54 5.329-10.925-4.525-3.685-11.221c-1.012-3.079-3.886-5.16-7.126-5.16h-17.917c-3.24 0-6.114 2.081-7.126 5.16l-3.685 11.221-10.925 4.525-10.54-5.329c-2.89-1.462-6.396-.9-8.688 1.391l-12.668 12.669c-2.291 2.291-2.852 5.795-1.39 8.687l5.328 10.539-4.525 10.926-11.22 3.685c-3.079 1.012-5.16 3.886-5.16 7.126v17.916c0 3.24 2.081 6.114 5.16 7.126l11.22 3.685 4.525 10.926-5.328 10.539c-1.462 2.892-.901 6.396 1.39 8.688l12.668 12.668c2.293 2.292 5.796 2.852 8.689 1.39zm-2.241-35.844-7.161-17.288c-.836-2.02-2.512-3.573-4.589-4.256l-9.331-3.063v-7.055l9.331-3.063c2.077-.683 3.753-2.236 4.589-4.256l7.161-17.288c.837-2.02.751-4.304-.235-6.254l-4.432-8.766 4.987-4.988 8.766 4.433c1.951.985 4.234 1.072 6.254.235l17.288-7.161c2.02-.836 3.573-2.512 4.256-4.589l3.064-9.332h7.053l3.064 9.332c.683 2.077 2.236 3.753 4.256 4.589l17.288 7.161c2.021.837 4.305.75 6.254-.235l8.766-4.433 4.988 4.988-4.433 8.766c-.986 1.95-1.072 4.234-.235 6.254l7.161 17.288c.836 2.02 2.512 3.573 4.589 4.256l9.332 3.064v7.053l-9.332 3.064c-2.077.683-3.753 2.236-4.589 4.256l-7.161 17.288c-.837 2.02-.751 4.304.235 6.254l4.433 8.766-4.988 4.987-8.766-4.432c-1.951-.985-4.236-1.073-6.254-.235l-17.288 7.161c-2.02.836-3.573 2.512-4.256 4.589l-3.063 9.331h-7.055l-3.063-9.331c-.683-2.077-2.236-3.753-4.256-4.589l-17.288-7.161c-2.02-.838-4.303-.75-6.254.235l-8.766 4.432-4.987-4.987 4.432-8.766c.986-1.95 1.072-4.234.235-6.254z"></path><path d="m255.993 167.059c30.421 0 55.171-24.75 55.171-55.171 0-2.247-.15-4.584-.448-6.947-.518-4.109-4.264-7.014-8.379-6.504-4.109.518-7.021 4.269-6.504 8.379.22 1.743.331 3.45.331 5.072 0 22.15-18.021 40.171-40.171 40.171s-40.171-18.021-40.171-40.171 18.021-40.172 40.171-40.172c11.161 0 21.914 4.709 29.503 12.919 2.811 3.041 7.556 3.228 10.599.417 3.042-2.812 3.229-7.557.417-10.599-10.42-11.272-25.188-17.737-40.519-17.737-30.421 0-55.171 24.75-55.171 55.172 0 30.421 24.75 55.171 55.171 55.171z"></path><path d="m149.265 131.991 17.724 5.819 7.738 18.682-8.417 16.648c-1.462 2.892-.901 6.396 1.39 8.688l18.353 18.353c2.293 2.292 5.798 2.851 8.688 1.39l16.648-8.417 18.682 7.738 5.819 17.723c1.012 3.079 3.886 5.16 7.126 5.16h25.955c3.24 0 6.114-2.081 7.126-5.16l5.82-17.723 18.682-7.738 16.647 8.417c2.893 1.461 6.396.902 8.687-1.39l18.354-18.353c2.292-2.292 2.853-5.796 1.391-8.688l-8.417-16.648 7.738-18.682 17.723-5.819c3.079-1.012 5.16-3.886 5.16-7.126v-25.955c0-3.24-2.081-6.114-5.16-7.126l-17.723-5.82-7.738-18.682 8.417-16.647c1.462-2.892.901-6.396-1.39-8.688l-18.354-18.354c-2.293-2.292-5.798-2.852-8.688-1.39l-16.647 8.417-18.682-7.738-5.82-17.723c-1.013-3.078-3.887-5.159-7.127-5.159h-25.955c-3.24 0-6.114 2.081-7.126 5.16l-5.819 17.723-18.682 7.738-16.648-8.417c-2.892-1.462-6.396-.9-8.688 1.391l-18.352 18.353c-2.291 2.291-2.852 5.795-1.39 8.687l8.417 16.647-7.738 18.682-17.724 5.82c-3.079 1.012-5.16 3.886-5.16 7.126v25.955c0 3.24 2.081 6.115 5.16 7.126zm9.84-27.65 15.835-5.199c2.077-.683 3.753-2.236 4.589-4.256l10.374-25.045c.837-2.02.751-4.304-.235-6.254l-7.521-14.873 10.672-10.673 14.874 7.521c1.951.985 4.233 1.073 6.254.235l25.045-10.374c2.02-.836 3.573-2.512 4.256-4.589l5.199-15.834h15.093l5.199 15.834c.683 2.077 2.236 3.753 4.256 4.589l25.045 10.374c2.021.838 4.303.75 6.254-.235l14.873-7.521 10.673 10.673-7.521 14.873c-.986 1.95-1.072 4.234-.235 6.254l10.374 25.045c.836 2.02 2.512 3.573 4.589 4.256l15.834 5.199v15.093l-15.834 5.199c-2.077.683-3.753 2.236-4.589 4.256l-10.374 25.045c-.837 2.02-.751 4.304.235 6.254l7.521 14.874-10.673 10.672-14.873-7.521c-1.951-.985-4.233-1.073-6.254-.235l-25.045 10.374c-2.02.836-3.573 2.512-4.256 4.589l-5.199 15.834h-15.093l-5.199-15.834c-.683-2.077-2.236-3.753-4.256-4.589l-25.045-10.374c-2.021-.838-4.303-.75-6.254.235l-14.874 7.521-10.672-10.672 7.521-14.874c.986-1.95 1.072-4.234.235-6.254l-10.374-25.045c-.836-2.02-2.512-3.573-4.589-4.256l-15.835-5.199z"></path></g></g></svg>