<svg xmlns="http://www.w3.org/2000/svg" id="Capa_1" height="512" viewBox="0 0 512.001 512.001" width="512"><g><g><path d="m208.558 385.569h-159.008v-175.274c0-43.909 35.595-79.504 79.504-79.504 43.909 0 79.504 35.595 79.504 79.504z" fill="#6c5e69"></path><path d="m129.054 130.791c-3.814 0-7.559.285-11.229.804 38.589 5.458 68.275 38.604 68.275 78.699v175.274h22.459v-175.273c-.001-43.909-35.596-79.504-79.505-79.504z" fill="#574d56"></path><path d="m129.054 325.222-28.437 15.582-23.899 9.624-35.74 28.477c-5.941 4.734-10.067 11.372-11.68 18.795l-21.659 99.627c-.802 3.688 2.007 7.173 5.781 7.173h211.14l-5.959-106.8c-1.614-7.423-5.739-14.061-11.68-18.795l-37.416-29.811-12.014-8.289z" fill="#ff7383"></path><path d="m228.811 397.7c-1.614-7.423-5.739-14.061-11.68-18.795l-37.416-29.811-22.223-8.289-7.804-4.276 21.286 33.079c16.876 26.226 26.143 56.62 26.768 87.8l.945 47.093h46.001c3.774 0 6.583-3.485 5.781-7.173z" fill="#ff546a"></path><path d="m109.252 277.862h39.605v62.943h-39.605z" fill="#ffe6c2"></path><path d="m109.252 314.264c5.898 2.459 12.336 3.869 19.108 3.957 7.261.094 14.187-1.293 20.497-3.875v-36.485h-39.605z" fill="#ffd3a3"></path><path d="m128.36 304.913c-28.761-.373-51.641-24.348-51.641-53.111v-41.129c0-2.543 2.237-4.524 4.757-4.181 17.709 2.409 33.22.321 44.888-9.628 1.544-1.316 3.838-1.316 5.381 0 11.669 9.949 27.179 12.038 44.888 9.628 2.52-.343 4.757 1.638 4.757 4.181v41.909c0 29.135-23.808 52.71-53.03 52.331z" fill="#ffe6c2"></path><path d="m176.633 206.492c-17.708 2.409-33.219.321-44.888-9.628-1.544-1.317-3.839-1.317-5.383 0-11.669 9.948-27.179 12.037-44.888 9.628-2.52-.343-4.757 1.638-4.757 4.181v15.532c0-2.543 2.237-4.523 4.757-4.181 16.375 2.228 30.871.61 42.187-7.513 3.227-2.316 7.556-2.316 10.783 0 11.316 8.123 25.812 9.741 42.187 7.513 2.52-.343 4.757 1.638 4.757 4.181v-15.532c.002-2.543-2.235-4.523-4.755-4.181z" fill="#ffd3a3"></path><g fill="#faf7f8"><path d="m129.054 340.805s-18.413-1.431-32.497-15.582l-22.291 20.077 32.264 19.21z"></path><path d="m129.054 340.805s18.413-1.431 32.497-15.582l22.291 20.078-32.264 19.21z"></path><path d="m295.304 7.5h209.198v44.06h-209.198z"></path></g><path d="m295.304 7.5h159.599v44.06h-159.599z" fill="#6ce79a"></path><path d="m295.304 101.298h209.198v44.06h-209.198z" fill="#faf7f8"></path><path d="m295.304 101.298h119.599v44.06h-119.599z" fill="#ffab56"></path><path d="m295.304 195.096h209.198v44.06h-209.198z" fill="#faf7f8"></path><path d="m295.304 195.096h169.599v44.06h-169.599z" fill="#ff7383"></path><path d="m295.304 288.895h209.198v44.06h-209.198z" fill="#faf7f8"></path><path d="m295.304 288.895h89.599v44.06h-89.599z" fill="#fff485"></path></g><g><path d="m236.14 396.106c-1.975-9.082-7.066-17.274-14.335-23.067l-5.746-4.578v-158.167c0-47.974-39.03-87.004-87.004-87.004s-87.004 39.03-87.004 87.004v53.067c0 4.143 3.358 7.5 7.5 7.5s7.5-3.357 7.5-7.5v-53.067c0-39.703 32.301-72.004 72.004-72.004s72.004 32.301 72.004 72.004v146.214l-10.332-8.232c.305-.705.504-1.459.581-2.242.233-2.371-.674-4.712-2.444-6.307l-22.291-20.078c-2.928-2.64-7.387-2.556-10.214.163v-13.952c5.355-2.753 10.319-6.338 14.73-10.693 11.48-11.332 17.803-26.456 17.803-42.586v-41.908c0-3.387-1.463-6.606-4.015-8.834-2.542-2.219-5.915-3.229-9.253-2.778-17.259 2.347-30.02-.237-39.011-7.904-4.379-3.733-10.735-3.735-15.114 0-8.991 7.666-21.753 10.251-39.011 7.904-3.341-.454-6.711.559-9.253 2.778-2.551 2.228-4.015 5.447-4.015 8.834v41.128c0 23.343 13.254 43.778 32.534 53.889v14.123c-2.828-2.719-7.287-2.802-10.215-.163l-22.291 20.078c-1.771 1.595-2.678 3.936-2.444 6.307.077.783.276 1.538.581 2.242l-10.332 8.232v-64.147c0-4.143-3.358-7.5-7.5-7.5s-7.5 3.357-7.5 7.5v76.099l-5.746 4.578c-7.27 5.792-12.361 13.984-14.335 23.067l-21.662 99.628c-.866 3.986.105 8.094 2.665 11.27s6.366 4.996 10.445 4.996h134.683c4.142 0 7.5-3.357 7.5-7.5s-3.358-7.5-7.5-7.5h-132.718l21.242-97.707c1.244-5.719 4.449-10.877 9.025-14.522l34.32-27.344 22.721 13.528c1.193.71 2.519 1.056 3.834 1.056 2.003 0 3.983-.801 5.44-2.334l9.588-10.091v63.662c0 4.143 3.358 7.5 7.5 7.5s7.5-3.357 7.5-7.5v-63.662l9.588 10.091c1.457 1.533 3.437 2.334 5.44 2.334 1.315 0 2.641-.346 3.834-1.056l22.721-13.528 34.32 27.345c4.577 3.646 7.782 8.804 9.025 14.522l21.241 97.707h-65.621c-4.142 0-7.5 3.357-7.5 7.5s3.358 7.5 7.5 7.5h67.586c4.079 0 7.886-1.821 10.445-4.997 2.56-3.176 3.531-7.283 2.665-11.27zm-151.922-144.305v-37.428c18.696 1.923 33.419-1.377 44.836-10.051 11.416 8.674 26.145 11.974 44.836 10.051v38.208c0 12.087-4.738 23.419-13.34 31.911-8.601 8.489-20.028 13.049-32.093 12.921-24.393-.316-44.238-20.778-44.239-45.612zm57.139 59.36v18.631c-5.781 2.431-10.638 3.242-12.302 3.465-1.663-.223-6.521-1.034-12.303-3.465v-18.67c8.208 1.756 16.675 1.686 24.605.039zm-36.138 43.84-18.372-10.939 9.76-8.791c6.161 4.817 12.591 7.869 18.053 9.794zm47.671 0-9.441-9.937c5.461-1.925 11.892-4.977 18.053-9.794l9.76 8.791z"></path><path d="m504.501.001h-209.197c-4.143 0-7.5 3.357-7.5 7.5v44.06c0 4.143 3.357 7.5 7.5 7.5h209.197c4.143 0 7.5-3.357 7.5-7.5v-44.06c0-4.143-3.357-7.5-7.5-7.5zm-201.697 44.059v-29.06h144.599v29.06zm194.197 0h-34.599v-29.06h34.599z"></path><path d="m504.501 187.596h-209.197c-4.143 0-7.5 3.357-7.5 7.5v44.06c0 4.143 3.357 7.5 7.5 7.5h209.197c4.143 0 7.5-3.357 7.5-7.5v-44.06c0-4.142-3.357-7.5-7.5-7.5zm-201.697 44.06v-29.06h154.599v29.06zm194.197 0h-24.599v-29.06h24.599z"></path><path d="m504.501 281.394h-209.197c-4.143 0-7.5 3.357-7.5 7.5v44.061c0 4.143 3.357 7.5 7.5 7.5h209.197c4.143 0 7.5-3.357 7.5-7.5v-44.061c0-4.143-3.357-7.5-7.5-7.5zm-201.697 44.061v-29.061h74.599v29.061zm194.197 0h-104.599v-29.061h104.599z"></path><path d="m266.522 35.472h-26.665c-4.142 0-7.5 3.357-7.5 7.5s3.358 7.5 7.5 7.5h26.665c4.143 0 7.5-3.357 7.5-7.5s-3.358-7.5-7.5-7.5z"></path><path d="m266.522 8.587h-26.665c-4.142 0-7.5 3.357-7.5 7.5s3.358 7.5 7.5 7.5h26.665c4.143 0 7.5-3.357 7.5-7.5s-3.358-7.5-7.5-7.5z"></path><path d="m266.522 129.271h-26.665c-4.142 0-7.5 3.357-7.5 7.5s3.358 7.5 7.5 7.5h26.665c4.143 0 7.5-3.357 7.5-7.5s-3.358-7.5-7.5-7.5z"></path><path d="m266.522 102.385h-26.665c-4.142 0-7.5 3.357-7.5 7.5s3.358 7.5 7.5 7.5h26.665c4.143 0 7.5-3.357 7.5-7.5s-3.358-7.5-7.5-7.5z"></path><path d="m266.522 223.069h-26.665c-4.142 0-7.5 3.357-7.5 7.5s3.358 7.5 7.5 7.5h26.665c4.143 0 7.5-3.357 7.5-7.5s-3.358-7.5-7.5-7.5z"></path><path d="m266.522 196.183h-26.665c-4.142 0-7.5 3.357-7.5 7.5s3.358 7.5 7.5 7.5h26.665c4.143 0 7.5-3.357 7.5-7.5s-3.358-7.5-7.5-7.5z"></path><path d="m266.522 316.867h-26.665c-4.142 0-7.5 3.357-7.5 7.5s3.358 7.5 7.5 7.5h26.665c4.143 0 7.5-3.357 7.5-7.5s-3.358-7.5-7.5-7.5z"></path><path d="m266.522 289.982h-26.665c-4.142 0-7.5 3.357-7.5 7.5s3.358 7.5 7.5 7.5h26.665c4.143 0 7.5-3.357 7.5-7.5s-3.358-7.5-7.5-7.5z"></path><path d="m504.501 93.798h-25.099c-4.143 0-7.5 3.357-7.5 7.5s3.357 7.5 7.5 7.5h17.599v29.06h-74.599v-29.06h28c4.143 0 7.5-3.357 7.5-7.5s-3.357-7.5-7.5-7.5h-155.098c-4.143 0-7.5 3.357-7.5 7.5v44.06c0 4.143 3.357 7.5 7.5 7.5h209.197c4.143 0 7.5-3.357 7.5-7.5v-44.06c0-4.142-3.357-7.5-7.5-7.5zm-201.697 44.06v-29.06h104.599v29.06z"></path></g></g></svg>