<svg xmlns="http://www.w3.org/2000/svg" id="Capa_1" height="512" viewBox="0 0 512.006 512.006" width="512"><g><g><path d="m338.475 316.484 6.494 11.109 22.753-13.301 12.113-7.081c9.908-5.792 13.245-18.52 7.453-28.428l-8.924-15.267 39.04 14.022c24.538 8.813 42.207 30.598 45.444 56.469 3.39 27.099 3.669 55.385.986 84.801l-64.954 37.969-13.76-23.54c-3.26-5.577-7.791-10.305-13.224-13.799l-16.473-10.594c-8.893-5.719-15.897-13.94-20.131-23.629l-18.089-41.394-5.907-13.518c-3.101-7.096-.399-15.39 6.287-19.298 7.283-4.254 16.636-1.802 20.892 5.479z" fill="#ffe6c2"></path><path d="m463.835 418.81c.67-7.343 1.155-14.616 1.453-21.817-1.666-.028-3.359.374-4.902 1.276l-71.333 41.697 9.828 16.813z" fill="#ffd3a3"></path><path d="m392.623 471.342 17.378 28.498c2.624 4.489 8.39 6.001 12.879 3.377l76.955-44.984c4.489-2.624 6.001-8.39 3.377-12.879l-17.378-28.498c-2.624-4.489-8.39-6.001-12.879-3.377l-76.955 44.984c-4.489 2.624-6.001 8.39-3.377 12.879z" fill="#6ce79a"></path><path d="m405.924 494.095-13.3-22.753c-2.624-4.489-1.112-10.255 3.377-12.879l76.954-44.984c4.489-2.624 10.255-1.112 12.879 3.377l5.488 9.388c-19.117 9.726-63.185 34.672-85.398 67.851z" fill="#00d8a2"></path><path d="m415.628 271.334-63.507-94.607c-4.271-6.363-12.892-8.059-19.255-3.788l-24.362 16.354c-3.523 2.365-4.462 7.139-2.097 10.663l8.796 13.104c7.251 10.802 4.372 25.437-6.43 32.688-10.802 7.25-25.436 4.372-32.687-6.43l-8.796-13.104c-2.365-3.523-7.139-4.462-10.662-2.097l-18.369 12.33c-6.363 4.271-8.059 12.893-3.787 19.256l13.402 19.965c2.317 3.452 1.397 8.129-2.055 10.446l-14.837 9.96c-11.12 7.464-14.452 22.185-7.927 33.638 7.437 13.053 24.356 16.513 36.83 8.14l14.245-9.562c3.452-2.317 8.129-1.397 10.446 2.055l13.402 19.966c4.271 6.363 12.892 8.059 19.255 3.787l3.449-2.315-9.385-21.476c-3.101-7.096-.399-15.39 6.287-19.298 7.281-4.256 16.634-1.804 20.89 5.477l9.804 16.772 63.562-42.667c6.364-4.273 8.06-12.894 3.788-19.257z" fill="#ff7383"></path><path d="m245.447 173.889v-17.157c0-4.158 3.37-7.528 7.528-7.528h24.047c7.664 0 13.876-6.213 13.876-13.876v-113.946c0-7.664-6.213-13.876-13.876-13.876h-113.946c-7.664 0-13.876 6.213-13.876 13.876v113.946c0 7.664 6.213 13.876 13.876 13.876h24.047c4.158 0 7.528 3.37 7.528 7.528v17.87c0 13.392 10.365 24.363 23.511 25.329 14.982 1.101 27.285-11.019 27.285-26.042z" fill="#6ce79a"></path><path d="m173.884 52.998h-17.157c-4.158 0-7.528-3.37-7.528-7.528v-24.047c0-7.664-6.213-13.876-13.876-13.876h-113.946c-7.664 0-13.877 6.212-13.877 13.876v113.946c0 7.664 6.213 13.876 13.876 13.876h113.946c7.664 0 13.876-6.213 13.876-13.876v-24.047c0-4.158 3.37-7.528 7.528-7.528h17.87c13.392 0 24.363-10.365 25.329-23.511 1.102-14.983-11.018-27.285-26.041-27.285z" fill="#fff485"></path><path d="m102.177 216.442c0-13.01 10.547-23.556 23.556-23.556h15.782c4.244 0 7.684-3.44 7.684-7.684v-22.123c0-7.664-6.213-13.876-13.876-13.876h-24.047c-4.158 0-7.528-3.37-7.528-7.528v-17.87c0-13.392-10.365-24.364-23.511-25.329-14.983-1.1-27.285 11.019-27.285 26.042v17.157c0 4.158-3.37 7.528-7.528 7.528h-24.047c-7.664 0-13.876 6.213-13.876 13.876v113.946c0 7.664 6.213 13.876 13.876 13.876h113.946c7.664 0 13.876-6.213 13.876-13.876v-29.342c0-4.244-3.44-7.684-7.684-7.684h-15.782c-13.01 0-23.556-10.547-23.556-23.557z" fill="#ffab56"></path></g><g><path d="m509.687 441.569c-.023-.04-.047-.08-.071-.119l-17.347-28.448c-2.283-3.864-5.929-6.617-10.272-7.756-3.225-.845-6.549-.727-9.638.31 1.507-25.113.816-49.434-2.067-72.478-3.355-26.817-20.939-50.103-45.922-60.851-.602-1.772-1.442-3.477-2.513-5.073l-16.523-24.616c-2.31-3.44-6.972-4.355-10.407-2.048-3.439 2.309-4.356 6.969-2.048 10.407l16.523 24.616c.95 1.415 1.292 3.114.963 4.785-.328 1.671-1.288 3.113-2.702 4.062l-56.936 38.219-5.776-9.88c-6.347-10.864-20.287-14.519-31.149-8.168-9.967 5.826-13.997 18.197-9.374 28.775l6.739 15.422c-2.565.693-5.401-.277-6.96-2.601l-13.401-19.966c-4.619-6.88-13.974-8.721-20.854-4.103l-14.245 9.562c-4.405 2.958-9.822 3.975-14.867 2.788-4.819-1.133-8.821-4.121-11.267-8.413-4.609-8.09-2.154-18.499 5.59-23.697l14.837-9.959c6.878-4.618 8.718-13.973 4.101-20.854l-13.401-19.964c-1.96-2.92-1.18-6.89 1.739-8.849l18.369-12.33c.084-.057.199-.034.255.05l8.796 13.104c9.546 14.218 28.877 18.02 43.095 8.478 14.219-9.545 18.021-28.877 8.478-43.095l-8.796-13.104c-.049-.072-.022-.208.049-.256l24.362-16.354c2.917-1.958 6.89-1.18 8.849 1.74l30.818 45.911c2.309 3.44 6.971 4.354 10.407 2.048 3.439-2.309 4.356-6.969 2.048-10.407l-30.818-45.911c-6.569-9.786-19.876-12.405-29.663-5.836l-24.362 16.354c-3.368 2.261-5.653 5.698-6.436 9.678-.783 3.979.031 8.025 2.291 11.393l8.796 13.104c4.935 7.352 2.969 17.346-4.382 22.28-7.353 4.936-17.347 2.968-22.28-4.382l-8.796-13.104c-2.261-3.368-5.697-5.653-9.677-6.437-3.979-.784-8.025.032-11.393 2.291l-18.369 12.33c-4.741 3.183-7.959 8.021-9.061 13.624-1.103 5.603.044 11.299 3.227 16.04l13.395 20.003-14.838 9.96c-14.234 9.555-18.742 28.696-10.264 43.578 4.533 7.955 11.944 13.491 20.867 15.589 9.089 2.139 18.806.337 26.659-4.935l14.284-9.555 13.402 19.967c4.12 6.138 10.891 9.455 17.78 9.455 2.581 0 5.179-.466 7.66-1.423l11.23 25.699c4.842 11.08 12.776 20.395 22.947 26.934l16.473 10.594c4.418 2.842 8.154 6.741 10.806 11.276l10.234 17.508c-2.154 2.113-3.706 4.775-4.491 7.77-1.146 4.37-.521 8.925 1.759 12.826.023.04.047.08.071.119l17.347 28.447c3.15 5.332 8.798 8.307 14.592 8.307 2.897 0 5.831-.744 8.508-2.309l38.144-22.297c3.576-2.09 4.78-6.684 2.689-10.26-2.09-3.575-6.682-4.78-10.26-2.689l-38.144 22.297c-.909.533-2.088.226-2.62-.688-.023-.039-.047-.079-.071-.118l-17.329-28.418c-.307-.552-.266-1.07-.177-1.412.092-.351.32-.837.887-1.168l76.955-44.983c.565-.332 1.1-.29 1.451-.199.35.092.837.32 1.168.887.023.04.047.08.071.119l17.328 28.416c.502.906.19 2.057-.709 2.582l-13.774 8.052c-3.576 2.09-4.78 6.684-2.689 10.26 2.09 3.575 6.682 4.78 10.26 2.689l13.774-8.052c3.9-2.279 6.68-5.942 7.825-10.312 1.146-4.372.521-8.926-1.759-12.828zm-133.733-28.438-16.473-10.594c-7.675-4.935-13.662-11.962-17.315-20.323l-23.996-54.912c-1.577-3.61-.201-7.832 3.2-9.82 3.701-2.162 8.457-.928 10.63 2.788l28.297 48.408c2.09 3.575 6.682 4.779 10.26 2.689 3.576-2.09 4.78-6.684 2.689-10.26l-14.937-25.552 57.711-38.739c3.2-2.147 5.707-5.05 7.336-8.434 17.485 9.427 29.579 26.804 32.049 46.557 3.135 25.059 3.569 51.736 1.292 79.355l-55.127 32.224-9.976-17.065c-3.835-6.564-9.244-12.208-15.64-16.322z"></path><path d="m220.075 207.502c8.228 0 16.001-3.051 22.109-8.727 6.839-6.355 10.762-15.426 10.762-24.887l.028-17.185h24.047c11.787 0 21.376-9.59 21.376-21.377v-113.944c0-11.787-9.589-21.376-21.376-21.376h-113.946c-5.303 0-10.16 1.941-13.9 5.149-3.734-3.184-8.573-5.108-13.853-5.108h-60.902c-4.143 0-7.5 3.357-7.5 7.5s3.357 7.5 7.5 7.5h60.902c3.517 0 6.377 2.86 6.377 6.376v24.047c0 8.287 6.741 15.028 15.027 15.028h17.157c5.306 0 10.371 2.177 13.897 5.972 3.37 3.627 5.026 8.337 4.665 13.265-.682 9.286-8.522 16.56-17.85 16.56h-17.87c-8.286 0-15.027 6.741-15.027 15.028v24.047c0 3.296-2.515 6.017-5.727 6.343l-24.724-.038v-17.87c0-17.144-13.381-31.556-30.461-32.809-9.148-.669-17.86 2.396-24.575 8.636-6.839 6.355-10.761 15.426-10.761 24.886l-.027 17.185-24.697.01c-3.213-.327-5.727-3.047-5.727-6.343v-113.947c0-3.516 2.86-6.376 6.377-6.376h24.044c4.143 0 7.5-3.357 7.5-7.5s-3.357-7.5-7.5-7.5h-24.043c-11.787 0-21.377 9.589-21.377 21.376v113.946c0 5.281 1.925 10.121 5.111 13.855-3.186 3.734-5.111 8.574-5.111 13.855v113.945c0 11.787 9.59 21.377 21.377 21.377h113.945c11.787 0 21.377-9.59 21.377-21.377v-29.342c0-8.372-6.812-15.184-15.185-15.184h-15.781c-8.854 0-16.057-7.203-16.057-16.057s7.203-16.057 16.057-16.057h15.781c8.373 0 15.185-6.812 15.185-15.184v-22.123c0-2.782-.534-5.441-1.505-7.881 2.44.971 5.099 1.506 7.881 1.506l24.075.028v17.87c0 17.143 13.38 31.554 30.461 32.809.827.063 1.647.093 2.464.093zm-78.376-22.3c0 .102-.083.184-.185.184h-15.781c-17.125 0-31.057 13.932-31.057 31.057s13.932 31.057 31.057 31.057h15.781c.102 0 .185.082.185.184v29.342c0 3.517-2.86 6.377-6.377 6.377h-113.945c-3.517 0-6.377-2.86-6.377-6.377v-113.947c0-3.297 2.515-6.018 5.727-6.344.796.024.003-.033 24.697-.033 8.286 0 15.027-6.741 15.027-15.027v-17.157c0-5.306 2.177-10.37 5.972-13.897 3.627-3.37 8.339-5.029 13.266-4.665 9.286.682 16.56 8.522 16.56 17.85v17.87c0 8.286 6.741 15.027 15.027 15.027 24.696 0 23.899.057 24.697.033 3.213.327 5.727 3.047 5.727 6.344v22.122zm60.451-10.599v-17.87c0-8.287-6.741-15.028-15.028-15.028h-24.047c-3.514 0-6.374-2.858-6.376-6.374l.027-24.037h17.87c17.144 0 31.556-13.381 32.809-30.461.671-9.132-2.396-17.859-8.636-24.574-6.354-6.839-15.425-10.761-24.886-10.761l-17.185-.028v-24.047c0-.009 0-.018 0-.027 0-.005 0-.009 0-.014 0-3.516 2.86-6.376 6.376-6.376h113.946c3.516 0 6.376 2.86 6.376 6.376v113.945c0 3.517-2.86 6.377-6.376 6.377h-24.047c-8.287 0-15.028 6.741-15.028 15.028v17.156c0 5.306-2.177 10.371-5.973 13.898-3.626 3.369-8.344 5.021-13.263 4.665-9.284-.681-16.559-8.522-16.559-17.848z"></path></g></g></svg>