<svg xmlns="http://www.w3.org/2000/svg" id="Capa_1" height="512" viewBox="0 0 512.003 512.003" width="512"><g><g><path d="m346.232 363.949c11.807 0 11.807 8.804 23.614 8.804s11.807-8.804 23.613-8.804c11.808 0 11.808 8.804 23.616 8.804 10.94 0 11.751-7.551 21.2-8.663-14.066-24.738-29.082-48.29-45.21-70.45-11.474-15.765-34.959-15.765-46.433 0-16.128 22.16-31.143 45.712-45.21 70.45 9.447 1.112 10.258 8.663 21.196 8.663 11.807 0 11.807-8.804 23.614-8.804z" fill="#b7efff"></path><path d="m358.456 284.159c10.209 15.629 31.245 48.747 52.367 87.532 1.69.648 3.694 1.062 6.253 1.062 10.94 0 11.751-7.551 21.2-8.663-14.066-24.738-29.082-48.29-45.21-70.45-8.289-11.388-22.842-14.545-34.61-9.481z" fill="#68e7fd"></path><path d="m504.502 504.5c-19.708-49.764-41.5-96.922-66.227-140.409-9.449 1.112-10.26 8.663-21.2 8.663-11.808 0-11.808-8.804-23.616-8.804-11.807 0-11.807 8.804-23.613 8.804-11.807 0-11.807-8.804-23.614-8.804-11.806 0-11.806 8.804-23.613 8.804-10.938 0-11.749-7.551-21.196-8.663-24.727 43.487-46.519 90.645-66.227 140.409z" fill="#6c5e69"></path><path d="m438.275 364.09c-9.449 1.112-10.26 8.663-21.2 8.663-2.559 0-4.563-.415-6.253-1.062 23.237 42.67 46.569 92.188 55.688 132.809h37.992c-19.708-49.764-41.5-96.923-66.227-140.41z" fill="#574d56"></path><path d="m235.196 504.5h105.148c-16.026-40.468-33.275-79.408-52.083-116.397-19.396 36.663-36.93 75.655-53.065 116.397z" fill="#574d56"></path><path d="m133.624 344.853c13.411 0 13.411 10 26.822 10s13.411-10 26.822-10c13.413 0 13.413 10 26.825 10 12.426 0 13.348-8.577 24.08-9.84-15.978-28.1-33.033-54.851-51.352-80.022-13.033-17.907-39.709-17.907-52.741 0-18.319 25.171-35.375 51.923-51.352 80.022 10.73 1.263 11.652 9.84 24.076 9.84 13.409 0 13.409-10 26.82-10z" fill="#b7efff"></path><path d="m313.399 504.5c-22.386-56.526-47.138-110.091-75.225-159.487-10.732 1.263-11.654 9.84-24.08 9.84-13.413 0-13.413-10-26.825-10-13.411 0-13.411 10-26.822 10s-13.411-10-26.822-10-13.411 10-26.821 10c-12.424 0-13.345-8.577-24.076-9.84-28.087 49.395-52.84 102.961-75.226 159.487z" fill="#6c5e69"></path><path d="m342.434 169.401h-97.046v-75.303h97.046c5.267 0 9.538 4.27 9.538 9.538v56.228c-.001 5.267-4.271 9.537-9.538 9.537z" fill="#ff7383"></path><path d="m342.434 94.098h-9.549c.661 25.883-2.807 56.433-12.298 75.303h21.847c5.267 0 9.538-4.27 9.538-9.538v-56.228c-.001-5.267-4.271-9.537-9.538-9.537z" fill="#ff546a"></path></g><g><path d="m462.871 393.788c-18.565-36.027-39.703-71.532-63.741-104.562-6.896-9.476-17.569-14.91-29.28-14.91-11.712 0-22.385 5.435-29.281 14.91-24.926 34.25-46.659 71.015-65.89 108.758-7.126-14.465-14.379-28.438-21.791-41.986v-114.484c11.911 4.988 24.8 8.091 38.292 8.934v5.552c0 4.143 3.357 7.5 7.5 7.5s7.5-3.357 7.5-7.5v-5.552c59.619-3.728 107.472-51.579 111.199-111.198h5.551c4.143 0 7.5-3.357 7.5-7.5s-3.357-7.5-7.5-7.5h-5.551c-3.728-59.619-51.58-107.472-111.199-111.199v-5.551c0-4.143-3.357-7.5-7.5-7.5s-7.5 3.357-7.5 7.5v5.551c-59.62 3.728-107.472 51.58-111.2 111.199h-5.551c-4.143 0-7.5 3.357-7.5 7.5s3.357 7.5 7.5 7.5h5.551c2.516 40.242 25.135 75.122 57.907 94.691v95.591c-14.43-24.555-29.535-47.702-45.002-68.956-7.64-10.497-19.462-16.517-32.436-16.517-12.973 0-24.795 6.02-32.434 16.517-5.183 7.12-10.368 14.53-15.853 22.655-2.317 3.434-1.412 8.096 2.021 10.413 3.436 2.316 8.095 1.412 10.413-2.021 5.384-7.977 10.469-15.245 15.547-22.222 4.783-6.573 12.185-10.343 20.306-10.343 8.122 0 15.523 3.77 20.307 10.343 15.986 21.966 31.588 46.01 46.448 71.578-1.62.958-2.982 1.972-4.174 2.859-3.041 2.265-4.717 3.513-8.938 3.513-4.219 0-5.892-1.248-8.931-3.513-3.672-2.738-8.7-6.487-17.895-6.487s-14.223 3.75-17.895 6.487c-3.037 2.265-4.711 3.513-8.928 3.513s-5.891-1.248-8.928-3.513c-3.672-2.737-8.7-6.487-17.895-6.487-9.193 0-14.222 3.75-17.894 6.487-3.037 2.265-4.711 3.513-8.928 3.513-4.22 0-5.895-1.247-8.936-3.512-1.191-.887-2.552-1.9-4.17-2.857 4.924-8.466 9.995-16.876 15.132-25.091 2.196-3.513 1.129-8.14-2.383-10.336-3.514-2.195-8.139-1.129-10.336 2.383-37.979 60.754-68.879 126.388-95.576 193.801-1.525 3.852.36 8.21 4.211 9.734 3.85 1.528 8.21-.36 9.734-4.211 22.851-57.7 46.364-107.904 71.788-153.256.823.508 1.659 1.13 2.646 1.864 3.673 2.736 8.703 6.482 17.895 6.482 9.194 0 14.223-3.75 17.895-6.487 3.037-2.265 4.71-3.513 8.927-3.513s5.891 1.248 8.928 3.513c3.672 2.737 8.7 6.487 17.895 6.487s14.223-3.75 17.895-6.487c3.037-2.265 4.711-3.513 8.928-3.513 4.218 0 5.892 1.248 8.929 3.513 3.673 2.737 8.701 6.487 17.896 6.487 9.192 0 14.224-3.746 17.896-6.481.987-.735 1.824-1.358 2.647-1.866 25.424 45.352 48.938 95.557 71.789 153.257 1.166 2.944 3.988 4.74 6.975 4.74.919 0 1.854-.17 2.76-.529 3.851-1.524 5.736-5.883 4.211-9.734-12.232-30.887-24.659-59.662-37.469-86.723.05-.092.099-.185.146-.279 7.082-14.295 14.4-28.209 21.798-41.446.447.311.932.669 1.482 1.078 3.334 2.483 7.9 5.885 16.29 5.885 8.392 0 12.957-3.404 16.29-5.89 2.602-1.94 3.908-2.914 7.322-2.914 3.416 0 4.722.974 7.324 2.915 3.334 2.485 7.898 5.889 16.29 5.889s12.957-3.404 16.29-5.89c2.603-1.94 3.908-2.914 7.323-2.914 3.416 0 4.723.974 7.326 2.915 3.333 2.485 7.898 5.889 16.29 5.889 8.391 0 12.958-3.4 16.292-5.884.552-.411 1.036-.769 1.484-1.08 4.964 8.882 9.89 18.062 14.686 27.37 1.897 3.681 6.422 5.13 10.103 3.231 3.68-1.898 5.127-6.42 3.23-10.103zm-267.857-254.538h5.048c4.143 0 7.5-3.357 7.5-7.5s-3.357-7.5-7.5-7.5h-5.048c3.679-51.345 44.82-92.487 96.165-96.166v5.048c0 4.143 3.357 7.5 7.5 7.5s7.5-3.357 7.5-7.5v-5.048c51.345 3.679 92.487 44.82 96.165 96.166h-5.048c-4.143 0-7.5 3.357-7.5 7.5s3.357 7.5 7.5 7.5h5.048c-3.679 51.344-44.82 92.486-96.165 96.165v-5.048c0-4.143-3.357-7.5-7.5-7.5s-7.5 3.357-7.5 7.5v5.048c-13.657-.979-26.592-4.607-38.292-10.374v-48.14h89.547c9.395 0 17.037-7.644 17.037-17.038v-56.228c0-9.395-7.643-17.037-17.037-17.037h-32.999c-4.143 0-7.5 3.357-7.5 7.5s3.357 7.5 7.5 7.5h32.999c1.123 0 2.037.914 2.037 2.037v56.228c0 1.124-.914 2.038-2.037 2.038h-89.547v-60.303h27.548c4.143 0 7.5-3.357 7.5-7.5s-3.357-7.5-7.5-7.5h-27.548v-6.978c0-4.143-3.357-7.5-7.5-7.5s-7.5 3.357-7.5 7.5v136.383c-24.216-17.52-40.613-45.211-42.873-76.753zm222.061 226.003c-3.416 0-4.722-.974-7.324-2.914-3.334-2.485-7.899-5.89-16.292-5.89-8.392 0-12.957 3.404-16.29 5.89-2.603 1.94-3.908 2.914-7.323 2.914s-4.721-.974-7.323-2.914c-3.334-2.485-7.898-5.89-16.291-5.89-8.392 0-12.956 3.404-16.289 5.89-2.603 1.94-3.908 2.914-7.323 2.914-3.417 0-4.726-.974-7.331-2.914-.88-.656-1.862-1.387-2.992-2.106 12.937-22.202 26.504-43.086 40.4-62.18 4.042-5.552 10.293-8.736 17.153-8.736 6.859 0 13.11 3.185 17.151 8.736 13.897 19.094 27.464 39.978 40.4 62.18-1.13.718-2.112 1.45-2.992 2.105-2.607 1.942-3.915 2.915-7.334 2.915z"></path><path d="m511.474 501.739c-11.251-28.413-22.986-55.43-34.88-80.298-1.786-3.737-6.265-5.319-10.001-3.53-3.737 1.786-5.317 6.265-3.531 10.001 11.745 24.559 23.341 51.256 34.467 79.351 1.166 2.944 3.988 4.74 6.975 4.74.919 0 1.854-.17 2.76-.529 3.85-1.526 5.736-5.884 4.21-9.735z"></path></g></g></svg>