<svg xmlns="http://www.w3.org/2000/svg" id="Capa_1" height="512" viewBox="0 0 512 512" width="512"><g><g><path d="m256 32.922c-123.202 0-223.077 99.875-223.077 223.078s99.875 223.077 223.077 223.077 223.077-99.875 223.077-223.077-99.875-223.078-223.077-223.078zm0 417.806c-107.545 0-194.728-87.183-194.728-194.728s87.183-194.729 194.728-194.729 194.728 87.183 194.728 194.729-87.182 194.728-194.728 194.728z" fill="#6c5e69"></path><g><path d="m264.258 88.935h-16.516c-4.377 0-7.926-3.548-7.926-7.925v-65.585c0-4.377 3.548-7.926 7.926-7.926h16.516c4.377 0 7.926 3.548 7.926 7.926v65.585c0 4.377-3.549 7.925-7.926 7.925z" fill="#ff7383"></path></g><g><path d="m423.065 264.258v-16.516c0-4.377 3.548-7.925 7.926-7.925h65.585c4.377 0 7.926 3.548 7.926 7.925v16.516c0 4.377-3.548 7.926-7.926 7.926h-65.586c-4.377-.001-7.925-3.549-7.925-7.926z" fill="#ff7383"></path></g><g><path d="m247.742 423.064h16.516c4.377 0 7.926 3.548 7.926 7.926v65.585c0 4.377-3.548 7.926-7.926 7.926h-16.516c-4.377 0-7.926-3.548-7.926-7.926v-65.585c.001-4.378 3.549-7.926 7.926-7.926z" fill="#ff7383"></path></g><g><path d="m88.936 247.742v16.516c0 4.377-3.548 7.926-7.926 7.926h-65.584c-4.377 0-7.926-3.548-7.926-7.926v-16.516c0-4.377 3.548-7.925 7.926-7.925h65.585c4.377-.001 7.925 3.547 7.925 7.925z" fill="#ff7383"></path></g><path d="m387.629 263.116-21.873 21.873c-60.616 60.616-158.894 60.616-219.511 0l-21.873-21.873c-3.93-3.931-3.93-10.303 0-14.234l21.873-21.873c60.616-60.616 158.894-60.616 219.511 0l21.873 21.873c3.93 3.931 3.93 10.304 0 14.234z" fill="#faf7f8"></path><path d="m293.952 325.755c26.309-6.607 51.227-20.19 71.803-40.766l21.873-21.873c3.931-3.931 3.931-10.303 0-14.233l-21.873-21.873c-23.038-23.038-51.517-37.31-81.3-42.836l27.162 33.401c18.489 22.736 19.638 54.982 2.813 78.977z" fill="#f0eef0"></path><circle cx="256" cy="256" fill="#6c5e69" r="46.239"></circle><path d="m280.422 216.741c1.702 4.606 2.634 9.584 2.634 14.782 0 23.561-19.1 42.661-42.661 42.661-11.844 0-22.559-4.83-30.289-12.624 2.748 22.914 22.24 40.679 45.894 40.679 25.537 0 46.239-20.702 46.239-46.239 0-16.57-8.721-31.095-21.817-39.259z" fill="#574d56"></path></g><g><path d="m496.575 232.316h-11.213c-5.382-52.544-28.772-101.799-66.327-139.353-37.553-37.554-86.808-60.945-139.353-66.327v-11.211c.002-8.505-6.918-15.425-15.423-15.425h-16.517c-8.506 0-15.426 6.92-15.426 15.425v11.209c-22.415 2.289-44.25 7.82-65.005 16.476-3.823 1.594-5.63 5.985-4.035 9.809 1.2 2.88 3.988 4.615 6.925 4.615.962 0 1.94-.187 2.884-.58 18.925-7.893 38.814-13.005 59.231-15.236v13.439c-44.967 5.27-87.106 25.654-119.306 57.852-32.199 32.2-52.583 74.339-57.851 119.307h-13.444c7.427-67.864 46.691-128.325 106.218-162.883 3.582-2.08 4.8-6.67 2.721-10.252s-6.67-4.797-10.252-2.721c-64.138 37.236-106.281 102.599-113.77 175.856h-11.206c-8.506 0-15.426 6.92-15.426 15.425v16.517c0 8.505 6.92 15.425 15.426 15.425h11.212c5.382 52.545 28.772 101.799 66.327 139.354 37.553 37.553 86.807 60.943 139.352 66.326v11.212c0 8.506 6.92 15.426 15.426 15.426h16.517c8.505 0 15.425-6.92 15.425-15.426v-11.212c52.545-5.382 101.799-28.772 139.353-66.326 37.554-37.555 60.945-86.809 66.327-139.354h11.212c8.505 0 15.425-6.92 15.425-15.425v-16.517c-.002-8.505-6.922-15.425-15.427-15.425zm-26.296 0h-13.437c-5.269-44.967-25.653-87.107-57.851-119.307-32.2-32.199-74.34-52.583-119.307-57.852v-13.436c99.649 10.947 179.648 90.946 190.595 190.595zm-222.537-217.316h16.517c.234 0 .425.19.425.425v65.585c0 .234-.19.426-.425.426h-16.517c-.234 0-.426-.191-.426-.426v-65.585c0-.235.192-.425.426-.425zm-15.426 55.263v10.747c0 8.506 6.92 15.426 15.426 15.426h16.517c8.505 0 15.425-6.92 15.425-15.426v-10.747c84.975 10.651 151.402 77.079 162.053 162.054h-10.747c-8.506 0-15.426 6.92-15.426 15.425v16.517c0 8.505 6.92 15.425 15.426 15.425h10.746c-10.65 84.975-77.078 151.402-162.053 162.053v-10.746c0-8.506-6.92-15.426-15.425-15.426h-16.517c-8.506 0-15.426 6.92-15.426 15.426v10.746c-84.975-10.651-151.402-77.079-162.052-162.053h10.746c8.506 0 15.426-6.92 15.426-15.425v-16.517c0-8.505-6.92-15.425-15.426-15.425h-10.745c10.651-84.975 77.078-151.402 162.052-162.054zm-217.316 193.995v-16.517c0-.234.191-.425.426-.425h65.585c.234 0 .426.19.426.425v16.517c0 .234-.191.425-.426.425h-65.585c-.235 0-.426-.191-.426-.425zm26.722 15.425h13.437c5.268 44.968 25.652 87.108 57.851 119.307 32.199 32.198 74.339 52.583 119.306 57.851v13.438c-99.649-10.949-179.647-90.947-190.594-190.596zm222.962 216.891c0 .234-.19.426-.425.426h-16.517c-.234 0-.426-.191-.426-.426v-65.585c0-.234.191-.426.426-.426h16.517c.234 0 .425.191.425.426zm15-26.296v-13.438c44.967-5.268 87.107-25.652 119.307-57.851 32.199-32.199 52.583-74.339 57.851-119.307h13.437c-10.947 99.651-90.946 179.649-190.595 190.596zm217.316-206.02c0 .234-.19.425-.425.425h-65.585c-.234 0-.426-.19-.426-.425v-16.517c0-.234.191-.425.426-.425h65.585c.234 0 .425.19.425.425z"></path><path d="m256 161.655c4.143 0 7.5-3.357 7.5-7.5v-26.753c0-4.143-3.357-7.5-7.5-7.5s-7.5 3.357-7.5 7.5v26.753c0 4.143 3.357 7.5 7.5 7.5z"></path><path d="m171.275 174.265c1.185 2.911 3.989 4.676 6.95 4.676.94 0 1.897-.179 2.823-.555 3.837-1.562 5.682-5.937 4.121-9.773l-10.235-25.158c-1.561-3.836-5.933-5.683-9.773-4.121-3.837 1.562-5.682 5.937-4.121 9.773z"></path><path d="m330.952 178.386c.926.376 1.882.555 2.823.555 2.961 0 5.766-1.765 6.95-4.676l10.235-25.158c1.561-3.837-.284-8.212-4.121-9.773-3.836-1.557-8.212.284-9.773 4.121l-10.235 25.158c-1.56 3.836.284 8.211 4.121 9.773z"></path><path d="m256 350.344c-4.143 0-7.5 3.357-7.5 7.5v26.753c0 4.143 3.357 7.5 7.5 7.5s7.5-3.357 7.5-7.5v-26.753c0-4.143-3.357-7.5-7.5-7.5z"></path><path d="m340.726 337.734c-1.562-3.836-5.934-5.681-9.773-4.121-3.837 1.562-5.682 5.937-4.121 9.773l10.235 25.158c1.185 2.911 3.989 4.676 6.95 4.676.94 0 1.897-.179 2.823-.555 3.837-1.562 5.682-5.937 4.121-9.773z"></path><path d="m181.049 333.613c-3.838-1.558-8.212.284-9.773 4.121l-10.235 25.158c-1.561 3.837.284 8.212 4.121 9.773.926.376 1.882.555 2.823.555 2.961 0 5.766-1.765 6.95-4.676l10.235-25.158c1.56-3.836-.284-8.211-4.121-9.773z"></path><path d="m256 294.738c-9.574 0-18.767-3.524-25.885-9.925-3.082-2.77-7.823-2.516-10.592.562-2.77 3.08-2.518 7.822.562 10.592 9.877 8.88 22.631 13.771 35.914 13.771 29.632 0 53.739-24.106 53.739-53.738s-24.106-53.739-53.738-53.739-53.738 24.107-53.738 53.739c0 3.586.358 7.181 1.066 10.684.819 4.061 4.786 6.69 8.836 5.867 4.061-.82 6.688-4.776 5.867-8.836-.511-2.528-.77-5.124-.77-7.715 0-21.361 17.378-38.739 38.738-38.739 21.361 0 38.739 17.378 38.739 38.739.001 21.36-17.377 38.738-38.738 38.738z"></path><path d="m140.941 290.293c31.723 31.722 73.391 47.582 115.06 47.582 41.668 0 83.336-15.86 115.059-47.582l21.873-21.873c3.317-3.318 5.145-7.729 5.145-12.42 0-4.692-1.827-9.103-5.145-12.421l-20.012-20.012c-2.93-2.928-7.678-2.928-10.607 0-2.929 2.93-2.929 7.678 0 10.607l20.012 20.012c1 1 1 2.627 0 3.626l-21.873 21.873c-57.594 57.598-151.31 57.596-208.903 0l-21.873-21.873c-.654-.653-.752-1.416-.752-1.812 0-.397.098-1.16.752-1.813l21.873-21.873c51.05-51.051 130.806-57.881 189.643-16.244 3.38 2.395 8.062 1.591 10.454-1.79s1.592-8.062-1.79-10.454c-30.957-21.908-68.941-32.301-106.944-29.249-38.445 3.082-74.659 19.82-101.97 47.13l-21.873 21.873c-6.848 6.849-6.848 17.992 0 24.841z"></path></g></g></svg>