<?xml version="1.0" encoding="utf-8"?>
<!-- Generator: Adobe Illustrator 25.3.1, SVG Export Plug-In . SVG Version: 6.00 Build 0)  -->
<svg version="1.1" id="Layer_1" xmlns="http://www.w3.org/2000/svg" xmlns:xlink="http://www.w3.org/1999/xlink" x="0px" y="0px"
	 viewBox="0 0 772 572" style="enable-background:new 0 0 772 572;" xml:space="preserve">
<style type="text/css">
	.st0{fill:none;}
	.st1{fill:none;stroke:#000000;stroke-width:1.7;stroke-linecap:round;stroke-linejoin:round;stroke-miterlimit:10;}
	.st2{stroke:#000000;stroke-width:2;stroke-linejoin:round;stroke-miterlimit:10;}
	.st3{fill:#E07248;stroke:#000000;stroke-width:2;stroke-linejoin:round;stroke-miterlimit:10;}
	.st4{fill:#FFBD48;stroke:#000000;stroke-width:2;stroke-linejoin:round;stroke-miterlimit:10;}
	.st5{fill:#FFA6AC;stroke:#000000;stroke-width:2;stroke-linejoin:round;stroke-miterlimit:10;}
	.st6{fill:none;stroke:#000000;stroke-width:2;stroke-linejoin:round;stroke-miterlimit:10;}
	.st7{fill:#9F5992;stroke:#000000;stroke-width:2;stroke-linejoin:round;stroke-miterlimit:10;}
	.st8{fill:url(#SVGID_1_);stroke:#000000;stroke-width:2;stroke-linecap:round;stroke-linejoin:round;stroke-miterlimit:10;}
	.st9{fill:none;stroke:#000000;stroke-width:2;stroke-linecap:round;stroke-linejoin:round;stroke-miterlimit:10;}
	.st10{fill:#FFFFFF;stroke:#000000;stroke-width:2;stroke-linejoin:round;stroke-miterlimit:10;}
	.st11{fill:#9CEFF3;stroke:#000000;stroke-width:2;stroke-linejoin:round;stroke-miterlimit:10;}
	.st12{fill:none;stroke:#000000;stroke-width:1.948;stroke-linejoin:round;stroke-miterlimit:10;}
	.st13{fill:none;stroke:#000000;stroke-width:1.9665;stroke-linejoin:round;stroke-miterlimit:10;}
	.st14{fill:#FFFFFF;stroke:#010101;stroke-width:2;stroke-linejoin:round;}
	.st15{fill:url(#SVGID_2_);stroke:#000000;stroke-width:2;stroke-linecap:round;stroke-linejoin:round;stroke-miterlimit:10;}
	.st16{fill:none;stroke:#010101;stroke-width:2;stroke-linejoin:round;}
	.st17{fill:#FF0000;}
	.st18{fill:#FFFFFF;}
</style>
<pattern  x="-337" y="-233" width="51" height="62" patternUnits="userSpaceOnUse" id="PATTERN_2" viewBox="4.09 -65.59 51 62" style="overflow:visible;">
	<g>
		<rect x="4.09" y="-65.59" class="st0" width="51" height="62"/>
		<g>
			<path class="st1" d="M29.87-2.78c-0.34,0.64-0.67,1.29-1.01,1.93"/>
			<path class="st1" d="M34.64-3.16c0.95,1.08,2.21,1.88,3.59,2.29"/>
			<path class="st1" d="M43.9-3.59c-0.76,0.79-1.63,1.47-2.57,2.01"/>
			<path class="st1" d="M53.29-1c0.19-0.75,0.39-1.51,0.58-2.26"/>
			<path class="st1" d="M7.44-4.19c0,0.39,0.01,0.78,0.01,1.17C7.61-3.01,7.77-3,7.93-3"/>
			<path class="st1" d="M48.13-3.89c0.26,0.58,0.65,1.1,1.13,1.52"/>
		</g>
		<g>
			<path class="st1" d="M2.08-55.36c0.43,0.68,1.21,1.11,2.01,1.12"/>
			<path class="st1" d="M0.85-28.95c0.48,1.46,2.81,1.56,3.33,3.01"/>
		</g>
		<g>
			<path class="st1" d="M29.87-64.78c-0.34,0.64-0.67,1.29-1.01,1.93"/>
			<path class="st1" d="M34.64-65.16c0.95,1.08,2.21,1.88,3.59,2.29"/>
			<path class="st1" d="M43.9-65.59c-0.76,0.79-1.63,1.47-2.57,2.01"/>
			<path class="st1" d="M16.68-7.64c0.35,0.78,0.46,1.65,0.33,2.49c0.34-0.16,0.61-0.46,0.73-0.82"/>
			<path class="st1" d="M52.73-48.91c-0.4,0.95-1.08,1.78-1.94,2.35c-0.14,0.09-0.41,0.11-0.4-0.06"/>
			<path class="st1" d="M45.71-50.44c-0.65,0.81-1.47,1.49-2.39,1.98c-0.19,0.1-0.51,0.13-0.54-0.08c0.11-0.38,0.46-0.67,0.85-0.71"
				/>
			<path class="st1" d="M53.08-55.36c0.43,0.68,1.21,1.11,2.01,1.12"/>
			<path class="st1" d="M50.1-52.11c-0.08,0.24-0.44,0.11-0.62-0.05c-0.66-0.58-1.31-1.16-1.97-1.75"/>
			<path class="st1" d="M51.81-59.42c-0.36,0.58-0.92,1.04-1.57,1.28c0-0.15,0-0.3-0.01-0.45"/>
			<path class="st1" d="M53.29-63c0.19-0.75,0.39-1.51,0.58-2.26"/>
			<path class="st1" d="M46.61-45.61c-0.19,0.9-0.37,1.8-0.56,2.7"/>
			<path class="st1" d="M51.41-18.23c0.66,0.28,1.37,0.46,2.08,0.54"/>
			<path class="st1" d="M11.94-53.15c0.66,0.28,1.37,0.46,2.08,0.54"/>
			<path class="st1" d="M50.36-38.68c-0.32,0.68-0.69,1.34-1.09,1.97"/>
			<path class="st1" d="M41.81-39.87c1.15,0.85,2.46,1.47,3.84,1.83"/>
			<path class="st1" d="M14.01-12.2c1.34-0.5,2.58-1.26,3.63-2.23"/>
			<path class="st1" d="M38.53-45.79c0.98,0.57,1.86,1.29,2.62,2.13"/>
			<path class="st1" d="M42.97-55.49c-0.07,0.91-0.93,1.69-1.84,1.67"/>
			<path class="st1" d="M44.92-61.09c0.12,0.9,0.24,1.8,0.35,2.7c0.03,0.23,0.07,0.48,0.23,0.66s0.49,0.2,0.61,0"/>
			<path class="st1" d="M41.11-58.05c-1.17,0.41-2.34,0.82-3.51,1.23"/>
			<path class="st1" d="M32.71-60.78c0.46,1.01,1.45,1.76,2.54,1.93"/>
			<path class="st1" d="M38.28-50.08c-1.03,0.89-2.4,1.38-3.76,1.35"/>
			<path class="st1" d="M32.94-54.1c0.38,0.84,1.13,1.51,2,1.79"/>
			<path class="st1" d="M29.17-56.81c-0.14,0.62-0.6,1.12-0.83,1.72c-0.24,0.59-0.12,1.45,0.49,1.63"/>
			<path class="st1" d="M29.11-48.82c-0.43,1.27,0.59,2.82,1.92,2.92c0-0.18-0.01-0.37-0.01-0.55"/>
			<path class="st1" d="M34.9-43.12c0.09-0.06-0.05-0.21-0.15-0.15s-0.1,0.19-0.1,0.3c0.01,0.37,0.01,0.74,0.02,1.1"/>
			<path class="st1" d="M6.09-8.53c0.09-0.06-0.05-0.21-0.15-0.15c-0.09,0.06-0.1,0.19-0.1,0.3c0.01,0.37,0.01,0.74,0.02,1.1"/>
			<path class="st1" d="M37.55-40.66c0.35,0.92-0.09,2.07-0.96,2.52"/>
			<path class="st1" d="M40.2-35.61c0.7,0.78,1.51,1.47,2.4,2.03"/>
			<path class="st1" d="M45.98-33.71c-0.06,0.94-0.01,1.88,0.15,2.81"/>
			<path class="st1" d="M49.65-32.79c0.54,0.27,1.15,0.38,1.75,0.32"/>
			<path class="st1" d="M39.94-30.71c1.17,0.33,1.83,1.85,1.28,2.94"/>
			<path class="st1" d="M36.62-33.83c-1.34,1.18-2.9,2.09-4.57,2.69"/>
			<path class="st1" d="M31.95-39.18c0.37,1.09,0.65,2.21,0.82,3.35c-0.22-0.11-0.39-0.33-0.43-0.57"/>
			<path class="st1" d="M28.25-42.26c-0.46,0.25-0.93,0.51-1.39,0.76"/>
			<path class="st1" d="M26.52-35.59c0.64-0.02,1.28-0.04,1.92-0.06"/>
			<path class="st1" d="M37.19-28.19c-0.38,0.43-0.75,0.85-1.13,1.28c-0.07,0.08-0.16,0.17-0.27,0.16c-0.11-0.01-0.17-0.2-0.06-0.23
				"/>
			<path class="st1" d="M27.21-30.66c-0.28,1.3,0.98,2.68,2.66,2.93"/>
			<path class="st1" d="M25.95-50.87c-0.22,0.58-0.51,1.13-0.85,1.64"/>
			<path class="st1" d="M25.68-44.8c-0.45,0.43-0.97,0.78-1.55,1.01"/>
			<path class="st1" d="M24.24-56.64c-0.76,0.44-1.49,0.93-2.19,1.46c0.34-0.32,0.68-0.63,1.03-0.95"/>
			<path class="st1" d="M24.05-61.34c0.58,0.56,1.21,1.07,1.88,1.5c0.05,0.03,0.12,0.07,0.18,0.05s0.07-0.13,0.01-0.14"/>
			<path class="st1" d="M20.06-62.73c-0.01,1.07-0.35,2.14-0.97,3"/>
			<path class="st1" d="M16.69-63.59c-0.4-0.03-0.81,0.04-1.18,0.19"/>
			<path class="st1" d="M17.26-55.53c0.18,0.64-0.08,1.31-0.24,1.95c-0.16,0.64-0.18,1.43,0.32,1.86"/>
			<path class="st1" d="M21.3-50.48c-0.19,0.83-0.69,1.58-1.39,2.06c-0.06,0.04-0.14,0.08-0.21,0.06c-0.07-0.03-0.07-0.16,0.01-0.16
				"/>
			<path class="st1" d="M18.51-44.15c0.19,1.07,0.86,2.04,1.79,2.6"/>
			<path class="st1" d="M8.14-12.26c0.67,1.3,1.91,2.28,3.32,2.64"/>
			<path class="st1" d="M23.6-37.96c-0.24,0.68-0.62,1.31-1.1,1.84c-0.14,0.15-0.3,0.3-0.49,0.37c-0.32,0.1-0.79,0.02-0.87,0.35"/>
			<path class="st1" d="M15.47-38.93c0.45,1.15,1.29,2.14,2.34,2.78c-0.06-0.32-0.16-0.64-0.31-0.93"/>
			<path class="st1" d="M14.21-48.05c-0.63,0.52-1.17,1.15-1.59,1.85c0.02-0.14,0.04-0.29,0.06-0.43"/>
			<path class="st1" d="M15.31-59.67c-0.34,0.2-0.64,0.49-0.85,0.82c-0.05,0.08-0.09,0.17-0.06,0.25s0.19,0.09,0.19,0"/>
			<path class="st1" d="M7.44-66.19c0,0.39,0.01,0.78,0.01,1.17C7.61-65.01,7.77-65,7.93-65"/>
			<path class="st1" d="M20.03-24.67c0.08,0.52-0.56,1.01-0.33,1.48c0.05,0.11,0.15,0.2,0.24,0.28c0.34,0.29,0.67,0.59,1.01,0.88"/>
			<path class="st1" d="M24.55-23.42c0.89-0.61,2.01-0.87,3.09-0.72"/>
			<path class="st1" d="M16.6-32.03c-0.02,0.82-0.05,1.64-0.07,2.46"/>
			<path class="st1" d="M20.4-31.23c0.65,1.13,2.15,1.63,2.61,2.85"/>
			<path class="st1" d="M18.6-18.51c0.43,0.39,0.98,0.64,1.55,0.73c0.48,0.07,1.11,0.11,1.26,0.57"/>
			<path class="st1" d="M28.11-19.79c-0.61,0.54-1.21,1.08-1.82,1.62"/>
			<path class="st1" d="M32.91-23.24c0.29,0.53,0.35,1.17,0.17,1.74c-0.07,0.23-0.18,0.48-0.09,0.7c0.14,0.32,0.67,0.51,0.55,0.84"
				/>
			<path class="st1" d="M30.13-15.94c-0.31,0.59-0.61,1.18-0.92,1.77c-0.09,0.18-0.07,0.5,0.12,0.44"/>
			<path class="st1" d="M26.07-14.68c-0.18,0.71-0.6,1.36-1.18,1.81"/>
			<path class="st1" d="M21-12.06c-0.18,0.3-0.13,0.68-0.08,1.02c0.16,1.05,0.31,2.1,0.47,3.15"/>
			<path class="st1" d="M10.02-22.2c0.09,0.42,0.27,0.87,0.65,1.06c0.38,0.19,0.97-0.05,0.95-0.48"/>
			<path class="st1" d="M26.04-5.53c-0.68,0.63-1.44,1.16-2.25,1.59"/>
			<path class="st1" d="M48.13-65.89c0.26,0.58,0.65,1.1,1.13,1.52"/>
			<path class="st1" d="M16.2-26.11c-1.12-0.04-2.24,0.06-3.33,0.28"/>
			<path class="st1" d="M12.96-34.23c0.07,0.37-0.18,0.72-0.37,1.04s-0.29,0.8-0.01,1.04"/>
			<path class="st1" d="M9.16-27.73c-0.28,0.52-0.8,0.9-1.37,1.01"/>
			<path class="st1" d="M6.12-23.31c-0.37,0.35-0.71,0.73-1.02,1.14"/>
			<path class="st1" d="M7-18.08c-0.19,0.54-0.39,1.09-0.58,1.63c-0.07,0.19-0.07,0.48,0.13,0.49"/>
			<path class="st1" d="M10.6-59.48c0.32,0.68-0.09,1.6-0.8,1.82"/>
			<path class="st1" d="M8.22-53.24c-0.16,0.98-0.21,1.97-0.15,2.96"/>
			<path class="st1" d="M5.18-47.76c0.2,1.16,1.23,2.13,2.39,2.25"/>
			<path class="st1" d="M8.51-42.07c-0.65,0.72-1.51,1.24-2.44,1.48"/>
			<path class="st1" d="M14.39-42.28c-0.49,0.49-0.98,0.98-1.47,1.47"/>
			<path class="st1" d="M9.97-37.73c0.19,0.58,0.13,1.25-0.18,1.78"/>
			<path class="st1" d="M5.7-36.82c-0.9,0.28-1.85,0.38-2.79,0.29"/>
			<path class="st1" d="M5.52-32.34c0.64,0.2,1.28,0.4,1.91,0.6c0.09,0.03,0.2,0.07,0.24,0.16c0.04,0.09-0.05,0.23-0.14,0.18"/>
			<path class="st1" d="M5.47-61c0.49,0.58,0.65,1.42,0.4,2.14"/>
			<path class="st1" d="M38.05-21.97c1.01-0.18,2.02-0.38,3-0.61c0.36-0.08,0.7-0.42,0.32-0.47"/>
			<path class="st1" d="M40.69-17.33c0.21,0.74,0.67,1.4,1.28,1.85"/>
			<path class="st1" d="M36.14-16.42c-0.07,1.39-1.07,2.69-2.39,3.11"/>
			<path class="st1" d="M38.84-11.47c-0.87,0.66-1.84,1.21-2.85,1.62"/>
			<path class="st1" d="M45.81-23.64c0.07,0.92-0.12,1.72-0.44,2.58c-0.11,0.29-0.77,1.95-0.59,1.27"/>
			<path class="st1" d="M44.92-27.81c1.04,0.08,2.08,0.33,3.05,0.72"/>
			<path class="st1" d="M50.41-23.89c0.38,0.67,0.61,1.42,0.68,2.18"/>
			<path class="st1" d="M51.85-28.95c0.48,1.46,2.81,1.56,3.33,3.01"/>
			<path class="st1" d="M48.37-16.76c0.26,0.5-0.29,1.02-0.75,1.33c-0.75,0.51-1.55,1.21-1.52,2.12"/>
			<path class="st1" d="M15.09-20.57c0.39,0.76-0.43,1.55-1.14,2.02c-1.14,0.77-2.35,1.84-2.31,3.22"/>
			<path class="st1" d="M43.8-10.37c0.84,1.11,1.83,2.11,2.94,2.95"/>
			<path class="st1" d="M32.85-6.44c-0.59,0.06-1.17,0.12-1.76,0.18"/>
			<path class="st1" d="M40.3-7.43c-0.76,0.51-1.41,1.19-1.87,1.99"/>
			<path class="st1" d="M30.35-10.38c-0.59,0.45-1.17,0.9-1.76,1.35c-0.22,0.17-0.61,0.28-0.69,0.02"/>
			<path class="st1" d="M49.93-9.83c1.09,0.89,1.71,2.33,1.61,3.73"/>
			<path class="st1" d="M53.13-14.33c-0.03,0.73-0.02,1.47,0.02,2.2c0.02,0.27,0.04,0.56,0.23,0.76c0.18,0.2,0.57,0.22,0.68-0.03"/>
			<path class="st1" d="M53.51-43.44c-0.75,0.29-1.47,0.68-2.12,1.17c0.23-0.01,0.46-0.02,0.69-0.03"/>
			<path class="st1" d="M13.56-5.82c-0.54,0.34-1.13,0.61-1.74,0.78"/>
		</g>
		<g>
			<path class="st1" d="M56.7-36.82c-0.9,0.28-1.85,0.38-2.79,0.29"/>
		</g>
		<g>
			<path class="st1" d="M26.04-67.53c-0.68,0.63-1.44,1.16-2.25,1.59"/>
		</g>
	</g>
</pattern>
<g>
	<g>
		<path class="st2" d="M471.08,381.8c-3.77,26.91-65.14,48.31-140.29,48.31c-32.65,0-62.69-4.04-86.54-10.81
			c-15.98,10.65-25.06,22.86-25.06,35.84c0,41.47,92.73,75.09,207.11,75.09s207.11-33.62,207.11-75.09
			C633.4,419.24,563.93,389.23,471.08,381.8z"/>
		<path class="st3" d="M471.08,376.96c-14.42-1.15-29.41-1.77-44.79-1.77c-78.59,0-146.96,15.87-182.05,39.26
			c-15.98,10.65-25.06,22.86-25.06,35.84c0,41.47,92.73,75.09,207.11,75.09s207.11-33.62,207.11-75.09
			C633.4,414.39,563.93,384.38,471.08,376.96z"/>
	</g>
	<path class="st2" d="M23.58,342.76l157.72,58.09c10.28,3.78,21.57,3.77,31.85-0.03l168.43-62.23c5.43-2.01,5.43-14.64-0.01-16.64
		l-157.72-53.14c-10.28-3.78-21.57-3.77-31.85,0.03L23.57,326.12C18.14,328.13,18.14,340.76,23.58,342.76z"/>
	<path class="st4" d="M23.58,337.33l157.72,58.09c10.28,3.78,21.57,3.77,31.85-0.03l168.43-62.23c5.43-2.01,5.43-9.7-0.01-11.69
		l-157.72-58.09c-10.28-3.78-21.57-3.77-31.85,0.03L23.57,325.64C18.14,327.65,18.14,335.33,23.58,337.33z"/>
	<g>
		<path class="st4" d="M181.3,395.42l-5.35-1.97l2.55-13.07l22.69-8.33l-5.1,26.18C191.07,398.1,186.08,397.17,181.3,395.42z"/>
		<polygon class="st2" points="175.94,393.45 159.45,387.37 178.49,380.38 		"/>
		<path class="st2" d="M213.15,395.39c-5.5,2.03-11.29,2.97-17.06,2.83l5.1-26.18l22.69-8.33l-5.82,29.87L213.15,395.39z"/>
		<polygon class="st4" points="218.06,393.58 223.88,363.71 246.57,355.37 240.76,385.19 		"/>
		<polygon class="st2" points="331.57,351.63 337.34,322.04 360.04,313.7 354.28,343.25 		"/>
		<polygon class="st4" points="354.28,343.25 360.04,313.7 360.25,313.63 379.72,320.8 376.98,334.86 		"/>
		<polygon class="st2" points="240.76,385.19 246.57,355.37 269.26,347.04 263.46,376.8 		"/>
		<path class="st2" d="M381.57,333.16l-4.59,1.7l2.74-14.06l1.94,0.71C387,323.57,386.97,331.17,381.57,333.16z"/>
		<polygon class="st4" points="263.46,376.8 269.26,347.04 291.96,338.71 286.17,368.41 		"/>
		<polygon class="st4" points="308.87,360.02 314.65,330.37 337.34,322.04 331.57,351.63 		"/>
		<polygon class="st2" points="286.17,368.41 291.96,338.71 314.65,330.37 308.87,360.02 		"/>
	</g>
	<g>
		<g>
			<g>
				<polygon class="st4" points="746.42,163.79 745.45,349.6 445.51,238.78 446.48,52.97 				"/>
			</g>
			<path class="st5" d="M446.56,38.32c0.04-7.35,7.37-12.43,14.26-9.88l271.32,100.24c8.67,3.2,14.41,11.49,14.36,20.73l-0.08,14.37
				L446.48,52.97L446.56,38.32z"/>
		</g>
		<g>
			<line class="st6" x1="723.76" y1="135.92" x2="733.55" y2="149.13"/>
			<line class="st6" x1="733.55" y1="139.34" x2="723.76" y2="145.71"/>
		</g>
	</g>
	<g>
		<path class="st7" d="M204.09,96.52l-14.42-5.17l0,0.02c-0.89-0.3-1.88-0.32-2.86,0.04L91.83,126.5c-3.16,1.17-5.25,4.18-5.24,7.55
			l0.31,180.9c0.01,2.22,1.66,3.94,3.66,4.24l13.76,4.93l-0.17-9.38l83.52-30.86c3.16-1.17,5.25-4.18,5.24-7.55l-0.29-169.07
			L204.09,96.52z"/>
		<g>
			<path class="st5" d="M101.02,139.2l0.31,180.9c0.01,2.99,2.99,5.06,5.79,4.02l94.98-35.09c3.16-1.17,5.25-4.18,5.24-7.55
				l-0.31-180.9c-0.01-2.99-2.99-5.06-5.79-4.02l-94.98,35.09C103.1,132.82,101.01,135.84,101.02,139.2z"/>
		</g>
		<g>
			<path class="st4" d="M121.45,122.63c-2.79,0.14-5.06-0.7-5.06-3.49V98.49c0-16.89,10.65-32.69,26.49-39.32
				c7.47-3.12,15.84-2.46,22.37,1.78c6.54,4.24,10.44,11.52,10.44,19.49v19.6c0,2.79-2.26,3.84-5.06,3.98s-5.06-0.7-5.06-3.49v-19.6
				c0-4.73-2.23-8.89-6.11-11.4c-3.88-2.52-8.65-2.9-13.09-1.04C134.49,73.46,126.5,85.32,126.5,98v20.65
				C126.5,121.44,124.24,122.49,121.45,122.63z"/>
		</g>
		<g>
			<pattern  id="SVGID_1_" xlink:href="#PATTERN_2" patternTransform="matrix(0.6707 0 0 0.6707 -2100.3567 -1765.7233)">
			</pattern>
			<polygon class="st8" points="114.69,148.9 114.73,199.9 146.05,188.33 145.88,137.33 			"/>
		</g>
		<line class="st9" x1="193.98" y1="119.96" x2="153.94" y2="134.81"/>
		<line class="st9" x1="193.98" y1="129.91" x2="153.94" y2="144.75"/>
		<line class="st9" x1="193.98" y1="139.85" x2="153.94" y2="154.7"/>
		<line class="st9" x1="193.98" y1="149.8" x2="153.94" y2="164.64"/>
		<line class="st9" x1="193.98" y1="159.74" x2="153.94" y2="174.59"/>
		<line class="st9" x1="180.76" y1="174.59" x2="153.94" y2="184.54"/>
		<polygon class="st10" points="193.98,219.96 114.69,249.26 114.69,239.11 193.98,209.81 		"/>
		<polygon class="st10" points="193.98,197.91 114.69,227.2 114.69,217.06 193.98,187.76 		"/>
		<polygon class="st10" points="147.35,259.28 114.69,271.12 114.69,260.97 147.35,249.13 		"/>
		<polygon class="st10" points="193.98,242.2 161.32,254.04 161.32,243.9 193.98,232.05 		"/>
		<path class="st11" d="M172.19,280.32l-37.42,13.57c-3.34,1.21-6.87-1.26-6.87-4.82l0,0c0-5.47,3.42-10.35,8.57-12.22l37.42-13.57
			c3.34-1.21,6.87,1.26,6.87,4.82v0C180.76,273.57,177.34,278.46,172.19,280.32z"/>
	</g>
	<g>
		<g>
			<g>
				<polygon class="st11" points="714.09,200.12 713.11,385.93 413.17,275.11 414.14,89.3 				"/>
			</g>
			<path class="st5" d="M414.22,74.65c0.04-7.35,7.37-12.43,14.26-9.88L699.8,165.02c8.67,3.2,14.41,11.49,14.36,20.73l-0.08,14.37
				L414.14,89.3L414.22,74.65z"/>
		</g>
		<g>
			<line class="st6" x1="691.42" y1="172.25" x2="701.21" y2="185.46"/>
			<line class="st6" x1="701.21" y1="175.67" x2="691.42" y2="182.04"/>
		</g>
	</g>
	<g>
		<g>
			<polygon class="st7" points="682.25,232.95 681.28,418.77 381.33,307.95 382.31,122.14 			"/>
		</g>
		<path class="st5" d="M382.38,107.49c0.04-7.35,7.37-12.43,14.26-9.88l271.32,100.24c8.67,3.2,14.41,11.49,14.36,20.73l-0.08,14.37
			L382.31,122.14L382.38,107.49z"/>
	</g>
	<g>
		<line class="st6" x1="659.59" y1="205.09" x2="669.37" y2="218.29"/>
		<line class="st6" x1="669.37" y1="208.51" x2="659.59" y2="214.87"/>
	</g>
	<g>
		<g>
			<g>
				<path class="st2" d="M259.12,344.9l-32.47,11.31c0,0-18.73,0.04-33.48-12.61s-6.78-21.92-6.78-21.92l32.47-11.31
					c17.59-6.13,40.87-3.37,51.98,6.16l0,0C281.97,326.07,276.72,338.77,259.12,344.9z"/>
				
					<ellipse transform="matrix(1 -6.198520e-03 6.198520e-03 1 -1.9425 1.7339)" class="st2" cx="278.76" cy="314.24" rx="29.71" ry="16.18"/>
			</g>
		</g>
		<g>
			<g>
				<path class="st3" d="M244.38,311.13v33.68c0,0-8.83,13.85-33.05,13.85s-33.05-13.85-33.05-13.85v-33.68
					c0-18.25,14.8-33.05,33.05-33.05h0C229.59,278.08,244.38,292.88,244.38,311.13z"/>
				<circle class="st3" cx="211.34" cy="264.51" r="26.05"/>
			</g>
		</g>
	</g>
	<g>
		<g>
			<g>
				<path class="st2" d="M348.45,473.8l-34.82,12.13c0,0-20.08,0.04-35.9-13.53c-15.82-13.57-7.27-23.51-7.27-23.51l34.82-12.13
					c18.87-6.58,43.83-3.62,55.75,6.61l0,0C372.95,453.6,367.32,467.22,348.45,473.8z"/>
				
					<ellipse transform="matrix(1 -6.198520e-03 6.198520e-03 1 -2.7259 2.2989)" class="st2" cx="369.51" cy="440.92" rx="31.86" ry="17.36"/>
			</g>
		</g>
		<g>
			<path class="st7" d="M332.64,437.58v36.13c0,0-9.47,14.85-35.45,14.85s-35.44-14.85-35.44-14.85v-36.13
				c0-19.58,15.87-35.45,35.45-35.45h0C316.77,402.13,332.64,418,332.64,437.58z"/>
			<circle class="st7" cx="297.2" cy="387.57" r="27.94"/>
		</g>
	</g>
	<g>
		<g>
			<g>
				<path class="st2" d="M479.45,457.74l-34.82,12.13c0,0-20.08,0.04-35.9-13.53c-15.82-13.57-7.27-23.51-7.27-23.51l34.82-12.13
					c18.87-6.58,43.83-3.62,55.75,6.61l0,0C503.96,437.55,498.32,451.17,479.45,457.74z"/>
				
					<ellipse transform="matrix(1 -6.198520e-03 6.198520e-03 1 -2.6239 3.1106)" class="st2" cx="500.51" cy="424.86" rx="31.86" ry="17.36"/>
			</g>
		</g>
		<g>
			<path class="st11" d="M463.64,421.52v36.13c0,0-9.47,14.85-35.45,14.85s-35.44-14.85-35.44-14.85v-36.13
				c0-19.58,15.87-35.45,35.45-35.45h0C447.77,386.07,463.64,401.94,463.64,421.52z"/>
			<circle class="st11" cx="428.2" cy="371.52" r="27.94"/>
		</g>
	</g>
	<path class="st12" d="M463.68,525.32v-24.98c0-6.69-5.56-12.15-12.5-12.27c-114.81-2.02-205.4-29.91-225.95-72.97
		c-1-2.09-4.23-1.41-4.23,0.89v24.6"/>
	<line class="st12" x1="237.61" y1="432.02" x2="237.61" y2="485.68"/>
	<line class="st12" x1="271.13" y1="453.93" x2="271.13" y2="503.43"/>
	<line class="st13" x1="314.79" y1="470.35" x2="314.79" y2="514.68"/>
	<line class="st13" x1="367.8" y1="481.62" x2="367.8" y2="524.81"/>
	<line class="st13" x1="422.58" y1="486.22" x2="422.58" y2="525.8"/>
	<polygon class="st14" points="394.01,140.18 392,301.52 504.67,340.85 506.33,181.42 	"/>
	<pattern  id="SVGID_2_" xlink:href="#PATTERN_2" patternTransform="matrix(0.7985 0 0 0.7985 -1210.1918 -821.2264)">
	</pattern>
	<polygon class="st15" points="394.01,140.18 392,301.52 504.67,340.85 506.33,181.42 	"/>
	<polygon class="st5" points="517.44,299.63 517.57,323.2 670.53,377.32 671.05,356.19 	"/>
	<polygon class="st11" points="518.44,227.3 518.57,250.87 671.53,304.99 672.05,283.86 	"/>
	<polygon class="st4" points="519.44,187.63 519.57,211.2 672.53,265.32 673.05,244.19 	"/>
	<g>
		<path class="st2" d="M582.71,475.94l48.62-19.63c0,0,0.81-3.82,0.63-9.21c-0.13-3.77-2.11-10.2-2.11-10.2l-47.13,17.64"/>
		<g>
			<g>
				<polygon class="st3" points="582.71,383.34 505.4,411.91 481.03,402.72 558.34,374.16 				"/>
				<polygon class="st4" points="582.71,475.94 505.4,504.5 505.4,411.91 582.71,383.34 				"/>
				<polygon class="st7" points="481.03,495.32 505.4,504.5 505.4,411.91 481.03,402.72 				"/>
			</g>
			<g>
				<path class="st4" d="M504.86,404.38c-3.02,0-5.47-1.02-5.47-4.04v-22.35c0-18.29,11.52-34.83,28.68-41.17
					c8.09-2.99,17.14-1.83,24.22,3.1c7.08,4.93,11.3,13.02,11.3,21.64v21.21c0,3.02-2.45,4.04-5.47,4.04
					c-3.02,0-5.47-1.02-5.47-4.04v-21.21c0-5.12-2.41-9.74-6.61-12.66c-4.2-2.93-9.37-3.59-14.17-1.81
					c-12.88,4.76-21.53,17.18-21.53,30.9v22.35C510.33,403.36,507.88,404.38,504.86,404.38z"/>
			</g>
		</g>
		<g>
			<path class="st10" d="M582.71,427.59c0,0-17.31,26.4-38.66,34.1c-21.35,7.7-38.66-6.21-38.66-6.21s17.31-26.4,38.66-34.1
				C565.41,413.68,582.71,427.59,582.71,427.59z"/>
			
				<ellipse transform="matrix(0.4691 -0.8831 0.8831 0.4691 -101.1122 714.8676)" class="st7" cx="544.06" cy="441.54" rx="22.42" ry="15.55"/>
			
				<ellipse transform="matrix(0.4691 -0.8831 0.8831 0.4691 -101.1122 714.8676)" class="st2" cx="544.06" cy="441.54" rx="14.04" ry="9.74"/>
		</g>
	</g>
	<line class="st16" x1="518.08" y1="300.68" x2="670.53" y2="377.32"/>
	<line class="st16" x1="671.05" y1="356.19" x2="517.57" y2="323.2"/>
	<g id="XMLID_1_">
		<g>
			<polygon class="st17" points="671.05,320.85 670.55,341.02 670,341.01 656.99,315.67 			"/>
			<polygon class="st18" points="670.55,341.02 670.53,341.99 635.28,329.52 635.5,328.89 622.49,302.97 656.99,315.67 670,341.01 
							"/>
			<polygon class="st17" points="622.49,302.97 635.5,328.89 635.28,329.52 601.64,317.61 587.66,290.15 			"/>
			<polygon class="st18" points="587.66,290.15 601.64,317.61 566.83,305.29 553.16,277.64 553.22,277.47 			"/>
			<polygon class="st17" points="566.83,305.29 532.27,293.06 518.66,265.51 518.91,264.84 553.22,277.47 553.16,277.64 			"/>
			<polygon class="st18" points="518.66,265.51 532.27,293.06 517.57,287.86 517.44,264.3 518.91,264.84 			"/>
		</g>
		<g>
			<polygon class="st16" points="518.91,264.84 517.44,264.3 517.57,287.86 532.27,293.06 566.83,305.29 601.64,317.61 
				635.28,329.52 670.53,341.99 670.55,341.02 671.05,320.85 656.99,315.67 622.49,302.97 587.66,290.15 553.22,277.47 			"/>
			<line class="st16" x1="518.66" y1="265.51" x2="532.27" y2="293.06"/>
			<polyline class="st16" points="553.16,277.64 566.83,305.29 566.83,305.3 			"/>
			<polyline class="st16" points="587.58,289.99 587.66,290.15 601.64,317.61 601.77,317.87 			"/>
			<polyline class="st16" points="622.36,302.71 622.49,302.97 635.5,328.89 			"/>
			<polyline class="st16" points="656.95,315.6 656.99,315.67 670,341.01 			"/>
		</g>
	</g>
</g>
</svg>
