<svg xmlns="http://www.w3.org/2000/svg" xmlns:xlink="http://www.w3.org/1999/xlink" viewBox="0 0 1000 1000"><defs><style>.cls-1,.cls-2,.cls-5,.cls-8{fill:none;}.cls-10,.cls-12,.cls-13,.cls-14,.cls-15,.cls-2,.cls-3,.cls-4,.cls-5,.cls-6,.cls-7,.cls-9{stroke:#000;}.cls-15,.cls-2{stroke-linecap:round;stroke-width:1.7px;}.cls-10,.cls-12,.cls-13,.cls-14,.cls-15,.cls-2,.cls-3,.cls-4,.cls-5,.cls-6,.cls-7,.cls-8,.cls-9{stroke-linejoin:round;}.cls-3{fill:#92003b;}.cls-10,.cls-12,.cls-13,.cls-14,.cls-3,.cls-4,.cls-5,.cls-6,.cls-7,.cls-8,.cls-9{stroke-width:2px;}.cls-4{fill:#ffbd48;}.cls-6{fill:#9ceff3;}.cls-7{fill:#ffdcc5;}.cls-8{stroke:#46f2b6;}.cls-10{fill:#ffbc7d;}.cls-11{isolation:isolate;}.cls-12{fill:#ff7a3f;}.cls-13{fill:#ffe1f9;}.cls-14{fill:#fff;}.cls-15{fill:url(#PATTERN_3);}</style><pattern id="PATTERN_3" data-name="PATTERN 3" width="51" height="62" patternTransform="translate(-67.46 -909.82) scale(1.09)" patternUnits="userSpaceOnUse" viewBox="0 0 51 62"><rect class="cls-1" width="51" height="62"/><path class="cls-2" d="M25.78,62.81l-1,1.93"/><path class="cls-2" d="M30.55,62.43a7.76,7.76,0,0,0,3.59,2.29"/><path class="cls-2" d="M39.81,62a11.59,11.59,0,0,1-2.57,2"/><path class="cls-2" d="M49.21,64.6l.57-2.26"/><path class="cls-2" d="M3.35,61.4v1.17l.49,0"/><path class="cls-2" d="M44,61.7a4.47,4.47,0,0,0,1.14,1.51"/><path class="cls-2" d="M-2,10.23a2.47,2.47,0,0,0,2,1.12"/><path class="cls-2" d="M-3.24,36.64c.48,1.46,2.81,1.56,3.33,3"/><path class="cls-2" d="M25.78.81l-1,1.93"/><path class="cls-2" d="M30.55.43a7.76,7.76,0,0,0,3.59,2.29"/><path class="cls-2" d="M39.81,0a11.59,11.59,0,0,1-2.57,2"/><path class="cls-2" d="M12.59,58a4.47,4.47,0,0,1,.32,2.5,1.39,1.39,0,0,0,.74-.82"/><path class="cls-2" d="M48.64,16.68A5.3,5.3,0,0,1,46.7,19c-.14.09-.41.11-.4-.06"/><path class="cls-2" d="M41.62,15.15a7.84,7.84,0,0,1-2.39,2c-.19.11-.51.14-.54-.08a1,1,0,0,1,.85-.7"/><path class="cls-2" d="M49,10.23a2.47,2.47,0,0,0,2,1.12"/><path class="cls-2" d="M46,13.48c-.08.24-.44.12-.63-.05l-2-1.75"/><path class="cls-2" d="M47.72,6.17a3.18,3.18,0,0,1-1.57,1.28V7"/><path class="cls-2" d="M49.21,2.6,49.78.34"/><path class="cls-2" d="M42.52,20,42,22.68"/><path class="cls-2" d="M47.32,47.36a7.51,7.51,0,0,0,2.08.54"/><path class="cls-2" d="M7.85,12.44A7.79,7.79,0,0,0,9.93,13"/><path class="cls-2" d="M46.27,26.91a21.14,21.14,0,0,1-1.09,2"/><path class="cls-2" d="M37.72,25.72a11.2,11.2,0,0,0,3.85,1.83"/><path class="cls-2" d="M9.92,53.39a11.06,11.06,0,0,0,3.63-2.23"/><path class="cls-2" d="M34.44,19.8a11,11,0,0,1,2.62,2.13"/><path class="cls-2" d="M38.88,10.1A1.88,1.88,0,0,1,37,11.77"/><path class="cls-2" d="M40.83,4.5l.36,2.7a1.08,1.08,0,0,0,.23.66.39.39,0,0,0,.6,0"/><path class="cls-2" d="M37,7.54,33.51,8.77"/><path class="cls-2" d="M28.62,4.81a3.43,3.43,0,0,0,2.54,1.93"/><path class="cls-2" d="M34.19,15.51a5.75,5.75,0,0,1-3.76,1.35"/><path class="cls-2" d="M28.85,11.49a3.34,3.34,0,0,0,2,1.79"/><path class="cls-2" d="M25.08,8.78a11.7,11.7,0,0,1-.83,1.71c-.24.6-.13,1.45.48,1.63"/><path class="cls-2" d="M25,16.77a2.32,2.32,0,0,0,1.92,2.92v-.56"/><path class="cls-2" d="M30.81,22.47c.09-.06-.06-.2-.15-.15a.35.35,0,0,0-.1.3l0,1.1"/><path class="cls-2" d="M2,57.06c.09-.06-.05-.21-.15-.15a.3.3,0,0,0-.09.29v1.11"/><path class="cls-2" d="M33.46,24.93a2.1,2.1,0,0,1-1,2.52"/><path class="cls-2" d="M36.11,30a11.1,11.1,0,0,0,2.4,2"/><path class="cls-2" d="M41.89,31.88A12,12,0,0,0,42,34.69"/><path class="cls-2" d="M45.56,32.8a3.24,3.24,0,0,0,1.76.32"/><path class="cls-2" d="M35.85,34.88a2.18,2.18,0,0,1,1.28,2.94"/><path class="cls-2" d="M32.53,31.76A14.36,14.36,0,0,1,28,34.45"/><path class="cls-2" d="M27.86,26.41a19.35,19.35,0,0,1,.81,3.36.8.8,0,0,1-.43-.58"/><path class="cls-2" d="M24.16,23.33l-1.39.77"/><path class="cls-2" d="M22.43,30l1.92-.06"/><path class="cls-2" d="M33.1,37.4,32,38.67a.36.36,0,0,1-.28.16c-.11,0-.16-.19-.06-.22"/><path class="cls-2" d="M23.12,34.93c-.28,1.3,1,2.69,2.66,2.93"/><path class="cls-2" d="M21.86,14.72A8.5,8.5,0,0,1,21,16.36"/><path class="cls-2" d="M21.59,20.79a4.78,4.78,0,0,1-1.54,1"/><path class="cls-2" d="M20.15,9A21.37,21.37,0,0,0,18,10.41l1-.95"/><path class="cls-2" d="M20,4.25a13,13,0,0,0,1.88,1.51.24.24,0,0,0,.18,0c.06,0,.07-.13,0-.14"/><path class="cls-2" d="M16,2.86a5.31,5.31,0,0,1-1,3"/><path class="cls-2" d="M12.6,2a2.75,2.75,0,0,0-1.17.19"/><path class="cls-2" d="M13.17,10.06a3.92,3.92,0,0,1-.23,2,1.83,1.83,0,0,0,.31,1.86"/><path class="cls-2" d="M17.21,15.11a3.49,3.49,0,0,1-1.39,2.06c-.07,0-.14.08-.21,0s-.07-.16,0-.15"/><path class="cls-2" d="M14.42,21.44A3.86,3.86,0,0,0,16.21,24"/><path class="cls-2" d="M4.05,53.33A5.18,5.18,0,0,0,7.37,56"/><path class="cls-2" d="M19.51,27.63a5.49,5.49,0,0,1-1.11,1.84,1.11,1.11,0,0,1-.49.37c-.32.1-.79,0-.87.35"/><path class="cls-2" d="M11.38,26.66a5.81,5.81,0,0,0,2.34,2.77,3.09,3.09,0,0,0-.31-.93"/><path class="cls-2" d="M10.13,17.54a7.07,7.07,0,0,0-1.6,1.85L8.59,19"/><path class="cls-2" d="M11.22,5.93a2.5,2.5,0,0,0-.86.82c0,.08-.09.17,0,.25s.18.09.19,0"/><path class="cls-2" d="M3.35-.6V.57l.49,0"/><path class="cls-2" d="M15.94,40.93c.08.51-.56,1-.33,1.47a.92.92,0,0,0,.24.28l1,.88"/><path class="cls-2" d="M20.46,42.17a4.47,4.47,0,0,1,3.08-.73"/><path class="cls-2" d="M12.51,33.56,12.44,36"/><path class="cls-2" d="M16.31,34.36c.65,1.12,2.15,1.63,2.6,2.85"/><path class="cls-2" d="M14.51,47.08a3,3,0,0,0,1.55.72c.49.07,1.11.11,1.26.58"/><path class="cls-2" d="M24,45.8,22.2,47.42"/><path class="cls-2" d="M28.82,42.35A2.24,2.24,0,0,1,29,44.09a1,1,0,0,0-.08.69c.14.33.67.51.55.84"/><path class="cls-2" d="M26,49.65l-.92,1.78c-.09.17-.06.5.12.44"/><path class="cls-2" d="M22,50.91a3.35,3.35,0,0,1-1.18,1.81"/><path class="cls-2" d="M16.91,53.54a1.6,1.6,0,0,0-.08,1l.47,3.15"/><path class="cls-2" d="M5.93,43.39a1.45,1.45,0,0,0,.64,1.06c.39.19,1-.05,1-.48"/><path class="cls-2" d="M22,60.06a10.09,10.09,0,0,1-2.26,1.58"/><path class="cls-2" d="M44-.3a4.47,4.47,0,0,0,1.14,1.51"/><path class="cls-2" d="M12.11,39.48a14.37,14.37,0,0,0-3.33.28"/><path class="cls-2" d="M8.87,31.36a1.64,1.64,0,0,1-.37,1c-.18.32-.29.79,0,1"/><path class="cls-2" d="M5.07,37.86a2,2,0,0,1-1.37,1"/><path class="cls-2" d="M2,42.28a10.1,10.1,0,0,0-1,1.14"/><path class="cls-2" d="M2.91,47.51l-.59,1.64c-.07.18-.07.48.13.49"/><path class="cls-2" d="M6.51,6.11a1.38,1.38,0,0,1-.8,1.82"/><path class="cls-2" d="M4.13,12.35a12.73,12.73,0,0,0-.14,3"/><path class="cls-2" d="M1.09,17.83a2.79,2.79,0,0,0,2.39,2.24"/><path class="cls-2" d="M4.43,23.52A5,5,0,0,1,2,25"/><path class="cls-2" d="M10.3,23.31,8.82,24.79"/><path class="cls-2" d="M5.88,27.86a2.26,2.26,0,0,1-.17,1.78"/><path class="cls-2" d="M1.61,28.77a7.14,7.14,0,0,1-2.79.29"/><path class="cls-2" d="M1.43,33.25l1.91.6a.35.35,0,0,1,.24.16c0,.09-.05.23-.14.18"/><path class="cls-2" d="M1.38,4.59a2.24,2.24,0,0,1,.4,2.14"/><path class="cls-2" d="M34,43.62c1-.17,2-.38,3-.6.36-.09.7-.42.32-.47"/><path class="cls-2" d="M36.6,48.26a3.57,3.57,0,0,0,1.28,1.86"/><path class="cls-2" d="M32.05,49.17a3.54,3.54,0,0,1-2.39,3.11"/><path class="cls-2" d="M34.75,54.13a12.35,12.35,0,0,1-2.85,1.62"/><path class="cls-2" d="M41.72,42a5.86,5.86,0,0,1-.44,2.58c-.1.29-.76,1.95-.59,1.26"/><path class="cls-2" d="M40.83,37.78a10.68,10.68,0,0,1,3.05.72"/><path class="cls-2" d="M46.32,41.7A5.35,5.35,0,0,1,47,43.88"/><path class="cls-2" d="M47.76,36.64c.48,1.46,2.81,1.56,3.33,3"/><path class="cls-2" d="M44.28,48.83c.26.5-.28,1-.75,1.33A2.78,2.78,0,0,0,42,52.28"/><path class="cls-2" d="M11,45c.39.76-.44,1.55-1.14,2-1.15.77-2.35,1.83-2.32,3.22"/><path class="cls-2" d="M39.71,55.22a15.21,15.21,0,0,0,2.94,3"/><path class="cls-2" d="M28.76,59.15,27,59.33"/><path class="cls-2" d="M36.21,58.16a6.07,6.07,0,0,0-1.88,2"/><path class="cls-2" d="M26.26,55.21,24.5,56.56c-.22.17-.61.28-.69,0"/><path class="cls-2" d="M45.84,55.77a4.43,4.43,0,0,1,1.6,3.73"/><path class="cls-2" d="M49,51.27c0,.73,0,1.46,0,2.19a1.2,1.2,0,0,0,.22.77c.19.2.58.21.68,0"/><path class="cls-2" d="M49.42,22.15a8.91,8.91,0,0,0-2.12,1.16l.69,0"/><path class="cls-2" d="M9.47,59.77a6.51,6.51,0,0,1-1.74.79"/><path class="cls-2" d="M52.61,28.77a7.14,7.14,0,0,1-2.79.29"/><path class="cls-2" d="M22-1.94A10.09,10.09,0,0,1,19.69-.36"/></pattern></defs><title>Restrict for Elementor Geolocation</title><g id="Layer_3" data-name="Layer 3"><path class="cls-3" d="M279.47,311.22l206.39,18.47V217.8a11.85,11.85,0,0,0-10.73-11.71L291.46,189.66a10.92,10.92,0,0,0-12,10.94Z"/><line class="cls-4" x1="282.94" y1="192.91" x2="485.52" y2="328.58"/><path class="cls-4" d="M482.74,210.42c-3,1.49-203.36,100.6-203.36,100.6"/><polyline class="cls-5" points="202.03 346.47 202.03 405.22 295.57 409.85"/><path class="cls-6" d="M133.08,347.08l206.39,18.47V253.66A11.85,11.85,0,0,0,328.74,242L145.07,225.51a10.92,10.92,0,0,0-12,10.94Z"/><line class="cls-6" x1="136.55" y1="228.76" x2="339.13" y2="364.43"/><path class="cls-6" d="M336.34,246.28c-3,1.48-203.35,100.6-203.35,100.6"/><path class="cls-7" d="M244.23,455.21l206.39,18.47V361.79a11.85,11.85,0,0,0-10.73-11.71L256.22,333.65a10.91,10.91,0,0,0-12,10.94Z"/><line class="cls-6" x1="243.97" y1="353.56" x2="450.46" y2="370.7"/><line class="cls-5" x1="431.23" y1="354.47" x2="440.49" y2="365.2"/><line class="cls-5" x1="440.77" y1="355.03" x2="430.88" y2="364.22"/><line class="cls-5" x1="245.68" y1="354.58" x2="450.62" y2="473.68"/><line class="cls-5" x1="449.3" y1="372.05" x2="244.23" y2="455.21"/><ellipse class="cls-8" cx="419.46" cy="689.44" rx="333.76" ry="120.94"/><ellipse class="cls-8" cx="419.46" cy="689.44" rx="108.68" ry="307" transform="translate(-300.53 1053.99) rotate(-85.54)"/><ellipse class="cls-8" cx="419.46" cy="689.44" rx="79.99" ry="274.27" transform="translate(-343.08 953.67) rotate(-77.8)"/><ellipse class="cls-8" cx="419.46" cy="689.44" rx="33.04" ry="254.26" transform="translate(-368.1 865.6) rotate(-71.29)"/><line class="cls-8" x1="183.46" y1="774.96" x2="655.46" y2="603.92"/><line class="cls-8" x1="91.52" y1="711.98" x2="481.66" y2="570.61"/><line class="cls-8" x1="357.27" y1="808.28" x2="747.4" y2="666.91"/><path class="cls-9" d="M401.49,617h0l0,0,0,0h0c-16-16.24-56.28-20.66-90.1-9.87-1.72.55-3.37,1.14-5,1.74l.21-.13C258.44,626.59,201.24,678,202.51,680.43h0s0,0,0,0,0,0,0,0h0c3,1.91,109.62,1,161.57-13l-.31,0c1.75-.47,3.49-1,5.2-1.51C402.83,655.16,417.36,633.23,401.49,617Z"/><path class="cls-10" d="M135.67,503.77c3.23,36.62,23.17,86.46,34.76,112.94,15,34.2,30.58,63.24,34.27,66,4.68-1.64,19-26.09,32.39-55.89,10.43-23.15,28.16-67.28,29.75-102.74,0-2.49,0-4.38,0-6.17-1-43.18-31.28-82.81-67.49-88.38-36.36-5.45-65,25.28-64,68.48C135.38,499.78,135.49,501.68,135.67,503.77Z"/><g class="cls-11"><ellipse class="cls-12" cx="198.17" cy="498.43" rx="38.35" ry="48.79" transform="translate(-157.72 97.13) rotate(-19.89)"/></g><g class="cls-11"><path d="M225.37,537c-1.32,1.13-3.55-.14-5.37-.45C199.27,533,182.16,509,181.84,483.12c-.17-13.66,4.36-25.16,11.71-32.47,0,0,30.25-.92,42.75,41.38C236.3,492,243.68,521.22,225.37,537Z"/></g><path class="cls-12" d="M205.37,421.35c1-.33,2-.63,3-.9l.18-.05c.82-.22,1.66-.41,2.5-.58l.21,0c.85-.17,1.7-.32,2.57-.44l.93-.12c.63-.08,1.26-.16,1.9-.22l1.09-.08c.34,0,.67-.06,1-.07s.54,0,.8,0l1.16,0c.61,0,1.22,0,1.84,0l1.13,0c.67,0,1.35.08,2,.13l1,.08c1,.09,2,.21,3,.36s2,.35,3,.56l.8.17.84.18,1.1.29,1.5.4,1.75.53,1.47.48c.58.2,1.16.42,1.73.64l1.44.54,1.73.74,1.39.61c.58.27,1.16.57,1.74.85l1.32.67c.6.31,1.18.64,1.77,1l1.24.7c.63.37,1.24.76,1.86,1.15.36.23.72.44,1.08.68.76.49,1.5,1,2.24,1.53l.64.44,0,0c.85.61,1.68,1.25,2.51,1.9l.55.43c.83.66,1.64,1.33,2.44,2l.36.32c.74.63,1.46,1.29,2.17,1.95l.43.4c.77.73,1.53,1.48,2.28,2.24l.49.5c.73.76,1.45,1.52,2.15,2.31l.13.13,0,0c.76.85,1.51,1.72,2.24,2.61.23.27.45.55.67.83q.78.94,1.53,1.92l.79,1.05c.45.6.9,1.2,1.33,1.81l.8,1.14c.18.27.38.53.56.8s.54.82.81,1.23l.51.78c.62,1,1.22,1.93,1.81,2.92l.27.46c.5.85,1,1.7,1.46,2.57l.5.93.51.94c.25.49.5,1,.74,1.48l.36.7q.76,1.55,1.47,3.12c.11.24.21.48.31.71.38.85.74,1.71,1.09,2.57l.38.92.27.67c.3.76.58,1.53.86,2.3,0,.12.09.23.13.36.4,1.1.77,2.22,1.13,3.34.1.32.2.63.29.95.27.85.52,1.7.76,2.56.09.34.19.68.28,1s.12.41.17.61c.17.63.31,1.27.47,1.9.09.39.19.77.28,1.16.28,1.22.54,2.43.77,3.66l0,.14c.22,1.18.42,2.36.6,3.55.06.41.11.82.17,1.23.09.63.18,1.26.26,1.9,0,.17,0,.34.05.5.11,1,.19,1.93.27,2.9,0,.48.09.94.13,1.42.09,1.44.17,2.89.2,4.34,0,1.79,0,3.67,0,6.17-1.59,35.45-19.32,79.58-29.75,102.74-13.41,29.79-27.71,54.25-32.39,55.88L204.7,682.69c4.68-1.64,19-26.09,32.39-55.89,10.43-23.15,28.16-67.28,29.75-102.74,0-2.49,0-4.38,0-6.17,0-1.45-.11-2.9-.2-4.34,0-.47-.09-.94-.13-1.41-.08-1-.16-1.94-.27-2.9s-.2-1.61-.31-2.41c-.06-.41-.11-.82-.17-1.22-.18-1.19-.38-2.38-.6-3.55l0-.15c-.23-1.22-.49-2.44-.77-3.65-.09-.39-.19-.78-.28-1.16-.21-.85-.41-1.69-.64-2.52-.09-.34-.19-.68-.28-1-.24-.86-.49-1.71-.76-2.56-.09-.32-.19-.64-.29-1-.36-1.12-.73-2.24-1.13-3.34,0-.12-.09-.23-.13-.35-.36-1-.74-2-1.13-3-.13-.3-.25-.61-.38-.91-.35-.87-.72-1.73-1.09-2.58-.11-.23-.21-.47-.31-.7-.47-1.05-1-2.1-1.47-3.13l-.36-.7c-.4-.81-.82-1.62-1.25-2.42l-.5-.93c-.48-.86-1-1.72-1.46-2.57l-.27-.46c-.59-1-1.19-2-1.81-2.91l-.51-.79c-.45-.68-.91-1.36-1.37-2-.27-.38-.53-.76-.8-1.13-.44-.61-.88-1.22-1.33-1.81-.26-.36-.52-.71-.79-1.06-.5-.65-1-1.29-1.53-1.93-.23-.27-.44-.55-.67-.82-.75-.9-1.51-1.78-2.28-2.65l-.12-.13c-.71-.78-1.43-1.55-2.17-2.31-.16-.16-.31-.33-.48-.49q-1.12-1.14-2.28-2.25l-.43-.39c-.71-.67-1.43-1.32-2.17-2l-.36-.32c-.8-.69-1.61-1.36-2.44-2l-.55-.44c-.84-.65-1.68-1.3-2.54-1.92l-.64-.44c-.74-.52-1.48-1-2.24-1.53-.35-.23-.72-.45-1.08-.67-.62-.39-1.23-.79-1.86-1.16-.41-.24-.83-.46-1.24-.69-.59-.33-1.17-.67-1.77-1l-1.32-.66c-.58-.29-1.16-.58-1.74-.85s-.93-.41-1.39-.61-1.15-.51-1.73-.74-1-.37-1.43-.55-1.16-.44-1.74-.64l-1.47-.47c-.58-.19-1.16-.37-1.75-.53s-1-.27-1.5-.4-1.29-.33-2-.48l-.79-.17c-1-.21-2-.4-3-.55s-2-.27-3-.37l-1-.07c-.67-.06-1.35-.1-2-.13l-1.13,0c-.62,0-1.23,0-1.84,0l-1.16,0c-.6,0-1.2.05-1.8.1-.36,0-.73,0-1.09.08-.64.06-1.27.13-1.9.21l-.93.12c-.87.13-1.72.28-2.57.45l-.21,0c-.9.19-1.8.4-2.68.64-1,.27-2,.56-3,.9Z"/><path class="cls-9" d="M628.44,735.15l-43.16,15.48s-24.9,0-44.5-17.26-9-30-9-30l43.16-15.48c23.39-8.38,54.33-4.61,69.11,8.43h0C658.82,709.39,651.83,726.76,628.44,735.15Z"/><ellipse class="cls-9" cx="654.55" cy="693.21" rx="39.49" ry="22.14" transform="translate(-4.52 4.3) rotate(-0.37)"/><path class="cls-12" d="M608.85,689V735S597.11,754,564.91,754,521,735,521,735V689c0-25,19.67-45.21,43.93-45.21h0C589.18,643.74,608.85,664,608.85,689Z"/><ellipse class="cls-12" cx="564.91" cy="625.17" rx="34.64" ry="35.64"/><polygon class="cls-13" points="914.2 448.26 912.95 687.38 526.95 544.77 528.2 305.65 914.2 448.26"/><path class="cls-12" d="M528.3,286.8a13.63,13.63,0,0,1,18.35-12.72l349.17,129a28.29,28.29,0,0,1,18.48,26.67l-.1,18.5-386-142.61Z"/><polygon class="cls-12" points="645.89 365.44 645.48 478.02 538.36 439.46 538.89 326.29 645.89 365.44"/><polygon class="cls-12" points="901.48 580.94 901.85 671.6 536.61 537.84 537.51 450.76 901.48 580.94"/><line class="cls-5" x1="885.1" y1="413.65" x2="900.9" y2="434.97"/><line class="cls-5" x1="900.9" y1="419.17" x2="885.1" y2="429.45"/><line class="cls-14" x1="659.21" y1="474.88" x2="897.04" y2="561.02"/><line class="cls-14" x1="659.21" y1="451.1" x2="897.04" y2="537.99"/><line class="cls-14" x1="659.21" y1="427.32" x2="895.93" y2="513.46"/><line class="cls-14" x1="659.21" y1="403.54" x2="895.56" y2="488.57"/><line class="cls-14" x1="659.21" y1="379.76" x2="895.93" y2="464.05"/><polygon class="cls-15" points="645.89 365.44 645.48 478.02 538.36 439.46 538.89 326.29 645.89 365.44"/><polygon class="cls-15" points="901.48 580.94 901.85 671.6 536.61 537.84 537.51 450.76 901.48 580.94"/><path class="cls-9" d="M399.25,756.12,354.83,771.6s-25.61,0-45.79-17.26-9.27-30-9.27-30l44.42-15.48c24.07-8.38,55.91-4.61,71.11,8.44h0C430.51,730.36,423.32,747.73,399.25,756.12Z"/><ellipse class="cls-9" cx="426.11" cy="714.18" rx="40.64" ry="22.14" transform="translate(-4.42 2.65) rotate(-0.36)"/><path class="cls-3" d="M379.09,709.92V756S367,775,333.87,775s-45.21-19-45.21-19V709.92a45.22,45.22,0,0,1,45.22-45.21h0A45.21,45.21,0,0,1,379.09,709.92Z"/><circle class="cls-3" cx="333.88" cy="646.14" r="35.64"/></g></svg>