<?xml version="1.0" encoding="utf-8"?>
<!-- Generator: Adobe Illustrator 25.2.3, SVG Export Plug-In . SVG Version: 6.00 Build 0)  -->
<svg version="1.1" id="Layer_1" xmlns="http://www.w3.org/2000/svg" xmlns:xlink="http://www.w3.org/1999/xlink" x="0px" y="0px"
	 viewBox="0 0 16 16" style="enable-background:new 0 0 16 16;" xml:space="preserve">
<style type="text/css">
	.st0{fill:none;}
	.st1{fill:#960245;}
</style>
<g>
	<rect id="canvas_background" x="-1" y="-1" class="st0" width="582" height="402"/>
</g>
<g>
	<path id="svg_2" class="st1" d="M8,2C4.7,2,2,4.7,2,8s2.7,6,6,6s6-2.7,6-6S11.3,2,8,2z M8,13c-2.8,0-5-2.2-5-5s2.2-5,5-5s5,2.2,5,5
		S10.8,13,8,13z"/>
	<path id="svg_3" class="st1" d="M8,6.8c-0.3,0-0.5,0.2-0.5,0.5v3.4c0,0.3,0.2,0.5,0.5,0.5c0.3,0,0.5-0.2,0.5-0.5V7.3
		C8.5,7.1,8.3,6.8,8,6.8z"/>
	<path id="svg_4" class="st1" d="M8,4.8c-0.3,0-0.5,0.2-0.5,0.5c0,0,0,0.1,0,0.1c0,0.3,0.2,0.5,0.5,0.5h0c0.3,0,0.5-0.2,0.5-0.5
		c0,0,0-0.1,0-0.1C8.5,5,8.3,4.8,8,4.8z"/>
</g>
</svg>
