<svg xmlns="http://www.w3.org/2000/svg" xmlns:xlink="http://www.w3.org/1999/xlink" viewBox="0 0 1000 1000"><defs><style>.cls-1,.cls-10,.cls-13,.cls-2{fill:none;}.cls-10,.cls-11,.cls-12,.cls-13,.cls-14,.cls-2,.cls-3,.cls-4,.cls-5,.cls-6,.cls-7,.cls-8,.cls-9{stroke:#000;stroke-linejoin:round;}.cls-12,.cls-13,.cls-2{stroke-linecap:round;}.cls-2{stroke-width:1.7px;}.cls-10,.cls-11,.cls-12,.cls-13,.cls-14,.cls-3,.cls-4,.cls-5,.cls-6,.cls-7,.cls-8,.cls-9{stroke-width:2px;}.cls-4{fill:#ffdcc5;}.cls-5{fill:#ff3700;}.cls-6{fill:#ff7a3f;}.cls-7{fill:#ffbc7d;}.cls-8{fill:#ffe1f9;}.cls-9{fill:#ff7be5;}.cls-11{fill:#92003b;}.cls-12{fill:url(#PATTERN_3);}.cls-14{fill:#fff;}</style><pattern id="PATTERN_3" data-name="PATTERN 3" width="51" height="62" patternTransform="matrix(-1.07, 0, 0, 1.07, -323.96, -931.98)" patternUnits="userSpaceOnUse" viewBox="0 0 51 62"><rect class="cls-1" width="51" height="62"/><path class="cls-2" d="M25.78,62.81l-1,1.93"/><path class="cls-2" d="M30.55,62.43a7.76,7.76,0,0,0,3.59,2.29"/><path class="cls-2" d="M39.81,62a11.59,11.59,0,0,1-2.57,2"/><path class="cls-2" d="M49.21,64.6l.57-2.26"/><path class="cls-2" d="M3.35,61.4v1.17l.49,0"/><path class="cls-2" d="M44,61.7a4.47,4.47,0,0,0,1.14,1.51"/><path class="cls-2" d="M-2,10.23a2.47,2.47,0,0,0,2,1.12"/><path class="cls-2" d="M-3.24,36.64c.48,1.46,2.81,1.56,3.33,3"/><path class="cls-2" d="M25.78.81l-1,1.93"/><path class="cls-2" d="M30.55.43a7.76,7.76,0,0,0,3.59,2.29"/><path class="cls-2" d="M39.81,0a11.59,11.59,0,0,1-2.57,2"/><path class="cls-2" d="M12.59,58a4.47,4.47,0,0,1,.32,2.5,1.39,1.39,0,0,0,.74-.82"/><path class="cls-2" d="M48.64,16.68A5.3,5.3,0,0,1,46.7,19c-.14.09-.41.11-.4-.06"/><path class="cls-2" d="M41.62,15.15a7.84,7.84,0,0,1-2.39,2c-.19.11-.51.14-.54-.08a1,1,0,0,1,.85-.7"/><path class="cls-2" d="M49,10.23a2.47,2.47,0,0,0,2,1.12"/><path class="cls-2" d="M46,13.48c-.08.24-.44.12-.63-.05l-2-1.75"/><path class="cls-2" d="M47.72,6.17a3.18,3.18,0,0,1-1.57,1.28V7"/><path class="cls-2" d="M49.21,2.6,49.78.34"/><path class="cls-2" d="M42.52,20,42,22.68"/><path class="cls-2" d="M47.32,47.36a7.51,7.51,0,0,0,2.08.54"/><path class="cls-2" d="M7.85,12.44A7.79,7.79,0,0,0,9.93,13"/><path class="cls-2" d="M46.27,26.91a21.14,21.14,0,0,1-1.09,2"/><path class="cls-2" d="M37.72,25.72a11.2,11.2,0,0,0,3.85,1.83"/><path class="cls-2" d="M9.92,53.39a11.06,11.06,0,0,0,3.63-2.23"/><path class="cls-2" d="M34.44,19.8a11,11,0,0,1,2.62,2.13"/><path class="cls-2" d="M38.88,10.1A1.88,1.88,0,0,1,37,11.77"/><path class="cls-2" d="M40.83,4.5l.36,2.7a1.08,1.08,0,0,0,.23.66.39.39,0,0,0,.6,0"/><path class="cls-2" d="M37,7.54,33.51,8.77"/><path class="cls-2" d="M28.62,4.81a3.43,3.43,0,0,0,2.54,1.93"/><path class="cls-2" d="M34.19,15.51a5.75,5.75,0,0,1-3.76,1.35"/><path class="cls-2" d="M28.85,11.49a3.34,3.34,0,0,0,2,1.79"/><path class="cls-2" d="M25.08,8.78a11.7,11.7,0,0,1-.83,1.71c-.24.6-.13,1.45.48,1.63"/><path class="cls-2" d="M25,16.77a2.32,2.32,0,0,0,1.92,2.92v-.56"/><path class="cls-2" d="M30.81,22.47c.09-.06-.06-.2-.15-.15a.35.35,0,0,0-.1.3l0,1.1"/><path class="cls-2" d="M2,57.06c.09-.06-.05-.21-.15-.15a.3.3,0,0,0-.09.29v1.11"/><path class="cls-2" d="M33.46,24.93a2.1,2.1,0,0,1-1,2.52"/><path class="cls-2" d="M36.11,30a11.1,11.1,0,0,0,2.4,2"/><path class="cls-2" d="M41.89,31.88A12,12,0,0,0,42,34.69"/><path class="cls-2" d="M45.56,32.8a3.24,3.24,0,0,0,1.76.32"/><path class="cls-2" d="M35.85,34.88a2.18,2.18,0,0,1,1.28,2.94"/><path class="cls-2" d="M32.53,31.76A14.36,14.36,0,0,1,28,34.45"/><path class="cls-2" d="M27.86,26.41a19.35,19.35,0,0,1,.81,3.36.8.8,0,0,1-.43-.58"/><path class="cls-2" d="M24.16,23.33l-1.39.77"/><path class="cls-2" d="M22.43,30l1.92-.06"/><path class="cls-2" d="M33.1,37.4,32,38.67a.36.36,0,0,1-.28.16c-.11,0-.16-.19-.06-.22"/><path class="cls-2" d="M23.12,34.93c-.28,1.3,1,2.69,2.66,2.93"/><path class="cls-2" d="M21.86,14.72A8.5,8.5,0,0,1,21,16.36"/><path class="cls-2" d="M21.59,20.79a4.78,4.78,0,0,1-1.54,1"/><path class="cls-2" d="M20.15,9A21.37,21.37,0,0,0,18,10.41l1-.95"/><path class="cls-2" d="M20,4.25a13,13,0,0,0,1.88,1.51.24.24,0,0,0,.18,0c.06,0,.07-.13,0-.14"/><path class="cls-2" d="M16,2.86a5.31,5.31,0,0,1-1,3"/><path class="cls-2" d="M12.6,2a2.75,2.75,0,0,0-1.17.19"/><path class="cls-2" d="M13.17,10.06a3.92,3.92,0,0,1-.23,2,1.83,1.83,0,0,0,.31,1.86"/><path class="cls-2" d="M17.21,15.11a3.49,3.49,0,0,1-1.39,2.06c-.07,0-.14.08-.21,0s-.07-.16,0-.15"/><path class="cls-2" d="M14.42,21.44A3.86,3.86,0,0,0,16.21,24"/><path class="cls-2" d="M4.05,53.33A5.18,5.18,0,0,0,7.37,56"/><path class="cls-2" d="M19.51,27.63a5.49,5.49,0,0,1-1.11,1.84,1.11,1.11,0,0,1-.49.37c-.32.1-.79,0-.87.35"/><path class="cls-2" d="M11.38,26.66a5.81,5.81,0,0,0,2.34,2.77,3.09,3.09,0,0,0-.31-.93"/><path class="cls-2" d="M10.13,17.54a7.07,7.07,0,0,0-1.6,1.85L8.59,19"/><path class="cls-2" d="M11.22,5.93a2.5,2.5,0,0,0-.86.82c0,.08-.09.17,0,.25s.18.09.19,0"/><path class="cls-2" d="M3.35-.6V.57l.49,0"/><path class="cls-2" d="M15.94,40.93c.08.51-.56,1-.33,1.47a.92.92,0,0,0,.24.28l1,.88"/><path class="cls-2" d="M20.46,42.17a4.47,4.47,0,0,1,3.08-.73"/><path class="cls-2" d="M12.51,33.56,12.44,36"/><path class="cls-2" d="M16.31,34.36c.65,1.12,2.15,1.63,2.6,2.85"/><path class="cls-2" d="M14.51,47.08a3,3,0,0,0,1.55.72c.49.07,1.11.11,1.26.58"/><path class="cls-2" d="M24,45.8,22.2,47.42"/><path class="cls-2" d="M28.82,42.35A2.24,2.24,0,0,1,29,44.09a1,1,0,0,0-.08.69c.14.33.67.51.55.84"/><path class="cls-2" d="M26,49.65l-.92,1.78c-.09.17-.06.5.12.44"/><path class="cls-2" d="M22,50.91a3.35,3.35,0,0,1-1.18,1.81"/><path class="cls-2" d="M16.91,53.54a1.6,1.6,0,0,0-.08,1l.47,3.15"/><path class="cls-2" d="M5.93,43.39a1.45,1.45,0,0,0,.64,1.06c.39.19,1-.05,1-.48"/><path class="cls-2" d="M22,60.06a10.09,10.09,0,0,1-2.26,1.58"/><path class="cls-2" d="M44-.3a4.47,4.47,0,0,0,1.14,1.51"/><path class="cls-2" d="M12.11,39.48a14.37,14.37,0,0,0-3.33.28"/><path class="cls-2" d="M8.87,31.36a1.64,1.64,0,0,1-.37,1c-.18.32-.29.79,0,1"/><path class="cls-2" d="M5.07,37.86a2,2,0,0,1-1.37,1"/><path class="cls-2" d="M2,42.28a10.1,10.1,0,0,0-1,1.14"/><path class="cls-2" d="M2.91,47.51l-.59,1.64c-.07.18-.07.48.13.49"/><path class="cls-2" d="M6.51,6.11a1.38,1.38,0,0,1-.8,1.82"/><path class="cls-2" d="M4.13,12.35a12.73,12.73,0,0,0-.14,3"/><path class="cls-2" d="M1.09,17.83a2.79,2.79,0,0,0,2.39,2.24"/><path class="cls-2" d="M4.43,23.52A5,5,0,0,1,2,25"/><path class="cls-2" d="M10.3,23.31,8.82,24.79"/><path class="cls-2" d="M5.88,27.86a2.26,2.26,0,0,1-.17,1.78"/><path class="cls-2" d="M1.61,28.77a7.14,7.14,0,0,1-2.79.29"/><path class="cls-2" d="M1.43,33.25l1.91.6a.35.35,0,0,1,.24.16c0,.09-.05.23-.14.18"/><path class="cls-2" d="M1.38,4.59a2.24,2.24,0,0,1,.4,2.14"/><path class="cls-2" d="M34,43.62c1-.17,2-.38,3-.6.36-.09.7-.42.32-.47"/><path class="cls-2" d="M36.6,48.26a3.57,3.57,0,0,0,1.28,1.86"/><path class="cls-2" d="M32.05,49.17a3.54,3.54,0,0,1-2.39,3.11"/><path class="cls-2" d="M34.75,54.13a12.35,12.35,0,0,1-2.85,1.62"/><path class="cls-2" d="M41.72,42a5.86,5.86,0,0,1-.44,2.58c-.1.29-.76,1.95-.59,1.26"/><path class="cls-2" d="M40.83,37.78a10.68,10.68,0,0,1,3.05.72"/><path class="cls-2" d="M46.32,41.7A5.35,5.35,0,0,1,47,43.88"/><path class="cls-2" d="M47.76,36.64c.48,1.46,2.81,1.56,3.33,3"/><path class="cls-2" d="M44.28,48.83c.26.5-.28,1-.75,1.33A2.78,2.78,0,0,0,42,52.28"/><path class="cls-2" d="M11,45c.39.76-.44,1.55-1.14,2-1.15.77-2.35,1.83-2.32,3.22"/><path class="cls-2" d="M39.71,55.22a15.21,15.21,0,0,0,2.94,3"/><path class="cls-2" d="M28.76,59.15,27,59.33"/><path class="cls-2" d="M36.21,58.16a6.07,6.07,0,0,0-1.88,2"/><path class="cls-2" d="M26.26,55.21,24.5,56.56c-.22.17-.61.28-.69,0"/><path class="cls-2" d="M45.84,55.77a4.43,4.43,0,0,1,1.6,3.73"/><path class="cls-2" d="M49,51.27c0,.73,0,1.46,0,2.19a1.2,1.2,0,0,0,.22.77c.19.2.58.21.68,0"/><path class="cls-2" d="M49.42,22.15a8.91,8.91,0,0,0-2.12,1.16l.69,0"/><path class="cls-2" d="M9.47,59.77a6.51,6.51,0,0,1-1.74.79"/><path class="cls-2" d="M52.61,28.77a7.14,7.14,0,0,1-2.79.29"/><path class="cls-2" d="M22-1.94A10.09,10.09,0,0,1,19.69-.36"/></pattern></defs><title>Restrict for Elementor Logged in users</title><g id="Layer_3" data-name="Layer 3"><path class="cls-3" d="M575.29,557.76c-24.25-2-49.44-3-75.29-3-132.11,0-247,27-306,66.7-26.87,18.09-42.13,38.83-42.13,60.88,0,70.46,156,130.22,348.24,130.22s348.06-59.76,348.06-130.22C848.15,621.35,731.37,570.36,575.29,557.76Z"/><path class="cls-4" d="M566.27,550.06c-23.64-1.89-48.2-2.9-73.42-2.9-128.83,0-240.9,26-298.43,64.33C168.23,629,153.34,649,153.34,670.22c0,68,152,123,339.51,123s339.51-55.09,339.51-123C832.36,611.39,718.48,562.22,566.27,550.06Z"/><polygon class="cls-4" points="463.91 396.43 288.25 461.33 232.88 440.46 408.54 375.56 463.91 396.43"/><polygon class="cls-5" points="463.91 606.81 288.25 671.71 288.25 461.33 463.91 396.43 463.91 606.81"/><polygon class="cls-6" points="232.88 650.84 288.25 671.71 288.25 461.33 232.88 440.46 232.88 650.84"/><path class="cls-7" d="M287,444.22c-6.87,0-12.43-2.31-12.43-9.18V384.25a100.1,100.1,0,0,1,65.15-93.53,59.93,59.93,0,0,1,80.7,56.22v48.19c0,6.87-5.56,9.18-12.43,9.18s-12.43-2.31-12.43-9.18V346.94A35.08,35.08,0,0,0,348.37,314a75.15,75.15,0,0,0-48.91,70.21V435C299.46,441.91,293.9,444.22,287,444.22Z"/><path class="cls-3" d="M606.71,628.85l-43.16,15.48s-24.9,0-44.51-17.26-9-30-9-30l43.16-15.48c23.39-8.39,54.33-4.61,69.11,8.43h0C637.08,603.09,630.1,620.46,606.71,628.85Z"/><ellipse class="cls-3" cx="632.81" cy="586.91" rx="39.49" ry="22.14" transform="translate(-3.83 4.15) rotate(-0.37)"/><path class="cls-6" d="M587.12,582.65v46.08s-11.74,18.94-43.94,18.94-43.93-18.94-43.93-18.94V582.65c0-25,19.67-45.22,43.93-45.22h0C567.45,537.43,587.12,557.68,587.12,582.65Z"/><ellipse class="cls-6" cx="543.18" cy="518.87" rx="34.64" ry="35.64"/><path class="cls-3" d="M496.54,747.1l-44.42,15.48s-25.62.06-45.79-17.25-9.27-30-9.27-30l44.42-15.47c24.07-8.39,55.9-4.62,71.11,8.43h0C527.8,721.34,520.61,738.72,496.54,747.1Z"/><ellipse class="cls-3" cx="523.4" cy="705.16" rx="40.64" ry="22.14" transform="translate(-4.36 3.26) rotate(-0.36)"/><path class="cls-8" d="M476.38,700.9V747s-12.08,18.95-45.22,18.95S386,747,386,747V700.9a45.21,45.21,0,0,1,45.21-45.21h0A45.22,45.22,0,0,1,476.38,700.9Z"/><circle class="cls-8" cx="431.16" cy="637.12" r="35.64"/><path class="cls-3" d="M739.49,731.22,695.07,746.7s-25.62,0-45.8-17.26-9.27-30-9.27-30L684.42,684c24.07-8.39,55.91-4.61,71.12,8.43h0C770.74,705.46,763.56,722.83,739.49,731.22Z"/><ellipse class="cls-3" cx="766.35" cy="689.28" rx="40.64" ry="22.14" transform="translate(-4.26 4.76) rotate(-0.36)"/><path class="cls-9" d="M719.32,685V731.1S707.24,750,674.11,750,628.9,731.1,628.9,731.1V685a45.22,45.22,0,0,1,45.21-45.22h0A45.22,45.22,0,0,1,719.32,685Z"/><circle class="cls-9" cx="674.11" cy="621.24" r="35.64"/><path class="cls-10" d="M492.85,793.27V757a17.83,17.83,0,0,0-17.48-17.83c-160.63-2.93-287.36-43.43-316.1-106a3.11,3.11,0,0,0-5.93,1.29v35.72"/><line class="cls-10" x1="176.48" y1="658.88" x2="176.48" y2="717.5"/><line class="cls-10" x1="223.39" y1="690.12" x2="223.39" y2="745.09"/><line class="cls-10" x1="284.48" y1="713.05" x2="284.48" y2="768.62"/><line class="cls-10" x1="358.67" y1="729.28" x2="358.67" y2="783.93"/><line class="cls-10" x1="435.34" y1="737.57" x2="435.34" y2="793.95"/><path class="cls-6" d="M414.48,581l-15.9-60.86c7.84-8.66,12.95-19.83,12.95-30.17,0-12-6.94-19.68-17-20.72a22.3,22.3,0,0,1,4.33,13.95c0,10.34-5.11,21.51-12.95,30.17l15.9,60.86L350,594.74l-2.79,12.9Z"/><path class="cls-3" d="M385.88,513.36c7.84-8.66,12.95-19.83,12.95-30.17a22.3,22.3,0,0,0-4.33-13.95,29.15,29.15,0,0,0-13.67,2.18c-17,6.71-30.7,25.9-30.7,42.86,0,10.33,5.11,17.45,12.95,19.91L350,594.74l51.81-20.52Z"/><path class="cls-11" d="M639.43,196.06l23.07-8.27v0a6.8,6.8,0,0,1,4.58.06l152,56.15a12.83,12.83,0,0,1,8.39,12.08L827,545.59a6.88,6.88,0,0,1-5.85,6.79l-22,7.89.26-15L665.7,495.87a12.84,12.84,0,0,1-8.39-12.07l.47-270.56Z"/><path class="cls-8" d="M804.37,264.36l-.49,289.49a6.88,6.88,0,0,1-9.27,6.43l-152-56.15a12.83,12.83,0,0,1-8.38-12.08l.49-289.48a6.89,6.89,0,0,1,9.27-6.44l152,56.16A12.82,12.82,0,0,1,804.37,264.36Z"/><polygon class="cls-12" points="782.49 279.88 782.43 361.5 732.31 342.99 732.58 261.37 782.49 279.88"/><line class="cls-13" x1="655.61" y1="233.57" x2="719.67" y2="257.33"/><line class="cls-13" x1="655.61" y1="249.49" x2="719.67" y2="273.25"/><line class="cls-13" x1="655.61" y1="265.4" x2="719.67" y2="289.16"/><line class="cls-13" x1="655.61" y1="281.32" x2="719.67" y2="305.08"/><line class="cls-13" x1="655.61" y1="297.23" x2="719.67" y2="321"/><line class="cls-13" x1="676.76" y1="321" x2="719.67" y2="336.91"/><polygon class="cls-14" points="655.61 393.6 782.49 440.48 782.49 424.25 655.61 377.36 655.61 393.6"/><polygon class="cls-14" points="655.61 358.31 782.49 405.19 782.49 388.95 655.61 342.07 655.61 358.31"/><polygon class="cls-14" points="730.22 456.51 782.49 475.47 782.49 459.23 730.22 440.28 730.22 456.51"/><polygon class="cls-14" points="655.61 429.19 707.88 448.14 707.88 431.9 655.61 412.95 655.61 429.19"/><path class="cls-9" d="M690.47,490.19l59.88,21.71a8.2,8.2,0,0,0,11-7.7h0a20.79,20.79,0,0,0-13.71-19.55l-59.88-21.71a8.2,8.2,0,0,0-11,7.7h0A20.79,20.79,0,0,0,690.47,490.19Z"/></g></svg>