<?xml version="1.0" encoding="utf-8"?>
<!-- Generator: Adobe Illustrator 25.2.3, SVG Export Plug-In . SVG Version: 6.00 Build 0)  -->
<svg version="1.1" id="Layer_1" xmlns="http://www.w3.org/2000/svg" xmlns:xlink="http://www.w3.org/1999/xlink" x="0px" y="0px"
	 viewBox="0 0 24 24" style="enable-background:new 0 0 24 24;" xml:space="preserve">
<style type="text/css">
	.st0{fill:none;}
	.st1{fill:#960245;}
</style>
<g>
	<rect id="canvas_background" x="-1" y="-1" class="st0" width="582" height="402"/>
</g>
<g>
	<path id="svg_1" class="st1" d="M12,2C6.5,2,2,6.5,2,12s4.5,10,10,10s10-4.5,10-10S17.5,2,12,2z M12,20c-4.4,0-8-3.6-8-8s3.6-8,8-8
		s8,3.6,8,8S16.4,20,12,20z M15.8,11.6c0.2,0.2,0.3,0.5,0.1,0.7c0,0.1-0.1,0.1-0.1,0.1l-5,3.5c-0.2,0.2-0.5,0.1-0.7-0.1
		C10,15.7,10,15.6,10,15.5v-7C10,8.2,10.2,8,10.5,8c0.1,0,0.2,0,0.3,0.1L15.8,11.6z"/>
</g>
</svg>
