<svg xmlns="http://www.w3.org/2000/svg" viewBox="0 0 1000 1000"><defs><style>.cls-1{fill:#ffe1f9;}.cls-1,.cls-2,.cls-3,.cls-4,.cls-5,.cls-6,.cls-7,.cls-8{stroke:#000;stroke-linejoin:round;stroke-width:2px;}.cls-2{fill:#ff7a3f;}.cls-3{fill:#fff;}.cls-4{fill:none;}.cls-5{fill:#ff7be5;}.cls-7{fill:#ffbc7d;}.cls-8{fill:#92003b;}</style></defs><title>Restrict for Elementor Post Author</title><g id="Layer_3" data-name="Layer 3"><polygon class="cls-1" points="139.99 356.54 141.13 574 492.16 444.31 491.02 226.84 139.99 356.54"/><path class="cls-2" d="M490.93,209.7a12.39,12.39,0,0,0-16.69-11.56L156.71,315.46a25.72,25.72,0,0,0-16.81,24.26l.09,16.82,351-129.7Z"/><polygon class="cls-3" points="159.97 365.58 160.78 519.8 408.41 429.38 408.91 273.61 159.97 365.58"/><line class="cls-4" x1="479.66" y1="207.79" x2="465.29" y2="227.18"/><line class="cls-4" x1="465.29" y1="212.81" x2="479.66" y2="222.16"/><polygon class="cls-3" points="417.62 269.05 417.62 460.13 484.01 435.8 483.51 245.74 417.62 269.05"/><line class="cls-1" x1="161.92" y1="531.09" x2="409.89" y2="437.7"/><line class="cls-1" x1="161.92" y1="541.48" x2="409.89" y2="448.09"/><line class="cls-1" x1="161.92" y1="552.88" x2="409.89" y2="459.5"/><polygon class="cls-1" points="209.46 401.65 210.6 619.11 561.63 489.42 560.49 271.96 209.46 401.65"/><path class="cls-2" d="M560.4,254.82a12.39,12.39,0,0,0-16.69-11.56L226.18,360.57a25.72,25.72,0,0,0-16.8,24.26l.08,16.82L560.49,272Z"/><line class="cls-4" x1="549.13" y1="252.9" x2="534.76" y2="272.29"/><line class="cls-4" x1="534.76" y1="257.92" x2="549.13" y2="267.27"/><line class="cls-1" x1="231.39" y1="576.2" x2="479.36" y2="482.82"/><line class="cls-1" x1="231.39" y1="586.59" x2="479.36" y2="493.21"/><line class="cls-1" x1="231.39" y1="598" x2="479.36" y2="504.61"/><polygon class="cls-1" points="281.06 447.83 282.19 665.29 633.22 535.6 632.09 318.13 281.06 447.83"/><path class="cls-2" d="M632,301a12.4,12.4,0,0,0-16.7-11.56L297.77,406.75A25.71,25.71,0,0,0,281,431l.09,16.82,351-129.7Z"/><polygon class="cls-3" points="301.04 456.87 301.85 611.09 549.48 520.67 549.97 364.9 301.04 456.87"/><line class="cls-4" x1="620.72" y1="299.08" x2="606.35" y2="318.47"/><line class="cls-4" x1="606.35" y1="304.1" x2="620.72" y2="313.45"/><polygon class="cls-3" points="558.68 360.34 558.68 551.42 625.08 527.09 624.57 337.02 558.68 360.34"/><line class="cls-1" x1="302.98" y1="622.38" x2="550.95" y2="528.99"/><line class="cls-1" x1="302.98" y1="632.77" x2="550.95" y2="539.38"/><line class="cls-1" x1="302.98" y1="644.17" x2="550.95" y2="550.79"/><polygon class="cls-2" points="860.1 333.18 845.48 338.64 670.48 273.63 685.1 268.17 860.1 333.18"/><polygon class="cls-5" points="860.1 677.81 845.48 683.28 845.48 338.64 860.1 333.18 860.1 677.81"/><polygon class="cls-1" points="670.48 618.27 845.48 683.28 845.48 338.64 670.48 273.63 670.48 618.27"/><polygon class="cls-3" points="687.89 479.36 826.96 531.09 826.96 348.81 687.89 297.15 687.89 479.36"/><path class="cls-6" d="M796.49,725.35,596.38,799.06A58.5,58.5,0,0,1,556,799l-213.71-79c-6.89-2.55-6.88-18.58,0-21.11l200.11-67.43a58.44,58.44,0,0,1,40.41,0l213.71,72.68C803.4,706.78,803.39,722.82,796.49,725.35Z"/><path class="cls-7" d="M796.49,718.46,596.38,792.17a58.5,58.5,0,0,1-40.41,0l-213.71-79a7.91,7.91,0,0,1,0-14.84l200.11-73.7a58.44,58.44,0,0,1,40.41,0l213.71,79A7.91,7.91,0,0,1,796.49,718.46Z"/><path class="cls-7" d="M596.38,792.17l6.79-2.5-3.23-16.59-28.8-10.58,6.48,33.22A58.54,58.54,0,0,0,596.38,792.17Z"/><polygon class="cls-6" points="603.17 789.66 624.11 781.96 599.94 773.08 603.17 789.66"/><path class="cls-6" d="M556,792.13a58.5,58.5,0,0,0,21.65,3.59l-6.48-33.22-28.79-10.57,7.39,37.9Z"/><polygon class="cls-7" points="549.74 789.83 542.35 751.93 513.56 741.36 520.93 779.18 549.74 789.83"/><polygon class="cls-6" points="405.7 736.61 398.38 699.06 369.59 688.48 376.9 725.97 405.7 736.61"/><polygon class="cls-7" points="376.9 725.97 369.59 688.48 369.32 688.38 344.61 697.48 348.09 715.32 376.9 725.97"/><polygon class="cls-6" points="520.93 779.18 513.56 741.36 484.76 730.78 492.12 768.54 520.93 779.18"/><path class="cls-6" d="M342.26,713.17l5.83,2.15-3.48-17.84-2.46.91A7.9,7.9,0,0,0,342.26,713.17Z"/><polygon class="cls-7" points="492.12 768.54 484.76 730.78 455.97 720.21 463.32 757.9 492.12 768.54"/><polygon class="cls-7" points="434.51 747.25 427.18 709.63 398.38 699.06 405.7 736.61 434.51 747.25"/><polygon class="cls-6" points="463.32 757.9 455.97 720.21 427.18 709.63 434.51 747.25 463.32 757.9"/><path class="cls-6" d="M604.64,720.07l-44.42,15.47s-25.62.06-45.8-17.25-9.27-30-9.27-30l44.42-15.48c24.07-8.39,55.91-4.61,71.12,8.43h0C635.89,694.3,628.71,711.68,604.64,720.07Z"/><ellipse class="cls-6" cx="631.5" cy="678.12" rx="40.64" ry="22.14" transform="translate(-4.19 3.93) rotate(-0.36)"/><path class="cls-8" d="M584.47,673.86v46.08s-12.07,18.95-45.21,18.95-45.21-18.95-45.21-18.95V673.86a45.21,45.21,0,0,1,45.21-45.21h0A45.21,45.21,0,0,1,584.47,673.86Z"/><circle class="cls-8" cx="539.26" cy="610.08" r="35.64"/><polygon class="cls-3" points="686.87 494.3 686.82 524.48 825.82 575.69 825.82 546.99 686.87 494.3"/><polygon class="cls-3" points="686.51 537.3 686.46 567.48 825.45 618.68 825.45 589.99 686.51 537.3"/><polygon class="cls-3" points="686.51 580.5 686.46 610.69 825.45 661.89 825.45 633.2 686.51 580.5"/></g></svg>