<svg xmlns="http://www.w3.org/2000/svg" viewBox="0 0 1000 1000"><defs><style>.cls-1{fill:#92003b;}.cls-1,.cls-10,.cls-11,.cls-12,.cls-13,.cls-2,.cls-3,.cls-4,.cls-5,.cls-6,.cls-7,.cls-8,.cls-9{stroke:#000;stroke-linejoin:round;stroke-width:2px;}.cls-2{fill:#ffbd48;}.cls-4{fill:#ffdcc5;}.cls-5{fill:#ffe1f9;}.cls-6{fill:none;}.cls-7{fill:#ff7be5;}.cls-8{fill:#fff;}.cls-9{fill:#9ceff3;}.cls-10{fill:#ff7a3f;}.cls-11{fill:#ffa6ac;}.cls-12{fill:#ffbc7d;}.cls-13{fill:#ff3700;}</style></defs><title>Restrict for Elementor Users with specific meta value</title><g id="Layer_3" data-name="Layer 3"><path class="cls-1" d="M864.7,310.52l-282-25.23a16.77,16.77,0,0,0-18.42,16.79V471.91L859,498.28l22.2,2V328.49A18.2,18.2,0,0,0,864.7,310.52Z"/><line class="cls-2" x1="833.65" y1="328.34" x2="862.96" y2="360.36"/><line class="cls-2" x1="862.96" y1="331.05" x2="833.65" y2="357.65"/><path class="cls-3" d="M478.58,623.34c-16.65-1.35-33.95-2.06-51.71-2.06-90.76,0-169.7,18.52-210.22,45.81-18.45,12.43-28.94,26.68-28.94,41.82,0,48.4,107.14,89.45,239.22,89.45S666,757.31,666,708.91C666,667,585.8,632,478.58,623.34Z"/><path class="cls-4" d="M472.39,618.05c-16.24-1.3-33.11-2-50.43-2-88.5,0-165.49,17.87-205,44.2-18,12-28.22,25.73-28.22,40.33,0,46.69,104.42,84.54,233.22,84.54s233.22-37.85,233.22-84.54C655.18,660.19,577,626.41,472.39,618.05Z"/><path class="cls-3" d="M709.05,658.79c-11.88-1-24.23-1.47-36.91-1.47-64.77,0-121.11,13.22-150,32.7-13.17,8.87-20.66,19-20.66,29.84,0,34.55,76.47,63.85,170.74,63.85s170.64-29.3,170.64-63.85C842.83,690,785.58,665,709.05,658.79Z"/><path class="cls-5" d="M704.63,655c-11.59-.92-23.63-1.42-36-1.42-63.17,0-118.11,12.76-146.31,31.55-12.85,8.55-20.14,18.36-20.14,28.79,0,33.32,74.52,60.33,166.45,60.33s166.45-27,166.45-60.33C835.09,685.09,779.26,661,704.63,655Z"/><path class="cls-6" d="M422,785.13V760.2A12.24,12.24,0,0,0,410,748c-110.34-2-197.4-29.84-217.14-72.79a2.13,2.13,0,0,0-4.07.89v24.53"/><line class="cls-6" x1="204.63" y1="692.81" x2="204.63" y2="733.07"/><line class="cls-6" x1="236.86" y1="714.26" x2="236.86" y2="752.02"/><line class="cls-6" x1="278.82" y1="730.02" x2="278.82" y2="768.19"/><line class="cls-6" x1="329.78" y1="741.16" x2="329.78" y2="778.71"/><line class="cls-6" x1="382.45" y1="746.86" x2="382.45" y2="785.59"/><polygon class="cls-5" points="118.83 271.51 134.54 277.38 322.62 207.51 306.91 201.64 118.83 271.51"/><polygon class="cls-1" points="118.83 641.92 134.54 647.79 134.54 277.38 118.83 271.51 118.83 641.92"/><polygon class="cls-7" points="322.62 577.92 134.54 647.79 134.54 277.38 322.62 207.51 322.62 577.92"/><polygon class="cls-8" points="304.37 282.36 154.91 337.88 154.91 322.44 304.37 266.92 304.37 282.36"/><polygon class="cls-8" points="304.37 317.84 154.91 373.37 154.91 357.93 304.37 302.4 304.37 317.84"/><polygon class="cls-8" points="304.37 353.32 154.91 408.85 154.91 393.41 304.37 337.88 304.37 353.32"/><polygon class="cls-8" points="304.37 388.8 154.91 444.33 154.91 428.89 304.37 373.37 304.37 388.8"/><polygon class="cls-8" points="304.37 424.29 154.91 479.81 154.91 464.38 304.37 408.85 304.37 424.29"/><polygon class="cls-8" points="304.37 459.77 154.91 515.3 154.91 499.86 304.37 444.33 304.37 459.77"/><polygon class="cls-8" points="304.37 495.25 154.91 550.78 154.91 535.34 304.37 479.81 304.37 495.25"/><polygon class="cls-8" points="304.37 530.74 154.91 586.26 154.91 570.82 304.37 515.3 304.37 530.74"/><path class="cls-9" d="M784.43,358.39l-282-25.24A16.77,16.77,0,0,0,484.05,350V519.78l294.66,26.37,22.19,2V376.36A18.17,18.17,0,0,0,784.43,358.39Z"/><path class="cls-10" d="M395.82,562.9l316.85,28.36V419.49a18.19,18.19,0,0,0-16.47-18l-282-25.23a16.76,16.76,0,0,0-18.41,16.79Z"/><polygon class="cls-9" points="424.76 528.02 511.91 535.82 511.91 424.86 424.76 417.06 424.76 528.02"/><line class="cls-11" x1="424.76" y1="528.02" x2="511.91" y2="424.86"/><line class="cls-11" x1="424.76" y1="417.06" x2="511.91" y2="535.82"/><line class="cls-11" x1="684.71" y1="441.44" x2="534.1" y2="428.14"/><line class="cls-11" x1="684.71" y1="463.19" x2="534.1" y2="449.89"/><line class="cls-11" x1="684.71" y1="484.94" x2="534.1" y2="471.64"/><line class="cls-11" x1="684.71" y1="506.7" x2="534.1" y2="493.39"/><line class="cls-11" x1="684.71" y1="528.45" x2="534.1" y2="515.15"/><line class="cls-11" x1="625.15" y1="544.94" x2="534.1" y2="536.9"/><line class="cls-2" x1="753.38" y1="376.21" x2="782.69" y2="408.23"/><line class="cls-2" x1="782.69" y1="378.91" x2="753.38" y2="405.52"/><path class="cls-3" d="M450.09,693.84l-44.42,15.48s-25.62.06-45.8-17.25-9.27-30-9.27-30L395,646.61c24.07-8.39,55.91-4.62,71.12,8.43h0C481.35,668.08,474.16,685.45,450.09,693.84Z"/><ellipse class="cls-3" cx="476.95" cy="651.9" rx="40.64" ry="22.14" transform="translate(-4.03 2.97) rotate(-0.36)"/><path class="cls-7" d="M429.92,647.64v46.08s-12.07,18.95-45.21,18.95-45.21-18.95-45.21-18.95V647.64a45.21,45.21,0,0,1,45.21-45.21h0A45.21,45.21,0,0,1,429.92,647.64Z"/><circle class="cls-7" cx="384.71" cy="583.86" r="35.64"/><polygon class="cls-12" points="575.11 642.71 604.34 672.34 677.26 663.35 648.02 633.72 575.11 642.71"/><polygon class="cls-13" points="575.11 708.15 604.34 737.78 604.34 672.34 575.11 642.71 575.11 708.15"/><polygon class="cls-10" points="677.26 728.79 604.34 737.78 604.34 672.34 677.26 663.35 677.26 728.79"/><polygon class="cls-12" points="669.59 664.26 723.99 684.37 778.4 664.26 723.99 644.16 669.59 664.26"/><polygon class="cls-13" points="669.59 729.42 723.99 749.53 723.99 684.37 669.59 664.26 669.59 729.42"/><polygon class="cls-10" points="778.4 729.42 723.99 749.53 723.99 684.37 778.4 664.26 778.4 729.42"/><polygon class="cls-12" points="632.03 596.96 685.22 616.61 738.4 596.96 685.22 577.31 632.03 596.96"/><polygon class="cls-13" points="632.03 660.66 685.22 680.31 685.22 616.61 632.03 596.96 632.03 660.66"/><polygon class="cls-10" points="738.4 660.66 685.22 680.31 685.22 616.61 738.4 596.96 738.4 660.66"/><line class="cls-2" x1="314.32" y1="221.29" x2="301.83" y2="242.9"/><line class="cls-2" x1="299.82" y1="225.74" x2="316.65" y2="239.08"/></g></svg>