<svg xmlns="http://www.w3.org/2000/svg" xmlns:xlink="http://www.w3.org/1999/xlink" viewBox="0 0 1000 1000"><defs><style>.cls-1,.cls-11,.cls-15,.cls-2,.cls-20,.cls-9{fill:none;}.cls-16,.cls-17,.cls-18,.cls-19,.cls-2,.cls-20,.cls-21,.cls-22,.cls-23,.cls-24{stroke:#000;}.cls-11,.cls-15,.cls-2,.cls-3,.cls-4,.cls-7,.cls-8{stroke-linecap:round;}.cls-10,.cls-11,.cls-12,.cls-13,.cls-14,.cls-15,.cls-16,.cls-17,.cls-18,.cls-19,.cls-2,.cls-20,.cls-21,.cls-22,.cls-23,.cls-24,.cls-3,.cls-4,.cls-5,.cls-6,.cls-7,.cls-8,.cls-9{stroke-linejoin:round;}.cls-11,.cls-2,.cls-3,.cls-4,.cls-7,.cls-8{stroke-width:1.7px;}.cls-18,.cls-3{fill:#ffe1f9;}.cls-10,.cls-11,.cls-12,.cls-13,.cls-14,.cls-15,.cls-3,.cls-4,.cls-5,.cls-6,.cls-7,.cls-8,.cls-9{stroke:#010000;}.cls-10,.cls-4{fill:#fff;}.cls-24,.cls-5{fill:#46f2b6;}.cls-10,.cls-12,.cls-13,.cls-14,.cls-15,.cls-16,.cls-17,.cls-18,.cls-19,.cls-20,.cls-21,.cls-22,.cls-23,.cls-24,.cls-5,.cls-6,.cls-9{stroke-width:2px;}.cls-21,.cls-6,.cls-7{fill:#92003b;}.cls-8{fill:url(#PATTERN_5);}.cls-12{fill:#010000;}.cls-13{fill:#ffa6ac;}.cls-14{fill:#ff3700;}.cls-17{fill:#ffdcc5;}.cls-19{fill:#ff7a3f;}.cls-22{fill:red;}.cls-23{fill:#9ceff3;}</style><pattern id="PATTERN_5" data-name="PATTERN 5" width="51" height="62" patternTransform="translate(-1395.99 -575.8) scale(1.43)" patternUnits="userSpaceOnUse" viewBox="0 0 51 62"><rect class="cls-1" width="51" height="62"/><path class="cls-2" d="M-1.25,65.07l.58-2.26"/><path class="cls-2" d="M40.36,62.48a12.2,12.2,0,0,1-2.57,2"/><path class="cls-2" d="M49.75,65.07l.58-2.26"/><path class="cls-2" d="M3.89,61.88v1.17l.48,0"/><path class="cls-2" d="M44.59,62.17a4.45,4.45,0,0,0,1.13,1.52"/><path class="cls-2" d="M-1.46,10.7a2.42,2.42,0,0,0,2,1.12"/><path class="cls-2" d="M-1.25,3.07-.67.81"/><path class="cls-2" d="M-2.7,37.12c.49,1.46,2.82,1.55,3.34,3"/><path class="cls-2" d="M-1.41,51.74c0,.73,0,1.47,0,2.2a1.24,1.24,0,0,0,.23.76c.18.2.57.22.68,0"/><path class="cls-2" d="M26.33,1.28l-1,1.94"/><path class="cls-2" d="M31.1.91A7.74,7.74,0,0,0,34.69,3.2"/><path class="cls-2" d="M40.36.48a12.2,12.2,0,0,1-2.57,2"/><path class="cls-2" d="M13.13,58.43a4.44,4.44,0,0,1,.33,2.49,1.38,1.38,0,0,0,.73-.82"/><path class="cls-2" d="M49.18,17.16a5.23,5.23,0,0,1-1.94,2.35c-.14.09-.41.11-.39-.06"/><path class="cls-2" d="M42.16,15.63a7.75,7.75,0,0,1-2.39,2c-.19.1-.51.13-.53-.08a1,1,0,0,1,.85-.71"/><path class="cls-2" d="M49.54,10.7a2.42,2.42,0,0,0,2,1.12"/><path class="cls-2" d="M46.55,14c-.08.24-.44.11-.62-.05l-2-1.75"/><path class="cls-2" d="M48.26,6.65a3.15,3.15,0,0,1-1.57,1.28V7.48"/><path class="cls-2" d="M49.75,3.07,50.33.81"/><path class="cls-2" d="M43.07,20.45l-.56,2.7"/><path class="cls-2" d="M47.86,47.84a8,8,0,0,0,2.08.54"/><path class="cls-2" d="M8.39,12.92a7.87,7.87,0,0,0,2.08.54"/><path class="cls-2" d="M46.81,27.39a19.79,19.79,0,0,1-1.09,2"/><path class="cls-2" d="M38.27,26.19A11.06,11.06,0,0,0,42.11,28"/><path class="cls-2" d="M10.47,53.87a11.36,11.36,0,0,0,3.62-2.23"/><path class="cls-2" d="M35,20.28a10.56,10.56,0,0,1,2.62,2.13"/><path class="cls-2" d="M39.42,10.58a1.88,1.88,0,0,1-1.83,1.67"/><path class="cls-2" d="M41.38,5l.35,2.71a1.2,1.2,0,0,0,.23.66.4.4,0,0,0,.61,0"/><path class="cls-2" d="M37.57,8,34.06,9.25"/><path class="cls-2" d="M29.16,5.28A3.42,3.42,0,0,0,31.7,7.22"/><path class="cls-2" d="M34.73,16A5.63,5.63,0,0,1,31,17.33"/><path class="cls-2" d="M29.39,12a3.36,3.36,0,0,0,2,1.79"/><path class="cls-2" d="M25.63,9.25A11.39,11.39,0,0,1,24.79,11c-.23.59-.12,1.45.49,1.63"/><path class="cls-2" d="M25.57,17.24a2.31,2.31,0,0,0,1.91,2.92v-.55"/><path class="cls-2" d="M31.35,23c.09-.06-.05-.21-.14-.15s-.1.18-.1.29V24.2"/><path class="cls-2" d="M2.55,57.53c.09-.06-.06-.2-.15-.15a.35.35,0,0,0-.1.3l0,1.1"/><path class="cls-2" d="M34,25.4a2.12,2.12,0,0,1-1,2.53"/><path class="cls-2" d="M36.65,30.46a11.91,11.91,0,0,0,2.4,2"/><path class="cls-2" d="M42.44,32.36a11.5,11.5,0,0,0,.14,2.81"/><path class="cls-2" d="M46.11,33.27a3.31,3.31,0,0,0,1.75.33"/><path class="cls-2" d="M36.39,35.36a2.18,2.18,0,0,1,1.29,2.94"/><path class="cls-2" d="M33.07,32.23a13.79,13.79,0,0,1-4.57,2.69"/><path class="cls-2" d="M28.4,26.89a19.27,19.27,0,0,1,.82,3.35.76.76,0,0,1-.44-.57"/><path class="cls-2" d="M24.71,23.81l-1.39.76"/><path class="cls-2" d="M23,30.48l1.92-.06"/><path class="cls-2" d="M33.64,37.87l-1.13,1.28a.35.35,0,0,1-.27.16c-.11,0-.17-.2-.06-.22"/><path class="cls-2" d="M23.67,35.41c-.28,1.3,1,2.68,2.66,2.93"/><path class="cls-2" d="M22.41,15.19a8.26,8.26,0,0,1-.86,1.64"/><path class="cls-2" d="M22.14,21.27a4.8,4.8,0,0,1-1.55,1"/><path class="cls-2" d="M20.7,9.43a20.33,20.33,0,0,0-2.19,1.46l1-1"/><path class="cls-2" d="M20.5,4.73a12.89,12.89,0,0,0,1.88,1.5.21.21,0,0,0,.18,0c.06,0,.07-.13,0-.14"/><path class="cls-2" d="M16.52,3.34a5.36,5.36,0,0,1-1,3"/><path class="cls-2" d="M13.15,2.48A2.64,2.64,0,0,0,12,2.66"/><path class="cls-2" d="M13.72,10.54a3.88,3.88,0,0,1-.24,2,1.83,1.83,0,0,0,.32,1.86"/><path class="cls-2" d="M17.75,15.59a3.45,3.45,0,0,1-1.39,2.05.21.21,0,0,1-.21.06c-.06,0-.06-.16,0-.16"/><path class="cls-2" d="M15,21.91a3.9,3.9,0,0,0,1.78,2.61"/><path class="cls-2" d="M4.59,53.81a5.24,5.24,0,0,0,3.32,2.64"/><path class="cls-2" d="M20.05,28.1A5.61,5.61,0,0,1,19,30a1.19,1.19,0,0,1-.5.36c-.31.1-.78,0-.86.35"/><path class="cls-2" d="M11.93,27.13a5.74,5.74,0,0,0,2.34,2.78A3.3,3.3,0,0,0,14,29"/><path class="cls-2" d="M10.67,18a7.22,7.22,0,0,0-1.59,1.85l.05-.43"/><path class="cls-2" d="M11.76,6.4a2.5,2.5,0,0,0-.85.83.28.28,0,0,0-.06.25c0,.08.19.09.19,0"/><path class="cls-2" d="M3.89-.12V1.05l.48,0"/><path class="cls-2" d="M16.49,41.4c.07.52-.56,1-.34,1.48a1.27,1.27,0,0,0,.24.28l1,.87"/><path class="cls-2" d="M21,42.64a4.48,4.48,0,0,1,3.09-.72"/><path class="cls-2" d="M13.06,34,13,36.5"/><path class="cls-2" d="M16.85,34.83c.66,1.13,2.16,1.63,2.61,2.86"/><path class="cls-2" d="M15.06,47.55a3,3,0,0,0,1.55.73c.48.07,1.1.1,1.26.57"/><path class="cls-2" d="M24.56,46.27l-1.81,1.62"/><path class="cls-2" d="M29.36,42.82a2.25,2.25,0,0,1,.18,1.74,1.08,1.08,0,0,0-.09.7c.14.32.68.51.55.84"/><path class="cls-2" d="M26.58,50.13l-.91,1.77c-.09.18-.07.5.12.44"/><path class="cls-2" d="M22.52,51.39a3.35,3.35,0,0,1-1.18,1.81"/><path class="cls-2" d="M17.46,54a1.54,1.54,0,0,0-.08,1l.46,3.16"/><path class="cls-2" d="M6.47,43.86a1.47,1.47,0,0,0,.65,1.06c.38.2,1,0,1-.47"/><path class="cls-2" d="M22.49,60.53a10.31,10.31,0,0,1-2.25,1.59"/><path class="cls-2" d="M44.59.17a4.45,4.45,0,0,0,1.13,1.52"/><path class="cls-2" d="M12.66,40a13.76,13.76,0,0,0-3.33.28"/><path class="cls-2" d="M9.42,31.84c.07.37-.19.71-.37,1s-.3.8,0,1"/><path class="cls-2" d="M5.61,38.34a2,2,0,0,1-1.37,1"/><path class="cls-2" d="M2.57,42.76a9.22,9.22,0,0,0-1,1.14"/><path class="cls-2" d="M3.45,48l-.58,1.63c-.07.19-.07.48.12.5"/><path class="cls-2" d="M7.05,6.58a1.37,1.37,0,0,1-.8,1.82"/><path class="cls-2" d="M4.68,12.82a13.34,13.34,0,0,0-.15,3"/><path class="cls-2" d="M1.64,18.3A2.79,2.79,0,0,0,4,20.55"/><path class="cls-2" d="M5,24a5,5,0,0,1-2.44,1.48"/><path class="cls-2" d="M10.84,23.79,9.37,25.26"/><path class="cls-2" d="M6.43,28.33a2.28,2.28,0,0,1-.18,1.79"/><path class="cls-2" d="M2.15,29.25a7.51,7.51,0,0,1-2.79.29"/><path class="cls-2" d="M2,33.73l1.92.6a.37.37,0,0,1,.24.16c0,.09-.06.22-.14.17"/><path class="cls-2" d="M1.92,5.07a2.27,2.27,0,0,1,.41,2.14"/><path class="cls-2" d="M34.5,44.1c1-.18,2-.38,3-.61.36-.08.71-.41.33-.47"/><path class="cls-2" d="M37.15,48.74a3.49,3.49,0,0,0,1.28,1.85"/><path class="cls-2" d="M32.59,49.65a3.55,3.55,0,0,1-2.38,3.11"/><path class="cls-2" d="M35.3,54.6a12.62,12.62,0,0,1-2.86,1.62"/><path class="cls-2" d="M42.26,42.42A6,6,0,0,1,41.83,45c-.11.29-.77,2-.6,1.27"/><path class="cls-2" d="M41.37,38.26a10.29,10.29,0,0,1,3.05.72"/><path class="cls-2" d="M46.86,42.17a5.46,5.46,0,0,1,.69,2.18"/><path class="cls-2" d="M48.3,37.12c.49,1.46,2.82,1.55,3.34,3"/><path class="cls-2" d="M44.83,49.3c.26.5-.29,1-.75,1.33-.75.51-1.55,1.21-1.52,2.12"/><path class="cls-2" d="M11.54,45.5c.4.75-.43,1.55-1.14,2-1.14.77-2.35,1.84-2.31,3.22"/><path class="cls-2" d="M40.25,55.7a15.45,15.45,0,0,0,2.94,2.94"/><path class="cls-2" d="M29.31,59.63l-1.76.18"/><path class="cls-2" d="M36.75,58.63a6.13,6.13,0,0,0-1.87,2"/><path class="cls-2" d="M26.8,55.68,25,57c-.21.16-.61.28-.68,0"/><path class="cls-2" d="M46.38,56.24A4.5,4.5,0,0,1,48,60"/><path class="cls-2" d="M49.59,51.74c0,.73,0,1.47,0,2.2a1.24,1.24,0,0,0,.23.76c.18.2.57.22.68,0"/><path class="cls-2" d="M50,22.62a8.88,8.88,0,0,0-2.11,1.17l.68,0"/><path class="cls-2" d="M10,60.25A6.63,6.63,0,0,1,8.28,61"/><path class="cls-2" d="M53.15,29.25a7.51,7.51,0,0,1-2.79.29"/><path class="cls-2" d="M22.49-1.47A10.31,10.31,0,0,1,20.24.12"/></pattern></defs><title>Restrict for Elementor Users with specific capability</title><g id="Layer_3" data-name="Layer 3"><path class="cls-3" d="M958.16,411.52l-.27,20a3.8,3.8,0,0,1-5.12,3.55l-56.39-20.89a7.11,7.11,0,0,1-4.64-6.67l.28-20a3.8,3.8,0,0,1,5.12-3.55l56.39,20.89A7.08,7.08,0,0,1,958.16,411.52Z"/><polygon class="cls-4" points="820.27 524.35 846.43 534.46 872.6 544.57 898.77 554.68 924.94 564.79 954.43 576.18 954.43 613.71 954.43 613.71 928.26 603.6 902.1 593.5 875.93 583.39 849.76 573.28 823.6 563.17 794.13 551.78 794.13 514.29 794.13 514.25 820.27 524.35"/><path class="cls-5" d="M685.72,308.17l-.28,20a3.8,3.8,0,0,1-5.11,3.56l-56.4-20.9a7.08,7.08,0,0,1-4.63-6.67l.27-20a3.81,3.81,0,0,1,5.12-3.56l56.4,20.9A7.08,7.08,0,0,1,685.72,308.17Z"/><path class="cls-6" d="M811.07,354.4l-.27,20a3.81,3.81,0,0,1-5.12,3.56l-56.4-20.9a7.08,7.08,0,0,1-4.63-6.66l.28-20a3.8,3.8,0,0,1,5.11-3.56l56.4,20.9A7.08,7.08,0,0,1,811.07,354.4Z"/><path class="cls-7" d="M811.07,354.4l-.27,20a3.81,3.81,0,0,1-5.12,3.56l-56.4-20.9a7.08,7.08,0,0,1-4.63-6.66l.28-20a3.8,3.8,0,0,1,5.11-3.56l56.4,20.9A7.08,7.08,0,0,1,811.07,354.4Z"/><path class="cls-8" d="M958.16,411.52l-.27,20a3.8,3.8,0,0,1-5.12,3.55l-56.39-20.89a7.11,7.11,0,0,1-4.64-6.67l.28-20a3.8,3.8,0,0,1,5.12-3.55l56.39,20.89A7.08,7.08,0,0,1,958.16,411.52Z"/><path class="cls-9" d="M637.2,420.63S644,431,652.43,434.07s15.23-2.45,15.23-2.45-6.82-10.4-15.23-13.43S637.2,420.63,637.2,420.63Z"/><ellipse class="cls-9" cx="652.43" cy="426.13" rx="6.13" ry="8.83" transform="translate(-123.66 355.88) rotate(-27.98)"/><path class="cls-9" d="M637.2,472.76s6.81,10.4,15.23,13.44,15.23-2.45,15.23-2.45-6.82-10.4-15.23-13.43S637.2,472.76,637.2,472.76Z"/><ellipse class="cls-9" cx="652.43" cy="478.26" rx="6.13" ry="8.83" transform="translate(-148.12 361.97) rotate(-27.98)"/><polygon class="cls-10" points="741.45 441.43 767.62 451.54 793.78 461.65 819.95 471.76 846.12 481.87 875.62 493.27 875.62 530.8 875.62 530.8 849.45 520.69 823.28 510.58 797.11 500.47 770.95 490.36 744.78 480.25 715.31 468.87 715.31 431.38 715.31 431.34 741.45 441.43"/><polygon class="cls-8" points="820.27 524.35 846.43 534.46 872.6 544.57 898.77 554.68 924.94 564.79 954.43 576.18 954.43 613.71 954.43 613.71 928.26 603.6 902.1 593.5 875.93 583.39 849.76 573.28 823.6 563.17 794.13 551.78 794.13 514.29 794.13 514.25 820.27 524.35"/><polyline class="cls-11" points="958.54 598.34 970.69 603.13 970.69 456.45 649.3 333.33 649.3 320.57"/><line class="cls-11" x1="673.78" y1="434.17" x2="709.37" y2="448.29"/><line class="cls-11" x1="970.69" y1="548.31" x2="875.62" y2="511.21"/><line class="cls-10" x1="599.62" y1="355.6" x2="970.38" y2="495.36"/><polygon class="cls-12" points="805.71 412.21 801.7 413.9 641.39 351.98 645.41 350.28 805.71 412.21"/><polygon class="cls-13" points="805.71 449.74 801.7 451.44 801.7 413.9 805.71 412.21 805.71 449.74"/><polygon class="cls-10" points="772.2 402.6 801.7 451.52 775.53 441.41 746.03 392.49 772.2 402.6"/><polygon class="cls-14" points="801.7 413.99 801.7 451.52 801.7 451.52 772.2 402.6 801.7 413.99"/><polygon class="cls-14" points="746.03 392.49 775.53 441.41 749.36 431.31 719.86 382.38 746.03 392.49"/><polygon class="cls-14" points="693.7 372.27 723.19 421.2 697.02 411.09 667.53 362.16 693.7 372.27"/><polygon class="cls-10" points="641.39 352.06 667.53 362.16 697.02 411.09 670.86 400.98 641.39 352.1 641.39 352.06"/><polygon class="cls-14" points="641.39 352.1 670.86 400.98 641.39 389.6 641.39 352.1"/><polygon class="cls-10" points="719.86 382.38 749.36 431.31 723.19 421.2 693.7 372.27 719.86 382.38"/><line class="cls-11" x1="773.34" y1="366.93" x2="773.34" y2="379.85"/><line class="cls-11" x1="921.93" y1="423.71" x2="921.93" y2="436.63"/><line class="cls-15" x1="668.77" y1="469.99" x2="636.79" y2="487.53"/><line class="cls-15" x1="642.5" y1="460.25" x2="661.02" y2="495.19"/><path class="cls-16" d="M143.31,643.82,490.09,528.11A105.44,105.44,0,0,1,563,528l263.46,85.29c12.44,4.56,12.46,27.87,0,32.46L441.14,788.15a105.41,105.41,0,0,1-72.86.07l-224.5-82.9-.12-8.28"/><path class="cls-17" d="M143.66,697,368.28,781.4a105.41,105.41,0,0,0,72.86-.07L826.44,639c12.44-4.59,12.42-22.18,0-26.75L563,515.62a105.44,105.44,0,0,0-72.87.07L143.62,643.81Z"/><polygon class="cls-18" points="142.25 412.91 143.74 696.5 601.52 527.37 600.04 243.77 142.25 412.91"/><path class="cls-19" d="M599.92,221.42a16.16,16.16,0,0,0-21.77-15.08l-414.1,153A33.53,33.53,0,0,0,142.14,391l.11,21.94L600,243.77Z"/><polygon class="cls-18" points="168.31 424.7 169.36 625.82 492.31 507.9 492.95 304.76 168.31 424.7"/><line class="cls-20" x1="585.22" y1="218.92" x2="566.48" y2="244.2"/><line class="cls-20" x1="566.48" y1="225.47" x2="585.22" y2="237.66"/><polygon class="cls-18" points="504.31 298.81 504.31 548 590.9 516.28 590.24 268.4 504.31 298.81"/><line class="cls-18" x1="170.84" y1="640.54" x2="494.23" y2="518.75"/><line class="cls-18" x1="170.84" y1="654.09" x2="494.23" y2="532.31"/><line class="cls-18" x1="170.84" y1="668.96" x2="494.23" y2="547.18"/><path class="cls-16" d="M571.53,677.65l-44.42,15.48s-25.62.06-45.8-17.25-9.27-30-9.27-30l44.42-15.48c24.07-8.39,55.91-4.62,71.12,8.43h0C602.78,651.89,595.6,669.27,571.53,677.65Z"/><ellipse class="cls-16" cx="598.39" cy="635.71" rx="40.64" ry="22.14" transform="translate(-3.93 3.72) rotate(-0.36)"/><path class="cls-21" d="M551.36,631.45v46.08s-12.07,19-45.21,19-45.21-19-45.21-19V631.45a45.21,45.21,0,0,1,45.21-45.21h0A45.21,45.21,0,0,1,551.36,631.45Z"/><circle class="cls-21" cx="506.15" cy="567.67" r="35.64"/><path class="cls-16" d="M604,597.84s-15.29-5.93-22.31-9.19c-8.34-3.88-6.44-13.83,12.07-16.34"/><path class="cls-22" d="M669.62,568.49v20c0,7.59-17,13.75-37.93,13.75s-37.93-6.16-37.93-13.75v-20Z"/><path class="cls-22" d="M623.49,555.06c2.64-.21,5.38-.33,8.2-.33,14.39,0,26.91,2.91,33.34,7.19,2.93,2,4.59,4.19,4.59,6.57,0,7.59-17,13.75-37.93,13.75s-37.93-6.16-37.93-13.75C593.76,561.91,606.48,556.42,623.49,555.06Z"/><path class="cls-16" d="M694,629.13s-15.29-5.94-22.31-9.2c-8.34-3.88-6.44-13.83,12.07-16.34"/><path class="cls-23" d="M759.6,599.77v20c0,7.6-17,13.75-37.93,13.75s-37.93-6.15-37.93-13.75v-20Z"/><path class="cls-23" d="M713.47,586.34c2.64-.21,5.38-.32,8.2-.32,14.39,0,26.92,2.9,33.34,7.19,2.93,1.95,4.59,4.18,4.59,6.56,0,7.6-17,13.75-37.93,13.75s-37.93-6.15-37.93-13.75C683.74,593.19,696.46,587.7,713.47,586.34Z"/><path class="cls-16" d="M357.32,700.3,312.9,715.78s-25.62.06-45.8-17.25-9.27-30-9.27-30l44.42-15.47c24.07-8.39,55.91-4.62,71.12,8.43h0C388.57,674.54,381.39,691.92,357.32,700.3Z"/><ellipse class="cls-16" cx="384.18" cy="658.36" rx="40.64" ry="22.14" transform="translate(-4.07 2.39) rotate(-0.36)"/><path class="cls-24" d="M337.15,654.1v46.08s-12.07,19-45.21,19-45.21-19-45.21-19V654.1a45.21,45.21,0,0,1,45.21-45.21h0A45.21,45.21,0,0,1,337.15,654.1Z"/><circle class="cls-24" cx="291.94" cy="590.32" r="35.64"/></g></svg>