<svg xmlns="http://www.w3.org/2000/svg" xmlns:xlink="http://www.w3.org/1999/xlink" viewBox="0 0 1000 1000"><defs><style>.cls-1,.cls-10,.cls-2,.cls-6{fill:none;}.cls-10,.cls-11,.cls-12,.cls-13,.cls-14,.cls-2,.cls-3,.cls-4,.cls-5,.cls-6,.cls-7,.cls-8,.cls-9{stroke:#000;stroke-linejoin:round;}.cls-2,.cls-5,.cls-6{stroke-linecap:round;}.cls-2{stroke-width:1.7px;}.cls-3{fill:#92003b;}.cls-10,.cls-11,.cls-12,.cls-13,.cls-14,.cls-3,.cls-4,.cls-5,.cls-6,.cls-7,.cls-8,.cls-9{stroke-width:2px;}.cls-4{fill:#ffe1f9;}.cls-5{fill:url(#PATTERN_3);}.cls-7{fill:#fff;}.cls-8{fill:#ffdcc5;}.cls-9{fill:#46f2b6;}.cls-12{fill:#ff7a3f;}.cls-13{fill:#ffa6ac;}.cls-14{fill:#ff7be5;}</style><pattern id="PATTERN_3" data-name="PATTERN 3" width="51" height="62" patternTransform="matrix(-1.63, 0, 0, 1.63, -434.46, 183.69)" patternUnits="userSpaceOnUse" viewBox="0 0 51 62"><rect class="cls-1" width="51" height="62"/><path class="cls-2" d="M25.78,62.81l-1,1.93"/><path class="cls-2" d="M30.55,62.43a7.76,7.76,0,0,0,3.59,2.29"/><path class="cls-2" d="M39.81,62a11.59,11.59,0,0,1-2.57,2"/><path class="cls-2" d="M49.21,64.6l.57-2.26"/><path class="cls-2" d="M3.35,61.4v1.17l.49,0"/><path class="cls-2" d="M44,61.7a4.47,4.47,0,0,0,1.14,1.51"/><path class="cls-2" d="M-2,10.23a2.47,2.47,0,0,0,2,1.12"/><path class="cls-2" d="M-3.24,36.64c.48,1.46,2.81,1.56,3.33,3"/><path class="cls-2" d="M25.78.81l-1,1.93"/><path class="cls-2" d="M30.55.43a7.76,7.76,0,0,0,3.59,2.29"/><path class="cls-2" d="M39.81,0a11.59,11.59,0,0,1-2.57,2"/><path class="cls-2" d="M12.59,58a4.47,4.47,0,0,1,.32,2.5,1.39,1.39,0,0,0,.74-.82"/><path class="cls-2" d="M48.64,16.68A5.3,5.3,0,0,1,46.7,19c-.14.09-.41.11-.4-.06"/><path class="cls-2" d="M41.62,15.15a7.84,7.84,0,0,1-2.39,2c-.19.11-.51.14-.54-.08a1,1,0,0,1,.85-.7"/><path class="cls-2" d="M49,10.23a2.47,2.47,0,0,0,2,1.12"/><path class="cls-2" d="M46,13.48c-.08.24-.44.12-.63-.05l-2-1.75"/><path class="cls-2" d="M47.72,6.17a3.18,3.18,0,0,1-1.57,1.28V7"/><path class="cls-2" d="M49.21,2.6,49.78.34"/><path class="cls-2" d="M42.52,20,42,22.68"/><path class="cls-2" d="M47.32,47.36a7.51,7.51,0,0,0,2.08.54"/><path class="cls-2" d="M7.85,12.44A7.79,7.79,0,0,0,9.93,13"/><path class="cls-2" d="M46.27,26.91a21.14,21.14,0,0,1-1.09,2"/><path class="cls-2" d="M37.72,25.72a11.2,11.2,0,0,0,3.85,1.83"/><path class="cls-2" d="M9.92,53.39a11.06,11.06,0,0,0,3.63-2.23"/><path class="cls-2" d="M34.44,19.8a11,11,0,0,1,2.62,2.13"/><path class="cls-2" d="M38.88,10.1A1.88,1.88,0,0,1,37,11.77"/><path class="cls-2" d="M40.83,4.5l.36,2.7a1.08,1.08,0,0,0,.23.66.39.39,0,0,0,.6,0"/><path class="cls-2" d="M37,7.54,33.51,8.77"/><path class="cls-2" d="M28.62,4.81a3.43,3.43,0,0,0,2.54,1.93"/><path class="cls-2" d="M34.19,15.51a5.75,5.75,0,0,1-3.76,1.35"/><path class="cls-2" d="M28.85,11.49a3.34,3.34,0,0,0,2,1.79"/><path class="cls-2" d="M25.08,8.78a11.7,11.7,0,0,1-.83,1.71c-.24.6-.13,1.45.48,1.63"/><path class="cls-2" d="M25,16.77a2.32,2.32,0,0,0,1.92,2.92v-.56"/><path class="cls-2" d="M30.81,22.47c.09-.06-.06-.2-.15-.15a.35.35,0,0,0-.1.3l0,1.1"/><path class="cls-2" d="M2,57.06c.09-.06-.05-.21-.15-.15a.3.3,0,0,0-.09.29v1.11"/><path class="cls-2" d="M33.46,24.93a2.1,2.1,0,0,1-1,2.52"/><path class="cls-2" d="M36.11,30a11.1,11.1,0,0,0,2.4,2"/><path class="cls-2" d="M41.89,31.88A12,12,0,0,0,42,34.69"/><path class="cls-2" d="M45.56,32.8a3.24,3.24,0,0,0,1.76.32"/><path class="cls-2" d="M35.85,34.88a2.18,2.18,0,0,1,1.28,2.94"/><path class="cls-2" d="M32.53,31.76A14.36,14.36,0,0,1,28,34.45"/><path class="cls-2" d="M27.86,26.41a19.35,19.35,0,0,1,.81,3.36.8.8,0,0,1-.43-.58"/><path class="cls-2" d="M24.16,23.33l-1.39.77"/><path class="cls-2" d="M22.43,30l1.92-.06"/><path class="cls-2" d="M33.1,37.4,32,38.67a.36.36,0,0,1-.28.16c-.11,0-.16-.19-.06-.22"/><path class="cls-2" d="M23.12,34.93c-.28,1.3,1,2.69,2.66,2.93"/><path class="cls-2" d="M21.86,14.72A8.5,8.5,0,0,1,21,16.36"/><path class="cls-2" d="M21.59,20.79a4.78,4.78,0,0,1-1.54,1"/><path class="cls-2" d="M20.15,9A21.37,21.37,0,0,0,18,10.41l1-.95"/><path class="cls-2" d="M20,4.25a13,13,0,0,0,1.88,1.51.24.24,0,0,0,.18,0c.06,0,.07-.13,0-.14"/><path class="cls-2" d="M16,2.86a5.31,5.31,0,0,1-1,3"/><path class="cls-2" d="M12.6,2a2.75,2.75,0,0,0-1.17.19"/><path class="cls-2" d="M13.17,10.06a3.92,3.92,0,0,1-.23,2,1.83,1.83,0,0,0,.31,1.86"/><path class="cls-2" d="M17.21,15.11a3.49,3.49,0,0,1-1.39,2.06c-.07,0-.14.08-.21,0s-.07-.16,0-.15"/><path class="cls-2" d="M14.42,21.44A3.86,3.86,0,0,0,16.21,24"/><path class="cls-2" d="M4.05,53.33A5.18,5.18,0,0,0,7.37,56"/><path class="cls-2" d="M19.51,27.63a5.49,5.49,0,0,1-1.11,1.84,1.11,1.11,0,0,1-.49.37c-.32.1-.79,0-.87.35"/><path class="cls-2" d="M11.38,26.66a5.81,5.81,0,0,0,2.34,2.77,3.09,3.09,0,0,0-.31-.93"/><path class="cls-2" d="M10.13,17.54a7.07,7.07,0,0,0-1.6,1.85L8.59,19"/><path class="cls-2" d="M11.22,5.93a2.5,2.5,0,0,0-.86.82c0,.08-.09.17,0,.25s.18.09.19,0"/><path class="cls-2" d="M3.35-.6V.57l.49,0"/><path class="cls-2" d="M15.94,40.93c.08.51-.56,1-.33,1.47a.92.92,0,0,0,.24.28l1,.88"/><path class="cls-2" d="M20.46,42.17a4.47,4.47,0,0,1,3.08-.73"/><path class="cls-2" d="M12.51,33.56,12.44,36"/><path class="cls-2" d="M16.31,34.36c.65,1.12,2.15,1.63,2.6,2.85"/><path class="cls-2" d="M14.51,47.08a3,3,0,0,0,1.55.72c.49.07,1.11.11,1.26.58"/><path class="cls-2" d="M24,45.8,22.2,47.42"/><path class="cls-2" d="M28.82,42.35A2.24,2.24,0,0,1,29,44.09a1,1,0,0,0-.08.69c.14.33.67.51.55.84"/><path class="cls-2" d="M26,49.65l-.92,1.78c-.09.17-.06.5.12.44"/><path class="cls-2" d="M22,50.91a3.35,3.35,0,0,1-1.18,1.81"/><path class="cls-2" d="M16.91,53.54a1.6,1.6,0,0,0-.08,1l.47,3.15"/><path class="cls-2" d="M5.93,43.39a1.45,1.45,0,0,0,.64,1.06c.39.19,1-.05,1-.48"/><path class="cls-2" d="M22,60.06a10.09,10.09,0,0,1-2.26,1.58"/><path class="cls-2" d="M44-.3a4.47,4.47,0,0,0,1.14,1.51"/><path class="cls-2" d="M12.11,39.48a14.37,14.37,0,0,0-3.33.28"/><path class="cls-2" d="M8.87,31.36a1.64,1.64,0,0,1-.37,1c-.18.32-.29.79,0,1"/><path class="cls-2" d="M5.07,37.86a2,2,0,0,1-1.37,1"/><path class="cls-2" d="M2,42.28a10.1,10.1,0,0,0-1,1.14"/><path class="cls-2" d="M2.91,47.51l-.59,1.64c-.07.18-.07.48.13.49"/><path class="cls-2" d="M6.51,6.11a1.38,1.38,0,0,1-.8,1.82"/><path class="cls-2" d="M4.13,12.35a12.73,12.73,0,0,0-.14,3"/><path class="cls-2" d="M1.09,17.83a2.79,2.79,0,0,0,2.39,2.24"/><path class="cls-2" d="M4.43,23.52A5,5,0,0,1,2,25"/><path class="cls-2" d="M10.3,23.31,8.82,24.79"/><path class="cls-2" d="M5.88,27.86a2.26,2.26,0,0,1-.17,1.78"/><path class="cls-2" d="M1.61,28.77a7.14,7.14,0,0,1-2.79.29"/><path class="cls-2" d="M1.43,33.25l1.91.6a.35.35,0,0,1,.24.16c0,.09-.05.23-.14.18"/><path class="cls-2" d="M1.38,4.59a2.24,2.24,0,0,1,.4,2.14"/><path class="cls-2" d="M34,43.62c1-.17,2-.38,3-.6.36-.09.7-.42.32-.47"/><path class="cls-2" d="M36.6,48.26a3.57,3.57,0,0,0,1.28,1.86"/><path class="cls-2" d="M32.05,49.17a3.54,3.54,0,0,1-2.39,3.11"/><path class="cls-2" d="M34.75,54.13a12.35,12.35,0,0,1-2.85,1.62"/><path class="cls-2" d="M41.72,42a5.86,5.86,0,0,1-.44,2.58c-.1.29-.76,1.95-.59,1.26"/><path class="cls-2" d="M40.83,37.78a10.68,10.68,0,0,1,3.05.72"/><path class="cls-2" d="M46.32,41.7A5.35,5.35,0,0,1,47,43.88"/><path class="cls-2" d="M47.76,36.64c.48,1.46,2.81,1.56,3.33,3"/><path class="cls-2" d="M44.28,48.83c.26.5-.28,1-.75,1.33A2.78,2.78,0,0,0,42,52.28"/><path class="cls-2" d="M11,45c.39.76-.44,1.55-1.14,2-1.15.77-2.35,1.83-2.32,3.22"/><path class="cls-2" d="M39.71,55.22a15.21,15.21,0,0,0,2.94,3"/><path class="cls-2" d="M28.76,59.15,27,59.33"/><path class="cls-2" d="M36.21,58.16a6.07,6.07,0,0,0-1.88,2"/><path class="cls-2" d="M26.26,55.21,24.5,56.56c-.22.17-.61.28-.69,0"/><path class="cls-2" d="M45.84,55.77a4.43,4.43,0,0,1,1.6,3.73"/><path class="cls-2" d="M49,51.27c0,.73,0,1.46,0,2.19a1.2,1.2,0,0,0,.22.77c.19.2.58.21.68,0"/><path class="cls-2" d="M49.42,22.15a8.91,8.91,0,0,0-2.12,1.16l.69,0"/><path class="cls-2" d="M9.47,59.77a6.51,6.51,0,0,1-1.74.79"/><path class="cls-2" d="M52.61,28.77a7.14,7.14,0,0,1-2.79.29"/><path class="cls-2" d="M22-1.94A10.09,10.09,0,0,1,19.69-.36"/></pattern></defs><title>Restrict for Elementor Users with specific role</title><g id="Layer_3" data-name="Layer 3"><path class="cls-3" d="M659.4,310l23.08-8.27v0a6.84,6.84,0,0,1,4.57.06L839,358A12.85,12.85,0,0,1,847.43,370l-.5,289.49a6.87,6.87,0,0,1-5.86,6.78l-22,7.89.27-15L685.67,609.81a12.83,12.83,0,0,1-8.38-12.08l.46-270.55Z"/><path class="cls-4" d="M824.35,378.3l-.5,289.48a6.89,6.89,0,0,1-9.27,6.44l-152-56.16A12.83,12.83,0,0,1,654.21,606l.5-289.49a6.87,6.87,0,0,1,9.26-6.43l152,56.15A12.85,12.85,0,0,1,824.35,378.3Z"/><polygon class="cls-5" points="810.29 395.59 810.2 519.38 734.18 491.31 734.59 367.52 810.29 395.59"/><line class="cls-6" x1="670.5" y1="346.02" x2="725.83" y2="366.54"/><line class="cls-6" x1="670.5" y1="359.77" x2="725.83" y2="380.29"/><line class="cls-6" x1="670.5" y1="373.51" x2="725.83" y2="394.04"/><line class="cls-6" x1="670.5" y1="387.26" x2="725.83" y2="407.78"/><line class="cls-6" x1="671.13" y1="399.42" x2="726.47" y2="419.94"/><line class="cls-6" x1="670.5" y1="412.1" x2="725.83" y2="432.63"/><line class="cls-6" x1="670.5" y1="425.85" x2="725.83" y2="446.38"/><line class="cls-6" x1="670.5" y1="439.6" x2="725.83" y2="460.12"/><line class="cls-6" x1="670.5" y1="453.35" x2="725.83" y2="473.87"/><line class="cls-6" x1="670.5" y1="467.09" x2="725.83" y2="487.62"/><polygon class="cls-7" points="669.71 503.02 808.34 554.24 808.34 536.5 669.71 485.28 669.71 503.02"/><polygon class="cls-7" points="669.71 536.7 808.34 587.92 808.34 570.18 669.71 518.96 669.71 536.7"/><polygon class="cls-7" points="750.19 600.53 802.46 619.48 802.46 603.24 750.19 584.29 750.19 600.53"/><polygon class="cls-7" points="675.58 573.2 727.85 592.15 727.85 575.92 675.58 556.97 675.58 573.2"/><polygon class="cls-8" points="152.67 363.53 153.87 593.78 525.54 456.46 524.33 226.22 152.67 363.53"/><path class="cls-9" d="M524.24,208.07a13.13,13.13,0,0,0-17.67-12.25L170.37,320a27.22,27.22,0,0,0-17.79,25.68l.09,17.81L524.33,226.21Z"/><polygon class="cls-7" points="173.82 373.11 174.68 536.39 436.87 440.66 437.39 275.73 173.82 373.11"/><line class="cls-10" x1="512.3" y1="206.04" x2="497.09" y2="226.57"/><line class="cls-10" x1="497.09" y1="211.35" x2="512.3" y2="221.25"/><polygon class="cls-7" points="446.62 270.9 446.62 473.21 516.92 447.45 516.38 246.22 446.62 270.9"/><line class="cls-4" x1="175.88" y1="548.34" x2="438.43" y2="449.47"/><line class="cls-4" x1="175.88" y1="559.34" x2="438.43" y2="460.47"/><line class="cls-4" x1="175.88" y1="571.42" x2="438.43" y2="472.54"/><path class="cls-11" d="M534.86,662.77c13.54-1.09,27.6-1.68,42-1.68,73.75,0,137.9,15.06,170.83,37.24,15,10.1,23.52,21.67,23.52,34,0,39.33-87.07,72.69-194.4,72.69s-194.3-33.36-194.3-72.69C382.54,698.27,447.73,669.81,534.86,662.77Z"/><path class="cls-8" d="M539.9,658.47c13.19-1.05,26.91-1.61,41-1.61,71.92,0,134.48,14.52,166.59,35.91,14.62,9.74,22.93,20.91,22.93,32.78,0,37.94-84.85,68.69-189.52,68.69s-189.53-30.75-189.53-68.69C391.35,692.71,454.93,665.26,539.9,658.47Z"/><path class="cls-10" d="M580.88,794.24V774a10,10,0,0,1,9.76-10c89.67-1.64,160.41-24.24,176.46-59.15a1.73,1.73,0,0,1,3.3.72v19.94"/><line class="cls-10" x1="757.49" y1="719.22" x2="757.49" y2="751.94"/><line class="cls-10" x1="731.3" y1="736.66" x2="731.3" y2="767.34"/><line class="cls-10" x1="697.2" y1="749.46" x2="697.2" y2="780.48"/><line class="cls-10" x1="655.78" y1="758.52" x2="655.78" y2="789.03"/><line class="cls-10" x1="612.99" y1="763.15" x2="612.99" y2="794.62"/><path class="cls-11" d="M463,596.88c-13-1-26.48-1.61-40.34-1.61-70.79,0-132.36,14.45-164,35.74-14.39,9.69-22.57,20.8-22.57,32.62,0,37.75,83.57,69.77,186.59,69.77s186.5-32,186.5-69.77C609.23,631,546.65,603.63,463,596.88Z"/><path class="cls-8" d="M458.19,592.75c-12.67-1-25.83-1.55-39.34-1.55-69,0-129.08,13.94-159.9,34.47-14,9.35-22,20.07-22,31.47,0,36.41,81.44,65.93,181.91,65.93S610.77,696.39,610.77,660C610.77,628.45,539.75,599.27,458.19,592.75Z"/><path class="cls-11" d="M430.5,668.46l-44.42,15.48s-25.62.06-45.8-17.25-9.26-30-9.26-30l44.41-15.47c24.07-8.39,55.91-4.62,71.12,8.43h0C461.76,642.7,454.57,660.08,430.5,668.46Z"/><ellipse class="cls-11" cx="457.36" cy="626.52" rx="40.64" ry="22.14" transform="translate(-3.87 2.85) rotate(-0.36)"/><path class="cls-12" d="M410.34,622.26v46.08s-12.08,18.95-45.22,18.95-45.21-18.95-45.21-18.95V622.26a45.21,45.21,0,0,1,45.21-45.21h0A45.22,45.22,0,0,1,410.34,622.26Z"/><circle class="cls-12" cx="365.12" cy="558.48" r="35.64"/><path class="cls-13" d="M392.34,731.55S604.83,744.66,610.77,658c0,0-66.77-11.07-153.76,17C436.47,681.65,393.25,698.81,392.34,731.55Z"/><path class="cls-5" d="M392.34,731.55S604.83,744.66,610.77,658c0,0-66.77-11.07-153.76,17C436.47,681.65,393.25,698.81,392.34,731.55Z"/><path class="cls-10" d="M418.85,723.07V703.63a9.55,9.55,0,0,0-9.37-9.55c-86.06-1.57-154-23.27-169.37-56.77a1.66,1.66,0,0,0-3.17.69v19.14"/><line class="cls-10" x1="249.33" y1="651.06" x2="249.33" y2="682.47"/><line class="cls-10" x1="274.47" y1="667.8" x2="274.47" y2="697.25"/><line class="cls-10" x1="307.2" y1="680.09" x2="307.2" y2="709.86"/><line class="cls-10" x1="346.96" y1="688.78" x2="346.96" y2="718.07"/><line class="cls-10" x1="388.03" y1="693.23" x2="388.03" y2="723.44"/><path class="cls-11" d="M703,719.52l-43.49,15.12s-25,.24-44.61-16.18S606,689.83,606,689.83l43.49-15.13c23.57-8.19,54.64-4.81,69.39,7.57h0C733.68,694.64,726.54,711.32,703,719.52Z"/><path class="cls-14" d="M684.63,672.68v46.08s-12.07,18.94-45.21,18.94-45.21-18.94-45.21-18.94V672.68a45.22,45.22,0,0,1,45.21-45.22h0A45.22,45.22,0,0,1,684.63,672.68Z"/><circle class="cls-14" cx="639.42" cy="608.9" r="35.64"/><path class="cls-11" d="M724,697.2s13.77,4.66,23.3-4.24c0,0-13.34-10.8-34.63-16.31"/></g></svg>