<?xml version="1.0" encoding="utf-8"?>
<!-- Generator: Adobe Illustrator 25.3.1, SVG Export Plug-In . SVG Version: 6.00 Build 0)  -->
<svg version="1.1" id="Layer_1" xmlns="http://www.w3.org/2000/svg" xmlns:xlink="http://www.w3.org/1999/xlink" x="0px" y="0px"
	 viewBox="0 0 756 740" style="enable-background:new 0 0 756 740;" xml:space="preserve">
<style type="text/css">
	.st0{fill:none;}
	.st1{fill:none;stroke:#000000;stroke-width:1.7;stroke-linecap:round;stroke-linejoin:round;stroke-miterlimit:10;}
	.st2{fill:none;stroke:#010101;stroke-width:1.7;stroke-linecap:round;stroke-linejoin:round;}
	.st3{fill:#9F5992;stroke:#000000;stroke-width:2;stroke-linejoin:round;stroke-miterlimit:10;}
	.st4{fill:#FFA6AC;stroke:#000000;stroke-width:2;stroke-linejoin:round;stroke-miterlimit:10;}
	.st5{fill:none;stroke:#000000;stroke-width:2;stroke-linejoin:round;stroke-miterlimit:10;}
	.st6{fill:#FDBC4A;stroke:#010101;stroke-width:2;stroke-linejoin:round;}
	.st7{fill:#E07248;stroke:#000000;stroke-width:2;stroke-linejoin:round;stroke-miterlimit:10;}
	.st8{fill:#FFFFFF;stroke:#000000;stroke-width:2;stroke-linejoin:round;stroke-miterlimit:10;}
	.st9{stroke:#000000;stroke-width:2;stroke-linejoin:round;stroke-miterlimit:10;}
	.st10{fill:url(#SVGID_1_);stroke:#000000;stroke-width:1.7;stroke-linecap:round;stroke-linejoin:round;stroke-miterlimit:10;}
	.st11{fill:#9CEFF3;stroke:#000000;stroke-width:2;stroke-linejoin:round;stroke-miterlimit:10;}
	.st12{fill:#FF0000;stroke:#000000;stroke-width:2;stroke-linejoin:round;stroke-miterlimit:10;}
	.st13{fill:none;stroke:#000000;stroke-width:2;stroke-linecap:round;stroke-linejoin:round;stroke-miterlimit:10;}
	.st14{fill:#FFFFFF;}
	.st15{fill:#9CEFF3;}
	.st16{fill:#FFBD48;stroke:#000000;stroke-width:2;stroke-linejoin:round;stroke-miterlimit:10;}
	.st17{fill:#FFBD48;stroke:#000000;stroke-width:2;stroke-linecap:round;stroke-linejoin:round;stroke-miterlimit:10;}
	.st18{fill:url(#SVGID_3_);stroke:#000000;stroke-width:2;stroke-linejoin:round;stroke-miterlimit:10;}
</style>
<pattern  x="499" y="-90" width="51" height="62" patternUnits="userSpaceOnUse" id="PATTERN_2" viewBox="4.09 -65.59 51 62" style="overflow:visible;">
	<g>
		<rect x="4.09" y="-65.59" class="st0" width="51" height="62"/>
		<g>
			<path class="st1" d="M29.87-2.78c-0.34,0.64-0.67,1.29-1.01,1.93"/>
			<path class="st1" d="M34.64-3.16c0.95,1.08,2.21,1.88,3.59,2.29"/>
			<path class="st1" d="M43.9-3.59c-0.76,0.79-1.63,1.47-2.57,2.01"/>
			<path class="st1" d="M53.29-1c0.19-0.75,0.39-1.51,0.58-2.26"/>
			<path class="st1" d="M7.44-4.19c0,0.39,0.01,0.78,0.01,1.17C7.61-3.01,7.77-3,7.93-3"/>
			<path class="st1" d="M48.13-3.89c0.26,0.58,0.65,1.1,1.13,1.52"/>
		</g>
		<g>
			<path class="st1" d="M2.08-55.36c0.43,0.68,1.21,1.11,2.01,1.12"/>
			<path class="st1" d="M0.85-28.95c0.48,1.46,2.81,1.56,3.33,3.01"/>
		</g>
		<g>
			<path class="st1" d="M29.87-64.78c-0.34,0.64-0.67,1.29-1.01,1.93"/>
			<path class="st1" d="M34.64-65.16c0.95,1.08,2.21,1.88,3.59,2.29"/>
			<path class="st1" d="M43.9-65.59c-0.76,0.79-1.63,1.47-2.57,2.01"/>
			<path class="st1" d="M16.68-7.64c0.35,0.78,0.46,1.65,0.33,2.49c0.34-0.16,0.61-0.46,0.73-0.82"/>
			<path class="st1" d="M52.73-48.91c-0.4,0.95-1.08,1.78-1.94,2.35c-0.14,0.09-0.41,0.11-0.4-0.06"/>
			<path class="st1" d="M45.71-50.44c-0.65,0.81-1.47,1.49-2.39,1.98c-0.19,0.1-0.51,0.13-0.54-0.08c0.11-0.38,0.46-0.67,0.85-0.71"
				/>
			<path class="st1" d="M53.08-55.36c0.43,0.68,1.21,1.11,2.01,1.12"/>
			<path class="st1" d="M50.1-52.11c-0.08,0.24-0.44,0.11-0.62-0.05c-0.66-0.58-1.31-1.16-1.97-1.75"/>
			<path class="st1" d="M51.81-59.42c-0.36,0.58-0.92,1.04-1.57,1.28c0-0.15,0-0.3-0.01-0.45"/>
			<path class="st1" d="M53.29-63c0.19-0.75,0.39-1.51,0.58-2.26"/>
			<path class="st1" d="M46.61-45.61c-0.19,0.9-0.37,1.8-0.56,2.7"/>
			<path class="st1" d="M51.41-18.23c0.66,0.28,1.37,0.46,2.08,0.54"/>
			<path class="st1" d="M11.94-53.15c0.66,0.28,1.37,0.46,2.08,0.54"/>
			<path class="st1" d="M50.36-38.68c-0.32,0.68-0.69,1.34-1.09,1.97"/>
			<path class="st1" d="M41.81-39.87c1.15,0.85,2.46,1.47,3.84,1.83"/>
			<path class="st1" d="M14.01-12.2c1.34-0.5,2.58-1.26,3.63-2.23"/>
			<path class="st1" d="M38.53-45.79c0.98,0.57,1.86,1.29,2.62,2.13"/>
			<path class="st1" d="M42.97-55.49c-0.07,0.91-0.93,1.69-1.84,1.67"/>
			<path class="st1" d="M44.92-61.09c0.12,0.9,0.24,1.8,0.35,2.7c0.03,0.23,0.07,0.48,0.23,0.66s0.49,0.2,0.61,0"/>
			<path class="st1" d="M41.11-58.05c-1.17,0.41-2.34,0.82-3.51,1.23"/>
			<path class="st1" d="M32.71-60.78c0.46,1.01,1.45,1.76,2.54,1.93"/>
			<path class="st1" d="M38.28-50.08c-1.03,0.89-2.4,1.38-3.76,1.35"/>
			<path class="st1" d="M32.94-54.1c0.38,0.84,1.13,1.51,2,1.79"/>
			<path class="st1" d="M29.17-56.81c-0.14,0.62-0.6,1.12-0.83,1.72c-0.24,0.59-0.12,1.45,0.49,1.63"/>
			<path class="st1" d="M29.11-48.82c-0.43,1.27,0.59,2.82,1.92,2.92c0-0.18-0.01-0.37-0.01-0.55"/>
			<path class="st1" d="M34.9-43.12c0.09-0.06-0.05-0.21-0.15-0.15s-0.1,0.19-0.1,0.3c0.01,0.37,0.01,0.74,0.02,1.1"/>
			<path class="st1" d="M6.09-8.53c0.09-0.06-0.05-0.21-0.15-0.15c-0.09,0.06-0.1,0.19-0.1,0.3c0.01,0.37,0.01,0.74,0.02,1.1"/>
			<path class="st1" d="M37.55-40.66c0.35,0.92-0.09,2.07-0.96,2.52"/>
			<path class="st1" d="M40.2-35.61c0.7,0.78,1.51,1.47,2.4,2.03"/>
			<path class="st1" d="M45.98-33.71c-0.06,0.94-0.01,1.88,0.15,2.81"/>
			<path class="st1" d="M49.65-32.79c0.54,0.27,1.15,0.38,1.75,0.32"/>
			<path class="st1" d="M39.94-30.71c1.17,0.33,1.83,1.85,1.28,2.94"/>
			<path class="st1" d="M36.62-33.83c-1.34,1.18-2.9,2.09-4.57,2.69"/>
			<path class="st1" d="M31.95-39.18c0.37,1.09,0.65,2.21,0.82,3.35c-0.22-0.11-0.39-0.33-0.43-0.57"/>
			<path class="st1" d="M28.25-42.26c-0.46,0.25-0.93,0.51-1.39,0.76"/>
			<path class="st1" d="M26.52-35.59c0.64-0.02,1.28-0.04,1.92-0.06"/>
			<path class="st1" d="M37.19-28.19c-0.38,0.43-0.75,0.85-1.13,1.28c-0.07,0.08-0.16,0.17-0.27,0.16c-0.11-0.01-0.17-0.2-0.06-0.23
				"/>
			<path class="st1" d="M27.21-30.66c-0.28,1.3,0.98,2.68,2.66,2.93"/>
			<path class="st1" d="M25.95-50.87c-0.22,0.58-0.51,1.13-0.85,1.64"/>
			<path class="st1" d="M25.68-44.8c-0.45,0.43-0.97,0.78-1.55,1.01"/>
			<path class="st1" d="M24.24-56.64c-0.76,0.44-1.49,0.93-2.19,1.46c0.34-0.32,0.68-0.63,1.03-0.95"/>
			<path class="st1" d="M24.05-61.34c0.58,0.56,1.21,1.07,1.88,1.5c0.05,0.03,0.12,0.07,0.18,0.05s0.07-0.13,0.01-0.14"/>
			<path class="st1" d="M20.06-62.73c-0.01,1.07-0.35,2.14-0.97,3"/>
			<path class="st1" d="M16.69-63.59c-0.4-0.03-0.81,0.04-1.18,0.19"/>
			<path class="st1" d="M17.26-55.53c0.18,0.64-0.08,1.31-0.24,1.95c-0.16,0.64-0.18,1.43,0.32,1.86"/>
			<path class="st1" d="M21.3-50.48c-0.19,0.83-0.69,1.58-1.39,2.06c-0.06,0.04-0.14,0.08-0.21,0.06c-0.07-0.03-0.07-0.16,0.01-0.16
				"/>
			<path class="st1" d="M18.51-44.15c0.19,1.07,0.86,2.04,1.79,2.6"/>
			<path class="st1" d="M8.14-12.26c0.67,1.3,1.91,2.28,3.32,2.64"/>
			<path class="st1" d="M23.6-37.96c-0.24,0.68-0.62,1.31-1.1,1.84c-0.14,0.15-0.3,0.3-0.49,0.37c-0.32,0.1-0.79,0.02-0.87,0.35"/>
			<path class="st1" d="M15.47-38.93c0.45,1.15,1.29,2.14,2.34,2.78c-0.06-0.32-0.16-0.64-0.31-0.93"/>
			<path class="st1" d="M14.21-48.05c-0.63,0.52-1.17,1.15-1.59,1.85c0.02-0.14,0.04-0.29,0.06-0.43"/>
			<path class="st1" d="M15.31-59.67c-0.34,0.2-0.64,0.49-0.85,0.82c-0.05,0.08-0.09,0.17-0.06,0.25s0.19,0.09,0.19,0"/>
			<path class="st1" d="M7.44-66.19c0,0.39,0.01,0.78,0.01,1.17C7.61-65.01,7.77-65,7.93-65"/>
			<path class="st1" d="M20.03-24.67c0.08,0.52-0.56,1.01-0.33,1.48c0.05,0.11,0.15,0.2,0.24,0.28c0.34,0.29,0.67,0.59,1.01,0.88"/>
			<path class="st1" d="M24.55-23.42c0.89-0.61,2.01-0.87,3.09-0.72"/>
			<path class="st1" d="M16.6-32.03c-0.02,0.82-0.05,1.64-0.07,2.46"/>
			<path class="st1" d="M20.4-31.23c0.65,1.13,2.15,1.63,2.61,2.85"/>
			<path class="st1" d="M18.6-18.51c0.43,0.39,0.98,0.64,1.55,0.73c0.48,0.07,1.11,0.11,1.26,0.57"/>
			<path class="st1" d="M28.11-19.79c-0.61,0.54-1.21,1.08-1.82,1.62"/>
			<path class="st1" d="M32.91-23.24c0.29,0.53,0.35,1.17,0.17,1.74c-0.07,0.23-0.18,0.48-0.09,0.7c0.14,0.32,0.67,0.51,0.55,0.84"
				/>
			<path class="st1" d="M30.13-15.94c-0.31,0.59-0.61,1.18-0.92,1.77c-0.09,0.18-0.07,0.5,0.12,0.44"/>
			<path class="st1" d="M26.07-14.68c-0.18,0.71-0.6,1.36-1.18,1.81"/>
			<path class="st1" d="M21-12.06c-0.18,0.3-0.13,0.68-0.08,1.02c0.16,1.05,0.31,2.1,0.47,3.15"/>
			<path class="st1" d="M10.02-22.2c0.09,0.42,0.27,0.87,0.65,1.06c0.38,0.19,0.97-0.05,0.95-0.48"/>
			<path class="st1" d="M26.04-5.53c-0.68,0.63-1.44,1.16-2.25,1.59"/>
			<path class="st1" d="M48.13-65.89c0.26,0.58,0.65,1.1,1.13,1.52"/>
			<path class="st1" d="M16.2-26.11c-1.12-0.04-2.24,0.06-3.33,0.28"/>
			<path class="st1" d="M12.96-34.23c0.07,0.37-0.18,0.72-0.37,1.04s-0.29,0.8-0.01,1.04"/>
			<path class="st1" d="M9.16-27.73c-0.28,0.52-0.8,0.9-1.37,1.01"/>
			<path class="st1" d="M6.12-23.31c-0.37,0.35-0.71,0.73-1.02,1.14"/>
			<path class="st1" d="M7-18.08c-0.19,0.54-0.39,1.09-0.58,1.63c-0.07,0.19-0.07,0.48,0.13,0.49"/>
			<path class="st1" d="M10.6-59.48c0.32,0.68-0.09,1.6-0.8,1.82"/>
			<path class="st1" d="M8.22-53.24c-0.16,0.98-0.21,1.97-0.15,2.96"/>
			<path class="st1" d="M5.18-47.76c0.2,1.16,1.23,2.13,2.39,2.25"/>
			<path class="st1" d="M8.51-42.07c-0.65,0.72-1.51,1.24-2.44,1.48"/>
			<path class="st1" d="M14.39-42.28c-0.49,0.49-0.98,0.98-1.47,1.47"/>
			<path class="st1" d="M9.97-37.73c0.19,0.58,0.13,1.25-0.18,1.78"/>
			<path class="st1" d="M5.7-36.82c-0.9,0.28-1.85,0.38-2.79,0.29"/>
			<path class="st1" d="M5.52-32.34c0.64,0.2,1.28,0.4,1.91,0.6c0.09,0.03,0.2,0.07,0.24,0.16c0.04,0.09-0.05,0.23-0.14,0.18"/>
			<path class="st1" d="M5.47-61c0.49,0.58,0.65,1.42,0.4,2.14"/>
			<path class="st1" d="M38.05-21.97c1.01-0.18,2.02-0.38,3-0.61c0.36-0.08,0.7-0.42,0.32-0.47"/>
			<path class="st1" d="M40.69-17.33c0.21,0.74,0.67,1.4,1.28,1.85"/>
			<path class="st1" d="M36.14-16.42c-0.07,1.39-1.07,2.69-2.39,3.11"/>
			<path class="st1" d="M38.84-11.47c-0.87,0.66-1.84,1.21-2.85,1.62"/>
			<path class="st1" d="M45.81-23.64c0.07,0.92-0.12,1.72-0.44,2.58c-0.11,0.29-0.77,1.95-0.59,1.27"/>
			<path class="st1" d="M44.92-27.81c1.04,0.08,2.08,0.33,3.05,0.72"/>
			<path class="st1" d="M50.41-23.89c0.38,0.67,0.61,1.42,0.68,2.18"/>
			<path class="st1" d="M51.85-28.95c0.48,1.46,2.81,1.56,3.33,3.01"/>
			<path class="st1" d="M48.37-16.76c0.26,0.5-0.29,1.02-0.75,1.33c-0.75,0.51-1.55,1.21-1.52,2.12"/>
			<path class="st1" d="M15.09-20.57c0.39,0.76-0.43,1.55-1.14,2.02c-1.14,0.77-2.35,1.84-2.31,3.22"/>
			<path class="st1" d="M43.8-10.37c0.84,1.11,1.83,2.11,2.94,2.95"/>
			<path class="st1" d="M32.85-6.44c-0.59,0.06-1.17,0.12-1.76,0.18"/>
			<path class="st1" d="M40.3-7.43c-0.76,0.51-1.41,1.19-1.87,1.99"/>
			<path class="st1" d="M30.35-10.38c-0.59,0.45-1.17,0.9-1.76,1.35c-0.22,0.17-0.61,0.28-0.69,0.02"/>
			<path class="st1" d="M49.93-9.83c1.09,0.89,1.71,2.33,1.61,3.73"/>
			<path class="st1" d="M53.13-14.33c-0.03,0.73-0.02,1.47,0.02,2.2c0.02,0.27,0.04,0.56,0.23,0.76c0.18,0.2,0.57,0.22,0.68-0.03"/>
			<path class="st1" d="M53.51-43.44c-0.75,0.29-1.47,0.68-2.12,1.17c0.23-0.01,0.46-0.02,0.69-0.03"/>
			<path class="st1" d="M13.56-5.82c-0.54,0.34-1.13,0.61-1.74,0.78"/>
		</g>
		<g>
			<path class="st1" d="M56.7-36.82c-0.9,0.28-1.85,0.38-2.79,0.29"/>
		</g>
		<g>
			<path class="st1" d="M26.04-67.53c-0.68,0.63-1.44,1.16-2.25,1.59"/>
		</g>
	</g>
</pattern>
<pattern  x="499" y="-90" width="51" height="62" patternUnits="userSpaceOnUse" id="SVGID_2_" viewBox="4.05 -65.55 51 62" style="overflow:visible;">
	<g>
		<rect x="4.05" y="-65.55" class="st0" width="51" height="62"/>
		<g>
			<rect x="4.05" y="-65.55" class="st0" width="51" height="62"/>
			<rect x="4.05" y="-65.55" class="st0" width="51" height="62"/>
			<path class="st2" d="M29.85-2.75l-1,1.9"/>
			<path class="st2" d="M34.55-3.15c1,1.1,2.2,1.9,3.6,2.3"/>
			<path class="st2" d="M43.85-3.55c-0.8,0.8-1.6,1.5-2.6,2"/>
			<path class="st2" d="M53.25-0.95l0.6-2.3"/>
			<path class="st2" d="M7.35-4.15v1.2h0.5"/>
			<path class="st2" d="M48.05-3.85c0.3,0.6,0.7,1.1,1.1,1.5"/>
			<path class="st2" d="M2.05-55.35c0.4,0.7,1.2,1.1,2,1.1"/>
			<path class="st2" d="M0.85-28.95c0.5,1.5,2.8,1.6,3.3,3"/>
			<path class="st2" d="M29.85-64.75l-1,1.9"/>
			<path class="st2" d="M34.55-65.15c1,1.1,2.2,1.9,3.6,2.3"/>
			<path class="st2" d="M43.85-65.55c-0.8,0.8-1.6,1.5-2.6,2"/>
			<path class="st2" d="M16.65-7.55c0.3,0.8,0.5,1.7,0.3,2.5c0.3-0.2,0.6-0.5,0.7-0.8"/>
			<path class="st2" d="M52.65-48.85c-0.4,0.9-1.1,1.8-1.9,2.3c-0.1,0.1-0.4,0.1-0.4-0.1"/>
			<path class="st2" d="M45.65-50.45c-0.7,0.8-1.5,1.5-2.4,2c-0.2,0.1-0.5,0.1-0.5-0.1c0.1-0.4,0.5-0.7,0.8-0.7"/>
			<path class="st2" d="M53.05-55.35c0.4,0.7,1.2,1.1,2,1.1"/>
			<path class="st2" d="M50.05-52.05c-0.1,0.2-0.4,0.1-0.6-0.1l-2-1.8"/>
			<path class="st2" d="M51.75-59.35c-0.4,0.6-0.9,1-1.6,1.3v-0.4"/>
			<path class="st2" d="M53.25-62.95l0.6-2.3"/>
			<path class="st2" d="M46.55-45.55l-0.5,2.7"/>
			<path class="st2" d="M51.35-18.15c0.7,0.3,1.4,0.5,2.1,0.5"/>
			<path class="st2" d="M11.85-53.15c0.7,0.3,1.4,0.5,2.1,0.6"/>
			<path class="st2" d="M50.35-38.65c-0.3,0.7-0.7,1.4-1.1,2"/>
			<path class="st2" d="M41.75-39.85c1.2,0.9,2.5,1.5,3.8,1.8"/>
			<path class="st2" d="M13.95-12.15c1.3-0.5,2.6-1.3,3.6-2.2"/>
			<path class="st2" d="M38.45-45.75c1,0.6,1.9,1.3,2.6,2.1"/>
			<path class="st2" d="M42.95-55.45c-0.1,1-0.9,1.7-1.9,1.7"/>
			<path class="st2" d="M44.85-61.05l0.4,2.7c0,0.2,0.1,0.5,0.2,0.7c0.1,0.2,0.4,0.2,0.5,0.1c0,0,0,0,0.1-0.1"/>
			<path class="st2" d="M41.05-58.05l-3.5,1.2"/>
			<path class="st2" d="M32.65-60.75c0.5,1,1.4,1.7,2.5,1.9"/>
			<path class="st2" d="M38.25-50.05c-1.1,0.9-2.4,1.4-3.8,1.4"/>
			<path class="st2" d="M32.85-54.05c0.4,0.9,1.1,1.5,2,1.8"/>
			<path class="st2" d="M29.15-56.75c-0.2,0.6-0.5,1.2-0.8,1.7c-0.2,0.6-0.1,1.4,0.5,1.6"/>
			<path class="st2" d="M29.05-48.75c-0.3,1.2,0.4,2.5,1.6,2.9c0.1,0,0.2,0,0.3,0.1v-0.6"/>
			<path class="st2" d="M34.85-43.05c0.1-0.1-0.1-0.2-0.1-0.1c-0.1,0.1-0.1,0.2-0.1,0.3v1.1"/>
			<path class="st2" d="M6.05-8.45c0.1-0.1-0.1-0.2-0.2-0.2c-0.1,0.1-0.1,0.2-0.1,0.3v1.1"/>
			<path class="st2" d="M37.45-40.65c0.3,1-0.1,2-1,2.5"/>
			<path class="st2" d="M40.15-35.55c0.7,0.8,1.5,1.4,2.4,2"/>
			<path class="st2" d="M45.95-33.65c-0.1,0.9,0,1.9,0.1,2.8"/>
			<path class="st2" d="M49.65-32.75c0.5,0.3,1.2,0.4,1.8,0.3"/>
			<path class="st2" d="M39.85-30.65c1.1,0.4,1.7,1.6,1.3,2.8c0,0.1,0,0.1-0.1,0.2"/>
			<path class="st2" d="M36.55-33.85c-1.3,1.2-2.9,2.1-4.5,2.7"/>
			<path class="st2" d="M31.95-39.15c0.4,1.1,0.6,2.2,0.8,3.4c-0.2-0.1-0.4-0.3-0.4-0.6"/>
			<path class="st2" d="M28.15-42.25l-1.4,0.8"/>
			<path class="st2" d="M26.45-35.55l1.9-0.1"/>
			<path class="st2" d="M37.15-28.15l-1.1,1.3c-0.1,0.1-0.2,0.2-0.3,0.2s-0.2-0.2-0.1-0.2"/>
			<path class="st2" d="M27.15-30.65c-0.3,1.3,1,2.7,2.7,2.9"/>
			<path class="st2" d="M25.95-50.85c-0.2,0.6-0.5,1.1-0.9,1.6"/>
			<path class="st2" d="M25.65-44.75c-0.4,0.4-1,0.8-1.5,1"/>
			<path class="st2" d="M24.15-56.55c-0.7,0.4-1.5,0.9-2.1,1.4l1-0.9"/>
			<path class="st2" d="M24.05-61.35c0.6,0.6,1.2,1.1,1.9,1.5c0.1,0,0.1,0,0.2,0s0.1-0.1,0-0.1"/>
			<path class="st2" d="M20.05-62.65c0,1.1-0.4,2.1-1,3"/>
			<path class="st2" d="M16.65-63.55c-0.4,0-0.8,0-1.2,0.2"/>
			<path class="st2" d="M17.25-55.45c0.1,0.7,0,1.4-0.2,2c-0.2,0.6-0.1,1.3,0.3,1.9"/>
			<path class="st2" d="M21.25-50.45c-0.2,0.8-0.7,1.6-1.4,2.1c-0.1,0-0.1,0.1-0.2,0c-0.1-0.1-0.1-0.2,0-0.1"/>
			<path class="st2" d="M18.45-44.15c0.2,1.1,0.9,2,1.8,2.6"/>
			<path class="st2" d="M8.05-12.25c0.7,1.3,1.9,2.3,3.3,2.7"/>
			<path class="st2" d="M23.55-37.95c-0.2,0.7-0.6,1.3-1.1,1.8c-0.1,0.2-0.3,0.3-0.5,0.4c-0.3,0.1-0.8,0-0.9,0.3"/>
			<path class="st2" d="M15.45-38.85c0.5,1.1,1.3,2.1,2.3,2.8c-0.1-0.3-0.2-0.6-0.3-0.9"/>
			<path class="st2" d="M14.15-48.05c-0.6,0.5-1.2,1.1-1.6,1.9l0.1-0.4"/>
			<path class="st2" d="M15.25-59.65c-0.3,0.2-0.6,0.5-0.9,0.8c0,0.1-0.1,0.2,0,0.2s0.2,0.1,0.2,0"/>
			<path class="st2" d="M7.35-66.15v1.2h0.5"/>
			<path class="st2" d="M19.95-24.65c0.1,0.5-0.6,1-0.3,1.5c0.1,0.1,0.1,0.2,0.2,0.3l1,0.9"/>
			<path class="st2" d="M24.45-23.35c0.9-0.6,2-0.9,3.1-0.7"/>
			<path class="st2" d="M16.55-31.95l-0.1,2.4"/>
			<path class="st2" d="M20.35-31.15c0.6,1.1,2.1,1.6,2.6,2.8"/>
			<path class="st2" d="M18.55-18.45c0.4,0.4,1,0.6,1.5,0.7c0.5,0.1,1.1,0.1,1.3,0.6"/>
			<path class="st2" d="M28.05-19.75l-1.8,1.6"/>
			<path class="st2" d="M32.85-23.25c0.3,0.5,0.4,1.2,0.2,1.7c-0.1,0.3-0.1,0.5-0.1,0.8c0.1,0.3,0.7,0.5,0.5,0.8"/>
			<path class="st2" d="M30.05-15.95l-0.9,1.8c-0.1,0.2-0.1,0.5,0.1,0.4"/>
			<path class="st2" d="M26.05-14.65c-0.2,0.7-0.6,1.4-1.2,1.8"/>
			<path class="st2" d="M20.95-12.05c-0.1,0.3-0.2,0.7-0.1,1l0.5,3.2"/>
			<path class="st2" d="M9.95-22.15c0,0.4,0.3,0.8,0.6,1.1c0.4,0.2,1,0,1-0.5"/>
			<path class="st2" d="M26.05-5.45c-0.7,0.6-1.4,1.2-2.3,1.6"/>
			<path class="st2" d="M48.05-65.85c0.3,0.6,0.7,1.1,1.1,1.5"/>
			<path class="st2" d="M16.15-26.05c-1.1,0-2.2,0.1-3.3,0.3"/>
			<path class="st2" d="M12.95-34.15c0,0.4-0.1,0.7-0.4,1c-0.2,0.3-0.3,0.8,0,1"/>
			<path class="st2" d="M9.15-27.65c-0.3,0.5-0.8,0.9-1.4,1"/>
			<path class="st2" d="M6.05-23.25c-0.4,0.4-0.7,0.7-1,1.1"/>
			<path class="st2" d="M6.95-18.05l-0.6,1.6c-0.1,0.2-0.1,0.5,0.1,0.5"/>
			<path class="st2" d="M10.55-59.45c0.3,0.7,0,1.5-0.8,1.8l0,0"/>
			<path class="st2" d="M8.15-53.25c-0.2,1-0.2,2-0.1,3"/>
			<path class="st2" d="M5.15-47.75c0.2,1.2,1.2,2.1,2.4,2.2"/>
			<path class="st2" d="M8.45-42.05c-0.6,0.7-1.5,1.2-2.4,1.5"/>
			<path class="st2" d="M14.35-42.25l-1.5,1.5"/>
			<path class="st2" d="M9.95-37.65c0.2,0.6,0.1,1.2-0.2,1.8"/>
			<path class="st2" d="M5.65-36.75c-0.9,0.3-1.8,0.4-2.8,0.3"/>
			<path class="st2" d="M5.45-32.35l1.9,0.6c0.1,0,0.2,0.1,0.2,0.2c0,0.1-0.1,0.2-0.1,0.2"/>
			<path class="st2" d="M5.45-60.95c0.5,0.6,0.6,1.4,0.4,2.1"/>
			<path class="st2" d="M38.05-21.95c1-0.2,2-0.4,3-0.6c0.4-0.1,0.7-0.4,0.3-0.5"/>
			<path class="st2" d="M40.65-17.35c0.2,0.7,0.7,1.4,1.3,1.9"/>
			<path class="st2" d="M36.05-16.35c-0.1,1.4-1,2.6-2.4,3.1"/>
			<path class="st2" d="M38.75-11.45c-0.8,0.7-1.8,1.2-2.8,1.6"/>
			<path class="st2" d="M45.75-23.55c0,0.9-0.1,1.8-0.4,2.6c-0.1,0.3-0.8,2-0.6,1.3"/>
			<path class="st2" d="M44.85-27.75c1,0.1,2.1,0.3,3,0.7"/>
			<path class="st2" d="M50.35-23.85c0.4,0.7,0.6,1.4,0.7,2.2"/>
			<path class="st2" d="M51.75-28.95c0.5,1.5,2.8,1.6,3.3,3"/>
			<path class="st2" d="M48.35-16.75c0.3,0.5-0.3,1-0.8,1.3c-0.8,0.4-1.4,1.2-1.5,2.1"/>
			<path class="st2" d="M15.05-20.55c0.4,0.8-0.4,1.5-1.1,2c-1.1,0.8-2.4,1.8-2.3,3.2"/>
			<path class="st2" d="M43.75-10.35c0.8,1.1,1.8,2.1,2.9,3"/>
			<path class="st2" d="M32.75-6.45l-1.8,0.2"/>
			<path class="st2" d="M40.25-7.35c-0.8,0.5-1.4,1.2-1.9,2"/>
			<path class="st2" d="M30.35-10.35l-1.8,1.4c-0.2,0.2-0.6,0.3-0.7,0"/>
			<path class="st2" d="M49.85-9.75c1.1,0.9,1.7,2.3,1.6,3.7"/>
			<path class="st2" d="M53.05-14.25c0,0.7,0,1.5,0,2.2c0,0.3,0.1,0.5,0.2,0.8c0.2,0.2,0.6,0.2,0.7,0"/>
			<path class="st2" d="M53.45-43.45c-0.8,0.3-1.5,0.7-2.1,1.2h0.7"/>
			<path class="st2" d="M13.55-5.75c-0.5,0.3-1.1,0.6-1.7,0.8"/>
			<path class="st2" d="M56.65-36.75c-0.9,0.3-1.8,0.4-2.8,0.3"/>
			<path class="st2" d="M26.05-67.45c-0.7,0.6-1.5,1.2-2.3,1.6"/>
		</g>
	</g>
</pattern>
<g>
	<g>
		<polygon class="st3" points="271.82,193.08 82.7,262.96 82.7,88.52 271.82,18.65 		"/>
		<line class="st4" x1="271.82" y1="18.65" x2="82.7" y2="262.96"/>
		<line class="st4" x1="82.7" y1="88.52" x2="271.82" y2="193.08"/>
	</g>
	<polyline class="st5" points="442.7,343.64 442.7,398.44 319.64,443.87 385.2,470.06 	"/>
	<path class="st6" d="M263.2,90.82l195.6-14.75l117.38-8.85c11.1-0.84,20.44,6.34,20.44,15.71v74.42v177.25l-351.7,26.53V107.63
		C244.91,98.97,252.94,91.59,263.2,90.82z"/>
	<line class="st7" x1="596.61" y1="90.85" x2="244.91" y2="116.86"/>
	
		<ellipse transform="matrix(0.1108 -0.9938 0.9938 0.1108 436.4787 647.1052)" class="st8" cx="579.87" cy="79.63" rx="4.08" ry="3.73"/>
	
		<ellipse transform="matrix(0.1108 -0.9938 0.9938 0.1108 423.46 634.5867)" class="st8" cx="566.37" cy="80.64" rx="4.08" ry="3.73"/>
	
		<ellipse transform="matrix(0.1108 -0.9938 0.9938 0.1108 410.4413 622.0682)" class="st8" cx="552.86" cy="81.66" rx="4.08" ry="3.73"/>
	<g>
		<path class="st9" d="M120.43,618.53l271.12,99.86c17.68,6.49,37.09,6.47,54.75-0.05l289.53-106.97c9.34-3.45,9.33-25.17-0.02-28.6
			L464.7,491.4c-17.68-6.49-37.09-6.47-54.75,0.05l-289.53,98.47C111.07,593.38,111.08,615.1,120.43,618.53z"/>
		<path class="st7" d="M120.43,609.2l271.12,99.86c17.68,6.49,37.09,6.47,54.75-0.05l289.53-106.97c9.34-3.45,9.33-16.67-0.02-20.1
			L464.7,482.07c-17.68-6.49-37.09-6.47-54.75,0.05L120.41,589.1C111.07,592.55,111.08,605.76,120.43,609.2z"/>
	</g>
	<polyline class="st5" points="222.37,433.14 222.37,484.64 351.37,536.14 	"/>
	<pattern  id="SVGID_1_" xlink:href="#PATTERN_2" patternTransform="matrix(-1.2521 0 0 1.2522 -18735.4688 2844.2317)">
	</pattern>
	<polygon class="st10" points="229.95,625.09 277.06,643.19 528.17,550.4 481.06,532.31 	"/>
	<g>
		<g>
			<path class="st11" d="M368.74,409.74l-330.3,121.7c-10.15,3.74-20.93-3.76-20.96-14.58l-0.46-200.82
				c-0.01-6.55,4.06-12.4,10.21-14.66L358,180.04c10.16-3.73,20.94,3.79,20.94,14.62v200.47
				C378.93,401.65,374.87,407.49,368.74,409.74z"/>
			<path class="st4" d="M378.93,172.35"/>
		</g>
		<g>
			<line class="st11" x1="17.16" y1="331.64" x2="379.1" y2="198.85"/>
			<path class="st4" d="M379.1,198.85"/>
		</g>
	</g>
	<g>
		<path class="st11" d="M659.35,575.26h-1.07c-1.76,0-3.18-1.43-3.18-3.18V385.55h7.44v186.53
			C662.53,573.84,661.11,575.26,659.35,575.26z"/>
		<g>
			
				<ellipse transform="matrix(0.2255 -0.9742 0.9742 0.2255 136.9347 942.452)" class="st9" cx="661.23" cy="385.1" rx="71.33" ry="42.99"/>
			<path class="st12" d="M691.37,322.31c-7.6-6.33-17.16-8.32-27.54-4.65c-24.78,8.77-44.86,46.47-44.86,84.22
				c0,24.18,8.24,42.51,20.68,50.27c6.98,4.35,15.28,5.37,24.18,2.22c24.78-8.76,44.86-46.47,44.86-84.22
				C708.7,348.2,701.92,331.08,691.37,322.31z"/>
			<g>
				<path class="st8" d="M659.65,426.21c-1.72,0.4-3.36-0.14-4.43-1.5l-20.68-26.27l8.86-10.15l14.94,18.98l24.55-70.07l10.25,2.96
					l-28.36,80.96c-0.8,2.3-2.49,4.15-4.45,4.89C660.1,426.09,659.87,426.16,659.65,426.21z"/>
			</g>
		</g>
	</g>
	<g>
		<g>
			<g>
				<polygon class="st3" points="229.38,498.62 246.21,504.91 494.94,411.87 478.11,405.58 				"/>
				<polygon class="st9" points="229.38,624.93 246.21,631.21 246.21,504.91 229.38,498.62 				"/>
				<polygon class="st4" points="494.94,538.17 246.21,631.21 246.21,504.91 494.94,411.87 				"/>
			</g>
		</g>
		<g>
			<ellipse transform="matrix(0.1667 -0.986 0.986 0.1667 -74.305 806.6191)" cx="440.05" cy="447.27" rx="4.29" ry="2.25"/>
			<ellipse transform="matrix(0.1667 -0.986 0.986 0.1667 -90.5068 820.312)" cx="440.05" cy="463.7" rx="4.29" ry="2.25"/>
			<ellipse transform="matrix(0.1667 -0.986 0.986 0.1667 -106.7085 834.0049)" cx="440.05" cy="480.13" rx="4.29" ry="2.25"/>
			<ellipse transform="matrix(0.1667 -0.986 0.986 0.1667 -122.9103 847.6978)" cx="440.05" cy="496.56" rx="4.29" ry="2.25"/>
			<ellipse transform="matrix(0.1667 -0.986 0.986 0.1667 -139.1121 861.3907)" cx="440.05" cy="513" rx="4.29" ry="2.25"/>
			<ellipse transform="matrix(0.1667 -0.986 0.986 0.1667 -155.3139 875.0836)" cx="440.05" cy="529.43" rx="4.29" ry="2.25"/>
			<ellipse transform="matrix(0.1667 -0.986 0.986 0.1667 -171.5157 888.7765)" cx="440.05" cy="545.86" rx="4.29" ry="2.25"/>
		</g>
		<g>
			<path class="st3" d="M259.12,543.32l0.08-20.09l75.5-28.54l-0.08,20.09l-25.61,9.68l-0.25,65.05l-24.28,9.18l0.25-65.05
				L259.12,543.32z"/>
		</g>
		<line class="st13" x1="420.45" y1="468.21" x2="349.41" y2="494.79"/>
		<line class="st13" x1="420.45" y1="481.5" x2="349.41" y2="508.07"/>
		<line class="st13" x1="420.45" y1="494.79" x2="349.41" y2="521.36"/>
		<line class="st13" x1="397.1" y1="515.85" x2="352.65" y2="532.48"/>
	</g>
	<g>
		<g>
			<g>
				<path class="st9" d="M591.36,596.47l-32.47,11.31c0,0-18.73,0.04-33.48-12.61c-14.75-12.65-6.78-21.92-6.78-21.92l32.47-11.31
					c17.59-6.13,40.87-3.37,51.98,6.16v0C614.21,577.64,608.95,590.34,591.36,596.47z"/>
				
					<ellipse transform="matrix(1 -6.198520e-03 6.198520e-03 1 -3.4955 3.7981)" class="st9" cx="610.99" cy="565.82" rx="29.71" ry="16.18"/>
			</g>
		</g>
		<g>
			<path class="st6" d="M576.62,562.7v33.68c0,0-8.83,13.85-33.05,13.85s-33.05-13.85-33.05-13.85V562.7
				c0-18.25,14.8-33.05,33.05-33.05h0C561.82,529.65,576.62,544.45,576.62,562.7z"/>
			<circle class="st6" cx="543.57" cy="516.08" r="26.05"/>
		</g>
	</g>
	<g>
		<g>
			<g>
				<path class="st9" d="M455.69,667.14l-32.47,11.31c0,0-18.73,0.04-33.48-12.61c-14.75-12.65-6.78-21.92-6.78-21.92l32.47-11.31
					c17.59-6.13,40.87-3.37,51.98,6.16h0C478.54,648.31,473.29,661.01,455.69,667.14z"/>
				
					<ellipse transform="matrix(1 -6.198520e-03 6.198520e-03 1 -3.9361 2.9586)" class="st9" cx="475.33" cy="636.48" rx="29.71" ry="16.18"/>
			</g>
		</g>
		<g>
			<path class="st11" d="M440.95,633.37v33.68c0,0-8.83,13.85-33.05,13.85c-24.22,0-33.05-13.85-33.05-13.85v-33.68
				c0-18.25,14.8-33.05,33.05-33.05h0C426.16,600.32,440.95,615.12,440.95,633.37z"/>
			<circle class="st11" cx="407.9" cy="586.75" r="26.05"/>
		</g>
	</g>
	<polygon points="361.95,178.23 245.32,181.39 245.45,220.69 	"/>
	<line class="st3" x1="120.2" y1="249.81" x2="120.2" y2="267.81"/>
</g>
<g>
	<g>
		<path class="st9" d="M1896.74,574.6l271.12,99.86c17.68,6.49,37.09,6.47,54.75-0.05l289.53-106.97c9.34-3.45,9.33-25.17-0.02-28.6
			l-271.12-91.35c-17.68-6.49-37.09-6.47-54.75,0.05l-289.53,98.47C1887.38,549.45,1887.39,571.17,1896.74,574.6z"/>
		<path class="st4" d="M1896.74,565.27l271.12,99.86c17.68,6.49,37.09,6.47,54.75-0.05l289.53-106.97
			c9.34-3.45,9.33-16.67-0.02-20.1l-271.12-99.86c-17.68-6.49-37.09-6.47-54.75,0.05l-289.53,106.97
			C1887.38,548.62,1887.39,561.83,1896.74,565.27z"/>
	</g>
	<g>
		<g>
			<g>
				<path class="st9" d="M2037,562.46l-32.47,11.31c0,0-18.73,0.04-33.48-12.61c-14.75-12.65-6.78-21.92-6.78-21.92l32.47-11.31
					c17.59-6.13,40.87-3.37,51.98,6.16l0,0C2059.85,543.63,2054.59,556.33,2037,562.46z"/>
				
					<ellipse transform="matrix(1 -6.198520e-03 6.198520e-03 1 -3.2569 12.7583)" class="st9" cx="2056.64" cy="531.8" rx="29.71" ry="16.18"/>
			</g>
		</g>
		<g>
			<path class="st6" d="M2022.26,528.69v33.68c0,0-8.83,13.85-33.05,13.85c-24.22,0-33.05-13.85-33.05-13.85v-33.68
				c0-18.25,14.8-33.05,33.05-33.05l0,0C2007.46,495.64,2022.26,510.44,2022.26,528.69z"/>
			<circle class="st6" cx="1989.21" cy="482.07" r="26.05"/>
		</g>
	</g>
	<g>
		<g>
			<g>
				<path class="st9" d="M2169.5,607.04l-32.47,11.31c0,0-18.73,0.04-33.48-12.61c-14.75-12.65-6.78-21.92-6.78-21.92l32.47-11.31
					c17.59-6.13,40.87-3.37,51.98,6.16l0,0C2192.35,588.21,2187.09,600.91,2169.5,607.04z"/>
				
					<ellipse transform="matrix(1 -6.198520e-03 6.198520e-03 1 -3.5307 13.5805)" class="st9" cx="2189.14" cy="576.39" rx="29.71" ry="16.18"/>
			</g>
		</g>
		<g>
			<path class="st3" d="M2154.76,573.27v33.68c0,0-8.83,13.85-33.05,13.85s-33.05-13.85-33.05-13.85v-33.68
				c0-18.25,14.8-33.05,33.05-33.05l0,0C2139.96,540.22,2154.76,555.02,2154.76,573.27z"/>
			<circle class="st3" cx="2121.71" cy="526.65" r="26.05"/>
		</g>
	</g>
	<g>
		<g>
			<g>
				<path class="st9" d="M2302.17,527.71l-32.47,11.31c0,0-18.73,0.04-33.48-12.61c-14.75-12.65-6.78-21.92-6.78-21.92l32.47-11.31
					c17.59-6.13,40.87-3.37,51.98,6.16v0C2325.01,508.88,2319.76,521.58,2302.17,527.71z"/>
				
					<ellipse transform="matrix(1 -6.198520e-03 6.198520e-03 1 -3.0364 14.4013)" class="st9" cx="2321.8" cy="497.05" rx="29.71" ry="16.18"/>
			</g>
		</g>
		<g>
			<path class="st12" d="M2287.43,493.94v33.68c0,0-8.83,13.85-33.05,13.85c-24.22,0-33.05-13.85-33.05-13.85v-33.68
				c0-18.25,14.8-33.05,33.05-33.05l0,0C2272.63,460.89,2287.43,475.69,2287.43,493.94z"/>
			<circle class="st12" cx="2254.38" cy="447.32" r="26.05"/>
		</g>
	</g>
	<g>
		<g>
			<path class="st4" d="M1854.71,194.98l0.8,280.47c0.02,7.68,7.68,13,14.89,10.34l244.15-90.2c8.12-3,13.5-10.75,13.47-19.4
				l-0.8-280.47c-0.02-7.68-7.68-13-14.89-10.34l-244.15,90.2C1860.07,178.58,1854.69,186.33,1854.71,194.98z"/>
		</g>
		<g>
			<path class="st3" d="M1854.71,194.98l0.8,280.47c0.02,7.68,7.68,13,14.89,10.34l244.15-90.2c8.12-3,13.5-10.75,13.47-19.4
				l-0.8-280.47c-0.02-7.68-7.68-13-14.89-10.34l-244.15,90.2C1860.07,178.58,1854.69,186.33,1854.71,194.98z"/>
		</g>
		
			<ellipse transform="matrix(0.2255 -0.9742 0.9742 0.2255 1268.9441 2164.2363)" class="st9" cx="1995.68" cy="284.01" rx="123.94" ry="74.69"/>
		<path class="st11" d="M2051.74,174.91c-13.21-10.99-29.81-14.46-47.84-8.08c-43.05,15.23-77.95,80.74-77.95,146.33
			c0,42.01,14.32,73.86,35.93,87.33c12.13,7.56,26.54,9.32,42.02,3.85c43.05-15.23,77.95-80.74,77.95-146.33
			C2081.84,219.9,2070.06,190.16,2051.74,174.91z"/>
		<g>
			<g id="XMLID_2_">
				<g>
					<path class="st14" d="M2080.78,259.35c0,3.56-0.11,7.12-0.32,10.67l-0.17-0.01l-45.78-31.93l-17.54,26.67l25.26,15.95
						l-68.22,25.09l22.57-35.82l-23.01-14.21l-48.14,69.84l-0.19,0.01c-0.23-3.62-0.35-7.32-0.35-11.12
						c0-65.58,34.89-131.1,77.94-146.32c18.04-6.38,34.64-2.91,47.85,8.07C2069,191.5,2080.78,221.24,2080.78,259.35z
						 M2006.62,267.12l28.94-43.37l-16.18,5.91l1.1-39.1l-29.12,10.95l-1.27,38.46l-17.49,6.35L2006.62,267.12z"/>
					<path class="st15" d="M2080.3,270.01l0.17,0.01c-3.49,61.88-36.92,121.26-77.63,135.65c-15.47,5.47-29.89,3.7-42.02-3.85
						c-19.66-12.25-33.28-39.71-35.58-76.21l0.19-0.01l48.14-69.84l23.01,14.21l-22.57,35.82l68.22-25.09l-25.26-15.95l17.54-26.67
						L2080.3,270.01z"/>
					<polygon class="st15" points="2035.56,223.75 2006.62,267.12 1972.6,246.33 1990.09,239.98 1991.36,201.52 2020.48,190.56 
						2019.37,229.67 					"/>
				</g>
				<g>
					<path class="st5" d="M2080.47,270.02c0.21-3.55,0.32-7.11,0.32-10.67c0-38.11-11.79-67.85-30.1-83.11
						c-13.21-10.99-29.81-14.45-47.85-8.07c-43.05,15.23-77.94,80.74-77.94,146.32c0,3.8,0.12,7.5,0.35,11.12
						c2.29,36.49,15.92,63.96,35.58,76.21c12.13,7.56,26.55,9.32,42.02,3.85C2043.55,391.28,2076.97,331.9,2080.47,270.02z"/>
					<polyline class="st5" points="1925.43,325.61 1973.57,255.76 1996.59,269.97 1974.02,305.79 2042.24,280.7 2016.98,264.75 
						2034.52,238.09 2080.3,270.01 					"/>
					<polygon class="st5" points="1972.6,246.33 2006.62,267.12 2035.56,223.75 2019.37,229.67 2020.48,190.56 1991.36,201.52 
						1990.09,239.98 					"/>
				</g>
			</g>
			<path class="st8" d="M2028.03,344.48c-0.22-6.88-2.74-10.79-8.22-12.47c-0.02-0.01-0.03-0.01-0.04-0.02
				c-0.25-0.07-0.52-0.15-0.78-0.21c-0.01,0-0.02-0.01-0.03-0.01c-0.08-0.02-0.18-0.04-0.26-0.06c-0.06-0.01-0.14-0.02-0.2-0.04
				c-0.31-0.06-0.61-0.13-0.94-0.19c-0.07-0.01-0.15-0.03-0.23-0.04c-0.07-0.01-0.16-0.02-0.23-0.03c-0.44-0.07-0.89-0.14-1.37-0.19
				c-0.46-0.06-0.88-0.13-1.28-0.19c-0.04-0.01-0.07-0.01-0.12-0.02c-0.06-0.01-0.14-0.02-0.21-0.03c-0.29-0.05-0.58-0.1-0.84-0.16
				c-0.11-0.02-0.21-0.04-0.31-0.06c-0.27-0.05-0.53-0.11-0.77-0.17c-0.06-0.01-0.13-0.02-0.19-0.04c-0.31-0.07-0.59-0.15-0.85-0.23
				h-0.01c-2.42-0.73-3.29-1.74-3.35-3.42c-0.04-1.4,0.39-4.84,5.31-6.62c4.27-1.55,7.12-0.95,9.01-0.56l1.09,0.22l1.78-11.88
				l-0.44-0.13l-0.32-0.08c-0.14-0.04-0.28-0.06-0.42-0.09c-0.12-0.02-0.23-0.05-0.34-0.07c-0.04-0.01-0.08-0.01-0.12-0.02
				c-0.22-0.04-0.44-0.06-0.66-0.1c-0.12-0.01-0.23-0.03-0.34-0.04c-0.03-0.01-0.06-0.01-0.08-0.01c-0.02-0.01-0.04-0.01-0.06-0.01
				c-0.16-0.02-0.33-0.02-0.47-0.03c-0.18-0.01-0.36-0.02-0.55-0.02c-0.04,0-0.09-0.01-0.14-0.01c-0.17,0-0.34,0.01-0.51,0.01
				c-0.18,0-0.37,0-0.56,0.01c-0.06,0-0.14,0.01-0.2,0.01c-0.03,0-0.05,0-0.08,0c-0.07,0.01-0.16,0.02-0.24,0.03
				c-0.02,0-0.04,0-0.06,0c-0.22,0.02-0.44,0.04-0.66,0.06c-0.19,0.02-0.38,0.05-0.57,0.07c-0.12,0.02-0.23,0.03-0.34,0.05
				c-0.14,0.02-0.27,0.04-0.4,0.06c-0.21,0.04-0.42,0.08-0.63,0.13c-0.21,0.04-0.4,0.08-0.61,0.13c-0.04,0.01-0.07,0.02-0.12,0.03
				c-0.04,0.01-0.08,0.02-0.13,0.03c-0.18,0.04-0.35,0.1-0.53,0.14c-0.14,0.03-0.27,0.06-0.42,0.1l-0.26-7.99l-0.67,0.25l-6.64,2.39
				l-0.36,0.13l0.28,8.65c-0.17,0.12-0.34,0.23-0.51,0.35c-0.22,0.15-0.45,0.31-0.66,0.46c-0.06,0.04-0.14,0.09-0.2,0.14
				c-0.16,0.12-0.31,0.24-0.46,0.37c-0.19,0.15-0.38,0.29-0.57,0.45c-0.12,0.09-0.23,0.2-0.35,0.3c-0.2,0.17-0.4,0.35-0.6,0.53
				c-0.06,0.06-0.14,0.13-0.2,0.19c-0.15,0.15-0.29,0.29-0.44,0.44c-0.48,0.48-0.95,0.98-1.38,1.5c-0.07,0.08-0.16,0.17-0.23,0.26
				c-0.11,0.14-0.23,0.26-0.35,0.4c-0.61,0.78-1.17,1.61-1.67,2.45c-0.15,0.24-0.27,0.51-0.41,0.76c-0.04,0.07-0.07,0.14-0.12,0.2
				c-0.03,0.06-0.05,0.12-0.08,0.18c-0.13,0.23-0.26,0.46-0.38,0.7c-0.26,0.54-0.51,1.08-0.72,1.64c-0.21,0.52-0.39,1.03-0.55,1.57
				c-0.17,0.52-0.31,1.04-0.43,1.58c-0.08,0.35-0.15,0.69-0.21,1.05c-0.02,0.13-0.05,0.25-0.07,0.38c-0.01,0.02-0.01,0.04-0.01,0.06
				c-0.01,0.06-0.03,0.13-0.04,0.19c-0.02,0.17-0.03,0.35-0.06,0.53c0,0.03,0,0.07-0.01,0.11c-0.02,0.2-0.06,0.41-0.08,0.61
				c-0.01,0.12-0.01,0.23-0.02,0.35c-0.01,0.1-0.03,0.2-0.03,0.3c-0.02,0.2-0.02,0.41-0.03,0.61c-0.01,0.08-0.02,0.17-0.02,0.26
				c0,0.04,0,0.08,0,0.13c-0.01,0.43-0.01,0.86,0,1.31c0,0.03,0,0.06,0,0.09c0,0.01,0,0.01,0,0.01c0,0.01,0,0.02,0,0.03
				c0.01,0.24,0.03,0.48,0.04,0.72c0.01,0.14,0.01,0.28,0.02,0.41c0.02,0.19,0.04,0.37,0.06,0.55c0.01,0.05,0.01,0.11,0.02,0.16
				c0.01,0.14,0.02,0.26,0.04,0.39c0.03,0.22,0.07,0.43,0.12,0.64c0.02,0.13,0.04,0.26,0.06,0.4c0.05,0.21,0.11,0.42,0.16,0.62
				c0.03,0.12,0.05,0.24,0.08,0.35c0.06,0.21,0.13,0.4,0.19,0.59c0.04,0.12,0.07,0.23,0.11,0.34c0.07,0.18,0.15,0.35,0.22,0.53
				c0.05,0.11,0.09,0.22,0.14,0.34c0.08,0.17,0.17,0.33,0.25,0.48c0.06,0.11,0.11,0.22,0.17,0.32c0.09,0.16,0.19,0.31,0.29,0.46
				c0.06,0.09,0.12,0.19,0.18,0.28c0.1,0.15,0.21,0.28,0.32,0.41c0.08,0.09,0.15,0.2,0.22,0.28c0.12,0.14,0.24,0.25,0.36,0.38
				c0.08,0.08,0.16,0.18,0.24,0.26c0.13,0.13,0.26,0.23,0.4,0.35c0.08,0.08,0.17,0.17,0.26,0.24c0.14,0.12,0.28,0.21,0.43,0.32
				c0.03,0.02,0.06,0.05,0.08,0.06c0,0,0,0,0,0.01c0.07,0.04,0.14,0.09,0.21,0.15c0.15,0.11,0.32,0.19,0.47,0.28
				c0.07,0.05,0.15,0.1,0.22,0.15c0.03,0.01,0.06,0.03,0.09,0.05c0.17,0.1,0.35,0.18,0.52,0.26c0.12,0.05,0.22,0.12,0.34,0.17
				c0.29,0.14,0.6,0.26,0.91,0.38h0.01c1.9,0.73,3.97,1.06,5.95,1.23c1.44,0.13,2.61,0.33,3.57,0.62c0.56,0.17,1.03,0.38,1.44,0.61
				c0.02,0.02,0.05,0.03,0.07,0.04c0.18,0.12,0.36,0.23,0.51,0.37c0.01,0,0.03,0.01,0.04,0.02c0.16,0.14,0.31,0.28,0.43,0.44
				c0.02,0.02,0.04,0.05,0.06,0.07c0.11,0.14,0.19,0.27,0.27,0.42c0.02,0.03,0.04,0.07,0.06,0.11c0.09,0.18,0.17,0.36,0.24,0.56
				c0,0.02,0.01,0.05,0.02,0.07c0.05,0.18,0.09,0.36,0.13,0.55c0.01,0.06,0.02,0.12,0.02,0.17c0.04,0.22,0.06,0.45,0.07,0.69
				c0.09,3.21-2.19,6.05-5.97,7.41c-0.48,0.18-0.96,0.33-1.43,0.44c-0.08,0.02-0.16,0.05-0.24,0.07c-0.42,0.11-0.83,0.19-1.24,0.25
				c-0.13,0.02-0.25,0.04-0.38,0.06c-0.37,0.05-0.74,0.09-1.08,0.13c-0.16,0.01-0.31,0.02-0.45,0.03c-0.26,0.01-0.52,0.01-0.76,0.02
				c-0.22,0-0.44-0.01-0.66-0.01c-0.2-0.01-0.4-0.02-0.6-0.03c-0.19-0.02-0.39-0.03-0.58-0.05c-0.22-0.03-0.45-0.06-0.66-0.1
				c-0.14-0.02-0.26-0.04-0.39-0.06c-0.26-0.04-0.53-0.1-0.77-0.15c-0.08-0.02-0.17-0.04-0.25-0.06c-0.26-0.06-0.52-0.14-0.76-0.21
				c-0.27-0.08-0.53-0.16-0.75-0.24l-0.6-0.22l-1.85,12.32l0.39,0.15c0.22,0.09,0.46,0.18,0.72,0.25v-0.01
				c2.77,0.85,6.69,0.76,10.61-0.31l0.27,8.61l7.67-2.77l-0.29-9.26C2023.91,361.26,2028.3,353.13,2028.03,344.48z"/>
		</g>
	</g>
	<g>
		<g>
			<g>
				<polygon class="st4" points="2503.49,487.46 2451.98,506.49 2400.48,487.46 2451.98,468.43 				"/>
				<polygon class="st12" points="2503.49,549.14 2451.98,568.17 2451.98,506.49 2503.49,487.46 				"/>
				<polygon class="st16" points="2400.48,549.14 2451.98,568.17 2451.98,506.49 2400.48,487.46 				"/>
			</g>
		</g>
		<g>
			<g>
				<polygon class="st4" points="2426.23,508.9 2374.73,527.93 2323.22,508.9 2374.73,489.87 				"/>
				<polygon class="st12" points="2426.23,570.58 2374.73,589.61 2374.73,527.93 2426.23,508.9 				"/>
				<polygon class="st16" points="2323.22,570.58 2374.73,589.61 2374.73,527.93 2323.22,508.9 				"/>
			</g>
		</g>
		<g>
			<g>
				<polygon class="st4" points="2463,427.86 2435.44,455.79 2366.71,447.31 2394.27,419.38 				"/>
				<polygon class="st12" points="2463,489.54 2435.44,517.48 2435.44,455.79 2463,427.86 				"/>
				<polygon class="st16" points="2366.71,509 2435.44,517.48 2435.44,455.79 2366.71,447.31 				"/>
			</g>
		</g>
		<polygon class="st9" points="2426.23,570.58 2441.85,564.43 2441.85,510.99 2435.44,517.48 2426.23,516.34 		"/>
	</g>
	<g>
		<g>
			<path class="st11" d="M2275.3,275.68l241.86,21.64V166.21c0-7.07-5.52-13.09-12.58-13.72l-215.22-19.26
				c-7.63-0.68-14.06,5.17-14.06,12.82V275.68z"/>
			<g>
				<line class="st17" x1="2492.34" y1="161.24" x2="2506.78" y2="177.02"/>
				<line class="st17" x1="2506.78" y1="162.58" x2="2492.34" y2="175.69"/>
			</g>
			<path class="st9" d="M2487.52,182.41l-211.65-17.94V278l224.18,17.91V195.36C2500.06,188.69,2494.55,183,2487.52,182.41z"/>
			<path class="st7" d="M2228.16,324.67l241.86,21.64V215.2c0-7.07-5.52-13.09-12.58-13.72l-215.22-19.26
				c-7.63-0.68-14.06,5.17-14.06,12.82V324.67z"/>
			<path class="st9" d="M2440.38,231.39l-211.65-17.94v114.41l224.18,16.68v-100.2C2452.92,237.67,2447.41,231.99,2440.38,231.39z"
				/>
			<g>
				<path class="st6" d="M2180.71,368.79l241.86,21.64V259.32c0-7.07-5.52-13.09-12.58-13.72l-215.22-19.26
					c-7.63-0.68-14.06,5.17-14.06,12.82V368.79z"/>
				<g>
					<polygon class="st8" points="2202.8,342.16 2269.32,348.12 2269.32,263.42 2202.8,257.47 					"/>
				</g>
				<pattern  id="SVGID_3_" xlink:href="#SVGID_2_" patternTransform="matrix(1.0534 0 0 1.0534 423.4418 418.4565)">
				</pattern>
				<polygon class="st18" points="2202.8,342.16 2269.32,348.12 2269.32,263.42 2202.8,257.47 				"/>
				<line class="st4" x1="2401.22" y1="276.07" x2="2286.26" y2="265.92"/>
				<line class="st4" x1="2401.22" y1="292.68" x2="2286.26" y2="282.52"/>
				<line class="st4" x1="2401.22" y1="309.28" x2="2286.26" y2="299.13"/>
				<line class="st4" x1="2401.22" y1="325.89" x2="2286.26" y2="315.73"/>
				<line class="st4" x1="2401.22" y1="342.49" x2="2286.26" y2="332.34"/>
				<line class="st4" x1="2355.76" y1="355.08" x2="2286.26" y2="348.94"/>
			</g>
		</g>
		<g>
			<line class="st17" x1="2443.44" y1="208.37" x2="2457.89" y2="224.15"/>
			<line class="st17" x1="2457.89" y1="209.7" x2="2443.44" y2="222.81"/>
		</g>
	</g>
</g>
</svg>
