<svg xmlns="http://www.w3.org/2000/svg" xmlns:xlink="http://www.w3.org/1999/xlink" viewBox="0 0 1000 1000"><defs><style>.cls-1,.cls-11,.cls-2{fill:none;}.cls-10,.cls-11,.cls-12,.cls-13,.cls-14,.cls-15,.cls-16,.cls-2,.cls-3,.cls-4,.cls-5,.cls-6,.cls-7,.cls-8,.cls-9{stroke:#000;stroke-linejoin:round;}.cls-12,.cls-16,.cls-2{stroke-linecap:round;}.cls-2{stroke-width:1.7px;}.cls-3{fill:#ffdcc5;}.cls-10,.cls-11,.cls-12,.cls-13,.cls-14,.cls-15,.cls-16,.cls-3,.cls-4,.cls-5,.cls-6,.cls-7,.cls-8,.cls-9{stroke-width:2px;}.cls-4{fill:#ff7be5;}.cls-5{fill:#ff7a3f;}.cls-7{fill:#ffa6ac;}.cls-8{fill:#ffe1f9;}.cls-16,.cls-9{fill:#fff;}.cls-10{fill:#ffbc7d;}.cls-12{fill:url(#PATTERN_3);}.cls-13{fill:#ba0984;}.cls-14{fill:red;}.cls-15{fill:#92003b;}</style><pattern id="PATTERN_3" data-name="PATTERN 3" width="51" height="62" patternTransform="translate(-292.33 -1469.55) scale(1.63)" patternUnits="userSpaceOnUse" viewBox="0 0 51 62"><rect class="cls-1" width="51" height="62"/><path class="cls-2" d="M25.78,62.81l-1,1.93"/><path class="cls-2" d="M30.55,62.43a7.76,7.76,0,0,0,3.59,2.29"/><path class="cls-2" d="M39.81,62a11.59,11.59,0,0,1-2.57,2"/><path class="cls-2" d="M49.21,64.6l.57-2.26"/><path class="cls-2" d="M3.35,61.4v1.17l.49,0"/><path class="cls-2" d="M44,61.7a4.47,4.47,0,0,0,1.14,1.51"/><path class="cls-2" d="M-2,10.23a2.47,2.47,0,0,0,2,1.12"/><path class="cls-2" d="M-3.24,36.64c.48,1.46,2.81,1.56,3.33,3"/><path class="cls-2" d="M25.78.81l-1,1.93"/><path class="cls-2" d="M30.55.43a7.76,7.76,0,0,0,3.59,2.29"/><path class="cls-2" d="M39.81,0a11.59,11.59,0,0,1-2.57,2"/><path class="cls-2" d="M12.59,58a4.47,4.47,0,0,1,.32,2.5,1.39,1.39,0,0,0,.74-.82"/><path class="cls-2" d="M48.64,16.68A5.3,5.3,0,0,1,46.7,19c-.14.09-.41.11-.4-.06"/><path class="cls-2" d="M41.62,15.15a7.84,7.84,0,0,1-2.39,2c-.19.11-.51.14-.54-.08a1,1,0,0,1,.85-.7"/><path class="cls-2" d="M49,10.23a2.47,2.47,0,0,0,2,1.12"/><path class="cls-2" d="M46,13.48c-.08.24-.44.12-.63-.05l-2-1.75"/><path class="cls-2" d="M47.72,6.17a3.18,3.18,0,0,1-1.57,1.28V7"/><path class="cls-2" d="M49.21,2.6,49.78.34"/><path class="cls-2" d="M42.52,20,42,22.68"/><path class="cls-2" d="M47.32,47.36a7.51,7.51,0,0,0,2.08.54"/><path class="cls-2" d="M7.85,12.44A7.79,7.79,0,0,0,9.93,13"/><path class="cls-2" d="M46.27,26.91a21.14,21.14,0,0,1-1.09,2"/><path class="cls-2" d="M37.72,25.72a11.2,11.2,0,0,0,3.85,1.83"/><path class="cls-2" d="M9.92,53.39a11.06,11.06,0,0,0,3.63-2.23"/><path class="cls-2" d="M34.44,19.8a11,11,0,0,1,2.62,2.13"/><path class="cls-2" d="M38.88,10.1A1.88,1.88,0,0,1,37,11.77"/><path class="cls-2" d="M40.83,4.5l.36,2.7a1.08,1.08,0,0,0,.23.66.39.39,0,0,0,.6,0"/><path class="cls-2" d="M37,7.54,33.51,8.77"/><path class="cls-2" d="M28.62,4.81a3.43,3.43,0,0,0,2.54,1.93"/><path class="cls-2" d="M34.19,15.51a5.75,5.75,0,0,1-3.76,1.35"/><path class="cls-2" d="M28.85,11.49a3.34,3.34,0,0,0,2,1.79"/><path class="cls-2" d="M25.08,8.78a11.7,11.7,0,0,1-.83,1.71c-.24.6-.13,1.45.48,1.63"/><path class="cls-2" d="M25,16.77a2.32,2.32,0,0,0,1.92,2.92v-.56"/><path class="cls-2" d="M30.81,22.47c.09-.06-.06-.2-.15-.15a.35.35,0,0,0-.1.3l0,1.1"/><path class="cls-2" d="M2,57.06c.09-.06-.05-.21-.15-.15a.3.3,0,0,0-.09.29v1.11"/><path class="cls-2" d="M33.46,24.93a2.1,2.1,0,0,1-1,2.52"/><path class="cls-2" d="M36.11,30a11.1,11.1,0,0,0,2.4,2"/><path class="cls-2" d="M41.89,31.88A12,12,0,0,0,42,34.69"/><path class="cls-2" d="M45.56,32.8a3.24,3.24,0,0,0,1.76.32"/><path class="cls-2" d="M35.85,34.88a2.18,2.18,0,0,1,1.28,2.94"/><path class="cls-2" d="M32.53,31.76A14.36,14.36,0,0,1,28,34.45"/><path class="cls-2" d="M27.86,26.41a19.35,19.35,0,0,1,.81,3.36.8.8,0,0,1-.43-.58"/><path class="cls-2" d="M24.16,23.33l-1.39.77"/><path class="cls-2" d="M22.43,30l1.92-.06"/><path class="cls-2" d="M33.1,37.4,32,38.67a.36.36,0,0,1-.28.16c-.11,0-.16-.19-.06-.22"/><path class="cls-2" d="M23.12,34.93c-.28,1.3,1,2.69,2.66,2.93"/><path class="cls-2" d="M21.86,14.72A8.5,8.5,0,0,1,21,16.36"/><path class="cls-2" d="M21.59,20.79a4.78,4.78,0,0,1-1.54,1"/><path class="cls-2" d="M20.15,9A21.37,21.37,0,0,0,18,10.41l1-.95"/><path class="cls-2" d="M20,4.25a13,13,0,0,0,1.88,1.51.24.24,0,0,0,.18,0c.06,0,.07-.13,0-.14"/><path class="cls-2" d="M16,2.86a5.31,5.31,0,0,1-1,3"/><path class="cls-2" d="M12.6,2a2.75,2.75,0,0,0-1.17.19"/><path class="cls-2" d="M13.17,10.06a3.92,3.92,0,0,1-.23,2,1.83,1.83,0,0,0,.31,1.86"/><path class="cls-2" d="M17.21,15.11a3.49,3.49,0,0,1-1.39,2.06c-.07,0-.14.08-.21,0s-.07-.16,0-.15"/><path class="cls-2" d="M14.42,21.44A3.86,3.86,0,0,0,16.21,24"/><path class="cls-2" d="M4.05,53.33A5.18,5.18,0,0,0,7.37,56"/><path class="cls-2" d="M19.51,27.63a5.49,5.49,0,0,1-1.11,1.84,1.11,1.11,0,0,1-.49.37c-.32.1-.79,0-.87.35"/><path class="cls-2" d="M11.38,26.66a5.81,5.81,0,0,0,2.34,2.77,3.09,3.09,0,0,0-.31-.93"/><path class="cls-2" d="M10.13,17.54a7.07,7.07,0,0,0-1.6,1.85L8.59,19"/><path class="cls-2" d="M11.22,5.93a2.5,2.5,0,0,0-.86.82c0,.08-.09.17,0,.25s.18.09.19,0"/><path class="cls-2" d="M3.35-.6V.57l.49,0"/><path class="cls-2" d="M15.94,40.93c.08.51-.56,1-.33,1.47a.92.92,0,0,0,.24.28l1,.88"/><path class="cls-2" d="M20.46,42.17a4.47,4.47,0,0,1,3.08-.73"/><path class="cls-2" d="M12.51,33.56,12.44,36"/><path class="cls-2" d="M16.31,34.36c.65,1.12,2.15,1.63,2.6,2.85"/><path class="cls-2" d="M14.51,47.08a3,3,0,0,0,1.55.72c.49.07,1.11.11,1.26.58"/><path class="cls-2" d="M24,45.8,22.2,47.42"/><path class="cls-2" d="M28.82,42.35A2.24,2.24,0,0,1,29,44.09a1,1,0,0,0-.08.69c.14.33.67.51.55.84"/><path class="cls-2" d="M26,49.65l-.92,1.78c-.09.17-.06.5.12.44"/><path class="cls-2" d="M22,50.91a3.35,3.35,0,0,1-1.18,1.81"/><path class="cls-2" d="M16.91,53.54a1.6,1.6,0,0,0-.08,1l.47,3.15"/><path class="cls-2" d="M5.93,43.39a1.45,1.45,0,0,0,.64,1.06c.39.19,1-.05,1-.48"/><path class="cls-2" d="M22,60.06a10.09,10.09,0,0,1-2.26,1.58"/><path class="cls-2" d="M44-.3a4.47,4.47,0,0,0,1.14,1.51"/><path class="cls-2" d="M12.11,39.48a14.37,14.37,0,0,0-3.33.28"/><path class="cls-2" d="M8.87,31.36a1.64,1.64,0,0,1-.37,1c-.18.32-.29.79,0,1"/><path class="cls-2" d="M5.07,37.86a2,2,0,0,1-1.37,1"/><path class="cls-2" d="M2,42.28a10.1,10.1,0,0,0-1,1.14"/><path class="cls-2" d="M2.91,47.51l-.59,1.64c-.07.18-.07.48.13.49"/><path class="cls-2" d="M6.51,6.11a1.38,1.38,0,0,1-.8,1.82"/><path class="cls-2" d="M4.13,12.35a12.73,12.73,0,0,0-.14,3"/><path class="cls-2" d="M1.09,17.83a2.79,2.79,0,0,0,2.39,2.24"/><path class="cls-2" d="M4.43,23.52A5,5,0,0,1,2,25"/><path class="cls-2" d="M10.3,23.31,8.82,24.79"/><path class="cls-2" d="M5.88,27.86a2.26,2.26,0,0,1-.17,1.78"/><path class="cls-2" d="M1.61,28.77a7.14,7.14,0,0,1-2.79.29"/><path class="cls-2" d="M1.43,33.25l1.91.6a.35.35,0,0,1,.24.16c0,.09-.05.23-.14.18"/><path class="cls-2" d="M1.38,4.59a2.24,2.24,0,0,1,.4,2.14"/><path class="cls-2" d="M34,43.62c1-.17,2-.38,3-.6.36-.09.7-.42.32-.47"/><path class="cls-2" d="M36.6,48.26a3.57,3.57,0,0,0,1.28,1.86"/><path class="cls-2" d="M32.05,49.17a3.54,3.54,0,0,1-2.39,3.11"/><path class="cls-2" d="M34.75,54.13a12.35,12.35,0,0,1-2.85,1.62"/><path class="cls-2" d="M41.72,42a5.86,5.86,0,0,1-.44,2.58c-.1.29-.76,1.95-.59,1.26"/><path class="cls-2" d="M40.83,37.78a10.68,10.68,0,0,1,3.05.72"/><path class="cls-2" d="M46.32,41.7A5.35,5.35,0,0,1,47,43.88"/><path class="cls-2" d="M47.76,36.64c.48,1.46,2.81,1.56,3.33,3"/><path class="cls-2" d="M44.28,48.83c.26.5-.28,1-.75,1.33A2.78,2.78,0,0,0,42,52.28"/><path class="cls-2" d="M11,45c.39.76-.44,1.55-1.14,2-1.15.77-2.35,1.83-2.32,3.22"/><path class="cls-2" d="M39.71,55.22a15.21,15.21,0,0,0,2.94,3"/><path class="cls-2" d="M28.76,59.15,27,59.33"/><path class="cls-2" d="M36.21,58.16a6.07,6.07,0,0,0-1.88,2"/><path class="cls-2" d="M26.26,55.21,24.5,56.56c-.22.17-.61.28-.69,0"/><path class="cls-2" d="M45.84,55.77a4.43,4.43,0,0,1,1.6,3.73"/><path class="cls-2" d="M49,51.27c0,.73,0,1.46,0,2.19a1.2,1.2,0,0,0,.22.77c.19.2.58.21.68,0"/><path class="cls-2" d="M49.42,22.15a8.91,8.91,0,0,0-2.12,1.16l.69,0"/><path class="cls-2" d="M9.47,59.77a6.51,6.51,0,0,1-1.74.79"/><path class="cls-2" d="M52.61,28.77a7.14,7.14,0,0,1-2.79.29"/><path class="cls-2" d="M22-1.94A10.09,10.09,0,0,1,19.69-.36"/></pattern></defs><title>Restrict for Elementor White Label</title><g id="Layer_3" data-name="Layer 3"><polygon class="cls-3" points="559.26 464.51 500 486.41 440.74 464.51 500 442.62 559.26 464.51"/><polygon class="cls-4" points="559.26 535.49 500 557.38 500 486.41 559.26 464.51 559.26 535.49"/><polygon class="cls-5" points="440.74 535.49 500 557.38 500 486.41 440.74 464.51 440.74 535.49"/><polygon class="cls-3" points="555.4 453.32 523.69 485.46 444.6 475.7 476.31 443.56 555.4 453.32"/><polygon class="cls-4" points="555.4 524.3 523.69 556.44 523.69 485.46 555.4 453.32 555.4 524.3"/><polygon class="cls-5" points="444.6 546.68 523.69 556.44 523.69 485.46 444.6 475.7 444.6 546.68"/><polygon class="cls-3" points="559.26 464.51 500 486.41 440.74 464.51 500 442.62 559.26 464.51"/><polygon class="cls-4" points="559.26 535.49 500 557.38 500 486.41 559.26 464.51 559.26 535.49"/><polygon class="cls-5" points="440.74 535.49 500 557.38 500 486.41 440.74 464.51 440.74 535.49"/><path class="cls-6" d="M64.15,678.66l437.51-146a132.94,132.94,0,0,1,91.92-.09L926,640.19c15.7,5.76,15.72,35.17,0,41L438.9,862.58c-29.66,10.95-60.88,11.21-90.55.31L63.64,755.63l0-10.37"/><path class="cls-7" d="M65.13,746,348.5,852.42a133,133,0,0,0,91.92-.09l486.1-179.6c15.68-5.79,15.66-28,0-33.75L594.1,517.11a133,133,0,0,0-91.92.09L64.68,678.85Z"/><path class="cls-8" d="M63.67,745.26,348.5,852.42a133,133,0,0,0,91.92-.09l486.1-179.6c15.68-5.79,15.66-28,0-33.75L594.1,517.11a133,133,0,0,0-91.92.09L64.68,678.85Z"/><polygon class="cls-9" points="61.88 387.52 63.72 740.61 633.68 530.03 631.84 176.94 61.88 387.52"/><path class="cls-10" d="M631.69,149.11a20.13,20.13,0,0,0-27.1-18.78L89,320.82a41.74,41.74,0,0,0-27.29,39.39l.14,27.31,570-210.58Z"/><polygon class="cls-11" points="86.97 398.4 86.97 629.28 323.78 541.6 323.35 312.41 86.97 398.4"/><polygon class="cls-12" points="86.97 398.4 86.97 629.28 323.78 541.6 323.35 312.41 86.97 398.4"/><polygon class="cls-11" points="86.97 646.86 86.97 712.3 323.78 623.34 323.35 560.86 86.97 646.86"/><polygon class="cls-11" points="338.91 307.87 338.91 373.31 613.8 270.52 613.96 207.77 338.91 307.87"/><polygon class="cls-12" points="338.91 389.84 338.91 455.28 613.8 352.49 613.96 289.74 338.91 389.84"/><polygon class="cls-12" points="338.91 471.81 338.91 537.25 613.8 434.46 613.96 371.71 338.91 471.81"/><polygon class="cls-12" points="338.91 553.78 338.91 619.22 613.8 516.43 613.96 453.68 338.91 553.78"/><line class="cls-11" x1="323.35" y1="560.86" x2="86.97" y2="712.3"/><line class="cls-11" x1="86.97" y1="646.86" x2="323.78" y2="623.34"/><ellipse class="cls-9" cx="139.38" cy="436.94" rx="53.56" ry="37.16" transform="translate(-311.88 355.05) rotate(-62.02)"/><line class="cls-9" x1="165.71" y1="391.92" x2="117.18" y2="486.18"/><path class="cls-6" d="M405.81,751.11l-44.42,15.48s-25.62,0-45.8-17.26-9.26-30-9.26-30l44.41-15.48c24.07-8.39,55.91-4.61,71.12,8.43h0C437.07,725.35,429.88,742.72,405.81,751.11Z"/><ellipse class="cls-6" cx="432.67" cy="709.17" rx="40.64" ry="22.14" transform="translate(-4.39 2.7) rotate(-0.36)"/><path class="cls-13" d="M385.65,704.91V751s-12.08,18.94-45.22,18.94S295.22,751,295.22,751V704.91a45.22,45.22,0,0,1,45.21-45.22h0A45.23,45.23,0,0,1,385.65,704.91Z"/><circle class="cls-13" cx="340.43" cy="641.13" r="35.64"/><path class="cls-6" d="M658.61,741.21l-44.42,15.48s-25.62.06-45.8-17.25-9.27-30-9.27-30L603.54,694c24.07-8.39,55.91-4.62,71.12,8.43h0C689.86,715.45,682.68,732.83,658.61,741.21Z"/><ellipse class="cls-6" cx="685.47" cy="699.27" rx="40.64" ry="22.14" transform="translate(-4.32 4.26) rotate(-0.36)"/><path class="cls-3" d="M638.44,695v46.08S626.36,760,593.23,760,548,741.09,548,741.09V695a45.21,45.21,0,0,1,45.21-45.21h0A45.21,45.21,0,0,1,638.44,695Z"/><circle class="cls-3" cx="593.23" cy="631.23" r="35.64"/><line class="cls-14" x1="613.96" y1="207.77" x2="338.91" y2="373.31"/><line class="cls-14" x1="338.91" y1="307.87" x2="613.8" y2="270.52"/><polygon class="cls-10" points="526.48 269.72 545.07 276.67 767.56 194.02 748.97 187.07 526.48 269.72"/><polygon class="cls-5" points="526.48 440.54 545.07 447.48 545.07 276.67 526.48 269.72 526.48 440.54"/><polygon class="cls-15" points="767.56 364.83 545.07 447.48 545.07 276.67 767.56 194.02 767.56 364.83"/><polygon class="cls-9" points="556.6 285.74 556.6 399.12 672.89 356.07 672.68 243.51 556.6 285.74"/><line class="cls-16" x1="683.01" y1="242.3" x2="753.36" y2="216.3"/><line class="cls-16" x1="683.01" y1="257.95" x2="753.36" y2="231.95"/><line class="cls-16" x1="683.01" y1="273.6" x2="753.36" y2="247.6"/><line class="cls-16" x1="683.01" y1="289.24" x2="753.36" y2="263.24"/><line class="cls-16" x1="683.01" y1="304.89" x2="753.36" y2="278.89"/><line class="cls-16" x1="683.01" y1="320.54" x2="753.36" y2="294.54"/><line class="cls-16" x1="683.01" y1="336.18" x2="753.36" y2="310.18"/><line class="cls-16" x1="683.01" y1="351.83" x2="753.36" y2="325.83"/><path class="cls-3" d="M617.69,274.66c-16.63,5.89-30.11,31.2-30.11,56.54,0,16.23,5.53,28.53,13.88,33.74l34.72-87.15A18.21,18.21,0,0,0,617.69,274.66Z"/><path class="cls-5" d="M636.18,277.79l-34.72,87.15a18.18,18.18,0,0,0,16.23,1.48c16.64-5.88,30.12-31.19,30.12-56.53C647.81,295.17,643.26,283.68,636.18,277.79Z"/><polygon class="cls-6" points="856.79 659.88 912.76 634.35 850.11 613.49 856.79 659.88"/><polygon class="cls-3" points="778.51 577.65 719.24 599.55 659.98 577.65 719.24 555.76 778.51 577.65"/><polygon class="cls-4" points="778.51 648.63 719.24 670.52 719.24 599.55 778.51 577.65 778.51 648.63"/><polygon class="cls-5" points="659.98 648.63 719.24 670.52 719.24 599.55 659.98 577.65 659.98 648.63"/><polygon class="cls-3" points="864.24 589.04 832.53 621.18 753.44 611.42 785.15 579.28 864.24 589.04"/><polygon class="cls-4" points="864.24 660.01 832.53 692.15 832.53 621.18 864.24 589.04 864.24 660.01"/><polygon class="cls-5" points="753.44 682.4 832.53 692.15 832.53 621.18 753.44 611.42 753.44 682.4"/><polygon class="cls-3" points="817.2 526.08 757.94 547.98 698.68 526.08 757.94 504.18 817.2 526.08"/><polygon class="cls-4" points="817.2 597.06 757.94 618.95 757.94 547.98 817.2 526.08 817.2 597.06"/><polygon class="cls-5" points="698.68 597.06 757.94 618.95 757.94 547.98 698.68 526.08 698.68 597.06"/></g></svg>