<svg xmlns="http://www.w3.org/2000/svg" viewBox="0 0 1000 1000"><defs><style>.cls-1{fill:#ffe1f9;}.cls-1,.cls-2,.cls-3,.cls-4,.cls-5,.cls-6,.cls-7,.cls-8,.cls-9{stroke:#000;stroke-linejoin:round;stroke-width:2px;}.cls-2{fill:#ff7a3f;}.cls-3{fill:#fff;}.cls-4{fill:none;}.cls-5{fill:#9ceff3;}.cls-6{fill:#ffa6ac;}.cls-8{fill:#92003b;}.cls-9{fill:#ff3700;}</style></defs><title>Restrict for Elementor WooCommerce Integration</title><g id="Layer_3" data-name="Layer 3"><polygon class="cls-1" points="100.13 437.96 101.31 665.25 464.11 529.69 462.93 302.4 100.13 437.96"/><path class="cls-2" d="M462.84,284.49a12.83,12.83,0,0,0-17.25-12.09L117.41,395A26.86,26.86,0,0,0,100,420.37l.09,17.59L462.93,302.4Z"/><polygon class="cls-3" points="117.68 450.67 118.46 600.49 356.35 512.65 356.83 361.32 117.68 450.67"/><line class="cls-4" x1="451.19" y1="282.48" x2="436.34" y2="302.75"/><line class="cls-4" x1="436.34" y1="287.73" x2="451.19" y2="297.5"/><line class="cls-2" x1="367.37" y1="360.18" x2="455.54" y2="327.23"/><line class="cls-2" x1="367.37" y1="376.36" x2="455.54" y2="343.41"/><line class="cls-2" x1="367.37" y1="392.55" x2="455.54" y2="359.59"/><line class="cls-2" x1="367.37" y1="408.73" x2="455.54" y2="375.78"/><line class="cls-2" x1="367.37" y1="424.91" x2="455.54" y2="391.96"/><line class="cls-2" x1="367.37" y1="441.09" x2="455.54" y2="408.14"/><line class="cls-2" x1="367.37" y1="457.27" x2="455.54" y2="424.32"/><line class="cls-2" x1="367.37" y1="473.45" x2="455.54" y2="440.5"/><line class="cls-2" x1="367.37" y1="489.63" x2="455.54" y2="456.68"/><line class="cls-2" x1="367.37" y1="505.81" x2="455.54" y2="472.86"/><polygon class="cls-5" points="698.46 380.52 899.96 454.96 899.96 269.11 698.46 194.66 698.46 380.52"/><line class="cls-6" x1="698.45" y1="194.66" x2="899.96" y2="454.97"/><line class="cls-6" x1="899.96" y1="269.11" x2="698.45" y2="380.52"/><path class="cls-7" d="M724.58,341.63l126.89,46.88A21.79,21.79,0,0,1,865.71,409l-.84,33-61.12-23"/><path class="cls-7" d="M880.82,690.45,583.34,800a86.91,86.91,0,0,1-60.07-.06L205.58,682.58c-10.25-3.79-10.23-27.62,0-31.38L503.08,551a86.94,86.94,0,0,1,60.08.06l317.68,108C891.09,662.85,891.08,686.68,880.82,690.45Z"/><path class="cls-2" d="M880.82,680.2,583.34,789.77a86.91,86.91,0,0,1-60.07-.06L205.58,672.34a11.75,11.75,0,0,1,0-22.05L503.08,540.72a86.94,86.94,0,0,1,60.08.06L880.84,658.15A11.75,11.75,0,0,1,880.82,680.2Z"/><line class="cls-3" x1="768.12" y1="498.48" x2="768.12" y2="665.24"/><line class="cls-3" x1="532.99" y1="416.02" x2="532.99" y2="582.79"/><path class="cls-2" d="M496.82,288.34l39.17-14v0a11.6,11.6,0,0,1,7.77.11l258,95.32A21.79,21.79,0,0,1,816,390.27l-.84,96.5a11.69,11.69,0,0,1-9.94,11.52l-37.37,13.39.45-25.49L541.42,402.37a21.8,21.8,0,0,1-14.24-20.5L528,317.5Z"/><path class="cls-8" d="M776.83,404.28l-.85,96.5a11.67,11.67,0,0,1-15.73,10.92l-258-95.32A21.79,21.79,0,0,1,488,395.88l.84-96.5a11.68,11.68,0,0,1,15.73-10.92l258,95.32A21.8,21.8,0,0,1,776.83,404.28Z"/><path class="cls-3" d="M564.17,419.39l-5.73-38.2q-3.08-21.75-4.46-35.46l-.21-.08q-1.44,14.16-4.44,32.11l-5.59,33.94-28.29-10.63-14.75-95L521,313.76l4.57,33.61Q528,365,530.07,385.22l.21.08q1.86-17,4.86-34.34L540.31,321l26.94,10.12,5.3,33.89q3,18.57,5.1,38.09l.21.08q1.74-17.43,4.22-34.58l4.55-30.19,20.23,7.6-14.39,84Z"/><path class="cls-3" d="M665.91,371.93a61.1,61.1,0,0,1,12.92,21.12,76.18,76.18,0,0,1,4.56,26.45q0,14.21-4.46,23.07T666.07,454q-8.37,2.56-19.58-1.64a51.49,51.49,0,0,1-19.56-13.07,61.2,61.2,0,0,1-12.86-21.1,76.14,76.14,0,0,1-4.56-26.45q0-14.21,4.46-23.06t12.8-11.45q8.33-2.6,19.54,1.63A51.78,51.78,0,0,1,665.91,371.93Zm-30.55,10.74q-3.87,5.15-3.84,17.33t3.91,20.25q3.89,8.06,11,10.73t11.09-2.42q3.87-5.15,3.84-17.33T657.47,391q-3.9-8.07-11.12-10.78T635.36,382.67Z"/><path class="cls-3" d="M745.63,401.9A61.4,61.4,0,0,1,758.55,423a76.18,76.18,0,0,1,4.55,26.45q0,14.2-4.45,23.07T745.79,484q-8.38,2.57-19.59-1.64a51.46,51.46,0,0,1-19.55-13.07,61.38,61.38,0,0,1-12.87-21.1,75.91,75.91,0,0,1-4.55-26.45q0-14.2,4.45-23.06t12.81-11.45q8.32-2.6,19.53,1.63A51.81,51.81,0,0,1,745.63,401.9Zm-30.56,10.74q-3.87,5.14-3.84,17.33t3.92,20.25q3.89,8.05,11,10.73t11.1-2.42q3.86-5.14,3.84-17.33T737.18,421q-3.88-8.07-11.12-10.78T715.07,412.64Z"/><polyline class="cls-4" points="847.47 435.57 847.47 530.33 741.1 574.07 741.1 655.13"/><polygon class="cls-5" points="698.46 380.52 899.96 454.96 899.96 269.11 698.46 194.66 698.46 380.52"/><line class="cls-6" x1="698.45" y1="194.66" x2="899.96" y2="454.97"/><line class="cls-6" x1="899.96" y1="269.11" x2="698.45" y2="380.52"/><path class="cls-7" d="M676.87,689.2l-44.42,15.48s-25.62.05-45.8-17.26-9.27-30-9.27-30L621.8,642c24.07-8.38,55.91-4.61,71.12,8.44h0C708.12,663.44,700.94,680.81,676.87,689.2Z"/><ellipse class="cls-7" cx="703.73" cy="647.26" rx="40.64" ry="22.14" transform="translate(-4 4.37) rotate(-0.36)"/><path class="cls-5" d="M656.7,643v46.08S644.62,708,611.49,708s-45.21-18.94-45.21-18.94V643a45.21,45.21,0,0,1,45.21-45.21h0A45.21,45.21,0,0,1,656.7,643Z"/><circle class="cls-5" cx="611.49" cy="579.22" r="35.64"/><path class="cls-7" d="M432.86,682.42,388.44,697.9s-25.61.06-45.79-17.25-9.27-30-9.27-30l44.42-15.47c24.07-8.39,55.91-4.62,71.11,8.43h0C464.12,656.66,456.93,674,432.86,682.42Z"/><ellipse class="cls-7" cx="459.72" cy="640.48" rx="40.64" ry="22.14" transform="translate(-3.96 2.86) rotate(-0.36)"/><path class="cls-9" d="M412.7,636.22V682.3s-12.08,19-45.22,19-45.21-19-45.21-19V636.22A45.22,45.22,0,0,1,367.49,591h0A45.21,45.21,0,0,1,412.7,636.22Z"/><circle class="cls-9" cx="367.49" cy="572.44" r="35.64"/></g></svg>